<?xml version="1.0" encoding="UTF-8"?>
<svg id="Layer_1" xmlns="http://www.w3.org/2000/svg" xmlns:xlink="http://www.w3.org/1999/xlink" version="1.1" viewBox="0 0 432 515">
  <!-- Generator: Adobe Illustrator 29.3.1, SVG Export Plug-In . SVG Version: 2.1.0 Build 151)  -->
  <defs>
    <style>
      .st0 {
        fill: none;
      }

      .st1 {
        fill: #231f20;
      }

      .st2, .st3 {
        fill: #43a047;
      }

      .st2, .st4, .st5, .st6 {
        stroke: #fff;
        stroke-width: .7px;
      }

      .st7, .st5 {
        fill: #fdd835;
      }

      .st8, .st6 {
        fill: #e64a19;
      }

      .st9 {
        fill: #dcff1f;
      }

      .st10 {
        clip-path: url(#clippath-17);
      }

      .st11 {
        clip-path: url(#clippath-19);
      }

      .st12 {
        clip-path: url(#clippath-11);
      }

      .st13 {
        clip-path: url(#clippath-16);
      }

      .st14 {
        clip-path: url(#clippath-18);
      }

      .st15 {
        clip-path: url(#clippath-10);
      }

      .st16 {
        clip-path: url(#clippath-15);
      }

      .st17 {
        clip-path: url(#clippath-13);
      }

      .st18 {
        clip-path: url(#clippath-14);
      }

      .st19 {
        clip-path: url(#clippath-12);
      }

      .st20 {
        clip-path: url(#clippath-61);
      }

      .st21 {
        clip-path: url(#clippath-67);
      }

      .st22 {
        clip-path: url(#clippath-68);
      }

      .st23 {
        clip-path: url(#clippath-60);
      }

      .st24 {
        clip-path: url(#clippath-65);
      }

      .st25 {
        clip-path: url(#clippath-62);
      }

      .st26 {
        clip-path: url(#clippath-64);
      }

      .st27 {
        clip-path: url(#clippath-66);
      }

      .st28 {
        clip-path: url(#clippath-63);
      }

      .st29 {
        clip-path: url(#clippath-76);
      }

      .st30 {
        clip-path: url(#clippath-78);
      }

      .st31 {
        clip-path: url(#clippath-75);
      }

      .st32 {
        clip-path: url(#clippath-79);
      }

      .st33 {
        clip-path: url(#clippath-50);
      }

      .st34 {
        clip-path: url(#clippath-55);
      }

      .st35 {
        clip-path: url(#clippath-52);
      }

      .st36 {
        clip-path: url(#clippath-57);
      }

      .st37 {
        clip-path: url(#clippath-54);
      }

      .st38 {
        clip-path: url(#clippath-56);
      }

      .st39 {
        clip-path: url(#clippath-53);
      }

      .st40 {
        clip-path: url(#clippath-70);
      }

      .st41 {
        clip-path: url(#clippath-77);
      }

      .st42 {
        clip-path: url(#clippath-74);
      }

      .st43 {
        clip-path: url(#clippath-71);
      }

      .st44 {
        clip-path: url(#clippath-73);
      }

      .st45 {
        clip-path: url(#clippath-72);
      }

      .st46 {
        clip-path: url(#clippath-51);
      }

      .st47 {
        clip-path: url(#clippath-58);
      }

      .st48 {
        clip-path: url(#clippath-59);
      }

      .st49 {
        clip-path: url(#clippath-31);
      }

      .st50 {
        clip-path: url(#clippath-32);
      }

      .st51 {
        clip-path: url(#clippath-33);
      }

      .st52 {
        clip-path: url(#clippath-34);
      }

      .st53 {
        clip-path: url(#clippath-35);
      }

      .st54 {
        clip-path: url(#clippath-39);
      }

      .st55 {
        clip-path: url(#clippath-30);
      }

      .st56 {
        clip-path: url(#clippath-36);
      }

      .st57 {
        clip-path: url(#clippath-37);
      }

      .st58 {
        clip-path: url(#clippath-38);
      }

      .st59 {
        clip-path: url(#clippath-27);
      }

      .st60 {
        clip-path: url(#clippath-29);
      }

      .st61 {
        clip-path: url(#clippath-26);
      }

      .st62 {
        clip-path: url(#clippath-28);
      }

      .st63 {
        clip-path: url(#clippath-20);
      }

      .st64 {
        clip-path: url(#clippath-21);
      }

      .st65 {
        clip-path: url(#clippath-22);
      }

      .st66 {
        clip-path: url(#clippath-23);
      }

      .st67 {
        clip-path: url(#clippath-24);
      }

      .st68 {
        clip-path: url(#clippath-25);
      }

      .st69 {
        clip-path: url(#clippath-69);
      }

      .st70 {
        clip-path: url(#clippath-41);
      }

      .st71 {
        clip-path: url(#clippath-42);
      }

      .st72 {
        clip-path: url(#clippath-43);
      }

      .st73 {
        clip-path: url(#clippath-44);
      }

      .st74 {
        clip-path: url(#clippath-45);
      }

      .st75 {
        clip-path: url(#clippath-49);
      }

      .st76 {
        clip-path: url(#clippath-40);
      }

      .st77 {
        clip-path: url(#clippath-46);
      }

      .st78 {
        clip-path: url(#clippath-47);
      }

      .st79 {
        clip-path: url(#clippath-48);
      }

      .st80 {
        clip-path: url(#clippath-90);
      }

      .st81 {
        clip-path: url(#clippath-95);
      }

      .st82 {
        clip-path: url(#clippath-93);
      }

      .st83 {
        clip-path: url(#clippath-99);
      }

      .st84 {
        clip-path: url(#clippath-94);
      }

      .st85 {
        clip-path: url(#clippath-96);
      }

      .st86 {
        clip-path: url(#clippath-85);
      }

      .st87 {
        clip-path: url(#clippath-86);
      }

      .st88 {
        clip-path: url(#clippath-87);
      }

      .st89 {
        clip-path: url(#clippath-80);
      }

      .st90 {
        clip-path: url(#clippath-89);
      }

      .st91 {
        clip-path: url(#clippath-81);
      }

      .st92 {
        clip-path: url(#clippath-82);
      }

      .st93 {
        clip-path: url(#clippath-83);
      }

      .st94 {
        clip-path: url(#clippath-84);
      }

      .st95 {
        clip-path: url(#clippath-88);
      }

      .st96 {
        clip-path: url(#clippath-92);
      }

      .st97 {
        clip-path: url(#clippath-97);
      }

      .st98 {
        clip-path: url(#clippath-91);
      }

      .st99 {
        clip-path: url(#clippath-98);
      }

      .st100 {
        clip-path: url(#clippath-1);
      }

      .st101 {
        clip-path: url(#clippath-3);
      }

      .st102 {
        clip-path: url(#clippath-4);
      }

      .st103 {
        clip-path: url(#clippath-2);
      }

      .st104 {
        clip-path: url(#clippath-7);
      }

      .st105 {
        clip-path: url(#clippath-6);
      }

      .st106 {
        clip-path: url(#clippath-9);
      }

      .st107 {
        clip-path: url(#clippath-8);
      }

      .st108 {
        clip-path: url(#clippath-5);
      }

      .st109 {
        fill: #fff;
      }

      .st4 {
        fill: gold;
      }

      .st110 {
        clip-path: url(#clippath);
      }
    </style>
    <clipPath id="clippath">
      <rect class="st0" x="20.6" y="122.6" width="348.7" height="348.7"/>
    </clipPath>
    <clipPath id="clippath-1">
      <rect class="st0" x="20.6" y="121.6" width="348.7" height="348.7"/>
    </clipPath>
    <clipPath id="clippath-2">
      <rect class="st0" x="20.6" y="121.6" width="348.7" height="348.7"/>
    </clipPath>
    <clipPath id="clippath-3">
      <rect class="st0" x="20.6" y="121.6" width="348.7" height="348.7"/>
    </clipPath>
    <clipPath id="clippath-4">
      <rect class="st0" x="20.6" y="121.6" width="348.7" height="348.7"/>
    </clipPath>
    <clipPath id="clippath-5">
      <rect class="st0" x="20.6" y="121.6" width="348.7" height="348.7"/>
    </clipPath>
    <clipPath id="clippath-6">
      <rect class="st0" x="20.6" y="121.6" width="348.7" height="348.7"/>
    </clipPath>
    <clipPath id="clippath-7">
      <rect class="st0" x="20.6" y="121.6" width="348.7" height="348.7"/>
    </clipPath>
    <clipPath id="clippath-8">
      <rect class="st0" x="20.6" y="121.6" width="348.7" height="348.7"/>
    </clipPath>
    <clipPath id="clippath-9">
      <rect class="st0" x="20.6" y="121.6" width="348.7" height="348.7"/>
    </clipPath>
    <clipPath id="clippath-10">
      <rect class="st0" x="20.6" y="121.6" width="348.7" height="348.7"/>
    </clipPath>
    <clipPath id="clippath-11">
      <rect class="st0" x="20.6" y="121.6" width="348.7" height="348.7"/>
    </clipPath>
    <clipPath id="clippath-12">
      <rect class="st0" x="20.6" y="121.6" width="348.7" height="348.7"/>
    </clipPath>
    <clipPath id="clippath-13">
      <rect class="st0" x="20.6" y="121.6" width="348.7" height="348.7"/>
    </clipPath>
    <clipPath id="clippath-14">
      <rect class="st0" x="20.6" y="121.6" width="348.7" height="348.7"/>
    </clipPath>
    <clipPath id="clippath-15">
      <rect class="st0" x="20.6" y="121.6" width="348.7" height="348.7"/>
    </clipPath>
    <clipPath id="clippath-16">
      <rect class="st0" x="20.6" y="121.6" width="348.7" height="348.7"/>
    </clipPath>
    <clipPath id="clippath-17">
      <rect class="st0" x="20.6" y="121.6" width="348.7" height="348.7"/>
    </clipPath>
    <clipPath id="clippath-18">
      <rect class="st0" x="20.6" y="121.6" width="348.7" height="348.7"/>
    </clipPath>
    <clipPath id="clippath-19">
      <rect class="st0" x="20.6" y="121.6" width="348.7" height="348.7"/>
    </clipPath>
    <clipPath id="clippath-20">
      <rect class="st0" x="20.6" y="121.6" width="348.7" height="348.7"/>
    </clipPath>
    <clipPath id="clippath-21">
      <rect class="st0" x="20.6" y="121.6" width="348.7" height="348.7"/>
    </clipPath>
    <clipPath id="clippath-22">
      <rect class="st0" x="20.6" y="121.6" width="348.7" height="348.7"/>
    </clipPath>
    <clipPath id="clippath-23">
      <rect class="st0" x="20.6" y="121.6" width="348.7" height="348.7"/>
    </clipPath>
    <clipPath id="clippath-24">
      <rect class="st0" x="20.6" y="121.6" width="348.7" height="348.7"/>
    </clipPath>
    <clipPath id="clippath-25">
      <rect class="st0" x="20.6" y="121.6" width="348.7" height="348.7"/>
    </clipPath>
    <clipPath id="clippath-26">
      <rect class="st0" x="20.6" y="121.6" width="348.7" height="348.7"/>
    </clipPath>
    <clipPath id="clippath-27">
      <rect class="st0" x="20.6" y="121.6" width="348.7" height="348.7"/>
    </clipPath>
    <clipPath id="clippath-28">
      <rect class="st0" x="20.6" y="121.6" width="348.7" height="348.7"/>
    </clipPath>
    <clipPath id="clippath-29">
      <rect class="st0" x="20.6" y="121.6" width="348.7" height="348.7"/>
    </clipPath>
    <clipPath id="clippath-30">
      <rect class="st0" x="20.6" y="121.6" width="348.7" height="348.7"/>
    </clipPath>
    <clipPath id="clippath-31">
      <rect class="st0" x="20.6" y="121.6" width="348.7" height="348.7"/>
    </clipPath>
    <clipPath id="clippath-32">
      <rect class="st0" x="20.6" y="121.6" width="348.7" height="348.7"/>
    </clipPath>
    <clipPath id="clippath-33">
      <rect class="st0" x="20.6" y="121.6" width="348.7" height="348.7"/>
    </clipPath>
    <clipPath id="clippath-34">
      <rect class="st0" x="20.6" y="121.6" width="348.7" height="348.7"/>
    </clipPath>
    <clipPath id="clippath-35">
      <rect class="st0" x="20.6" y="121.6" width="348.7" height="348.7"/>
    </clipPath>
    <clipPath id="clippath-36">
      <rect class="st0" x="20.6" y="121.6" width="348.7" height="348.7"/>
    </clipPath>
    <clipPath id="clippath-37">
      <rect class="st0" x="20.6" y="121.6" width="348.7" height="348.7"/>
    </clipPath>
    <clipPath id="clippath-38">
      <rect class="st0" x="20.6" y="121.6" width="348.7" height="348.7"/>
    </clipPath>
    <clipPath id="clippath-39">
      <rect class="st0" x="20.6" y="121.6" width="348.7" height="348.7"/>
    </clipPath>
    <clipPath id="clippath-40">
      <rect class="st0" x="20.6" y="121.6" width="348.7" height="348.7"/>
    </clipPath>
    <clipPath id="clippath-41">
      <rect class="st0" x="20.6" y="121.6" width="348.7" height="348.7"/>
    </clipPath>
    <clipPath id="clippath-42">
      <rect class="st0" x="20.6" y="121.6" width="348.7" height="348.7"/>
    </clipPath>
    <clipPath id="clippath-43">
      <rect class="st0" x="20.6" y="121.6" width="348.7" height="348.7"/>
    </clipPath>
    <clipPath id="clippath-44">
      <rect class="st0" x="20.6" y="121.6" width="348.7" height="348.7"/>
    </clipPath>
    <clipPath id="clippath-45">
      <rect class="st0" x="20.6" y="121.6" width="348.7" height="348.7"/>
    </clipPath>
    <clipPath id="clippath-46">
      <rect class="st0" x="20.6" y="121.6" width="348.7" height="348.7"/>
    </clipPath>
    <clipPath id="clippath-47">
      <rect class="st0" x="20.6" y="121.6" width="348.7" height="348.7"/>
    </clipPath>
    <clipPath id="clippath-48">
      <rect class="st0" x="20.6" y="121.6" width="348.7" height="348.7"/>
    </clipPath>
    <clipPath id="clippath-49">
      <rect class="st0" x="20.6" y="121.6" width="348.7" height="348.7"/>
    </clipPath>
    <clipPath id="clippath-50">
      <rect class="st0" x="20.6" y="121.6" width="348.7" height="348.7"/>
    </clipPath>
    <clipPath id="clippath-51">
      <rect class="st0" x="20.6" y="121.6" width="348.7" height="348.7"/>
    </clipPath>
    <clipPath id="clippath-52">
      <rect class="st0" x="20.6" y="121.6" width="348.7" height="348.7"/>
    </clipPath>
    <clipPath id="clippath-53">
      <rect class="st0" x="20.6" y="121.6" width="348.7" height="348.7"/>
    </clipPath>
    <clipPath id="clippath-54">
      <rect class="st0" x="20.6" y="121.6" width="348.7" height="348.7"/>
    </clipPath>
    <clipPath id="clippath-55">
      <rect class="st0" x="20.6" y="121.6" width="348.7" height="348.7"/>
    </clipPath>
    <clipPath id="clippath-56">
      <rect class="st0" x="20.6" y="121.6" width="348.7" height="348.7"/>
    </clipPath>
    <clipPath id="clippath-57">
      <rect class="st0" x="20.6" y="121.6" width="348.7" height="348.7"/>
    </clipPath>
    <clipPath id="clippath-58">
      <rect class="st0" x="20.6" y="121.6" width="348.7" height="348.7"/>
    </clipPath>
    <clipPath id="clippath-59">
      <rect class="st0" x="20.6" y="121.6" width="348.7" height="348.7"/>
    </clipPath>
    <clipPath id="clippath-60">
      <rect class="st0" x="20.6" y="121.6" width="348.7" height="348.7"/>
    </clipPath>
    <clipPath id="clippath-61">
      <rect class="st0" x="20.6" y="121.6" width="348.7" height="348.7"/>
    </clipPath>
    <clipPath id="clippath-62">
      <rect class="st0" x="20.6" y="121.6" width="348.7" height="348.7"/>
    </clipPath>
    <clipPath id="clippath-63">
      <rect class="st0" x="20.6" y="121.6" width="348.7" height="348.7"/>
    </clipPath>
    <clipPath id="clippath-64">
      <rect class="st0" x="20.6" y="121.6" width="348.7" height="348.7"/>
    </clipPath>
    <clipPath id="clippath-65">
      <rect class="st0" x="20.6" y="121.6" width="348.7" height="348.7"/>
    </clipPath>
    <clipPath id="clippath-66">
      <rect class="st0" x="20.6" y="121.6" width="348.7" height="348.7"/>
    </clipPath>
    <clipPath id="clippath-67">
      <rect class="st0" x="20.6" y="121.6" width="348.7" height="348.7"/>
    </clipPath>
    <clipPath id="clippath-68">
      <rect class="st0" x="20.6" y="121.6" width="348.7" height="348.7"/>
    </clipPath>
    <clipPath id="clippath-69">
      <rect class="st0" x="20.6" y="121.6" width="348.7" height="348.7"/>
    </clipPath>
    <clipPath id="clippath-70">
      <rect class="st0" x="20.6" y="121.6" width="348.7" height="348.7"/>
    </clipPath>
    <clipPath id="clippath-71">
      <rect class="st0" x="20.6" y="121.6" width="348.7" height="348.7"/>
    </clipPath>
    <clipPath id="clippath-72">
      <rect class="st0" x="20.6" y="121.6" width="348.7" height="348.7"/>
    </clipPath>
    <clipPath id="clippath-73">
      <rect class="st0" x="20.6" y="121.6" width="348.7" height="348.7"/>
    </clipPath>
    <clipPath id="clippath-74">
      <rect class="st0" x="20.6" y="121.6" width="348.7" height="348.7"/>
    </clipPath>
    <clipPath id="clippath-75">
      <rect class="st0" x="20.6" y="121.6" width="348.7" height="348.7"/>
    </clipPath>
    <clipPath id="clippath-76">
      <rect class="st0" x="20.6" y="121.6" width="348.7" height="348.7"/>
    </clipPath>
    <clipPath id="clippath-77">
      <rect class="st0" x="20.6" y="121.6" width="348.7" height="348.7"/>
    </clipPath>
    <clipPath id="clippath-78">
      <rect class="st0" x="20.6" y="121.6" width="348.7" height="348.7"/>
    </clipPath>
    <clipPath id="clippath-79">
      <rect class="st0" x="20.6" y="121.6" width="348.7" height="348.7"/>
    </clipPath>
    <clipPath id="clippath-80">
      <rect class="st0" x="20.6" y="121.6" width="348.7" height="348.7"/>
    </clipPath>
    <clipPath id="clippath-81">
      <rect class="st0" x="20.6" y="121.6" width="348.7" height="348.7"/>
    </clipPath>
    <clipPath id="clippath-82">
      <rect class="st0" x="20.6" y="121.6" width="348.7" height="348.7"/>
    </clipPath>
    <clipPath id="clippath-83">
      <rect class="st0" x="20.6" y="121.6" width="348.7" height="348.7"/>
    </clipPath>
    <clipPath id="clippath-84">
      <rect class="st0" x="20.6" y="121.6" width="348.7" height="348.7"/>
    </clipPath>
    <clipPath id="clippath-85">
      <rect class="st0" x="20.6" y="121.6" width="348.7" height="348.7"/>
    </clipPath>
    <clipPath id="clippath-86">
      <rect class="st0" x="20.6" y="121.6" width="348.7" height="348.7"/>
    </clipPath>
    <clipPath id="clippath-87">
      <rect class="st0" x="20.6" y="121.6" width="348.7" height="348.7"/>
    </clipPath>
    <clipPath id="clippath-88">
      <rect class="st0" x="20.6" y="121.6" width="348.7" height="348.7"/>
    </clipPath>
    <clipPath id="clippath-89">
      <rect class="st0" x="20.6" y="121.6" width="348.7" height="348.7"/>
    </clipPath>
    <clipPath id="clippath-90">
      <rect class="st0" x="20.6" y="121.6" width="348.7" height="348.7"/>
    </clipPath>
    <clipPath id="clippath-91">
      <rect class="st0" x="20.6" y="121.6" width="348.7" height="348.7"/>
    </clipPath>
    <clipPath id="clippath-92">
      <rect class="st0" x="20.6" y="121.6" width="348.7" height="348.7"/>
    </clipPath>
    <clipPath id="clippath-93">
      <rect class="st0" x="20.6" y="121.6" width="348.7" height="348.7"/>
    </clipPath>
    <clipPath id="clippath-94">
      <rect class="st0" x="20.6" y="121.6" width="348.7" height="348.7"/>
    </clipPath>
    <clipPath id="clippath-95">
      <rect class="st0" x="20.6" y="121.6" width="348.7" height="348.7"/>
    </clipPath>
    <clipPath id="clippath-96">
      <rect class="st0" x="20.6" y="121.6" width="348.7" height="348.7"/>
    </clipPath>
    <clipPath id="clippath-97">
      <rect class="st0" x="20.6" y="121.6" width="348.7" height="348.7"/>
    </clipPath>
    <clipPath id="clippath-98">
      <rect class="st0" x="20.6" y="121.6" width="348.7" height="348.7"/>
    </clipPath>
    <clipPath id="clippath-99">
      <rect class="st0" x="20.6" y="121.6" width="348.7" height="348.7"/>
    </clipPath>
  </defs>
  <path class="st109" d="M20.6,470.3h348.7V121.6H20.6v348.7Z"/>
  <g class="st110">
    <path class="st4" d="M20.6,157.5h34.9v-34.9H20.6v34.9Z"/>
  </g>
  <g class="st100">
    <path class="st4" d="M55.5,156.5h34.9v-34.9h-34.9v34.9Z"/>
  </g>
  <g class="st103">
    <path class="st4" d="M90.4,156.5h34.9v-34.9h-34.9v34.9Z"/>
  </g>
  <g class="st101">
    <path class="st4" d="M125.3,156.5h34.9v-34.9h-34.9v34.9Z"/>
  </g>
  <g class="st102">
    <path class="st5" d="M160.1,156.5h34.9v-34.9h-34.9v34.9Z"/>
  </g>
  <g class="st108">
    <path class="st4" d="M195,156.5h34.9v-34.9h-34.9v34.9Z"/>
  </g>
  <g class="st105">
    <path class="st4" d="M229.9,156.5h34.9v-34.9h-34.9v34.9Z"/>
  </g>
  <g class="st104">
    <path class="st4" d="M264.7,156.5h34.9v-34.9h-34.9v34.9Z"/>
  </g>
  <g class="st107">
    <path class="st4" d="M299.6,156.5h34.9v-34.9h-34.9v34.9Z"/>
  </g>
  <g class="st106">
    <path class="st4" d="M334.5,156.5h34.9v-34.9h-34.9v34.9Z"/>
  </g>
  <g class="st15">
    <path class="st4" d="M20.6,191.3h34.9v-34.9H20.6v34.9Z"/>
  </g>
  <g class="st12">
    <path class="st4" d="M55.5,191.3h34.9v-34.9h-34.9v34.9Z"/>
  </g>
  <g class="st19">
    <path class="st4" d="M90.4,191.3h34.9v-34.9h-34.9v34.9Z"/>
  </g>
  <g class="st17">
    <path class="st4" d="M125.3,191.3h34.9v-34.9h-34.9v34.9Z"/>
  </g>
  <g class="st18">
    <path class="st4" d="M160.1,191.3h34.9v-34.9h-34.9v34.9Z"/>
  </g>
  <g class="st16">
    <path class="st4" d="M195,191.3h34.9v-34.9h-34.9v34.9Z"/>
  </g>
  <g class="st13">
    <path class="st4" d="M229.9,191.3h34.9v-34.9h-34.9v34.9Z"/>
  </g>
  <g class="st10">
    <path class="st4" d="M264.7,191.3h34.9v-34.9h-34.9v34.9Z"/>
  </g>
  <g class="st14">
    <path class="st4" d="M299.6,191.3h34.9v-34.9h-34.9v34.9Z"/>
  </g>
  <g class="st11">
    <path class="st4" d="M334.5,191.3h34.9v-34.9h-34.9v34.9Z"/>
  </g>
  <g class="st63">
    <path class="st4" d="M20.6,226.2h34.9v-34.9H20.6v34.9Z"/>
  </g>
  <g class="st64">
    <path class="st4" d="M55.5,226.2h34.9v-34.9h-34.9v34.9Z"/>
  </g>
  <g class="st65">
    <path class="st4" d="M90.4,226.2h34.9v-34.9h-34.9v34.9Z"/>
  </g>
  <g class="st66">
    <path class="st4" d="M125.3,226.2h34.9v-34.9h-34.9v34.9Z"/>
  </g>
  <g class="st67">
    <path class="st4" d="M160.1,226.2h34.9v-34.9h-34.9v34.9Z"/>
  </g>
  <g class="st68">
    <path class="st4" d="M195,226.2h34.9v-34.9h-34.9v34.9Z"/>
  </g>
  <g class="st61">
    <path class="st4" d="M229.9,226.2h34.9v-34.9h-34.9v34.9Z"/>
  </g>
  <g class="st59">
    <path class="st4" d="M264.7,226.2h34.9v-34.9h-34.9v34.9Z"/>
  </g>
  <g class="st62">
    <path class="st4" d="M299.6,226.2h34.9v-34.9h-34.9v34.9Z"/>
  </g>
  <g class="st60">
    <path class="st4" d="M334.5,226.2h34.9v-34.9h-34.9v34.9Z"/>
  </g>
  <g class="st55">
    <path class="st4" d="M20.6,261.1h34.9v-34.9H20.6v34.9Z"/>
  </g>
  <g class="st49">
    <path class="st4" d="M55.5,261.1h34.9v-34.9h-34.9v34.9Z"/>
  </g>
  <g class="st50">
    <path class="st4" d="M90.4,261.1h34.9v-34.9h-34.9v34.9Z"/>
  </g>
  <g class="st51">
    <path class="st4" d="M125.3,261.1h34.9v-34.9h-34.9v34.9Z"/>
  </g>
  <g class="st52">
    <path class="st4" d="M160.1,261.1h34.9v-34.9h-34.9v34.9Z"/>
  </g>
  <g class="st53">
    <path class="st4" d="M195,261.1h34.9v-34.9h-34.9v34.9Z"/>
  </g>
  <g class="st56">
    <path class="st4" d="M229.9,261.1h34.9v-34.9h-34.9v34.9Z"/>
  </g>
  <g class="st57">
    <path class="st4" d="M264.7,261.1h34.9v-34.9h-34.9v34.9Z"/>
  </g>
  <g class="st58">
    <path class="st4" d="M299.6,261.1h34.9v-34.9h-34.9v34.9Z"/>
  </g>
  <g class="st54">
    <path class="st4" d="M334.5,261.1h34.9v-34.9h-34.9v34.9Z"/>
  </g>
  <g class="st76">
    <path class="st4" d="M20.6,296h34.9v-34.9H20.6v34.9Z"/>
  </g>
  <g class="st70">
    <path class="st4" d="M55.5,296h34.9v-34.9h-34.9v34.9Z"/>
  </g>
  <g class="st71">
    <path class="st4" d="M90.4,296h34.9v-34.9h-34.9v34.9Z"/>
  </g>
  <g class="st72">
    <path class="st4" d="M125.3,296h34.9v-34.9h-34.9v34.9Z"/>
  </g>
  <g class="st73">
    <path class="st4" d="M160.1,296h34.9v-34.9h-34.9v34.9Z"/>
  </g>
  <g class="st74">
    <path class="st4" d="M195,296h34.9v-34.9h-34.9v34.9Z"/>
  </g>
  <g class="st77">
    <path class="st4" d="M229.9,296h34.9v-34.9h-34.9v34.9Z"/>
  </g>
  <g class="st78">
    <path class="st4" d="M264.7,296h34.9v-34.9h-34.9v34.9Z"/>
  </g>
  <g class="st79">
    <path class="st4" d="M299.6,296h34.9v-34.9h-34.9v34.9Z"/>
  </g>
  <g class="st75">
    <path class="st4" d="M334.5,296h34.9v-34.9h-34.9v34.9Z"/>
  </g>
  <g class="st33">
    <path class="st4" d="M20.6,330.8h34.9v-34.9H20.6v34.9Z"/>
  </g>
  <g class="st46">
    <path class="st4" d="M55.5,330.8h34.9v-34.9h-34.9v34.9Z"/>
  </g>
  <g class="st35">
    <path class="st4" d="M90.4,330.8h34.9v-34.9h-34.9v34.9Z"/>
  </g>
  <g class="st39">
    <path class="st4" d="M125.3,330.8h34.9v-34.9h-34.9v34.9Z"/>
  </g>
  <g class="st37">
    <path class="st4" d="M160.1,330.8h34.9v-34.9h-34.9v34.9Z"/>
  </g>
  <g class="st34">
    <path class="st4" d="M195,330.8h34.9v-34.9h-34.9v34.9Z"/>
  </g>
  <g class="st38">
    <path class="st4" d="M229.9,330.8h34.9v-34.9h-34.9v34.9Z"/>
  </g>
  <g class="st36">
    <path class="st4" d="M264.7,330.8h34.9v-34.9h-34.9v34.9Z"/>
  </g>
  <g class="st47">
    <path class="st4" d="M299.6,330.8h34.9v-34.9h-34.9v34.9Z"/>
  </g>
  <g class="st48">
    <path class="st4" d="M334.5,330.8h34.9v-34.9h-34.9v34.9Z"/>
  </g>
  <g class="st23">
    <path class="st4" d="M20.6,365.7h34.9v-34.9H20.6v34.9Z"/>
  </g>
  <g class="st20">
    <path class="st4" d="M55.5,365.7h34.9v-34.9h-34.9v34.9Z"/>
  </g>
  <g class="st25">
    <path class="st4" d="M90.4,365.7h34.9v-34.9h-34.9v34.9Z"/>
  </g>
  <g class="st28">
    <path class="st4" d="M125.3,365.7h34.9v-34.9h-34.9v34.9Z"/>
  </g>
  <g class="st26">
    <path class="st4" d="M160.1,365.7h34.9v-34.9h-34.9v34.9Z"/>
  </g>
  <g class="st24">
    <path class="st4" d="M195,365.7h34.9v-34.9h-34.9v34.9Z"/>
  </g>
  <g class="st27">
    <path class="st4" d="M229.9,365.7h34.9v-34.9h-34.9v34.9Z"/>
  </g>
  <g class="st21">
    <path class="st4" d="M264.7,365.7h34.9v-34.9h-34.9v34.9Z"/>
  </g>
  <g class="st22">
    <path class="st4" d="M299.6,365.7h34.9v-34.9h-34.9v34.9Z"/>
  </g>
  <g class="st69">
    <path class="st4" d="M334.5,365.7h34.9v-34.9h-34.9v34.9Z"/>
  </g>
  <g class="st40">
    <path class="st4" d="M20.6,400.6h34.9v-34.9H20.6v34.9Z"/>
  </g>
  <g class="st43">
    <path class="st4" d="M55.5,400.6h34.9v-34.9h-34.9v34.9Z"/>
  </g>
  <g class="st45">
    <path class="st4" d="M90.4,400.6h34.9v-34.9h-34.9v34.9Z"/>
  </g>
  <g class="st44">
    <path class="st4" d="M125.3,400.6h34.9v-34.9h-34.9v34.9Z"/>
  </g>
  <g class="st42">
    <path class="st4" d="M160.1,400.6h34.9v-34.9h-34.9v34.9Z"/>
  </g>
  <g class="st31">
    <path class="st4" d="M195,400.6h34.9v-34.9h-34.9v34.9Z"/>
  </g>
  <g class="st29">
    <path class="st4" d="M229.9,400.6h34.9v-34.9h-34.9v34.9Z"/>
  </g>
  <g class="st41">
    <path class="st4" d="M264.7,400.6h34.9v-34.9h-34.9v34.9Z"/>
  </g>
  <g class="st30">
    <path class="st4" d="M299.6,400.6h34.9v-34.9h-34.9v34.9Z"/>
  </g>
  <g class="st32">
    <path class="st4" d="M334.5,400.6h34.9v-34.9h-34.9v34.9Z"/>
  </g>
  <g class="st89">
    <path class="st4" d="M20.6,435.4h34.9v-34.9H20.6v34.9Z"/>
  </g>
  <g class="st91">
    <path class="st4" d="M55.5,435.4h34.9v-34.9h-34.9v34.9Z"/>
  </g>
  <g class="st92">
    <path class="st4" d="M90.4,435.4h34.9v-34.9h-34.9v34.9Z"/>
  </g>
  <g class="st93">
    <path class="st4" d="M125.3,435.4h34.9v-34.9h-34.9v34.9Z"/>
  </g>
  <g class="st94">
    <path class="st4" d="M160.1,435.4h34.9v-34.9h-34.9v34.9Z"/>
  </g>
  <g class="st86">
    <path class="st4" d="M195,435.4h34.9v-34.9h-34.9v34.9Z"/>
  </g>
  <g class="st87">
    <path class="st4" d="M229.9,435.4h34.9v-34.9h-34.9v34.9Z"/>
  </g>
  <g class="st88">
    <path class="st4" d="M264.7,435.4h34.9v-34.9h-34.9v34.9Z"/>
  </g>
  <g class="st95">
    <path class="st2" d="M299.6,435.4h34.9v-34.9h-34.9v34.9Z"/>
  </g>
  <g class="st90">
    <path class="st2" d="M334.5,435.4h34.9v-34.9h-34.9v34.9Z"/>
  </g>
  <g class="st80">
    <path class="st2" d="M20.6,470.3h34.9v-34.9H20.6v34.9Z"/>
  </g>
  <g class="st98">
    <path class="st2" d="M55.5,470.3h34.9v-34.9h-34.9v34.9Z"/>
  </g>
  <g class="st96">
    <path class="st2" d="M90.4,470.3h34.9v-34.9h-34.9v34.9Z"/>
  </g>
  <g class="st82">
    <path class="st2" d="M125.3,470.3h34.9v-34.9h-34.9v34.9Z"/>
  </g>
  <g class="st84">
    <path class="st2" d="M160.1,470.3h34.9v-34.9h-34.9v34.9Z"/>
  </g>
  <g class="st81">
    <path class="st2" d="M195,470.3h34.9v-34.9h-34.9v34.9Z"/>
  </g>
  <g class="st85">
    <path class="st6" d="M229.9,470.3h34.9v-34.9h-34.9v34.9Z"/>
  </g>
  <g class="st97">
    <path class="st6" d="M264.7,470.3h34.9v-34.9h-34.9v34.9Z"/>
  </g>
  <g class="st99">
    <path class="st6" d="M299.6,470.3h34.9v-34.9h-34.9v34.9Z"/>
  </g>
  <g class="st83">
    <path class="st6" d="M334.5,470.3h34.9v-34.9h-34.9v34.9Z"/>
  </g>
  <path id="DejaVuSans-20" d="M158.4,83.6"/>
  <path id="DejaVuSans-201" data-name="DejaVuSans-20" d="M203.3,83.6"/>
  <path id="DejaVuSans-202" data-name="DejaVuSans-20" d="M252.4,83.6"/>
  <path id="DejaVuSans-203" data-name="DejaVuSans-20" d="M306.2,83.6"/>
  <rect class="st7" x="234" y="15" width="179.6" height="25"/>
  <rect class="st3" x="138.3" y="46" width="73.1" height="23"/>
  <rect class="st8" x="252.6" y="46.3" width="96.4" height="23"/>
  <g>
    <g>
      <path d="M18.6,20h3.4l2.2,6.1c.3.8.5,1.7.8,2.5h0c.3-.8.5-1.7.8-2.5l2.2-6.1h3.4v13.7h-2.8v-5c0-1.3.2-3.3.4-4.6h0l-1.1,3.2-1.9,5.2h-1.7l-1.9-5.2-1.1-3.2h0c.1,1.3.4,3.3.4,4.6v5h-2.8v-13.7Z"/>
      <path d="M33.8,28.5c0-3.5,2.4-5.5,5.1-5.5s5.1,2,5.1,5.5-2.4,5.5-5.1,5.5-5.1-2-5.1-5.5ZM40.7,28.5c0-1.8-.6-3-1.9-3s-1.9,1.2-1.9,3,.6,3,1.9,3,1.9-1.2,1.9-3Z"/>
      <path d="M45,32.5l1.4-1.9c.9.7,1.8,1.1,2.7,1.1s1.3-.4,1.3-.9-1-1-2.1-1.4c-1.3-.5-2.8-1.3-2.8-3.1s1.6-3.3,4-3.3,2.8.6,3.7,1.3l-1.4,1.9c-.7-.5-1.5-.9-2.2-.9s-1.2.3-1.2.8,1,.9,2.1,1.3c1.3.5,2.8,1.2,2.8,3.1s-1.5,3.4-4.3,3.4-2.9-.6-4-1.5Z"/>
      <path d="M55.2,29.9v-4.2h-1.4v-2.3h1.6c0-.1.4-2.9.4-2.9h2.6v2.8h2.5v2.4h-2.5v4.2c0,1.2.5,1.7,1.3,1.7s.7,0,1-.2l.5,2.2c-.6.2-1.3.4-2.3.4-2.6,0-3.6-1.6-3.6-4Z"/>
      <path d="M66.6,26.9c0-4.5,3-7.2,6.5-7.2s3.2.8,4.1,1.8l-1.6,2c-.7-.6-1.4-1.1-2.4-1.1-1.9,0-3.4,1.7-3.4,4.4s1.3,4.4,3.3,4.4,2-.6,2.7-1.3l1.6,1.9c-1.1,1.3-2.6,2-4.4,2-3.5,0-6.4-2.4-6.4-7Z"/>
      <path d="M78.7,28.5c0-3.5,2.4-5.5,5.1-5.5s5.1,2,5.1,5.5-2.4,5.5-5.1,5.5-5.1-2-5.1-5.5ZM85.6,28.5c0-1.8-.6-3-1.9-3s-1.9,1.2-1.9,3,.6,3,1.9,3,1.9-1.2,1.9-3Z"/>
      <path d="M90.9,23.3h2.5l.2,1.3h0c.9-.9,1.8-1.6,3.2-1.6s2.3.6,2.9,1.8c.9-1,1.9-1.8,3.3-1.8,2.3,0,3.3,1.6,3.3,4.2v6.5h-3.1v-6.1c0-1.5-.4-2-1.3-2s-1.1.3-1.8,1v7h-3.1v-6.1c0-1.5-.4-2-1.3-2s-1.1.3-1.8,1v7h-3.1v-10.4Z"/>
      <path d="M108.9,23.3h2.5l.2,1.3h0c.9-.9,1.8-1.6,3.2-1.6s2.3.6,2.9,1.8c.9-1,1.9-1.8,3.3-1.8,2.3,0,3.3,1.6,3.3,4.2v6.5h-3.1v-6.1c0-1.5-.4-2-1.3-2s-1.1.3-1.8,1v7h-3.1v-6.1c0-1.5-.4-2-1.3-2s-1.1.3-1.8,1v7h-3.1v-10.4Z"/>
      <path d="M126.8,29.8v-6.5h3.1v6.1c0,1.5.4,2,1.3,2s1.2-.3,1.9-1.1v-6.9h3.1v10.4h-2.5l-.2-1.4h0c-.9,1-1.9,1.7-3.3,1.7-2.3,0-3.2-1.6-3.2-4.2Z"/>
      <path d="M138.8,23.3h2.5l.2,1.3h0c.9-.8,1.9-1.6,3.3-1.6,2.3,0,3.2,1.6,3.2,4.2v6.5h-3.1v-6.1c0-1.5-.4-2-1.3-2s-1.2.4-1.9,1v7h-3.1v-10.4Z"/>
      <path d="M150.6,20.2c0-.9.8-1.6,1.8-1.6s1.8.7,1.8,1.6-.8,1.6-1.8,1.6-1.8-.7-1.8-1.6ZM150.8,23.3h3.1v10.4h-3.1v-10.4Z"/>
      <path d="M157.1,29.9v-4.2h-1.4v-2.3h1.6c0-.1.4-2.9.4-2.9h2.6v2.8h2.5v2.4h-2.5v4.2c0,1.2.5,1.7,1.3,1.7s.7,0,1-.2l.5,2.2c-.6.2-1.3.4-2.3.4-2.6,0-3.6-1.6-3.6-4Z"/>
      <path d="M164.4,37.6l.5-2.4c.2,0,.5.1.7.1,1,0,1.6-.6,1.8-1.4l.2-.5-4-10.1h3.1l1.5,4.5c.3.9.5,1.9.8,3h0c.2-1,.5-2,.7-3l1.3-4.5h3l-3.6,10.5c-1,2.6-2.1,4-4.5,4s-1.1,0-1.5-.2Z"/>
      <path d="M180.1,20h3.2l3.6,6.8,1.4,3h0c-.1-1.4-.4-3.4-.4-5v-4.8h2.9v13.7h-3.2l-3.6-6.8-1.4-3h0c.1,1.5.4,3.3.4,5v4.9h-2.9v-13.7Z"/>
      <path d="M193.2,28.5c0-3.5,2.4-5.5,5.1-5.5s5.1,2,5.1,5.5-2.4,5.5-5.1,5.5-5.1-2-5.1-5.5ZM200.2,28.5c0-1.8-.6-3-1.9-3s-1.9,1.2-1.9,3,.6,3,1.9,3,1.9-1.2,1.9-3Z"/>
      <path d="M205.3,29.9v-4.2h-1.4v-2.3h1.6c0-.1.4-2.9.4-2.9h2.6v2.8h2.5v2.4h-2.5v4.2c0,1.2.5,1.7,1.3,1.7s.7,0,1-.2l.5,2.2c-.6.2-1.3.4-2.3.4-2.6,0-3.6-1.6-3.6-4Z"/>
      <path d="M212,28.5c0-3.4,2.4-5.5,4.9-5.5s4.4,2.2,4.4,5,0,1.1-.1,1.4h-6.2c.3,1.5,1.3,2.2,2.7,2.2s1.5-.2,2.3-.7l1,1.9c-1.1.7-2.5,1.2-3.7,1.2-3,0-5.3-2-5.3-5.5ZM218.7,27.4c0-1.1-.5-2-1.7-2s-1.8.7-2,2h3.8Z"/>
      <path d="M222.5,32.5l1.4-1.9c.9.7,1.8,1.1,2.7,1.1s1.3-.4,1.3-.9-1-1-2.1-1.4c-1.3-.5-2.8-1.3-2.8-3.1s1.6-3.3,4-3.3,2.8.6,3.7,1.3l-1.4,1.9c-.7-.5-1.5-.9-2.2-.9s-1.2.3-1.2.8,1,.9,2.1,1.3c1.3.5,2.8,1.2,2.8,3.1s-1.5,3.4-4.3,3.4-2.9-.6-4-1.5Z"/>
      <path d="M237.2,20h3.2l3.6,6.8,1.4,3h0c-.1-1.4-.4-3.4-.4-5v-4.8h2.9v13.7h-3.2l-3.6-6.8-1.4-3h0c.1,1.5.4,3.3.4,5v4.9h-2.9v-13.7Z"/>
      <path d="M250.3,28.5c0-3.4,2.4-5.5,4.9-5.5s4.4,2.2,4.4,5,0,1.1-.1,1.4h-6.2c.3,1.5,1.3,2.2,2.7,2.2s1.5-.2,2.3-.7l1,1.9c-1.1.7-2.5,1.2-3.7,1.2-3,0-5.3-2-5.3-5.5ZM257,27.4c0-1.1-.5-2-1.7-2s-1.8.7-2,2h3.8Z"/>
      <path d="M261.2,28.5c0-3.4,2.4-5.5,4.9-5.5s4.4,2.2,4.4,5,0,1.1-.1,1.4h-6.2c.3,1.5,1.3,2.2,2.7,2.2s1.5-.2,2.3-.7l1,1.9c-1.1.7-2.5,1.2-3.7,1.2-3,0-5.3-2-5.3-5.5ZM267.9,27.4c0-1.1-.5-2-1.7-2s-1.8.7-2,2h3.8Z"/>
      <path d="M272.1,28.5c0-3.4,2.1-5.5,4.3-5.5s1.8.4,2.6,1.1v-1.6c-.1,0-.1-3.5-.1-3.5h3.1v14.7h-2.5l-.2-1h0c-.7.7-1.8,1.3-2.8,1.3-2.6,0-4.3-2.1-4.3-5.5ZM278.9,30.5v-4.3c-.5-.5-1.2-.7-1.7-.7-1,0-1.9.9-1.9,2.9s.7,3,1.9,3,1.2-.2,1.7-.9Z"/>
      <path d="M289.2,20h3.4l2.2,6.1c.3.8.5,1.7.8,2.5h0c.3-.8.5-1.7.8-2.5l2.2-6.1h3.4v13.7h-2.8v-5c0-1.3.2-3.3.4-4.6h0l-1.1,3.2-1.9,5.2h-1.7l-1.9-5.2-1.1-3.2h0c.1,1.3.4,3.3.4,4.6v5h-2.8v-13.7Z"/>
      <path d="M304.3,28.5c0-3.5,2.4-5.5,5.1-5.5s5.1,2,5.1,5.5-2.4,5.5-5.1,5.5-5.1-2-5.1-5.5ZM311.3,28.5c0-1.8-.6-3-1.9-3s-1.9,1.2-1.9,3,.6,3,1.9,3,1.9-1.2,1.9-3Z"/>
      <path d="M316.6,23.3h2.5l.2,1.8h0c.8-1.4,1.9-2.1,3-2.1s.9,0,1.2.2l-.5,2.7c-.4,0-.7-.2-1.1-.2-.8,0-1.7.5-2.3,1.9v6h-3.1v-10.4Z"/>
      <path d="M324.1,28.5c0-3.4,2.4-5.5,4.9-5.5s4.4,2.2,4.4,5,0,1.1-.1,1.4h-6.2c.3,1.5,1.3,2.2,2.7,2.2s1.5-.2,2.3-.7l1,1.9c-1.1.7-2.5,1.2-3.7,1.2-3,0-5.3-2-5.3-5.5ZM330.8,27.4c0-1.1-.5-2-1.7-2s-1.8.7-2,2h3.8Z"/>
      <path d="M340,20h4.9c2.9,0,5.3,1,5.3,4.3s-2.4,4.5-5.3,4.5h-1.8v4.9h-3.1v-13.7ZM344.7,26.3c1.6,0,2.5-.7,2.5-2s-.9-1.8-2.5-1.8h-1.6v3.8h1.6ZM344.4,28l2.1-2,4.4,7.7h-3.5l-3-5.7Z"/>
      <path d="M352,30.8c0-2.2,1.7-3.4,5.9-3.8,0-.9-.5-1.5-1.6-1.5s-1.7.4-2.8.9l-1.1-2c1.3-.8,2.8-1.4,4.4-1.4,2.7,0,4.1,1.5,4.1,4.7v6h-2.5l-.2-1.1h0c-.9.8-1.9,1.3-3,1.3-1.9,0-3.1-1.4-3.1-3.1ZM357.9,30.7v-1.8c-2.2.3-2.9.9-2.9,1.7s.5,1,1.2,1,1.2-.3,1.7-.9Z"/>
      <path d="M363.6,29.9v-4.2h-1.4v-2.3h1.6c0-.1.4-2.9.4-2.9h2.6v2.8h2.5v2.4h-2.5v4.2c0,1.2.5,1.7,1.3,1.7s.7,0,1-.2l.5,2.2c-.6.2-1.3.4-2.3.4-2.6,0-3.6-1.6-3.6-4Z"/>
      <path d="M371,20.2c0-.9.8-1.6,1.8-1.6s1.8.7,1.8,1.6-.8,1.6-1.8,1.6-1.8-.7-1.8-1.6ZM371.2,23.3h3.1v10.4h-3.1v-10.4Z"/>
      <path d="M377,23.3h2.5l.2,1.3h0c.9-.8,1.9-1.6,3.3-1.6,2.3,0,3.2,1.6,3.2,4.2v6.5h-3.1v-6.1c0-1.5-.4-2-1.3-2s-1.2.4-1.9,1v7h-3.1v-10.4Z"/>
      <path d="M388.4,35.5c0-.9.5-1.6,1.5-2.1h0c-.5-.4-1-1-1-1.9s.5-1.5,1.2-2h0c-.7-.6-1.4-1.6-1.4-2.8,0-2.5,2.1-3.8,4.3-3.8s1.1,0,1.6.3h3.8v2.2h-1.7c.2.3.4.8.4,1.4,0,2.4-1.8,3.5-4.1,3.5s-.8,0-1.3-.2c-.3.2-.4.4-.4.8s.4.8,1.6.8h1.7c2.6,0,4,.8,4,2.6s-2.3,3.7-5.8,3.7-4.4-.8-4.4-2.6ZM395.6,34.9c0-.7-.6-.8-1.6-.8h-1.1c-.7,0-1.1,0-1.5-.1-.4.3-.6.6-.6,1,0,.8.9,1.2,2.3,1.2s2.4-.6,2.4-1.3ZM394.4,26.8c0-1.1-.6-1.7-1.4-1.7s-1.4.6-1.4,1.7.6,1.7,1.4,1.7,1.4-.6,1.4-1.7Z"/>
      <path d="M399.3,32.5l1.4-1.9c.9.7,1.8,1.1,2.7,1.1s1.3-.4,1.3-.9-1-1-2.1-1.4c-1.3-.5-2.8-1.3-2.8-3.1s1.6-3.3,4-3.3,2.8.6,3.7,1.3l-1.4,1.9c-.7-.5-1.5-.9-2.2-.9s-1.2.3-1.2.8,1,.9,2.1,1.3c1.3.5,2.8,1.2,2.8,3.1s-1.5,3.4-4.3,3.4-2.9-.6-4-1.5Z"/>
      <path d="M409.2,36.1c1.6-.5,2.4-1.5,2.4-2.6v-2.1c0,0,1,1.7,1,1.7-.3.3-.7.4-1.1.4-1,0-1.9-.6-1.9-1.8s.9-1.8,1.9-1.8,2.1,1.1,2.1,2.9-1.3,4-3.8,4.8l-.6-1.6Z"/>
      <path d="M16.8,50h3.3l1.6,6.4c.4,1.5.7,2.9,1.1,4.4h0c.4-1.5.7-2.9,1.1-4.4l1.6-6.4h3.2l-4.1,13.7h-3.7l-4.1-13.7Z"/>
      <path d="M29,58.5c0-3.4,2.4-5.5,4.9-5.5s4.4,2.2,4.4,5,0,1.1-.1,1.4h-6.2c.3,1.5,1.3,2.2,2.7,2.2s1.5-.2,2.3-.7l1,1.9c-1.1.7-2.5,1.2-3.7,1.2-3,0-5.3-2-5.3-5.5ZM35.7,57.4c0-1.1-.5-2-1.7-2s-1.8.7-2,2h3.8Z"/>
      <path d="M40.5,53.3h2.5l.2,1.8h0c.8-1.4,1.9-2.1,3-2.1s.9,0,1.2.2l-.5,2.7c-.4,0-.7-.2-1.1-.2-.8,0-1.7.5-2.3,1.9v6h-3.1v-10.4Z"/>
      <path d="M48.7,67.6l.5-2.4c.2,0,.5.1.7.1,1,0,1.6-.6,1.8-1.4l.2-.5-4-10.1h3.1l1.5,4.5c.3.9.5,1.9.8,3h0c.2-1,.5-2,.7-3l1.3-4.5h3l-3.6,10.5c-1,2.6-2.1,4-4.5,4s-1.1,0-1.5-.2Z"/>
      <path d="M64.4,50h8.6v2.6h-5.5v3.2h4.7v2.6h-4.7v5.3h-3.1v-13.7Z"/>
      <path d="M74.2,58.5c0-3.4,2.4-5.5,4.9-5.5s4.4,2.2,4.4,5,0,1.1-.1,1.4h-6.2c.3,1.5,1.3,2.2,2.7,2.2s1.5-.2,2.3-.7l1,1.9c-1.1.7-2.5,1.2-3.7,1.2-3,0-5.3-2-5.3-5.5ZM80.9,57.4c0-1.1-.5-2-1.7-2s-1.8.7-2,2h3.8Z"/>
      <path d="M84.7,53.3h3.1l1,4.8c.2,1,.3,2,.5,3.1h0c.2-1.1.4-2.1.6-3.1l1.1-4.8h2.7l1.2,4.8c.3,1,.4,2,.7,3.1h0c.2-1.1.3-2.1.5-3.1l1-4.8h2.9l-2.5,10.4h-3.6l-1-4.2c-.2-1-.4-1.9-.6-3h0c-.2,1.1-.3,2.1-.5,3.1l-.9,4.2h-3.5l-2.6-10.4Z"/>
      <path d="M108.8,50h3.7l4.3,13.7h-3.3l-1.8-6.9c-.4-1.4-.7-3-1.1-4.4h0c-.3,1.4-.7,3-1.1,4.4l-1.8,6.9h-3.2l4.3-13.7ZM107.4,58h6.6v2.4h-6.6v-2.4Z"/>
      <path d="M118.1,53.3h2.5l.2,1.8h0c.8-1.4,1.9-2.1,3-2.1s.9,0,1.2.2l-.5,2.7c-.4,0-.7-.2-1.1-.2-.8,0-1.7.5-2.3,1.9v6h-3.1v-10.4Z"/>
      <path d="M125.6,58.5c0-3.4,2.4-5.5,4.9-5.5s4.4,2.2,4.4,5,0,1.1-.1,1.4h-6.2c.3,1.5,1.3,2.2,2.7,2.2s1.5-.2,2.3-.7l1,1.9c-1.1.7-2.5,1.2-3.7,1.2-3,0-5.3-2-5.3-5.5ZM132.3,57.4c0-1.1-.5-2-1.7-2s-1.8.7-2,2h3.8Z"/>
      <path d="M216.4,60.8c0-2.2,1.7-3.4,5.9-3.8,0-.9-.5-1.5-1.6-1.5s-1.7.4-2.8.9l-1.1-2c1.3-.8,2.8-1.4,4.4-1.4,2.7,0,4.1,1.5,4.1,4.7v6h-2.5l-.2-1.1h0c-.9.8-1.9,1.3-3,1.3-1.9,0-3.1-1.4-3.1-3.1ZM222.3,60.7v-1.8c-2.2.3-2.9.9-2.9,1.7s.5,1,1.2,1,1.2-.3,1.7-.9Z"/>
      <path d="M228,53.3h2.5l.2,1.3h0c.9-.8,1.9-1.6,3.3-1.6,2.3,0,3.2,1.6,3.2,4.2v6.5h-3.1v-6.1c0-1.5-.4-2-1.3-2s-1.2.4-1.9,1v7h-3.1v-10.4Z"/>
      <path d="M239.4,58.5c0-3.4,2.1-5.5,4.3-5.5s1.8.4,2.6,1.1v-1.6c-.1,0-.1-3.5-.1-3.5h3.1v14.7h-2.5l-.2-1h0c-.7.7-1.8,1.3-2.8,1.3-2.6,0-4.3-2.1-4.3-5.5ZM246.2,60.5v-4.3c-.5-.5-1.2-.7-1.7-.7-1,0-1.9.9-1.9,2.9s.7,3,1.9,3,1.2-.2,1.7-.9Z"/>
    </g>
    <g>
      <path class="st9" d="M18.6,20h3.4l2.2,6.1c.3.8.5,1.7.8,2.5h0c.3-.8.5-1.7.8-2.5l2.2-6.1h3.4v13.7h-2.8v-5c0-1.3.2-3.3.4-4.6h0l-1.1,3.2-1.9,5.2h-1.7l-1.9-5.2-1.1-3.2h0c.1,1.3.4,3.3.4,4.6v5h-2.8v-13.7Z"/>
      <path class="st9" d="M33.8,28.5c0-3.5,2.4-5.5,5.1-5.5s5.1,2,5.1,5.5-2.4,5.5-5.1,5.5-5.1-2-5.1-5.5ZM40.7,28.5c0-1.8-.6-3-1.9-3s-1.9,1.2-1.9,3,.6,3,1.9,3,1.9-1.2,1.9-3Z"/>
      <path class="st9" d="M45,32.5l1.4-1.9c.9.7,1.8,1.1,2.7,1.1s1.3-.4,1.3-.9-1-1-2.1-1.4c-1.3-.5-2.8-1.3-2.8-3.1s1.6-3.3,4-3.3,2.8.6,3.7,1.3l-1.4,1.9c-.7-.5-1.5-.9-2.2-.9s-1.2.3-1.2.8,1,.9,2.1,1.3c1.3.5,2.8,1.2,2.8,3.1s-1.5,3.4-4.3,3.4-2.9-.6-4-1.5Z"/>
      <path class="st9" d="M55.2,29.9v-4.2h-1.4v-2.3h1.6c0-.1.4-2.9.4-2.9h2.6v2.8h2.5v2.4h-2.5v4.2c0,1.2.5,1.7,1.3,1.7s.7,0,1-.2l.5,2.2c-.6.2-1.3.4-2.3.4-2.6,0-3.6-1.6-3.6-4Z"/>
      <path class="st9" d="M66.6,26.9c0-4.5,3-7.2,6.5-7.2s3.2.8,4.1,1.8l-1.6,2c-.7-.6-1.4-1.1-2.4-1.1-1.9,0-3.4,1.7-3.4,4.4s1.3,4.4,3.3,4.4,2-.6,2.7-1.3l1.6,1.9c-1.1,1.3-2.6,2-4.4,2-3.5,0-6.4-2.4-6.4-7Z"/>
      <path class="st9" d="M78.7,28.5c0-3.5,2.4-5.5,5.1-5.5s5.1,2,5.1,5.5-2.4,5.5-5.1,5.5-5.1-2-5.1-5.5ZM85.6,28.5c0-1.8-.6-3-1.9-3s-1.9,1.2-1.9,3,.6,3,1.9,3,1.9-1.2,1.9-3Z"/>
      <path class="st9" d="M90.9,23.3h2.5l.2,1.3h0c.9-.9,1.8-1.6,3.2-1.6s2.3.6,2.9,1.8c.9-1,1.9-1.8,3.3-1.8,2.3,0,3.3,1.6,3.3,4.2v6.5h-3.1v-6.1c0-1.5-.4-2-1.3-2s-1.1.3-1.8,1v7h-3.1v-6.1c0-1.5-.4-2-1.3-2s-1.1.3-1.8,1v7h-3.1v-10.4Z"/>
      <path class="st9" d="M108.9,23.3h2.5l.2,1.3h0c.9-.9,1.8-1.6,3.2-1.6s2.3.6,2.9,1.8c.9-1,1.9-1.8,3.3-1.8,2.3,0,3.3,1.6,3.3,4.2v6.5h-3.1v-6.1c0-1.5-.4-2-1.3-2s-1.1.3-1.8,1v7h-3.1v-6.1c0-1.5-.4-2-1.3-2s-1.1.3-1.8,1v7h-3.1v-10.4Z"/>
      <path class="st9" d="M126.8,29.8v-6.5h3.1v6.1c0,1.5.4,2,1.3,2s1.2-.3,1.9-1.1v-6.9h3.1v10.4h-2.5l-.2-1.4h0c-.9,1-1.9,1.7-3.3,1.7-2.3,0-3.2-1.6-3.2-4.2Z"/>
      <path class="st9" d="M138.8,23.3h2.5l.2,1.3h0c.9-.8,1.9-1.6,3.3-1.6,2.3,0,3.2,1.6,3.2,4.2v6.5h-3.1v-6.1c0-1.5-.4-2-1.3-2s-1.2.4-1.9,1v7h-3.1v-10.4Z"/>
      <path class="st9" d="M150.6,20.2c0-.9.8-1.6,1.8-1.6s1.8.7,1.8,1.6-.8,1.6-1.8,1.6-1.8-.7-1.8-1.6ZM150.8,23.3h3.1v10.4h-3.1v-10.4Z"/>
      <path class="st9" d="M157.1,29.9v-4.2h-1.4v-2.3h1.6c0-.1.4-2.9.4-2.9h2.6v2.8h2.5v2.4h-2.5v4.2c0,1.2.5,1.7,1.3,1.7s.7,0,1-.2l.5,2.2c-.6.2-1.3.4-2.3.4-2.6,0-3.6-1.6-3.6-4Z"/>
      <path class="st9" d="M164.4,37.6l.5-2.4c.2,0,.5.1.7.1,1,0,1.6-.6,1.8-1.4l.2-.5-4-10.1h3.1l1.5,4.5c.3.9.5,1.9.8,3h0c.2-1,.5-2,.7-3l1.3-4.5h3l-3.6,10.5c-1,2.6-2.1,4-4.5,4s-1.1,0-1.5-.2Z"/>
      <path class="st9" d="M180.1,20h3.2l3.6,6.8,1.4,3h0c-.1-1.4-.4-3.4-.4-5v-4.8h2.9v13.7h-3.2l-3.6-6.8-1.4-3h0c.1,1.5.4,3.3.4,5v4.9h-2.9v-13.7Z"/>
      <path class="st9" d="M193.2,28.5c0-3.5,2.4-5.5,5.1-5.5s5.1,2,5.1,5.5-2.4,5.5-5.1,5.5-5.1-2-5.1-5.5ZM200.2,28.5c0-1.8-.6-3-1.9-3s-1.9,1.2-1.9,3,.6,3,1.9,3,1.9-1.2,1.9-3Z"/>
      <path class="st9" d="M205.3,29.9v-4.2h-1.4v-2.3h1.6c0-.1.4-2.9.4-2.9h2.6v2.8h2.5v2.4h-2.5v4.2c0,1.2.5,1.7,1.3,1.7s.7,0,1-.2l.5,2.2c-.6.2-1.3.4-2.3.4-2.6,0-3.6-1.6-3.6-4Z"/>
      <path class="st9" d="M212,28.5c0-3.4,2.4-5.5,4.9-5.5s4.4,2.2,4.4,5,0,1.1-.1,1.4h-6.2c.3,1.5,1.3,2.2,2.7,2.2s1.5-.2,2.3-.7l1,1.9c-1.1.7-2.5,1.2-3.7,1.2-3,0-5.3-2-5.3-5.5ZM218.7,27.4c0-1.1-.5-2-1.7-2s-1.8.7-2,2h3.8Z"/>
      <path class="st9" d="M222.5,32.5l1.4-1.9c.9.7,1.8,1.1,2.7,1.1s1.3-.4,1.3-.9-1-1-2.1-1.4c-1.3-.5-2.8-1.3-2.8-3.1s1.6-3.3,4-3.3,2.8.6,3.7,1.3l-1.4,1.9c-.7-.5-1.5-.9-2.2-.9s-1.2.3-1.2.8,1,.9,2.1,1.3c1.3.5,2.8,1.2,2.8,3.1s-1.5,3.4-4.3,3.4-2.9-.6-4-1.5Z"/>
      <path class="st9" d="M237.2,20h3.2l3.6,6.8,1.4,3h0c-.1-1.4-.4-3.4-.4-5v-4.8h2.9v13.7h-3.2l-3.6-6.8-1.4-3h0c.1,1.5.4,3.3.4,5v4.9h-2.9v-13.7Z"/>
      <path class="st9" d="M250.3,28.5c0-3.4,2.4-5.5,4.9-5.5s4.4,2.2,4.4,5,0,1.1-.1,1.4h-6.2c.3,1.5,1.3,2.2,2.7,2.2s1.5-.2,2.3-.7l1,1.9c-1.1.7-2.5,1.2-3.7,1.2-3,0-5.3-2-5.3-5.5ZM257,27.4c0-1.1-.5-2-1.7-2s-1.8.7-2,2h3.8Z"/>
      <path class="st9" d="M261.2,28.5c0-3.4,2.4-5.5,4.9-5.5s4.4,2.2,4.4,5,0,1.1-.1,1.4h-6.2c.3,1.5,1.3,2.2,2.7,2.2s1.5-.2,2.3-.7l1,1.9c-1.1.7-2.5,1.2-3.7,1.2-3,0-5.3-2-5.3-5.5ZM267.9,27.4c0-1.1-.5-2-1.7-2s-1.8.7-2,2h3.8Z"/>
      <path class="st9" d="M272.1,28.5c0-3.4,2.1-5.5,4.3-5.5s1.8.4,2.6,1.1v-1.6c-.1,0-.1-3.5-.1-3.5h3.1v14.7h-2.5l-.2-1h0c-.7.7-1.8,1.3-2.8,1.3-2.6,0-4.3-2.1-4.3-5.5ZM278.9,30.5v-4.3c-.5-.5-1.2-.7-1.7-.7-1,0-1.9.9-1.9,2.9s.7,3,1.9,3,1.2-.2,1.7-.9Z"/>
      <path class="st9" d="M289.2,20h3.4l2.2,6.1c.3.8.5,1.7.8,2.5h0c.3-.8.5-1.7.8-2.5l2.2-6.1h3.4v13.7h-2.8v-5c0-1.3.2-3.3.4-4.6h0l-1.1,3.2-1.9,5.2h-1.7l-1.9-5.2-1.1-3.2h0c.1,1.3.4,3.3.4,4.6v5h-2.8v-13.7Z"/>
      <path class="st9" d="M304.3,28.5c0-3.5,2.4-5.5,5.1-5.5s5.1,2,5.1,5.5-2.4,5.5-5.1,5.5-5.1-2-5.1-5.5ZM311.3,28.5c0-1.8-.6-3-1.9-3s-1.9,1.2-1.9,3,.6,3,1.9,3,1.9-1.2,1.9-3Z"/>
      <path class="st9" d="M316.6,23.3h2.5l.2,1.8h0c.8-1.4,1.9-2.1,3-2.1s.9,0,1.2.2l-.5,2.7c-.4,0-.7-.2-1.1-.2-.8,0-1.7.5-2.3,1.9v6h-3.1v-10.4Z"/>
      <path class="st9" d="M324.1,28.5c0-3.4,2.4-5.5,4.9-5.5s4.4,2.2,4.4,5,0,1.1-.1,1.4h-6.2c.3,1.5,1.3,2.2,2.7,2.2s1.5-.2,2.3-.7l1,1.9c-1.1.7-2.5,1.2-3.7,1.2-3,0-5.3-2-5.3-5.5ZM330.8,27.4c0-1.1-.5-2-1.7-2s-1.8.7-2,2h3.8Z"/>
      <path class="st9" d="M340,20h4.9c2.9,0,5.3,1,5.3,4.3s-2.4,4.5-5.3,4.5h-1.8v4.9h-3.1v-13.7ZM344.7,26.3c1.6,0,2.5-.7,2.5-2s-.9-1.8-2.5-1.8h-1.6v3.8h1.6ZM344.4,28l2.1-2,4.4,7.7h-3.5l-3-5.7Z"/>
      <path class="st9" d="M352,30.8c0-2.2,1.7-3.4,5.9-3.8,0-.9-.5-1.5-1.6-1.5s-1.7.4-2.8.9l-1.1-2c1.3-.8,2.8-1.4,4.4-1.4,2.7,0,4.1,1.5,4.1,4.7v6h-2.5l-.2-1.1h0c-.9.8-1.9,1.3-3,1.3-1.9,0-3.1-1.4-3.1-3.1ZM357.9,30.7v-1.8c-2.2.3-2.9.9-2.9,1.7s.5,1,1.2,1,1.2-.3,1.7-.9Z"/>
      <path class="st9" d="M363.6,29.9v-4.2h-1.4v-2.3h1.6c0-.1.4-2.9.4-2.9h2.6v2.8h2.5v2.4h-2.5v4.2c0,1.2.5,1.7,1.3,1.7s.7,0,1-.2l.5,2.2c-.6.2-1.3.4-2.3.4-2.6,0-3.6-1.6-3.6-4Z"/>
      <path class="st9" d="M371,20.2c0-.9.8-1.6,1.8-1.6s1.8.7,1.8,1.6-.8,1.6-1.8,1.6-1.8-.7-1.8-1.6ZM371.2,23.3h3.1v10.4h-3.1v-10.4Z"/>
      <path class="st9" d="M377,23.3h2.5l.2,1.3h0c.9-.8,1.9-1.6,3.3-1.6,2.3,0,3.2,1.6,3.2,4.2v6.5h-3.1v-6.1c0-1.5-.4-2-1.3-2s-1.2.4-1.9,1v7h-3.1v-10.4Z"/>
      <path class="st9" d="M388.4,35.5c0-.9.5-1.6,1.5-2.1h0c-.5-.4-1-1-1-1.9s.5-1.5,1.2-2h0c-.7-.6-1.4-1.6-1.4-2.8,0-2.5,2.1-3.8,4.3-3.8s1.1,0,1.6.3h3.8v2.2h-1.7c.2.3.4.8.4,1.4,0,2.4-1.8,3.5-4.1,3.5s-.8,0-1.3-.2c-.3.2-.4.4-.4.8s.4.8,1.6.8h1.7c2.6,0,4,.8,4,2.6s-2.3,3.7-5.8,3.7-4.4-.8-4.4-2.6ZM395.6,34.9c0-.7-.6-.8-1.6-.8h-1.1c-.7,0-1.1,0-1.5-.1-.4.3-.6.6-.6,1,0,.8.9,1.2,2.3,1.2s2.4-.6,2.4-1.3ZM394.4,26.8c0-1.1-.6-1.7-1.4-1.7s-1.4.6-1.4,1.7.6,1.7,1.4,1.7,1.4-.6,1.4-1.7Z"/>
      <path class="st9" d="M399.3,32.5l1.4-1.9c.9.7,1.8,1.1,2.7,1.1s1.3-.4,1.3-.9-1-1-2.1-1.4c-1.3-.5-2.8-1.3-2.8-3.1s1.6-3.3,4-3.3,2.8.6,3.7,1.3l-1.4,1.9c-.7-.5-1.5-.9-2.2-.9s-1.2.3-1.2.8,1,.9,2.1,1.3c1.3.5,2.8,1.2,2.8,3.1s-1.5,3.4-4.3,3.4-2.9-.6-4-1.5Z"/>
      <path class="st9" d="M409.2,36.1c1.6-.5,2.4-1.5,2.4-2.6v-2.1c0,0,1,1.7,1,1.7-.3.3-.7.4-1.1.4-1,0-1.9-.6-1.9-1.8s.9-1.8,1.9-1.8,2.1,1.1,2.1,2.9-1.3,4-3.8,4.8l-.6-1.6Z"/>
      <path class="st9" d="M16.8,50h3.3l1.6,6.4c.4,1.5.7,2.9,1.1,4.4h0c.4-1.5.7-2.9,1.1-4.4l1.6-6.4h3.2l-4.1,13.7h-3.7l-4.1-13.7Z"/>
      <path class="st9" d="M29,58.5c0-3.4,2.4-5.5,4.9-5.5s4.4,2.2,4.4,5,0,1.1-.1,1.4h-6.2c.3,1.5,1.3,2.2,2.7,2.2s1.5-.2,2.3-.7l1,1.9c-1.1.7-2.5,1.2-3.7,1.2-3,0-5.3-2-5.3-5.5ZM35.7,57.4c0-1.1-.5-2-1.7-2s-1.8.7-2,2h3.8Z"/>
      <path class="st9" d="M40.5,53.3h2.5l.2,1.8h0c.8-1.4,1.9-2.1,3-2.1s.9,0,1.2.2l-.5,2.7c-.4,0-.7-.2-1.1-.2-.8,0-1.7.5-2.3,1.9v6h-3.1v-10.4Z"/>
      <path class="st9" d="M48.7,67.6l.5-2.4c.2,0,.5.1.7.1,1,0,1.6-.6,1.8-1.4l.2-.5-4-10.1h3.1l1.5,4.5c.3.9.5,1.9.8,3h0c.2-1,.5-2,.7-3l1.3-4.5h3l-3.6,10.5c-1,2.6-2.1,4-4.5,4s-1.1,0-1.5-.2Z"/>
      <path class="st9" d="M64.4,50h8.6v2.6h-5.5v3.2h4.7v2.6h-4.7v5.3h-3.1v-13.7Z"/>
      <path class="st9" d="M74.2,58.5c0-3.4,2.4-5.5,4.9-5.5s4.4,2.2,4.4,5,0,1.1-.1,1.4h-6.2c.3,1.5,1.3,2.2,2.7,2.2s1.5-.2,2.3-.7l1,1.9c-1.1.7-2.5,1.2-3.7,1.2-3,0-5.3-2-5.3-5.5ZM80.9,57.4c0-1.1-.5-2-1.7-2s-1.8.7-2,2h3.8Z"/>
      <path class="st9" d="M84.7,53.3h3.1l1,4.8c.2,1,.3,2,.5,3.1h0c.2-1.1.4-2.1.6-3.1l1.1-4.8h2.7l1.2,4.8c.3,1,.4,2,.7,3.1h0c.2-1.1.3-2.1.5-3.1l1-4.8h2.9l-2.5,10.4h-3.6l-1-4.2c-.2-1-.4-1.9-.6-3h0c-.2,1.1-.3,2.1-.5,3.1l-.9,4.2h-3.5l-2.6-10.4Z"/>
      <path class="st9" d="M108.8,50h3.7l4.3,13.7h-3.3l-1.8-6.9c-.4-1.4-.7-3-1.1-4.4h0c-.3,1.4-.7,3-1.1,4.4l-1.8,6.9h-3.2l4.3-13.7ZM107.4,58h6.6v2.4h-6.6v-2.4Z"/>
      <path class="st9" d="M118.1,53.3h2.5l.2,1.8h0c.8-1.4,1.9-2.1,3-2.1s.9,0,1.2.2l-.5,2.7c-.4,0-.7-.2-1.1-.2-.8,0-1.7.5-2.3,1.9v6h-3.1v-10.4Z"/>
      <path class="st9" d="M125.6,58.5c0-3.4,2.4-5.5,4.9-5.5s4.4,2.2,4.4,5,0,1.1-.1,1.4h-6.2c.3,1.5,1.3,2.2,2.7,2.2s1.5-.2,2.3-.7l1,1.9c-1.1.7-2.5,1.2-3.7,1.2-3,0-5.3-2-5.3-5.5ZM132.3,57.4c0-1.1-.5-2-1.7-2s-1.8.7-2,2h3.8Z"/>
      <path class="st9" d="M216.4,60.8c0-2.2,1.7-3.4,5.9-3.8,0-.9-.5-1.5-1.6-1.5s-1.7.4-2.8.9l-1.1-2c1.3-.8,2.8-1.4,4.4-1.4,2.7,0,4.1,1.5,4.1,4.7v6h-2.5l-.2-1.1h0c-.9.8-1.9,1.3-3,1.3-1.9,0-3.1-1.4-3.1-3.1ZM222.3,60.7v-1.8c-2.2.3-2.9.9-2.9,1.7s.5,1,1.2,1,1.2-.3,1.7-.9Z"/>
      <path class="st9" d="M228,53.3h2.5l.2,1.3h0c.9-.8,1.9-1.6,3.3-1.6,2.3,0,3.2,1.6,3.2,4.2v6.5h-3.1v-6.1c0-1.5-.4-2-1.3-2s-1.2.4-1.9,1v7h-3.1v-10.4Z"/>
      <path class="st9" d="M239.4,58.5c0-3.4,2.1-5.5,4.3-5.5s1.8.4,2.6,1.1v-1.6c-.1,0-.1-3.5-.1-3.5h3.1v14.7h-2.5l-.2-1h0c-.7.7-1.8,1.3-2.8,1.3-2.6,0-4.3-2.1-4.3-5.5ZM246.2,60.5v-4.3c-.5-.5-1.2-.7-1.7-.7-1,0-1.9.9-1.9,2.9s.7,3,1.9,3,1.2-.2,1.7-.9Z"/>
    </g>
    <g>
      <path class="st1" d="M18.6,20h3.4l2.2,6.1c.3.8.5,1.7.8,2.5h0c.3-.8.5-1.7.8-2.5l2.2-6.1h3.4v13.7h-2.8v-5c0-1.3.2-3.3.4-4.6h0l-1.1,3.2-1.9,5.2h-1.7l-1.9-5.2-1.1-3.2h0c.1,1.3.4,3.3.4,4.6v5h-2.8v-13.7Z"/>
      <path class="st1" d="M33.8,28.5c0-3.5,2.4-5.5,5.1-5.5s5.1,2,5.1,5.5-2.4,5.5-5.1,5.5-5.1-2-5.1-5.5ZM40.7,28.5c0-1.8-.6-3-1.9-3s-1.9,1.2-1.9,3,.6,3,1.9,3,1.9-1.2,1.9-3Z"/>
      <path class="st1" d="M45,32.5l1.4-1.9c.9.7,1.8,1.1,2.7,1.1s1.3-.4,1.3-.9-1-1-2.1-1.4c-1.3-.5-2.8-1.3-2.8-3.1s1.6-3.3,4-3.3,2.8.6,3.7,1.3l-1.4,1.9c-.7-.5-1.5-.9-2.2-.9s-1.2.3-1.2.8,1,.9,2.1,1.3c1.3.5,2.8,1.2,2.8,3.1s-1.5,3.4-4.3,3.4-2.9-.6-4-1.5Z"/>
      <path class="st1" d="M55.2,29.9v-4.2h-1.4v-2.3h1.6c0-.1.4-2.9.4-2.9h2.6v2.8h2.5v2.4h-2.5v4.2c0,1.2.5,1.7,1.3,1.7s.7,0,1-.2l.5,2.2c-.6.2-1.3.4-2.3.4-2.6,0-3.6-1.6-3.6-4Z"/>
      <path class="st1" d="M66.6,26.9c0-4.5,3-7.2,6.5-7.2s3.2.8,4.1,1.8l-1.6,2c-.7-.6-1.4-1.1-2.4-1.1-1.9,0-3.4,1.7-3.4,4.4s1.3,4.4,3.3,4.4,2-.6,2.7-1.3l1.6,1.9c-1.1,1.3-2.6,2-4.4,2-3.5,0-6.4-2.4-6.4-7Z"/>
      <path class="st1" d="M78.7,28.5c0-3.5,2.4-5.5,5.1-5.5s5.1,2,5.1,5.5-2.4,5.5-5.1,5.5-5.1-2-5.1-5.5ZM85.6,28.5c0-1.8-.6-3-1.9-3s-1.9,1.2-1.9,3,.6,3,1.9,3,1.9-1.2,1.9-3Z"/>
      <path class="st1" d="M90.9,23.3h2.5l.2,1.3h0c.9-.9,1.8-1.6,3.2-1.6s2.3.6,2.9,1.8c.9-1,1.9-1.8,3.3-1.8,2.3,0,3.3,1.6,3.3,4.2v6.5h-3.1v-6.1c0-1.5-.4-2-1.3-2s-1.1.3-1.8,1v7h-3.1v-6.1c0-1.5-.4-2-1.3-2s-1.1.3-1.8,1v7h-3.1v-10.4Z"/>
      <path class="st1" d="M108.9,23.3h2.5l.2,1.3h0c.9-.9,1.8-1.6,3.2-1.6s2.3.6,2.9,1.8c.9-1,1.9-1.8,3.3-1.8,2.3,0,3.3,1.6,3.3,4.2v6.5h-3.1v-6.1c0-1.5-.4-2-1.3-2s-1.1.3-1.8,1v7h-3.1v-6.1c0-1.5-.4-2-1.3-2s-1.1.3-1.8,1v7h-3.1v-10.4Z"/>
      <path class="st1" d="M126.8,29.8v-6.5h3.1v6.1c0,1.5.4,2,1.3,2s1.2-.3,1.9-1.1v-6.9h3.1v10.4h-2.5l-.2-1.4h0c-.9,1-1.9,1.7-3.3,1.7-2.3,0-3.2-1.6-3.2-4.2Z"/>
      <path class="st1" d="M138.8,23.3h2.5l.2,1.3h0c.9-.8,1.9-1.6,3.3-1.6,2.3,0,3.2,1.6,3.2,4.2v6.5h-3.1v-6.1c0-1.5-.4-2-1.3-2s-1.2.4-1.9,1v7h-3.1v-10.4Z"/>
      <path class="st1" d="M150.6,20.2c0-.9.8-1.6,1.8-1.6s1.8.7,1.8,1.6-.8,1.6-1.8,1.6-1.8-.7-1.8-1.6ZM150.8,23.3h3.1v10.4h-3.1v-10.4Z"/>
      <path class="st1" d="M157.1,29.9v-4.2h-1.4v-2.3h1.6c0-.1.4-2.9.4-2.9h2.6v2.8h2.5v2.4h-2.5v4.2c0,1.2.5,1.7,1.3,1.7s.7,0,1-.2l.5,2.2c-.6.2-1.3.4-2.3.4-2.6,0-3.6-1.6-3.6-4Z"/>
      <path class="st1" d="M164.4,37.6l.5-2.4c.2,0,.5.1.7.1,1,0,1.6-.6,1.8-1.4l.2-.5-4-10.1h3.1l1.5,4.5c.3.9.5,1.9.8,3h0c.2-1,.5-2,.7-3l1.3-4.5h3l-3.6,10.5c-1,2.6-2.1,4-4.5,4s-1.1,0-1.5-.2Z"/>
      <path class="st1" d="M180.1,20h3.2l3.6,6.8,1.4,3h0c-.1-1.4-.4-3.4-.4-5v-4.8h2.9v13.7h-3.2l-3.6-6.8-1.4-3h0c.1,1.5.4,3.3.4,5v4.9h-2.9v-13.7Z"/>
      <path class="st1" d="M193.2,28.5c0-3.5,2.4-5.5,5.1-5.5s5.1,2,5.1,5.5-2.4,5.5-5.1,5.5-5.1-2-5.1-5.5ZM200.2,28.5c0-1.8-.6-3-1.9-3s-1.9,1.2-1.9,3,.6,3,1.9,3,1.9-1.2,1.9-3Z"/>
      <path class="st1" d="M205.3,29.9v-4.2h-1.4v-2.3h1.6c0-.1.4-2.9.4-2.9h2.6v2.8h2.5v2.4h-2.5v4.2c0,1.2.5,1.7,1.3,1.7s.7,0,1-.2l.5,2.2c-.6.2-1.3.4-2.3.4-2.6,0-3.6-1.6-3.6-4Z"/>
      <path class="st1" d="M212,28.5c0-3.4,2.4-5.5,4.9-5.5s4.4,2.2,4.4,5,0,1.1-.1,1.4h-6.2c.3,1.5,1.3,2.2,2.7,2.2s1.5-.2,2.3-.7l1,1.9c-1.1.7-2.5,1.2-3.7,1.2-3,0-5.3-2-5.3-5.5ZM218.7,27.4c0-1.1-.5-2-1.7-2s-1.8.7-2,2h3.8Z"/>
      <path class="st1" d="M222.5,32.5l1.4-1.9c.9.7,1.8,1.1,2.7,1.1s1.3-.4,1.3-.9-1-1-2.1-1.4c-1.3-.5-2.8-1.3-2.8-3.1s1.6-3.3,4-3.3,2.8.6,3.7,1.3l-1.4,1.9c-.7-.5-1.5-.9-2.2-.9s-1.2.3-1.2.8,1,.9,2.1,1.3c1.3.5,2.8,1.2,2.8,3.1s-1.5,3.4-4.3,3.4-2.9-.6-4-1.5Z"/>
      <path class="st1" d="M237.2,20h3.2l3.6,6.8,1.4,3h0c-.1-1.4-.4-3.4-.4-5v-4.8h2.9v13.7h-3.2l-3.6-6.8-1.4-3h0c.1,1.5.4,3.3.4,5v4.9h-2.9v-13.7Z"/>
      <path class="st1" d="M250.3,28.5c0-3.4,2.4-5.5,4.9-5.5s4.4,2.2,4.4,5,0,1.1-.1,1.4h-6.2c.3,1.5,1.3,2.2,2.7,2.2s1.5-.2,2.3-.7l1,1.9c-1.1.7-2.5,1.2-3.7,1.2-3,0-5.3-2-5.3-5.5ZM257,27.4c0-1.1-.5-2-1.7-2s-1.8.7-2,2h3.8Z"/>
      <path class="st1" d="M261.2,28.5c0-3.4,2.4-5.5,4.9-5.5s4.4,2.2,4.4,5,0,1.1-.1,1.4h-6.2c.3,1.5,1.3,2.2,2.7,2.2s1.5-.2,2.3-.7l1,1.9c-1.1.7-2.5,1.2-3.7,1.2-3,0-5.3-2-5.3-5.5ZM267.9,27.4c0-1.1-.5-2-1.7-2s-1.8.7-2,2h3.8Z"/>
      <path class="st1" d="M272.1,28.5c0-3.4,2.1-5.5,4.3-5.5s1.8.4,2.6,1.1v-1.6c-.1,0-.1-3.5-.1-3.5h3.1v14.7h-2.5l-.2-1h0c-.7.7-1.8,1.3-2.8,1.3-2.6,0-4.3-2.1-4.3-5.5ZM278.9,30.5v-4.3c-.5-.5-1.2-.7-1.7-.7-1,0-1.9.9-1.9,2.9s.7,3,1.9,3,1.2-.2,1.7-.9Z"/>
      <path class="st1" d="M289.2,20h3.4l2.2,6.1c.3.8.5,1.7.8,2.5h0c.3-.8.5-1.7.8-2.5l2.2-6.1h3.4v13.7h-2.8v-5c0-1.3.2-3.3.4-4.6h0l-1.1,3.2-1.9,5.2h-1.7l-1.9-5.2-1.1-3.2h0c.1,1.3.4,3.3.4,4.6v5h-2.8v-13.7Z"/>
      <path class="st1" d="M304.3,28.5c0-3.5,2.4-5.5,5.1-5.5s5.1,2,5.1,5.5-2.4,5.5-5.1,5.5-5.1-2-5.1-5.5ZM311.3,28.5c0-1.8-.6-3-1.9-3s-1.9,1.2-1.9,3,.6,3,1.9,3,1.9-1.2,1.9-3Z"/>
      <path class="st1" d="M316.6,23.3h2.5l.2,1.8h0c.8-1.4,1.9-2.1,3-2.1s.9,0,1.2.2l-.5,2.7c-.4,0-.7-.2-1.1-.2-.8,0-1.7.5-2.3,1.9v6h-3.1v-10.4Z"/>
      <path class="st1" d="M324.1,28.5c0-3.4,2.4-5.5,4.9-5.5s4.4,2.2,4.4,5,0,1.1-.1,1.4h-6.2c.3,1.5,1.3,2.2,2.7,2.2s1.5-.2,2.3-.7l1,1.9c-1.1.7-2.5,1.2-3.7,1.2-3,0-5.3-2-5.3-5.5ZM330.8,27.4c0-1.1-.5-2-1.7-2s-1.8.7-2,2h3.8Z"/>
      <path class="st1" d="M340,20h4.9c2.9,0,5.3,1,5.3,4.3s-2.4,4.5-5.3,4.5h-1.8v4.9h-3.1v-13.7ZM344.7,26.3c1.6,0,2.5-.7,2.5-2s-.9-1.8-2.5-1.8h-1.6v3.8h1.6ZM344.4,28l2.1-2,4.4,7.7h-3.5l-3-5.7Z"/>
      <path class="st1" d="M352,30.8c0-2.2,1.7-3.4,5.9-3.8,0-.9-.5-1.5-1.6-1.5s-1.7.4-2.8.9l-1.1-2c1.3-.8,2.8-1.4,4.4-1.4,2.7,0,4.1,1.5,4.1,4.7v6h-2.5l-.2-1.1h0c-.9.8-1.9,1.3-3,1.3-1.9,0-3.1-1.4-3.1-3.1ZM357.9,30.7v-1.8c-2.2.3-2.9.9-2.9,1.7s.5,1,1.2,1,1.2-.3,1.7-.9Z"/>
      <path class="st1" d="M363.6,29.9v-4.2h-1.4v-2.3h1.6c0-.1.4-2.9.4-2.9h2.6v2.8h2.5v2.4h-2.5v4.2c0,1.2.5,1.7,1.3,1.7s.7,0,1-.2l.5,2.2c-.6.2-1.3.4-2.3.4-2.6,0-3.6-1.6-3.6-4Z"/>
      <path class="st1" d="M371,20.2c0-.9.8-1.6,1.8-1.6s1.8.7,1.8,1.6-.8,1.6-1.8,1.6-1.8-.7-1.8-1.6ZM371.2,23.3h3.1v10.4h-3.1v-10.4Z"/>
      <path class="st1" d="M377,23.3h2.5l.2,1.3h0c.9-.8,1.9-1.6,3.3-1.6,2.3,0,3.2,1.6,3.2,4.2v6.5h-3.1v-6.1c0-1.5-.4-2-1.3-2s-1.2.4-1.9,1v7h-3.1v-10.4Z"/>
      <path class="st1" d="M388.4,35.5c0-.9.5-1.6,1.5-2.1h0c-.5-.4-1-1-1-1.9s.5-1.5,1.2-2h0c-.7-.6-1.4-1.6-1.4-2.8,0-2.5,2.1-3.8,4.3-3.8s1.1,0,1.6.3h3.8v2.2h-1.7c.2.3.4.8.4,1.4,0,2.4-1.8,3.5-4.1,3.5s-.8,0-1.3-.2c-.3.2-.4.4-.4.8s.4.8,1.6.8h1.7c2.6,0,4,.8,4,2.6s-2.3,3.7-5.8,3.7-4.4-.8-4.4-2.6ZM395.6,34.9c0-.7-.6-.8-1.6-.8h-1.1c-.7,0-1.1,0-1.5-.1-.4.3-.6.6-.6,1,0,.8.9,1.2,2.3,1.2s2.4-.6,2.4-1.3ZM394.4,26.8c0-1.1-.6-1.7-1.4-1.7s-1.4.6-1.4,1.7.6,1.7,1.4,1.7,1.4-.6,1.4-1.7Z"/>
      <path class="st1" d="M399.3,32.5l1.4-1.9c.9.7,1.8,1.1,2.7,1.1s1.3-.4,1.3-.9-1-1-2.1-1.4c-1.3-.5-2.8-1.3-2.8-3.1s1.6-3.3,4-3.3,2.8.6,3.7,1.3l-1.4,1.9c-.7-.5-1.5-.9-2.2-.9s-1.2.3-1.2.8,1,.9,2.1,1.3c1.3.5,2.8,1.2,2.8,3.1s-1.5,3.4-4.3,3.4-2.9-.6-4-1.5Z"/>
      <path class="st1" d="M409.2,36.1c1.6-.5,2.4-1.5,2.4-2.6v-2.1c0,0,1,1.7,1,1.7-.3.3-.7.4-1.1.4-1,0-1.9-.6-1.9-1.8s.9-1.8,1.9-1.8,2.1,1.1,2.1,2.9-1.3,4-3.8,4.8l-.6-1.6Z"/>
      <path class="st1" d="M16.8,50h3.3l1.6,6.4c.4,1.5.7,2.9,1.1,4.4h0c.4-1.5.7-2.9,1.1-4.4l1.6-6.4h3.2l-4.1,13.7h-3.7l-4.1-13.7Z"/>
      <path class="st1" d="M29,58.5c0-3.4,2.4-5.5,4.9-5.5s4.4,2.2,4.4,5,0,1.1-.1,1.4h-6.2c.3,1.5,1.3,2.2,2.7,2.2s1.5-.2,2.3-.7l1,1.9c-1.1.7-2.5,1.2-3.7,1.2-3,0-5.3-2-5.3-5.5ZM35.7,57.4c0-1.1-.5-2-1.7-2s-1.8.7-2,2h3.8Z"/>
      <path class="st1" d="M40.5,53.3h2.5l.2,1.8h0c.8-1.4,1.9-2.1,3-2.1s.9,0,1.2.2l-.5,2.7c-.4,0-.7-.2-1.1-.2-.8,0-1.7.5-2.3,1.9v6h-3.1v-10.4Z"/>
      <path class="st1" d="M48.7,67.6l.5-2.4c.2,0,.5.1.7.1,1,0,1.6-.6,1.8-1.4l.2-.5-4-10.1h3.1l1.5,4.5c.3.9.5,1.9.8,3h0c.2-1,.5-2,.7-3l1.3-4.5h3l-3.6,10.5c-1,2.6-2.1,4-4.5,4s-1.1,0-1.5-.2Z"/>
      <path class="st1" d="M64.4,50h8.6v2.6h-5.5v3.2h4.7v2.6h-4.7v5.3h-3.1v-13.7Z"/>
      <path class="st1" d="M74.2,58.5c0-3.4,2.4-5.5,4.9-5.5s4.4,2.2,4.4,5,0,1.1-.1,1.4h-6.2c.3,1.5,1.3,2.2,2.7,2.2s1.5-.2,2.3-.7l1,1.9c-1.1.7-2.5,1.2-3.7,1.2-3,0-5.3-2-5.3-5.5ZM80.9,57.4c0-1.1-.5-2-1.7-2s-1.8.7-2,2h3.8Z"/>
      <path class="st1" d="M84.7,53.3h3.1l1,4.8c.2,1,.3,2,.5,3.1h0c.2-1.1.4-2.1.6-3.1l1.1-4.8h2.7l1.2,4.8c.3,1,.4,2,.7,3.1h0c.2-1.1.3-2.1.5-3.1l1-4.8h2.9l-2.5,10.4h-3.6l-1-4.2c-.2-1-.4-1.9-.6-3h0c-.2,1.1-.3,2.1-.5,3.1l-.9,4.2h-3.5l-2.6-10.4Z"/>
      <path class="st1" d="M108.8,50h3.7l4.3,13.7h-3.3l-1.8-6.9c-.4-1.4-.7-3-1.1-4.4h0c-.3,1.4-.7,3-1.1,4.4l-1.8,6.9h-3.2l4.3-13.7ZM107.4,58h6.6v2.4h-6.6v-2.4Z"/>
      <path class="st1" d="M118.1,53.3h2.5l.2,1.8h0c.8-1.4,1.9-2.1,3-2.1s.9,0,1.2.2l-.5,2.7c-.4,0-.7-.2-1.1-.2-.8,0-1.7.5-2.3,1.9v6h-3.1v-10.4Z"/>
      <path class="st1" d="M125.6,58.5c0-3.4,2.4-5.5,4.9-5.5s4.4,2.2,4.4,5,0,1.1-.1,1.4h-6.2c.3,1.5,1.3,2.2,2.7,2.2s1.5-.2,2.3-.7l1,1.9c-1.1.7-2.5,1.2-3.7,1.2-3,0-5.3-2-5.3-5.5ZM132.3,57.4c0-1.1-.5-2-1.7-2s-1.8.7-2,2h3.8Z"/>
      <path class="st1" d="M216.4,60.8c0-2.2,1.7-3.4,5.9-3.8,0-.9-.5-1.5-1.6-1.5s-1.7.4-2.8.9l-1.1-2c1.3-.8,2.8-1.4,4.4-1.4,2.7,0,4.1,1.5,4.1,4.7v6h-2.5l-.2-1.1h0c-.9.8-1.9,1.3-3,1.3-1.9,0-3.1-1.4-3.1-3.1ZM222.3,60.7v-1.8c-2.2.3-2.9.9-2.9,1.7s.5,1,1.2,1,1.2-.3,1.7-.9Z"/>
      <path class="st1" d="M228,53.3h2.5l.2,1.3h0c.9-.8,1.9-1.6,3.3-1.6,2.3,0,3.2,1.6,3.2,4.2v6.5h-3.1v-6.1c0-1.5-.4-2-1.3-2s-1.2.4-1.9,1v7h-3.1v-10.4Z"/>
      <path class="st1" d="M239.4,58.5c0-3.4,2.1-5.5,4.3-5.5s1.8.4,2.6,1.1v-1.6c-.1,0-.1-3.5-.1-3.5h3.1v14.7h-2.5l-.2-1h0c-.7.7-1.8,1.3-2.8,1.3-2.6,0-4.3-2.1-4.3-5.5ZM246.2,60.5v-4.3c-.5-.5-1.2-.7-1.7-.7-1,0-1.9.9-1.9,2.9s.7,3,1.9,3,1.2-.2,1.7-.9Z"/>
    </g>
    <g>
      <path class="st1" d="M18.6,20h3.4l2.2,6.1c.3.8.5,1.7.8,2.5h0c.3-.8.5-1.7.8-2.5l2.2-6.1h3.4v13.7h-2.8v-5c0-1.3.2-3.3.4-4.6h0l-1.1,3.2-1.9,5.2h-1.7l-1.9-5.2-1.1-3.2h0c.1,1.3.4,3.3.4,4.6v5h-2.8v-13.7Z"/>
      <path class="st1" d="M33.8,28.5c0-3.5,2.4-5.5,5.1-5.5s5.1,2,5.1,5.5-2.4,5.5-5.1,5.5-5.1-2-5.1-5.5ZM40.7,28.5c0-1.8-.6-3-1.9-3s-1.9,1.2-1.9,3,.6,3,1.9,3,1.9-1.2,1.9-3Z"/>
      <path class="st1" d="M45,32.5l1.4-1.9c.9.7,1.8,1.1,2.7,1.1s1.3-.4,1.3-.9-1-1-2.1-1.4c-1.3-.5-2.8-1.3-2.8-3.1s1.6-3.3,4-3.3,2.8.6,3.7,1.3l-1.4,1.9c-.7-.5-1.5-.9-2.2-.9s-1.2.3-1.2.8,1,.9,2.1,1.3c1.3.5,2.8,1.2,2.8,3.1s-1.5,3.4-4.3,3.4-2.9-.6-4-1.5Z"/>
      <path class="st1" d="M55.2,29.9v-4.2h-1.4v-2.3h1.6c0-.1.4-2.9.4-2.9h2.6v2.8h2.5v2.4h-2.5v4.2c0,1.2.5,1.7,1.3,1.7s.7,0,1-.2l.5,2.2c-.6.2-1.3.4-2.3.4-2.6,0-3.6-1.6-3.6-4Z"/>
      <path class="st1" d="M66.6,26.9c0-4.5,3-7.2,6.5-7.2s3.2.8,4.1,1.8l-1.6,2c-.7-.6-1.4-1.1-2.4-1.1-1.9,0-3.4,1.7-3.4,4.4s1.3,4.4,3.3,4.4,2-.6,2.7-1.3l1.6,1.9c-1.1,1.3-2.6,2-4.4,2-3.5,0-6.4-2.4-6.4-7Z"/>
      <path class="st1" d="M78.7,28.5c0-3.5,2.4-5.5,5.1-5.5s5.1,2,5.1,5.5-2.4,5.5-5.1,5.5-5.1-2-5.1-5.5ZM85.6,28.5c0-1.8-.6-3-1.9-3s-1.9,1.2-1.9,3,.6,3,1.9,3,1.9-1.2,1.9-3Z"/>
      <path class="st1" d="M90.9,23.3h2.5l.2,1.3h0c.9-.9,1.8-1.6,3.2-1.6s2.3.6,2.9,1.8c.9-1,1.9-1.8,3.3-1.8,2.3,0,3.3,1.6,3.3,4.2v6.5h-3.1v-6.1c0-1.5-.4-2-1.3-2s-1.1.3-1.8,1v7h-3.1v-6.1c0-1.5-.4-2-1.3-2s-1.1.3-1.8,1v7h-3.1v-10.4Z"/>
      <path class="st1" d="M108.9,23.3h2.5l.2,1.3h0c.9-.9,1.8-1.6,3.2-1.6s2.3.6,2.9,1.8c.9-1,1.9-1.8,3.3-1.8,2.3,0,3.3,1.6,3.3,4.2v6.5h-3.1v-6.1c0-1.5-.4-2-1.3-2s-1.1.3-1.8,1v7h-3.1v-6.1c0-1.5-.4-2-1.3-2s-1.1.3-1.8,1v7h-3.1v-10.4Z"/>
      <path class="st1" d="M126.8,29.8v-6.5h3.1v6.1c0,1.5.4,2,1.3,2s1.2-.3,1.9-1.1v-6.9h3.1v10.4h-2.5l-.2-1.4h0c-.9,1-1.9,1.7-3.3,1.7-2.3,0-3.2-1.6-3.2-4.2Z"/>
      <path class="st1" d="M138.8,23.3h2.5l.2,1.3h0c.9-.8,1.9-1.6,3.3-1.6,2.3,0,3.2,1.6,3.2,4.2v6.5h-3.1v-6.1c0-1.5-.4-2-1.3-2s-1.2.4-1.9,1v7h-3.1v-10.4Z"/>
      <path class="st1" d="M150.6,20.2c0-.9.8-1.6,1.8-1.6s1.8.7,1.8,1.6-.8,1.6-1.8,1.6-1.8-.7-1.8-1.6ZM150.8,23.3h3.1v10.4h-3.1v-10.4Z"/>
      <path class="st1" d="M157.1,29.9v-4.2h-1.4v-2.3h1.6c0-.1.4-2.9.4-2.9h2.6v2.8h2.5v2.4h-2.5v4.2c0,1.2.5,1.7,1.3,1.7s.7,0,1-.2l.5,2.2c-.6.2-1.3.4-2.3.4-2.6,0-3.6-1.6-3.6-4Z"/>
      <path class="st1" d="M164.4,37.6l.5-2.4c.2,0,.5.1.7.1,1,0,1.6-.6,1.8-1.4l.2-.5-4-10.1h3.1l1.5,4.5c.3.9.5,1.9.8,3h0c.2-1,.5-2,.7-3l1.3-4.5h3l-3.6,10.5c-1,2.6-2.1,4-4.5,4s-1.1,0-1.5-.2Z"/>
      <path class="st1" d="M180.1,20h3.2l3.6,6.8,1.4,3h0c-.1-1.4-.4-3.4-.4-5v-4.8h2.9v13.7h-3.2l-3.6-6.8-1.4-3h0c.1,1.5.4,3.3.4,5v4.9h-2.9v-13.7Z"/>
      <path class="st1" d="M193.2,28.5c0-3.5,2.4-5.5,5.1-5.5s5.1,2,5.1,5.5-2.4,5.5-5.1,5.5-5.1-2-5.1-5.5ZM200.2,28.5c0-1.8-.6-3-1.9-3s-1.9,1.2-1.9,3,.6,3,1.9,3,1.9-1.2,1.9-3Z"/>
      <path class="st1" d="M205.3,29.9v-4.2h-1.4v-2.3h1.6c0-.1.4-2.9.4-2.9h2.6v2.8h2.5v2.4h-2.5v4.2c0,1.2.5,1.7,1.3,1.7s.7,0,1-.2l.5,2.2c-.6.2-1.3.4-2.3.4-2.6,0-3.6-1.6-3.6-4Z"/>
      <path class="st1" d="M212,28.5c0-3.4,2.4-5.5,4.9-5.5s4.4,2.2,4.4,5,0,1.1-.1,1.4h-6.2c.3,1.5,1.3,2.2,2.7,2.2s1.5-.2,2.3-.7l1,1.9c-1.1.7-2.5,1.2-3.7,1.2-3,0-5.3-2-5.3-5.5ZM218.7,27.4c0-1.1-.5-2-1.7-2s-1.8.7-2,2h3.8Z"/>
      <path class="st1" d="M222.5,32.5l1.4-1.9c.9.7,1.8,1.1,2.7,1.1s1.3-.4,1.3-.9-1-1-2.1-1.4c-1.3-.5-2.8-1.3-2.8-3.1s1.6-3.3,4-3.3,2.8.6,3.7,1.3l-1.4,1.9c-.7-.5-1.5-.9-2.2-.9s-1.2.3-1.2.8,1,.9,2.1,1.3c1.3.5,2.8,1.2,2.8,3.1s-1.5,3.4-4.3,3.4-2.9-.6-4-1.5Z"/>
      <path class="st1" d="M237.2,20h3.2l3.6,6.8,1.4,3h0c-.1-1.4-.4-3.4-.4-5v-4.8h2.9v13.7h-3.2l-3.6-6.8-1.4-3h0c.1,1.5.4,3.3.4,5v4.9h-2.9v-13.7Z"/>
      <path class="st1" d="M250.3,28.5c0-3.4,2.4-5.5,4.9-5.5s4.4,2.2,4.4,5,0,1.1-.1,1.4h-6.2c.3,1.5,1.3,2.2,2.7,2.2s1.5-.2,2.3-.7l1,1.9c-1.1.7-2.5,1.2-3.7,1.2-3,0-5.3-2-5.3-5.5ZM257,27.4c0-1.1-.5-2-1.7-2s-1.8.7-2,2h3.8Z"/>
      <path class="st1" d="M261.2,28.5c0-3.4,2.4-5.5,4.9-5.5s4.4,2.2,4.4,5,0,1.1-.1,1.4h-6.2c.3,1.5,1.3,2.2,2.7,2.2s1.5-.2,2.3-.7l1,1.9c-1.1.7-2.5,1.2-3.7,1.2-3,0-5.3-2-5.3-5.5ZM267.9,27.4c0-1.1-.5-2-1.7-2s-1.8.7-2,2h3.8Z"/>
      <path class="st1" d="M272.1,28.5c0-3.4,2.1-5.5,4.3-5.5s1.8.4,2.6,1.1v-1.6c-.1,0-.1-3.5-.1-3.5h3.1v14.7h-2.5l-.2-1h0c-.7.7-1.8,1.3-2.8,1.3-2.6,0-4.3-2.1-4.3-5.5ZM278.9,30.5v-4.3c-.5-.5-1.2-.7-1.7-.7-1,0-1.9.9-1.9,2.9s.7,3,1.9,3,1.2-.2,1.7-.9Z"/>
      <path class="st1" d="M289.2,20h3.4l2.2,6.1c.3.8.5,1.7.8,2.5h0c.3-.8.5-1.7.8-2.5l2.2-6.1h3.4v13.7h-2.8v-5c0-1.3.2-3.3.4-4.6h0l-1.1,3.2-1.9,5.2h-1.7l-1.9-5.2-1.1-3.2h0c.1,1.3.4,3.3.4,4.6v5h-2.8v-13.7Z"/>
      <path class="st1" d="M304.3,28.5c0-3.5,2.4-5.5,5.1-5.5s5.1,2,5.1,5.5-2.4,5.5-5.1,5.5-5.1-2-5.1-5.5ZM311.3,28.5c0-1.8-.6-3-1.9-3s-1.9,1.2-1.9,3,.6,3,1.9,3,1.9-1.2,1.9-3Z"/>
      <path class="st1" d="M316.6,23.3h2.5l.2,1.8h0c.8-1.4,1.9-2.1,3-2.1s.9,0,1.2.2l-.5,2.7c-.4,0-.7-.2-1.1-.2-.8,0-1.7.5-2.3,1.9v6h-3.1v-10.4Z"/>
      <path class="st1" d="M324.1,28.5c0-3.4,2.4-5.5,4.9-5.5s4.4,2.2,4.4,5,0,1.1-.1,1.4h-6.2c.3,1.5,1.3,2.2,2.7,2.2s1.5-.2,2.3-.7l1,1.9c-1.1.7-2.5,1.2-3.7,1.2-3,0-5.3-2-5.3-5.5ZM330.8,27.4c0-1.1-.5-2-1.7-2s-1.8.7-2,2h3.8Z"/>
      <path class="st1" d="M340,20h4.9c2.9,0,5.3,1,5.3,4.3s-2.4,4.5-5.3,4.5h-1.8v4.9h-3.1v-13.7ZM344.7,26.3c1.6,0,2.5-.7,2.5-2s-.9-1.8-2.5-1.8h-1.6v3.8h1.6ZM344.4,28l2.1-2,4.4,7.7h-3.5l-3-5.7Z"/>
      <path class="st1" d="M352,30.8c0-2.2,1.7-3.4,5.9-3.8,0-.9-.5-1.5-1.6-1.5s-1.7.4-2.8.9l-1.1-2c1.3-.8,2.8-1.4,4.4-1.4,2.7,0,4.1,1.5,4.1,4.7v6h-2.5l-.2-1.1h0c-.9.8-1.9,1.3-3,1.3-1.9,0-3.1-1.4-3.1-3.1ZM357.9,30.7v-1.8c-2.2.3-2.9.9-2.9,1.7s.5,1,1.2,1,1.2-.3,1.7-.9Z"/>
      <path class="st1" d="M363.6,29.9v-4.2h-1.4v-2.3h1.6c0-.1.4-2.9.4-2.9h2.6v2.8h2.5v2.4h-2.5v4.2c0,1.2.5,1.7,1.3,1.7s.7,0,1-.2l.5,2.2c-.6.2-1.3.4-2.3.4-2.6,0-3.6-1.6-3.6-4Z"/>
      <path class="st1" d="M371,20.2c0-.9.8-1.6,1.8-1.6s1.8.7,1.8,1.6-.8,1.6-1.8,1.6-1.8-.7-1.8-1.6ZM371.2,23.3h3.1v10.4h-3.1v-10.4Z"/>
      <path class="st1" d="M377,23.3h2.5l.2,1.3h0c.9-.8,1.9-1.6,3.3-1.6,2.3,0,3.2,1.6,3.2,4.2v6.5h-3.1v-6.1c0-1.5-.4-2-1.3-2s-1.2.4-1.9,1v7h-3.1v-10.4Z"/>
      <path class="st1" d="M388.4,35.5c0-.9.5-1.6,1.5-2.1h0c-.5-.4-1-1-1-1.9s.5-1.5,1.2-2h0c-.7-.6-1.4-1.6-1.4-2.8,0-2.5,2.1-3.8,4.3-3.8s1.1,0,1.6.3h3.8v2.2h-1.7c.2.3.4.8.4,1.4,0,2.4-1.8,3.5-4.1,3.5s-.8,0-1.3-.2c-.3.2-.4.4-.4.8s.4.8,1.6.8h1.7c2.6,0,4,.8,4,2.6s-2.3,3.7-5.8,3.7-4.4-.8-4.4-2.6ZM395.6,34.9c0-.7-.6-.8-1.6-.8h-1.1c-.7,0-1.1,0-1.5-.1-.4.3-.6.6-.6,1,0,.8.9,1.2,2.3,1.2s2.4-.6,2.4-1.3ZM394.4,26.8c0-1.1-.6-1.7-1.4-1.7s-1.4.6-1.4,1.7.6,1.7,1.4,1.7,1.4-.6,1.4-1.7Z"/>
      <path class="st1" d="M399.3,32.5l1.4-1.9c.9.7,1.8,1.1,2.7,1.1s1.3-.4,1.3-.9-1-1-2.1-1.4c-1.3-.5-2.8-1.3-2.8-3.1s1.6-3.3,4-3.3,2.8.6,3.7,1.3l-1.4,1.9c-.7-.5-1.5-.9-2.2-.9s-1.2.3-1.2.8,1,.9,2.1,1.3c1.3.5,2.8,1.2,2.8,3.1s-1.5,3.4-4.3,3.4-2.9-.6-4-1.5Z"/>
      <path class="st1" d="M409.2,36.1c1.6-.5,2.4-1.5,2.4-2.6v-2.1c0,0,1,1.7,1,1.7-.3.3-.7.4-1.1.4-1,0-1.9-.6-1.9-1.8s.9-1.8,1.9-1.8,2.1,1.1,2.1,2.9-1.3,4-3.8,4.8l-.6-1.6Z"/>
      <path class="st1" d="M16.8,50h3.3l1.6,6.4c.4,1.5.7,2.9,1.1,4.4h0c.4-1.5.7-2.9,1.1-4.4l1.6-6.4h3.2l-4.1,13.7h-3.7l-4.1-13.7Z"/>
      <path class="st1" d="M29,58.5c0-3.4,2.4-5.5,4.9-5.5s4.4,2.2,4.4,5,0,1.1-.1,1.4h-6.2c.3,1.5,1.3,2.2,2.7,2.2s1.5-.2,2.3-.7l1,1.9c-1.1.7-2.5,1.2-3.7,1.2-3,0-5.3-2-5.3-5.5ZM35.7,57.4c0-1.1-.5-2-1.7-2s-1.8.7-2,2h3.8Z"/>
      <path class="st1" d="M40.5,53.3h2.5l.2,1.8h0c.8-1.4,1.9-2.1,3-2.1s.9,0,1.2.2l-.5,2.7c-.4,0-.7-.2-1.1-.2-.8,0-1.7.5-2.3,1.9v6h-3.1v-10.4Z"/>
      <path class="st1" d="M48.7,67.6l.5-2.4c.2,0,.5.1.7.1,1,0,1.6-.6,1.8-1.4l.2-.5-4-10.1h3.1l1.5,4.5c.3.9.5,1.9.8,3h0c.2-1,.5-2,.7-3l1.3-4.5h3l-3.6,10.5c-1,2.6-2.1,4-4.5,4s-1.1,0-1.5-.2Z"/>
      <path class="st1" d="M64.4,50h8.6v2.6h-5.5v3.2h4.7v2.6h-4.7v5.3h-3.1v-13.7Z"/>
      <path class="st1" d="M74.2,58.5c0-3.4,2.4-5.5,4.9-5.5s4.4,2.2,4.4,5,0,1.1-.1,1.4h-6.2c.3,1.5,1.3,2.2,2.7,2.2s1.5-.2,2.3-.7l1,1.9c-1.1.7-2.5,1.2-3.7,1.2-3,0-5.3-2-5.3-5.5ZM80.9,57.4c0-1.1-.5-2-1.7-2s-1.8.7-2,2h3.8Z"/>
      <path class="st1" d="M84.7,53.3h3.1l1,4.8c.2,1,.3,2,.5,3.1h0c.2-1.1.4-2.1.6-3.1l1.1-4.8h2.7l1.2,4.8c.3,1,.4,2,.7,3.1h0c.2-1.1.3-2.1.5-3.1l1-4.8h2.9l-2.5,10.4h-3.6l-1-4.2c-.2-1-.4-1.9-.6-3h0c-.2,1.1-.3,2.1-.5,3.1l-.9,4.2h-3.5l-2.6-10.4Z"/>
      <path class="st1" d="M108.8,50h3.7l4.3,13.7h-3.3l-1.8-6.9c-.4-1.4-.7-3-1.1-4.4h0c-.3,1.4-.7,3-1.1,4.4l-1.8,6.9h-3.2l4.3-13.7ZM107.4,58h6.6v2.4h-6.6v-2.4Z"/>
      <path class="st1" d="M118.1,53.3h2.5l.2,1.8h0c.8-1.4,1.9-2.1,3-2.1s.9,0,1.2.2l-.5,2.7c-.4,0-.7-.2-1.1-.2-.8,0-1.7.5-2.3,1.9v6h-3.1v-10.4Z"/>
      <path class="st1" d="M125.6,58.5c0-3.4,2.4-5.5,4.9-5.5s4.4,2.2,4.4,5,0,1.1-.1,1.4h-6.2c.3,1.5,1.3,2.2,2.7,2.2s1.5-.2,2.3-.7l1,1.9c-1.1.7-2.5,1.2-3.7,1.2-3,0-5.3-2-5.3-5.5ZM132.3,57.4c0-1.1-.5-2-1.7-2s-1.8.7-2,2h3.8Z"/>
      <path class="st1" d="M216.4,60.8c0-2.2,1.7-3.4,5.9-3.8,0-.9-.5-1.5-1.6-1.5s-1.7.4-2.8.9l-1.1-2c1.3-.8,2.8-1.4,4.4-1.4,2.7,0,4.1,1.5,4.1,4.7v6h-2.5l-.2-1.1h0c-.9.8-1.9,1.3-3,1.3-1.9,0-3.1-1.4-3.1-3.1ZM222.3,60.7v-1.8c-2.2.3-2.9.9-2.9,1.7s.5,1,1.2,1,1.2-.3,1.7-.9Z"/>
      <path class="st1" d="M228,53.3h2.5l.2,1.3h0c.9-.8,1.9-1.6,3.3-1.6,2.3,0,3.2,1.6,3.2,4.2v6.5h-3.1v-6.1c0-1.5-.4-2-1.3-2s-1.2.4-1.9,1v7h-3.1v-10.4Z"/>
      <path class="st1" d="M239.4,58.5c0-3.4,2.1-5.5,4.3-5.5s1.8.4,2.6,1.1v-1.6c-.1,0-.1-3.5-.1-3.5h3.1v14.7h-2.5l-.2-1h0c-.7.7-1.8,1.3-2.8,1.3-2.6,0-4.3-2.1-4.3-5.5ZM246.2,60.5v-4.3c-.5-.5-1.2-.7-1.7-.7-1,0-1.9.9-1.9,2.9s.7,3,1.9,3,1.2-.2,1.7-.9Z"/>
    </g>
  </g>
  <g>
    <path class="st109" d="M141.5,50.3h3.1v5.3h4.7v-5.3h3.1v13.7h-3.1v-5.7h-4.7v5.7h-3.1v-13.7Z"/>
    <path class="st109" d="M154.8,58.7c0-3.4,2.4-5.5,4.9-5.5s4.4,2.2,4.4,5,0,1.1-.1,1.4h-6.2c.3,1.5,1.3,2.2,2.7,2.2s1.5-.2,2.3-.7l1,1.9c-1.1.7-2.5,1.2-3.7,1.2-3,0-5.3-2-5.3-5.5ZM161.5,57.6c0-1.1-.5-2-1.7-2s-1.8.7-2,2h3.8Z"/>
    <path class="st109" d="M166.3,60.7v-11.5h3.1v11.6c0,.7.3.9.6.9s.2,0,.4,0l.4,2.3c-.3.1-.8.3-1.5.3-2.1,0-2.8-1.4-2.8-3.5Z"/>
    <path class="st109" d="M172.3,53.5h2.5l.2,1h0c.8-.7,1.9-1.3,3-1.3,2.5,0,4.1,2.1,4.1,5.3s-2.1,5.6-4.4,5.6-1.7-.4-2.5-1.1v1.6c.1,0,.1,3.1.1,3.1h-3.1v-14.3ZM179,58.6c0-1.9-.6-2.8-1.8-2.8s-1.2.3-1.8.9v4.3c.6.5,1.1.7,1.7.7,1.1,0,1.9-.9,1.9-3.1Z"/>
    <path class="st109" d="M183.4,53.6h1.6c0-.1,4.8-.1,4.8-.1v2.4h-6.3v-2.3ZM184.7,53c0-2.2,1-4,3.8-4s1.6.2,2.1.4l-.6,2.3c-.4-.1-.7-.2-1.1-.2-.8,0-1.2.4-1.2,1.5v11h-3.1v-11Z"/>
    <path class="st109" d="M191.3,60v-6.5h3.1v6.1c0,1.5.4,2,1.3,2s1.2-.3,1.9-1.1v-6.9h3.1v10.4h-2.5l-.2-1.4h0c-.9,1-1.8,1.7-3.3,1.7-2.3,0-3.2-1.6-3.2-4.2Z"/>
    <path class="st109" d="M203.3,60.7v-11.5h3.1v11.6c0,.7.3.9.6.9s.2,0,.4,0l.4,2.3c-.3.1-.8.3-1.5.3-2.1,0-2.8-1.4-2.8-3.5Z"/>
  </g>
  <g>
    <path class="st109" d="M256.2,57.4v-7.3h3.1v7.7c0,2.7.8,3.6,2.4,3.6s2.4-.9,2.4-3.6v-7.7h3v7.3c0,4.6-1.9,6.6-5.4,6.6s-5.5-2-5.5-6.6Z"/>
    <path class="st109" d="M270,53.4h2.5l.2,1.3h0c.9-.8,1.9-1.6,3.3-1.6,2.3,0,3.2,1.6,3.2,4.2v6.5h-3.1v-6.1c0-1.5-.4-2-1.3-2s-1.2.4-1.9,1v7h-3.1v-10.4Z"/>
    <path class="st109" d="M282,49.1h3.1v5.5c.6-.7,1.7-1.4,3.1-1.4,2.3,0,3.2,1.6,3.2,4.2v6.5h-3.1v-6.1c0-1.5-.4-2-1.3-2s-1.2.4-1.9,1v7h-3.1v-14.7Z"/>
    <path class="st109" d="M293.4,58.6c0-3.4,2.4-5.5,4.9-5.5s4.4,2.2,4.4,5,0,1.1-.1,1.4h-6.2c.3,1.5,1.3,2.2,2.7,2.2s1.5-.2,2.3-.7l1,1.9c-1.1.7-2.5,1.2-3.7,1.2-3,0-5.3-2-5.3-5.5ZM300.1,57.4c0-1.1-.5-2-1.7-2s-1.8.7-2,2h3.8Z"/>
    <path class="st109" d="M304.9,60.6v-11.5h3.1v11.6c0,.7.3.9.6.9s.2,0,.4,0l.4,2.3c-.3.1-.8.3-1.5.3-2.1,0-2.8-1.4-2.8-3.5Z"/>
    <path class="st109" d="M310.9,53.4h2.5l.2,1h0c.8-.7,1.9-1.3,3-1.3,2.5,0,4.1,2.1,4.1,5.3s-2.1,5.6-4.4,5.6-1.7-.4-2.5-1.1v1.6c.1,0,.1,3.1.1,3.1h-3.1v-14.3ZM317.6,58.5c0-1.9-.6-2.8-1.8-2.8s-1.2.3-1.8.9v4.3c.6.5,1.1.7,1.7.7,1.1,0,1.9-.9,1.9-3.1Z"/>
    <path class="st109" d="M322,53.5h1.6c0-.1,4.8-.1,4.8-.1v2.4h-6.3v-2.3ZM323.3,52.8c0-2.2,1-4,3.8-4s1.6.2,2.1.4l-.6,2.3c-.4-.1-.7-.2-1.1-.2-.8,0-1.2.4-1.2,1.5v11h-3.1v-11Z"/>
    <path class="st109" d="M329.9,59.8v-6.5h3.1v6.1c0,1.5.4,2,1.3,2s1.2-.3,1.9-1.1v-6.9h3.1v10.4h-2.5l-.2-1.4h0c-.9,1-1.8,1.7-3.3,1.7-2.3,0-3.2-1.6-3.2-4.2Z"/>
    <path class="st109" d="M341.9,60.6v-11.5h3.1v11.6c0,.7.3.9.6.9s.2,0,.4,0l.4,2.3c-.3.1-.8.3-1.5.3-2.1,0-2.8-1.4-2.8-3.5Z"/>
  </g>
  <g>
    <path d="M17.7,81.1h2.6c2.1,0,3.5.7,3.5,2.7s-1.4,2.8-3.4,2.8h-1.5v3.6h-1.2v-9.2ZM20.2,85.7c1.6,0,2.4-.6,2.4-1.9s-.8-1.8-2.4-1.8h-1.3v3.6h1.4Z"/>
    <path d="M24.7,86.9c0-2.2,1.5-3.6,3.1-3.6s2.7,1.2,2.7,3.2,0,.5,0,.7h-4.6c0,1.4,1,2.4,2.3,2.4s1.2-.2,1.7-.5l.4.8c-.6.4-1.3.7-2.2.7-1.8,0-3.3-1.3-3.3-3.6ZM29.4,86.3c0-1.4-.6-2.1-1.7-2.1s-1.8.8-2,2.1h3.6Z"/>
    <path d="M32.1,83.5h1v1.2h.1c.5-.9,1.2-1.4,1.9-1.4s.5,0,.7.1l-.2,1c-.2,0-.4-.1-.7-.1-.6,0-1.3.4-1.7,1.6v4.4h-1.2v-6.8Z"/>
    <path d="M36.3,86.9c0-2.3,1.5-3.6,3.3-3.6s1.5.4,2,.8l-.6.8c-.4-.4-.8-.6-1.4-.6-1.2,0-2.1,1.1-2.1,2.6s.9,2.6,2.1,2.6,1.2-.3,1.6-.7l.5.8c-.6.5-1.4.9-2.2.9-1.8,0-3.2-1.3-3.2-3.6Z"/>
    <path d="M42.4,86.9c0-2.2,1.5-3.6,3.1-3.6s2.7,1.2,2.7,3.2,0,.5,0,.7h-4.6c0,1.4,1,2.4,2.3,2.4s1.2-.2,1.7-.5l.4.8c-.6.4-1.3.7-2.2.7-1.8,0-3.3-1.3-3.3-3.6ZM47.2,86.3c0-1.4-.6-2.1-1.7-2.1s-1.8.8-2,2.1h3.6Z"/>
    <path d="M49.9,83.5h1v1h.1c.6-.6,1.3-1.1,2.3-1.1,1.4,0,2.1.9,2.1,2.7v4.3h-1.2v-4.2c0-1.3-.4-1.8-1.3-1.8s-1.2.4-1.9,1v4.9h-1.2v-6.8Z"/>
    <path d="M57.7,88.2v-3.8h-1v-.9h1.1c0,0,.1-2,.1-2h1v1.9h1.8v.9h-1.8v3.8c0,.8.3,1.3,1.1,1.3s.6,0,.8-.2l.2.9c-.4.1-.8.3-1.3.3-1.4,0-1.9-.9-1.9-2.3Z"/>
    <path d="M61.5,88.5c0-1.5,1.3-2.2,4.2-2.5,0-.9-.3-1.7-1.4-1.7s-1.5.4-2,.7l-.5-.8c.6-.4,1.6-.9,2.7-.9,1.7,0,2.4,1.1,2.4,2.8v4.2h-1v-.8h-.1c-.6.5-1.4,1-2.3,1s-2-.7-2-1.9ZM65.7,88.6v-1.9c-2.3.3-3.1.8-3.1,1.7s.5,1.1,1.2,1.1,1.2-.3,1.9-.9Z"/>
    <path d="M68.5,91.6c0-.6.4-1.1,1-1.5h0c-.3-.3-.6-.6-.6-1.2s.4-1,.7-1.3h0c-.5-.4-.9-1.1-.9-1.9,0-1.5,1.2-2.4,2.6-2.4s.7,0,1,.2h2.4v.9h-1.4c.3.3.6.8.6,1.4,0,1.5-1.1,2.4-2.5,2.4s-.7,0-1-.2c-.2.2-.4.4-.4.8s.3.7,1.2.7h1.3c1.6,0,2.4.5,2.4,1.6s-1.3,2.4-3.4,2.4-2.8-.7-2.8-1.8ZM73.6,91.2c0-.6-.5-.8-1.4-.8h-1.2c-.3,0-.6,0-.9-.1-.5.3-.7.8-.7,1.1,0,.7.7,1.2,2,1.2s2.2-.7,2.2-1.4ZM72.8,85.7c0-1-.6-1.6-1.4-1.6s-1.4.6-1.4,1.6.7,1.6,1.4,1.6,1.4-.6,1.4-1.6Z"/>
    <path d="M75.4,86.9c0-2.2,1.5-3.6,3.1-3.6s2.7,1.2,2.7,3.2,0,.5,0,.7h-4.6c0,1.4,1,2.4,2.3,2.4s1.2-.2,1.7-.5l.4.8c-.6.4-1.3.7-2.2.7-1.8,0-3.3-1.3-3.3-3.6ZM80.1,86.3c0-1.4-.6-2.1-1.7-2.1s-1.8.8-2,2.1h3.6Z"/>
    <path d="M82.4,86.3h3.2v.9h-3.2v-.9Z"/>
    <path d="M86.5,83.5h1.2l1,3.9c.1.6.3,1.3.4,1.9h0c.1-.6.3-1.3.5-1.9l1.1-3.9h1.1l1.1,3.9c.2.6.3,1.3.5,1.9h0c.1-.6.3-1.3.4-1.9l1-3.9h1.1l-1.8,6.8h-1.4l-1-3.7c-.2-.6-.3-1.3-.5-2h0c-.1.7-.3,1.3-.5,2l-1,3.6h-1.3l-1.9-6.8Z"/>
    <path d="M97.2,81.3c0-.5.3-.7.8-.7s.8.3.8.7-.3.7-.8.7-.8-.3-.8-.7ZM97.4,83.5h1.2v6.8h-1.2v-6.8Z"/>
    <path d="M100.1,89.5l.6-.8c.6.5,1.2.8,2,.8s1.3-.5,1.3-1.1-.8-1-1.6-1.3c-1-.3-2-.8-2-2s.9-1.9,2.3-1.9,1.6.3,2.1.8l-.6.7c-.5-.3-1-.6-1.6-.6-.9,0-1.3.5-1.3,1s.7.9,1.5,1.2c1,.4,2.1.8,2.1,2.1s-.9,2-2.5,2-1.9-.4-2.5-.9Z"/>
    <path d="M106.2,86.9c0-2.2,1.5-3.6,3.1-3.6s2.7,1.2,2.7,3.2,0,.5,0,.7h-4.6c0,1.4,1,2.4,2.3,2.4s1.2-.2,1.7-.5l.4.8c-.6.4-1.3.7-2.2.7-1.8,0-3.3-1.3-3.3-3.6ZM110.9,86.3c0-1.4-.6-2.1-1.7-2.1s-1.8.8-2,2.1h3.6Z"/>
    <path d="M116.4,83.5h1v1.2h.1c.5-.9,1.2-1.4,1.9-1.4s.5,0,.7.1l-.2,1c-.2,0-.4-.1-.7-.1-.6,0-1.3.4-1.7,1.6v4.4h-1.2v-6.8Z"/>
    <path d="M120.5,88.5c0-1.5,1.3-2.2,4.2-2.5,0-.9-.3-1.7-1.4-1.7s-1.5.4-2,.7l-.5-.8c.6-.4,1.6-.9,2.7-.9,1.7,0,2.4,1.1,2.4,2.8v4.2h-1v-.8h-.1c-.6.5-1.4,1-2.3,1s-2-.7-2-1.9ZM124.7,88.6v-1.9c-2.3.3-3.1.8-3.1,1.7s.5,1.1,1.2,1.1,1.2-.3,1.9-.9Z"/>
    <path d="M128,88.2v-3.8h-1v-.9h1.1c0,0,.1-2,.1-2h1v1.9h1.8v.9h-1.8v3.8c0,.8.3,1.3,1.1,1.3s.6,0,.8-.2l.2.9c-.4.1-.8.3-1.3.3-1.4,0-1.9-.9-1.9-2.3Z"/>
    <path d="M132.3,81.3c0-.5.3-.7.8-.7s.8.3.8.7-.3.7-.8.7-.8-.3-.8-.7ZM132.5,83.5h1.2v6.8h-1.2v-6.8Z"/>
    <path d="M136,83.5h1v1h.1c.6-.6,1.3-1.1,2.3-1.1,1.4,0,2.1.9,2.1,2.7v4.3h-1.2v-4.2c0-1.3-.4-1.8-1.3-1.8s-1.2.4-1.9,1v4.9h-1.2v-6.8Z"/>
    <path d="M143.1,91.6c0-.6.4-1.1,1-1.5h0c-.3-.3-.6-.6-.6-1.2s.4-1,.7-1.3h0c-.5-.4-.9-1.1-.9-1.9,0-1.5,1.2-2.4,2.6-2.4s.7,0,1,.2h2.4v.9h-1.4c.3.3.6.8.6,1.4,0,1.5-1.1,2.4-2.5,2.4s-.7,0-1-.2c-.2.2-.4.4-.4.8s.3.7,1.2.7h1.3c1.6,0,2.4.5,2.4,1.6s-1.3,2.4-3.4,2.4-2.8-.7-2.8-1.8ZM148.3,91.2c0-.6-.5-.8-1.4-.8h-1.2c-.3,0-.6,0-.9-.1-.5.3-.7.8-.7,1.1,0,.7.7,1.2,2,1.2s2.2-.7,2.2-1.4ZM147.4,85.7c0-1-.6-1.6-1.4-1.6s-1.4.6-1.4,1.6.7,1.6,1.4,1.6,1.4-.6,1.4-1.6Z"/>
    <path d="M153,86.9c0-2.3,1.5-3.6,3.2-3.6s3.2,1.3,3.2,3.6-1.5,3.6-3.2,3.6-3.2-1.3-3.2-3.6ZM158.1,86.9c0-1.6-.8-2.6-2-2.6s-2,1.1-2,2.6.8,2.6,2,2.6,2-1,2-2.6Z"/>
    <path d="M160.3,83.5h1c0,0,2.5,0,2.5,0v.9h-3.5v-.9ZM161.2,82.4c0-1.4.6-2.3,2-2.3s.8.1,1.1.2l-.2.9c-.3-.1-.5-.2-.8-.2-.6,0-1,.4-1,1.3v7.9h-1.2v-7.9Z"/>
    <path d="M167.9,89.3h2v-6.6h-1.6v-.7c.8-.1,1.4-.4,1.9-.7h.9v8h1.8v1h-5v-1Z"/>
    <path d="M174.7,89.6c0-.5.4-.9.8-.9s.8.4.8.9-.4.9-.8.9-.8-.4-.8-.9Z"/>
    <path d="M178,89.5l.6-.7c.4.4.9.7,1.5.7,1.3,0,2.4-1,2.4-4s-.7-3.4-2-3.4-1.6.8-1.6,2,.5,1.9,1.7,1.9,1.3-.3,1.9-1.3v.9c-.5.8-1.4,1.2-2.1,1.2-1.5,0-2.5-.9-2.5-2.8s1.2-2.9,2.6-2.9,3.1,1.4,3.1,4.3-1.6,5-3.4,5-1.7-.4-2.2-.9Z"/>
    <path d="M188.1,83.5h1v1h.1c.6-.6,1.3-1.2,2.1-1.2s1.6.5,1.9,1.3c.7-.8,1.4-1.3,2.2-1.3,1.4,0,2.1.9,2.1,2.7v4.3h-1.2v-4.2c0-1.3-.4-1.8-1.3-1.8s-1.1.3-1.7,1v4.9h-1.2v-4.2c0-1.3-.4-1.8-1.3-1.8s-1.1.3-1.7,1v4.9h-1.2v-6.8Z"/>
    <path d="M199.5,81.3c0-.5.3-.7.8-.7s.8.3.8.7-.3.7-.8.7-.8-.3-.8-.7ZM199.8,83.5h1.2v6.8h-1.2v-6.8Z"/>
    <path d="M203.2,88.9v-8.6h1.2v8.7c0,.4.2.5.3.5s.1,0,.3,0l.2.9c-.2,0-.4.1-.7.1-.9,0-1.2-.6-1.2-1.5Z"/>
    <path d="M206.8,88.9v-8.6h1.2v8.7c0,.4.2.5.3.5s.1,0,.3,0l.2.9c-.2,0-.4.1-.7.1-.9,0-1.2-.6-1.2-1.5Z"/>
    <path d="M210.1,81.3c0-.5.3-.7.8-.7s.8.3.8.7-.3.7-.8.7-.8-.3-.8-.7ZM210.3,83.5h1.2v6.8h-1.2v-6.8Z"/>
    <path d="M213.3,86.9c0-2.3,1.5-3.6,3.2-3.6s3.2,1.3,3.2,3.6-1.5,3.6-3.2,3.6-3.2-1.3-3.2-3.6ZM218.4,86.9c0-1.6-.8-2.6-2-2.6s-2,1.1-2,2.6.8,2.6,2,2.6,2-1,2-2.6Z"/>
    <path d="M221.4,83.5h1v1h.1c.6-.6,1.3-1.1,2.3-1.1,1.4,0,2.1.9,2.1,2.7v4.3h-1.2v-4.2c0-1.3-.4-1.8-1.3-1.8s-1.2.4-1.9,1v4.9h-1.2v-6.8Z"/>
    <path d="M231.3,86.9c0-2.3,1.5-3.6,3.3-3.6s1.5.4,2,.8l-.6.8c-.4-.4-.8-.6-1.4-.6-1.2,0-2.1,1.1-2.1,2.6s.9,2.6,2.1,2.6,1.2-.3,1.6-.7l.5.8c-.6.5-1.4.9-2.2.9-1.8,0-3.2-1.3-3.2-3.6Z"/>
    <path d="M237.4,86.9c0-2.3,1.5-3.6,3.2-3.6s3.2,1.3,3.2,3.6-1.5,3.6-3.2,3.6-3.2-1.3-3.2-3.6ZM242.5,86.9c0-1.6-.8-2.6-2-2.6s-2,1.1-2,2.6.8,2.6,2,2.6,2-1,2-2.6Z"/>
    <path d="M245.5,83.5h1v1h.1c.6-.6,1.3-1.2,2.1-1.2s1.6.5,1.9,1.3c.7-.8,1.4-1.3,2.2-1.3,1.4,0,2.1.9,2.1,2.7v4.3h-1.2v-4.2c0-1.3-.4-1.8-1.3-1.8s-1.1.3-1.7,1v4.9h-1.2v-4.2c0-1.3-.4-1.8-1.3-1.8s-1.1.3-1.7,1v4.9h-1.2v-6.8Z"/>
    <path d="M257.1,83.5h1v1h.1c.6-.6,1.3-1.2,2.1-1.2s1.6.5,1.9,1.3c.7-.8,1.4-1.3,2.2-1.3,1.4,0,2.1.9,2.1,2.7v4.3h-1.2v-4.2c0-1.3-.4-1.8-1.3-1.8s-1.1.3-1.7,1v4.9h-1.2v-4.2c0-1.3-.4-1.8-1.3-1.8s-1.1.3-1.7,1v4.9h-1.2v-6.8Z"/>
    <path d="M268.6,87.8v-4.3h1.2v4.2c0,1.3.4,1.8,1.3,1.8s1.2-.3,1.8-1.1v-4.8h1.2v6.8h-1v-1.1h-.1c-.6.7-1.3,1.2-2.2,1.2-1.4,0-2.1-.9-2.1-2.7Z"/>
    <path d="M276.3,83.5h1v1h.1c.6-.6,1.3-1.1,2.3-1.1,1.4,0,2.1.9,2.1,2.7v4.3h-1.2v-4.2c0-1.3-.4-1.8-1.3-1.8s-1.2.4-1.9,1v4.9h-1.2v-6.8Z"/>
    <path d="M283.8,81.3c0-.5.3-.7.8-.7s.8.3.8.7-.3.7-.8.7-.8-.3-.8-.7ZM284,83.5h1.2v6.8h-1.2v-6.8Z"/>
    <path d="M287.6,88.2v-3.8h-1v-.9h1.1c0,0,.1-2,.1-2h1v1.9h1.8v.9h-1.8v3.8c0,.8.3,1.3,1.1,1.3s.6,0,.8-.2l.2.9c-.4.1-.8.3-1.3.3-1.4,0-1.9-.9-1.9-2.3Z"/>
    <path d="M291.5,93.1l.2-.9c.1,0,.3.1.5.1.8,0,1.3-.6,1.5-1.5l.2-.5-2.7-6.8h1.2l1.4,3.8c.2.6.4,1.3.7,1.9h0c.2-.6.4-1.3.6-1.9l1.2-3.8h1.1l-2.6,7.4c-.5,1.4-1.2,2.4-2.5,2.4s-.6,0-.8-.1Z"/>
    <path d="M301.5,83.5h1v1h.1c.6-.6,1.3-1.1,2.3-1.1,1.4,0,2.1.9,2.1,2.7v4.3h-1.2v-4.2c0-1.3-.4-1.8-1.3-1.8s-1.2.4-1.9,1v4.9h-1.2v-6.8Z"/>
    <path d="M308.7,86.9c0-2.3,1.5-3.6,3.2-3.6s3.2,1.3,3.2,3.6-1.5,3.6-3.2,3.6-3.2-1.3-3.2-3.6ZM313.8,86.9c0-1.6-.8-2.6-2-2.6s-2,1.1-2,2.6.8,2.6,2,2.6,2-1,2-2.6Z"/>
    <path d="M316.7,88.2v-3.8h-1v-.9h1.1c0,0,.1-2,.1-2h1v1.9h1.8v.9h-1.8v3.8c0,.8.3,1.3,1.1,1.3s.6,0,.8-.2l.2.9c-.4.1-.8.3-1.3.3-1.4,0-1.9-.9-1.9-2.3Z"/>
    <path d="M320.5,86.9c0-2.2,1.5-3.6,3.1-3.6s2.7,1.2,2.7,3.2,0,.5,0,.7h-4.6c0,1.4,1,2.4,2.3,2.4s1.2-.2,1.7-.5l.4.8c-.6.4-1.3.7-2.2.7-1.8,0-3.3-1.3-3.3-3.6ZM325.3,86.3c0-1.4-.6-2.1-1.7-2.1s-1.8.8-2,2.1h3.6Z"/>
    <path d="M327.2,89.5l.6-.8c.6.5,1.2.8,2,.8s1.3-.5,1.3-1.1-.8-1-1.6-1.3c-1-.3-2-.8-2-2s.9-1.9,2.3-1.9,1.6.3,2.1.8l-.6.7c-.5-.3-1-.6-1.6-.6-.9,0-1.3.5-1.3,1s.7.9,1.5,1.2c1,.4,2.1.8,2.1,2.1s-.9,2-2.5,2-1.9-.4-2.5-.9Z"/>
    <path d="M336.1,86.9c0-2.3,1.5-3.6,3.2-3.6s3.2,1.3,3.2,3.6-1.5,3.6-3.2,3.6-3.2-1.3-3.2-3.6ZM341.3,86.9c0-1.6-.8-2.6-2-2.6s-2,1.1-2,2.6.8,2.6,2,2.6,2-1,2-2.6Z"/>
    <path d="M344.2,83.5h1v1h.1c.6-.6,1.3-1.1,2.3-1.1,1.4,0,2.1.9,2.1,2.7v4.3h-1.2v-4.2c0-1.3-.4-1.8-1.3-1.8s-1.2.4-1.9,1v4.9h-1.2v-6.8Z"/>
    <path d="M356.4,85.5l-2.5-4.4h1.3l1.3,2.4c.2.4.4.8.7,1.3h0c.2-.5.4-.9.6-1.3l1.2-2.4h1.2l-2.5,4.5,2.7,4.7h-1.3l-1.3-2.5c-.2-.5-.5-.9-.8-1.5h0c-.3.6-.5,1-.7,1.5l-1.3,2.5h-1.2l2.7-4.7Z"/>
    <path d="M361.4,92c.8-.3,1.3-1,1.3-1.7v-1c-.1,0,.4.8.4.8-.2.2-.4.2-.6.2-.4,0-.8-.3-.8-.8s.4-.8.9-.8,1,.5,1,1.4c0,1.2-.7,2.2-1.8,2.6l-.3-.7Z"/>
    <path d="M17.2,107.5c0-1.5,1.3-2.2,4.2-2.5,0-.9-.3-1.7-1.4-1.7s-1.5.4-2,.7l-.5-.8c.6-.4,1.6-.9,2.7-.9,1.7,0,2.4,1.1,2.4,2.8v4.2h-1v-.8h-.1c-.6.5-1.4,1-2.3,1s-2-.7-2-1.9ZM21.3,107.6v-1.9c-2.3.3-3.1.8-3.1,1.7s.5,1.1,1.2,1.1,1.2-.3,1.9-.9Z"/>
    <path d="M23.9,108.5l.6-.8c.6.5,1.2.8,2,.8s1.3-.5,1.3-1.1-.8-1-1.6-1.3c-1-.3-2-.8-2-2s.9-1.9,2.3-1.9,1.6.3,2.1.8l-.6.7c-.5-.3-1-.6-1.6-.6-.9,0-1.3.5-1.3,1s.7.9,1.5,1.2c1,.4,2.1.8,2.1,2.1s-.9,2-2.5,2-1.9-.4-2.5-.9Z"/>
    <path d="M33.3,102.5h1v1.2h.1c.5-.9,1.2-1.4,1.9-1.4s.5,0,.7.1l-.2,1c-.2,0-.4-.1-.7-.1-.6,0-1.3.4-1.7,1.6v4.4h-1.2v-6.8Z"/>
    <path d="M37.4,107.5c0-1.5,1.3-2.2,4.2-2.5,0-.9-.3-1.7-1.4-1.7s-1.5.4-2,.7l-.5-.8c.6-.4,1.6-.9,2.7-.9,1.7,0,2.4,1.1,2.4,2.8v4.2h-1v-.8h-.1c-.6.5-1.4,1-2.3,1s-2-.7-2-1.9ZM41.6,107.6v-1.9c-2.3.3-3.1.8-3.1,1.7s.5,1.1,1.2,1.1,1.2-.3,1.9-.9Z"/>
    <path d="M44.9,107.2v-3.8h-1v-.9h1.1c0,0,.1-2,.1-2h1v1.9h1.8v.9h-1.8v3.8c0,.8.3,1.3,1.1,1.3s.6,0,.8-.2l.2.9c-.4.1-.8.3-1.3.3-1.4,0-1.9-.9-1.9-2.3Z"/>
    <path d="M48.7,105.9c0-2.2,1.5-3.6,3.1-3.6s2.7,1.2,2.7,3.2,0,.5,0,.7h-4.6c0,1.4,1,2.4,2.3,2.4s1.2-.2,1.7-.5l.4.8c-.6.4-1.3.7-2.2.7-1.8,0-3.3-1.3-3.3-3.6ZM53.5,105.3c0-1.4-.6-2.1-1.7-2.1s-1.8.8-2,2.1h3.6Z"/>
    <path d="M55.7,105.9c0-2.2,1.4-3.6,2.9-3.6s1.3.3,1.9.8v-1.2s0-2.6,0-2.6h1.2v10h-1v-.8h-.1c-.5.5-1.3,1-2.1,1-1.7,0-2.8-1.3-2.8-3.6ZM60.5,107.6v-3.6c-.6-.5-1.1-.7-1.7-.7-1.1,0-2,1-2,2.6s.7,2.6,1.9,2.6,1.2-.3,1.7-.9Z"/>
    <path d="M67.8,108.6h0v.7h-1v-10h1.2v4c.6-.5,1.3-.9,2.1-.9,1.8,0,2.7,1.4,2.7,3.5s-1.4,3.7-2.9,3.7-1.3-.3-1.9-.9ZM71.5,105.8c0-1.5-.5-2.5-1.8-2.5s-1.2.3-1.8.9v3.6c.6.5,1.2.7,1.7.7,1.1,0,2-1,2-2.7Z"/>
    <path d="M73.7,112.1l.2-.9c.1,0,.3.1.5.1.8,0,1.3-.6,1.5-1.5l.2-.5-2.7-6.8h1.2l1.4,3.8c.2.6.4,1.3.7,1.9h0c.2-.6.4-1.3.6-1.9l1.2-3.8h1.1l-2.6,7.4c-.5,1.4-1.2,2.4-2.5,2.4s-.6,0-.8-.1Z"/>
    <path d="M83.3,105.9c0-2.3,1.5-3.6,3.2-3.6s3.2,1.3,3.2,3.6-1.5,3.6-3.2,3.6-3.2-1.3-3.2-3.6ZM88.4,105.9c0-1.6-.8-2.6-2-2.6s-2,1.1-2,2.6.8,2.6,2,2.6,2-1,2-2.6Z"/>
    <path d="M91.3,107.2v-3.8h-1v-.9h1.1c0,0,.1-2,.1-2h1v1.9h1.8v.9h-1.8v3.8c0,.8.3,1.3,1.1,1.3s.6,0,.8-.2l.2.9c-.4.1-.8.3-1.3.3-1.4,0-1.9-.9-1.9-2.3Z"/>
    <path d="M95.8,99.3h1.2v4.1c.6-.6,1.3-1.1,2.2-1.1,1.4,0,2.1.9,2.1,2.7v4.3h-1.2v-4.2c0-1.3-.4-1.8-1.3-1.8s-1.2.4-1.9,1v4.9h-1.2v-10Z"/>
    <path d="M103,105.9c0-2.2,1.5-3.6,3.1-3.6s2.7,1.2,2.7,3.2,0,.5,0,.7h-4.6c0,1.4,1,2.4,2.3,2.4s1.2-.2,1.7-.5l.4.8c-.6.4-1.3.7-2.2.7-1.8,0-3.3-1.3-3.3-3.6ZM107.7,105.3c0-1.4-.6-2.1-1.7-2.1s-1.8.8-2,2.1h3.6Z"/>
    <path d="M110.4,102.5h1v1.2h.1c.5-.9,1.2-1.4,1.9-1.4s.5,0,.7.1l-.2,1c-.2,0-.4-.1-.7-.1-.6,0-1.3.4-1.7,1.6v4.4h-1.2v-6.8Z"/>
    <path d="M117.6,105.9c0-2.3,1.5-3.6,3.3-3.6s1.5.4,2,.8l-.6.8c-.4-.4-.8-.6-1.4-.6-1.2,0-2.1,1.1-2.1,2.6s.9,2.6,2.1,2.6,1.2-.3,1.6-.7l.5.8c-.6.5-1.4.9-2.2.9-1.8,0-3.2-1.3-3.2-3.6Z"/>
    <path d="M123.6,105.9c0-2.3,1.5-3.6,3.2-3.6s3.2,1.3,3.2,3.6-1.5,3.6-3.2,3.6-3.2-1.3-3.2-3.6ZM128.8,105.9c0-1.6-.8-2.6-2-2.6s-2,1.1-2,2.6.8,2.6,2,2.6,2-1,2-2.6Z"/>
    <path d="M131.7,102.5h1v1h.1c.6-.6,1.3-1.1,2.3-1.1,1.4,0,2.1.9,2.1,2.7v4.3h-1.2v-4.2c0-1.3-.4-1.8-1.3-1.8s-1.2.4-1.9,1v4.9h-1.2v-6.8Z"/>
    <path d="M139.6,107.2v-3.8h-1v-.9h1.1c0,0,.1-2,.1-2h1v1.9h1.8v.9h-1.8v3.8c0,.8.3,1.3,1.1,1.3s.6,0,.8-.2l.2.9c-.4.1-.8.3-1.3.3-1.4,0-1.9-.9-1.9-2.3Z"/>
    <path d="M144.1,102.5h1v1.2h.1c.5-.9,1.2-1.4,1.9-1.4s.5,0,.7.1l-.2,1c-.2,0-.4-.1-.7-.1-.6,0-1.3.4-1.7,1.6v4.4h-1.2v-6.8Z"/>
    <path d="M148.8,100.3c0-.5.3-.7.8-.7s.8.3.8.7-.3.7-.8.7-.8-.3-.8-.7ZM149,102.5h1.2v6.8h-1.2v-6.8Z"/>
    <path d="M153.5,108.6h0v.7h-1v-10h1.2v4c.6-.5,1.3-.9,2.1-.9,1.8,0,2.7,1.4,2.7,3.5s-1.4,3.7-2.9,3.7-1.3-.3-1.9-.9ZM157.2,105.8c0-1.5-.5-2.5-1.8-2.5s-1.2.3-1.8.9v3.6c.6.5,1.2.7,1.7.7,1.1,0,2-1,2-2.7Z"/>
    <path d="M160.1,106.8v-4.3h1.2v4.2c0,1.3.4,1.8,1.3,1.8s1.2-.3,1.8-1.1v-4.8h1.2v6.8h-1v-1.1h-.1c-.6.7-1.3,1.2-2.2,1.2-1.4,0-2.1-.9-2.1-2.7Z"/>
    <path d="M168,107.2v-3.8h-1v-.9h1.1c0,0,.1-2,.1-2h1v1.9h1.8v.9h-1.8v3.8c0,.8.3,1.3,1.1,1.3s.6,0,.8-.2l.2.9c-.4.1-.8.3-1.3.3-1.4,0-1.9-.9-1.9-2.3Z"/>
    <path d="M171.8,105.9c0-2.3,1.5-3.6,3.2-3.6s3.2,1.3,3.2,3.6-1.5,3.6-3.2,3.6-3.2-1.3-3.2-3.6ZM176.9,105.9c0-1.6-.8-2.6-2-2.6s-2,1.1-2,2.6.8,2.6,2,2.6,2-1,2-2.6Z"/>
    <path d="M179.9,102.5h1v1.2h.1c.5-.9,1.2-1.4,1.9-1.4s.5,0,.7.1l-.2,1c-.2,0-.4-.1-.7-.1-.6,0-1.3.4-1.7,1.6v4.4h-1.2v-6.8Z"/>
    <path d="M184,108.5l.6-.8c.6.5,1.2.8,2,.8s1.3-.5,1.3-1.1-.8-1-1.6-1.3c-1-.3-2-.8-2-2s.9-1.9,2.3-1.9,1.6.3,2.1.8l-.6.7c-.5-.3-1-.6-1.6-.6-.9,0-1.3.5-1.3,1s.7.9,1.5,1.2c1,.4,2.1.8,2.1,2.1s-.9,2-2.5,2-1.9-.4-2.5-.9Z"/>
  </g>
  <g>
    <path d="M21.2,492l.6-.7c.6.6,1.5,1.1,2.4,1.1s1.8-.6,1.8-1.4-.6-1.1-1.4-1.5l-1.2-.5c-.8-.3-1.7-.9-1.7-2.2s1.1-2.3,2.7-2.3,1.9.4,2.5,1.1l-.6.7c-.5-.5-1.1-.8-1.9-.8s-1.6.5-1.6,1.2.7,1.1,1.4,1.4l1.2.5c1,.4,1.8,1,1.8,2.3s-1.1,2.4-2.9,2.4-2.2-.5-3-1.3Z"/>
    <path d="M28.2,489.9c0-2.1,1.4-3.3,2.9-3.3s2.9,1.2,2.9,3.3-1.4,3.3-2.9,3.3-2.9-1.2-2.9-3.3ZM32.9,489.9c0-1.4-.7-2.4-1.8-2.4s-1.8,1-1.8,2.4.7,2.4,1.8,2.4,1.8-1,1.8-2.4Z"/>
    <path d="M35.6,490.8v-4h1.1v3.9c0,1.2.4,1.7,1.2,1.7s1.1-.3,1.7-1.1v-4.5h1.1v6.3h-.9v-1h-.1c-.6.7-1.2,1.1-2.1,1.1-1.3,0-1.9-.9-1.9-2.5Z"/>
    <path d="M42.8,486.8h.9v1.2h.1c.4-.8,1.1-1.3,1.8-1.3s.5,0,.7.1l-.2.9c-.2,0-.4-.1-.6-.1-.5,0-1.2.4-1.6,1.5v4.1h-1.1v-6.3Z"/>
    <path d="M46.7,489.9c0-2.1,1.4-3.3,3-3.3s1.4.3,1.8.7l-.5.7c-.4-.3-.8-.6-1.3-.6-1.1,0-2,1-2,2.4s.8,2.4,2,2.4,1.1-.3,1.5-.6l.5.7c-.6.5-1.3.8-2,.8-1.7,0-3-1.2-3-3.3Z"/>
    <path d="M52.3,489.9c0-2.1,1.4-3.3,2.8-3.3s2.5,1.2,2.5,3,0,.5,0,.6h-4.3c0,1.3.9,2.2,2.1,2.2s1.1-.2,1.6-.5l.4.7c-.6.4-1.2.7-2.1.7-1.7,0-3-1.2-3-3.3ZM56.8,489.4c0-1.3-.6-2-1.6-2s-1.7.7-1.8,2h3.4Z"/>
    <path d="M59,487.7c0-.5.3-.8.8-.8s.8.3.8.8-.3.8-.8.8-.8-.3-.8-.8ZM59,492.4c0-.5.3-.8.8-.8s.8.3.8.8-.3.8-.8.8-.8-.3-.8-.8Z"/>
    <path d="M64.7,488.8c0-2.8,1.6-4.4,3.8-4.4s1.8.5,2.3,1.1l-.6.7c-.4-.5-1-.8-1.7-.8-1.6,0-2.7,1.3-2.7,3.4s1,3.5,2.6,3.5,1.4-.4,2-1l.6.7c-.7.8-1.5,1.2-2.6,1.2-2.1,0-3.7-1.6-3.7-4.4Z"/>
    <path d="M72,489.9c0-2.1,1.4-3.3,2.9-3.3s2.9,1.2,2.9,3.3-1.4,3.3-2.9,3.3-2.9-1.2-2.9-3.3ZM76.8,489.9c0-1.4-.7-2.4-1.8-2.4s-1.8,1-1.8,2.4.7,2.4,1.8,2.4,1.8-1,1.8-2.4Z"/>
    <path d="M79.6,486.8h.9v.9h.1c.6-.6,1.2-1.1,2-1.1s1.5.5,1.7,1.2c.7-.7,1.3-1.2,2.1-1.2,1.3,0,1.9.9,1.9,2.5v4h-1.1v-3.9c0-1.2-.4-1.7-1.2-1.7s-1,.3-1.6,1v4.6h-1.1v-3.9c0-1.2-.4-1.7-1.2-1.7s-1,.3-1.6,1v4.6h-1.1v-6.3Z"/>
    <path d="M90.3,486.8h.9v.9h.1c.6-.6,1.2-1.1,2-1.1s1.5.5,1.7,1.2c.7-.7,1.3-1.2,2.1-1.2,1.3,0,1.9.9,1.9,2.5v4h-1.1v-3.9c0-1.2-.4-1.7-1.2-1.7s-1,.3-1.6,1v4.6h-1.1v-3.9c0-1.2-.4-1.7-1.2-1.7s-1,.3-1.6,1v4.6h-1.1v-6.3Z"/>
    <path d="M101,490.8v-4h1.1v3.9c0,1.2.4,1.7,1.2,1.7s1.1-.3,1.7-1.1v-4.5h1.1v6.3h-.9v-1h-.1c-.6.7-1.2,1.1-2.1,1.1-1.3,0-1.9-.9-1.9-2.5Z"/>
    <path d="M108.2,486.8h.9v.9h.1c.6-.6,1.3-1.1,2.1-1.1,1.3,0,1.9.9,1.9,2.5v4h-1.1v-3.9c0-1.2-.4-1.7-1.2-1.7s-1.1.3-1.7,1v4.6h-1.1v-6.3Z"/>
    <path d="M115.1,484.8c0-.4.3-.7.7-.7s.7.3.7.7-.3.7-.7.7-.7-.3-.7-.7ZM115.3,486.8h1.1v6.3h-1.1v-6.3Z"/>
    <path d="M118.7,491.1v-3.5h-.9v-.8h1c0,0,.1-1.8.1-1.8h.9v1.8h1.7v.9h-1.7v3.5c0,.8.2,1.2,1,1.2s.5,0,.7-.2l.2.8c-.4.1-.8.2-1.2.2-1.3,0-1.8-.9-1.8-2.1Z"/>
    <path d="M122.3,495.7l.2-.9c.1,0,.3,0,.5,0,.7,0,1.2-.6,1.4-1.4v-.5c.1,0-2.4-6.3-2.4-6.3h1.1l1.3,3.5c.2.5.4,1.2.6,1.8h0c.2-.6.4-1.2.5-1.8l1.1-3.5h1l-2.4,6.8c-.4,1.3-1.1,2.2-2.4,2.2s-.5,0-.7-.1Z"/>
    <path d="M131.7,484.6h1.1l3.1,5.4.9,1.8h0c0-.9-.1-1.8-.1-2.7v-4.4h1v8.5h-1.1l-3.1-5.4-.9-1.8h0c0,.9.1,1.8.1,2.7v4.5h-1v-8.5Z"/>
    <path d="M139.5,489.9c0-2.1,1.4-3.3,2.9-3.3s2.9,1.2,2.9,3.3-1.4,3.3-2.9,3.3-2.9-1.2-2.9-3.3ZM144.3,489.9c0-1.4-.7-2.4-1.8-2.4s-1.8,1-1.8,2.4.7,2.4,1.8,2.4,1.8-1,1.8-2.4Z"/>
    <path d="M147,491.1v-3.5h-.9v-.8h1c0,0,.1-1.8.1-1.8h.9v1.8h1.7v.9h-1.7v3.5c0,.8.2,1.2,1,1.2s.5,0,.7-.2l.2.8c-.4.1-.8.2-1.2.2-1.3,0-1.8-.9-1.8-2.1Z"/>
    <path d="M150.5,489.9c0-2.1,1.4-3.3,2.8-3.3s2.5,1.2,2.5,3,0,.5,0,.6h-4.3c0,1.3.9,2.2,2.1,2.2s1.1-.2,1.6-.5l.4.7c-.6.4-1.2.7-2.1.7-1.7,0-3-1.2-3-3.3ZM155,489.4c0-1.3-.6-2-1.6-2s-1.7.7-1.8,2h3.4Z"/>
    <path d="M156.8,492.4l.5-.7c.5.4,1.1.7,1.9.7s1.2-.4,1.2-1-.7-.9-1.4-1.2c-.9-.3-1.9-.8-1.9-1.8s.8-1.8,2.2-1.8,1.5.3,2,.7l-.5.7c-.4-.3-.9-.6-1.4-.6-.8,0-1.2.4-1.2.9s.7.8,1.4,1.1c.9.3,1.9.7,1.9,1.9s-.8,1.9-2.3,1.9-1.8-.4-2.4-.9Z"/>
    <path d="M165.1,489.9c0-2.1,1.3-3.3,2.7-3.3s1.2.3,1.8.7v-1.1s0-2.4,0-2.4h1.1v9.3h-.9v-.7h-.1c-.5.5-1.2.9-1.9.9-1.6,0-2.6-1.2-2.6-3.3ZM169.5,491.5v-3.3c-.5-.5-1-.7-1.5-.7-1,0-1.8,1-1.8,2.4s.6,2.4,1.7,2.4,1.1-.3,1.6-.9Z"/>
    <path d="M172.3,491.4c0-1.4,1.2-2.1,3.9-2.4,0-.8-.3-1.6-1.3-1.6s-1.4.3-1.9.7l-.4-.7c.6-.4,1.5-.8,2.5-.8,1.5,0,2.2,1,2.2,2.6v3.9h-.9v-.8h-.1c-.6.5-1.3.9-2.1.9s-1.9-.7-1.9-1.8ZM176.2,491.5v-1.8c-2.1.3-2.8.8-2.8,1.6s.5,1,1.1,1,1.1-.3,1.7-.8Z"/>
    <path d="M179.3,491.1v-3.5h-.9v-.8h1c0,0,.1-1.8.1-1.8h.9v1.8h1.7v.9h-1.7v3.5c0,.8.2,1.2,1,1.2s.5,0,.7-.2l.2.8c-.4.1-.8.2-1.2.2-1.3,0-1.8-.9-1.8-2.1Z"/>
    <path d="M182.8,491.4c0-1.4,1.2-2.1,3.9-2.4,0-.8-.3-1.6-1.3-1.6s-1.4.3-1.9.7l-.4-.7c.6-.4,1.5-.8,2.5-.8,1.5,0,2.2,1,2.2,2.6v3.9h-.9v-.8h-.1c-.6.5-1.3.9-2.1.9s-1.9-.7-1.9-1.8ZM186.7,491.5v-1.8c-2.1.3-2.8.8-2.8,1.6s.5,1,1.1,1,1.1-.3,1.7-.8Z"/>
    <path d="M193.4,492.4h0v.7h-1v-9.3h1.1v3.7c.5-.5,1.2-.9,1.9-.9,1.6,0,2.5,1.3,2.5,3.2s-1.3,3.4-2.7,3.4-1.2-.3-1.8-.8ZM196.8,489.8c0-1.4-.5-2.3-1.7-2.3s-1.1.3-1.7.9v3.3c.6.5,1.1.7,1.5.7,1,0,1.8-.9,1.8-2.5Z"/>
    <path d="M198.9,495.7l.2-.9c.1,0,.3,0,.5,0,.7,0,1.2-.6,1.4-1.4v-.5c.1,0-2.4-6.3-2.4-6.3h1.1l1.3,3.5c.2.5.4,1.2.6,1.8h0c.2-.6.4-1.2.5-1.8l1.1-3.5h1l-2.4,6.8c-.4,1.3-1.1,2.2-2.4,2.2s-.5,0-.7-.1Z"/>
    <path d="M209.8,488.7l-2.3-4.1h1.2l1.2,2.2c.2.4.4.7.7,1.2h0c.2-.5.4-.8.6-1.2l1.1-2.2h1.1l-2.3,4.2,2.5,4.4h-1.2l-1.3-2.3c-.2-.4-.5-.9-.7-1.4h0c-.2.5-.5.9-.7,1.4l-1.2,2.3h-1.1l2.5-4.4Z"/>
  </g>
</svg>