<?xml version="1.0" encoding="UTF-8"?>
<svg id="Layer_1" xmlns="http://www.w3.org/2000/svg" xmlns:xlink="http://www.w3.org/1999/xlink" version="1.1" viewBox="0 0 565.2 502.3">
  <!-- Generator: Adobe Illustrator 29.3.1, SVG Export Plug-In . SVG Version: 2.1.0 Build 151)  -->
  <defs>
    <style>
      .st0, .st1 {
        fill: none;
      }

      .st2 {
        clip-path: url(#clippath-17);
      }

      .st3 {
        clip-path: url(#clippath-19);
      }

      .st4 {
        clip-path: url(#clippath-11);
      }

      .st5 {
        clip-path: url(#clippath-16);
      }

      .st6 {
        clip-path: url(#clippath-18);
      }

      .st7 {
        clip-path: url(#clippath-10);
      }

      .st8 {
        clip-path: url(#clippath-15);
      }

      .st9 {
        clip-path: url(#clippath-13);
      }

      .st10 {
        clip-path: url(#clippath-14);
      }

      .st11 {
        clip-path: url(#clippath-12);
      }

      .st12 {
        clip-path: url(#clippath-27);
      }

      .st13 {
        clip-path: url(#clippath-29);
      }

      .st14 {
        clip-path: url(#clippath-26);
      }

      .st15 {
        clip-path: url(#clippath-28);
      }

      .st16 {
        clip-path: url(#clippath-20);
      }

      .st17 {
        clip-path: url(#clippath-21);
      }

      .st18 {
        clip-path: url(#clippath-22);
      }

      .st19 {
        clip-path: url(#clippath-23);
      }

      .st20 {
        clip-path: url(#clippath-24);
      }

      .st21 {
        clip-path: url(#clippath-25);
      }

      .st22 {
        clip-path: url(#clippath-1);
      }

      .st23 {
        clip-path: url(#clippath-3);
      }

      .st24 {
        clip-path: url(#clippath-4);
      }

      .st25 {
        clip-path: url(#clippath-2);
      }

      .st26 {
        clip-path: url(#clippath-7);
      }

      .st27 {
        clip-path: url(#clippath-6);
      }

      .st28 {
        clip-path: url(#clippath-9);
      }

      .st29 {
        clip-path: url(#clippath-8);
      }

      .st30 {
        clip-path: url(#clippath-5);
      }

      .st31 {
        fill: #fff;
      }

      .st32 {
        stroke-linejoin: round;
      }

      .st32, .st1 {
        stroke: #000;
        stroke-width: .8px;
      }

      .st1 {
        stroke-linecap: square;
      }

      .st33 {
        fill: #1f77b4;
      }

      .st34 {
        clip-path: url(#clippath);
      }
    </style>
    <clipPath id="clippath">
      <rect class="st0" x="78.4" y="117.7" width="438.4" height="326.7"/>
    </clipPath>
    <clipPath id="clippath-1">
      <rect class="st0" x="78.4" y="117.7" width="438.4" height="326.7"/>
    </clipPath>
    <clipPath id="clippath-2">
      <rect class="st0" x="78.4" y="117.7" width="438.4" height="326.7"/>
    </clipPath>
    <clipPath id="clippath-3">
      <rect class="st0" x="78.4" y="117.7" width="438.4" height="326.7"/>
    </clipPath>
    <clipPath id="clippath-4">
      <rect class="st0" x="78.4" y="117.7" width="438.4" height="326.7"/>
    </clipPath>
    <clipPath id="clippath-5">
      <rect class="st0" x="78.4" y="117.7" width="438.4" height="326.7"/>
    </clipPath>
    <clipPath id="clippath-6">
      <rect class="st0" x="78.4" y="117.7" width="438.4" height="326.7"/>
    </clipPath>
    <clipPath id="clippath-7">
      <rect class="st0" x="78.4" y="117.7" width="438.4" height="326.7"/>
    </clipPath>
    <clipPath id="clippath-8">
      <rect class="st0" x="78.4" y="117.7" width="438.4" height="326.7"/>
    </clipPath>
    <clipPath id="clippath-9">
      <rect class="st0" x="78.4" y="117.7" width="438.4" height="326.7"/>
    </clipPath>
    <clipPath id="clippath-10">
      <rect class="st0" x="78.4" y="117.7" width="438.4" height="326.7"/>
    </clipPath>
    <clipPath id="clippath-11">
      <rect class="st0" x="78.4" y="117.7" width="438.4" height="326.7"/>
    </clipPath>
    <clipPath id="clippath-12">
      <rect class="st0" x="78.4" y="117.7" width="438.4" height="326.7"/>
    </clipPath>
    <clipPath id="clippath-13">
      <rect class="st0" x="78.4" y="117.7" width="438.4" height="326.7"/>
    </clipPath>
    <clipPath id="clippath-14">
      <rect class="st0" x="78.4" y="117.7" width="438.4" height="326.7"/>
    </clipPath>
    <clipPath id="clippath-15">
      <rect class="st0" x="78.4" y="117.7" width="438.4" height="326.7"/>
    </clipPath>
    <clipPath id="clippath-16">
      <rect class="st0" x="78.4" y="117.7" width="438.4" height="326.7"/>
    </clipPath>
    <clipPath id="clippath-17">
      <rect class="st0" x="78.4" y="117.7" width="438.4" height="326.7"/>
    </clipPath>
    <clipPath id="clippath-18">
      <rect class="st0" x="78.4" y="117.7" width="438.4" height="326.7"/>
    </clipPath>
    <clipPath id="clippath-19">
      <rect class="st0" x="78.4" y="117.7" width="438.4" height="326.7"/>
    </clipPath>
    <clipPath id="clippath-20">
      <rect class="st0" x="78.4" y="117.7" width="438.4" height="326.7"/>
    </clipPath>
    <clipPath id="clippath-21">
      <rect class="st0" x="78.4" y="117.7" width="438.4" height="326.7"/>
    </clipPath>
    <clipPath id="clippath-22">
      <rect class="st0" x="78.4" y="117.7" width="438.4" height="326.7"/>
    </clipPath>
    <clipPath id="clippath-23">
      <rect class="st0" x="78.4" y="117.7" width="438.4" height="326.7"/>
    </clipPath>
    <clipPath id="clippath-24">
      <rect class="st0" x="78.4" y="117.7" width="438.4" height="326.7"/>
    </clipPath>
    <clipPath id="clippath-25">
      <rect class="st0" x="78.4" y="117.7" width="438.4" height="326.7"/>
    </clipPath>
    <clipPath id="clippath-26">
      <rect class="st0" x="78.4" y="117.7" width="438.4" height="326.7"/>
    </clipPath>
    <clipPath id="clippath-27">
      <rect class="st0" x="78.4" y="117.7" width="438.4" height="326.7"/>
    </clipPath>
    <clipPath id="clippath-28">
      <rect class="st0" x="78.4" y="117.7" width="438.4" height="326.7"/>
    </clipPath>
    <clipPath id="clippath-29">
      <rect class="st0" x="78.4" y="117.7" width="438.4" height="326.7"/>
    </clipPath>
  </defs>
  <path class="st31" d="M78.4,444.3h438.4V117.7H78.4v326.7Z"/>
  <g class="st34">
    <path class="st33" d="M98.3,444.3h13.3v-139.1h-13.3v139.1Z"/>
  </g>
  <g class="st22">
    <path class="st33" d="M111.6,444.3h13.3v-189.3h-13.3v189.3Z"/>
  </g>
  <g class="st25">
    <path class="st33" d="M124.9,444.3h13.3V163.8h-13.3v280.5Z"/>
  </g>
  <g class="st23">
    <path class="st33" d="M138.1,444.3h13.3v-243.9h-13.3v243.9Z"/>
  </g>
  <g class="st24">
    <path class="st33" d="M151.4,444.3h13.3v-250.8h-13.3v250.8Z"/>
  </g>
  <g class="st30">
    <path class="st33" d="M164.7,444.3h13.3V167.7h-13.3v276.6Z"/>
  </g>
  <g class="st27">
    <path class="st33" d="M178,444.3h13.3V133.2h-13.3v311.1Z"/>
  </g>
  <g class="st26">
    <path class="st33" d="M191.3,444.3h13.3V183.4h-13.3v260.9Z"/>
  </g>
  <g class="st29">
    <path class="st33" d="M204.6,444.3h13.3v-252.3h-13.3v252.3Z"/>
  </g>
  <g class="st28">
    <path class="st33" d="M217.8,444.3h13.3V178h-13.3v266.3Z"/>
  </g>
  <g class="st7">
    <path class="st33" d="M231.1,444.3h13.3v-211.7h-13.3v211.7Z"/>
  </g>
  <g class="st4">
    <path class="st33" d="M244.4,444.3h13.3v-155.4h-13.3v155.4Z"/>
  </g>
  <g class="st11">
    <path class="st33" d="M257.7,444.3h13.3v-134.8h-13.3v134.8Z"/>
  </g>
  <g class="st9">
    <path class="st33" d="M271,444.3h13.3v-70.5h-13.3v70.5Z"/>
  </g>
  <g class="st10">
    <path class="st33" d="M284.3,444.3h13.3v-59.5h-13.3v59.5Z"/>
  </g>
  <g class="st8">
    <path class="st33" d="M297.5,444.3h13.3v-29.1h-13.3v29.1Z"/>
  </g>
  <g class="st5">
    <path class="st33" d="M310.8,444.3h13.3v-12.8h-13.3v12.8Z"/>
  </g>
  <g class="st2">
    <path class="st33" d="M324.1,444.3h13.3v-12h-13.3v12Z"/>
  </g>
  <g class="st6">
    <path class="st33" d="M337.4,444.3h13.3v-3.7h-13.3v3.7Z"/>
  </g>
  <g class="st3">
    <path class="st33" d="M350.7,444.3h13.3v-4.1h-13.3v4.1Z"/>
  </g>
  <g class="st16">
    <path class="st33" d="M364,444.3h13.3v-7.3h-13.3v7.3Z"/>
  </g>
  <g class="st17">
    <path class="st33" d="M377.3,444.3h13.3v-5.2h-13.3v5.2Z"/>
  </g>
  <g class="st18">
    <path class="st33" d="M390.5,444.3h13.3v-4.5h-13.3v4.5Z"/>
  </g>
  <g class="st19">
    <path class="st33" d="M403.8,444.3h13.3v-4.8h-13.3v4.8Z"/>
  </g>
  <g class="st20">
    <path class="st33" d="M417.1,444.3h13.3v-6.1h-13.3v6.1Z"/>
  </g>
  <g class="st21">
    <path class="st33" d="M430.4,444.3h13.3v-9.5h-13.3v9.5Z"/>
  </g>
  <g class="st14">
    <path class="st33" d="M443.7,444.3h13.3v-4.7h-13.3v4.7Z"/>
  </g>
  <g class="st12">
    <path class="st33" d="M457,444.3h13.3v-4h-13.3v4Z"/>
  </g>
  <g class="st15">
    <path class="st33" d="M470.2,444.3h13.3v-5.1h-13.3v5.1Z"/>
  </g>
  <g class="st13">
    <path class="st33" d="M483.5,444.3h13.3v-7.7h-13.3v7.7Z"/>
  </g>
  <path id="mfe19c443b7" class="st32" d="M98,444.3v4.3"/>
  <path id="mfe19c443b71" data-name="mfe19c443b7" class="st32" d="M147.9,444.3v4.3"/>
  <path id="mfe19c443b72" data-name="mfe19c443b7" class="st32" d="M197.9,444.3v4.3"/>
  <path id="mfe19c443b73" data-name="mfe19c443b7" class="st32" d="M247.8,444.3v4.3"/>
  <path id="mfe19c443b74" data-name="mfe19c443b7" class="st32" d="M297.7,444.3v4.3"/>
  <path id="mfe19c443b75" data-name="mfe19c443b7" class="st32" d="M347.6,444.3v4.3"/>
  <path id="mfe19c443b76" data-name="mfe19c443b7" class="st32" d="M397.5,444.3v4.3"/>
  <path id="mfe19c443b77" data-name="mfe19c443b7" class="st32" d="M447.4,444.3v4.3"/>
  <path id="mfe19c443b78" data-name="mfe19c443b7" class="st32" d="M497.3,444.3v4.3"/>
  <path id="DejaVuSans-20" d="M340.8,492.5"/>
  <path id="DejaVuSans-201" data-name="DejaVuSans-20" d="M353.6,492.5"/>
  <path id="m0c1ef75360" class="st32" d="M78.4,444.3h-4.3"/>
  <path id="m0c1ef753601" data-name="m0c1ef75360" class="st32" d="M78.4,400h-4.3"/>
  <path id="m0c1ef753602" data-name="m0c1ef75360" class="st32" d="M78.4,355.6h-4.3"/>
  <path id="m0c1ef753603" data-name="m0c1ef75360" class="st32" d="M78.4,311.2h-4.3"/>
  <path id="m0c1ef753604" data-name="m0c1ef75360" class="st32" d="M78.4,266.8h-4.3"/>
  <path id="m0c1ef753605" data-name="m0c1ef75360" class="st32" d="M78.4,222.5h-4.3"/>
  <path id="m0c1ef753606" data-name="m0c1ef75360" class="st32" d="M78.4,178.1h-4.3"/>
  <path id="m0c1ef753607" data-name="m0c1ef75360" class="st32" d="M78.4,133.7h-4.3"/>
  <path id="DejaVuSans-202" data-name="DejaVuSans-20" d="M15.4,289.6"/>
  <path id="DejaVuSans-203" data-name="DejaVuSans-20" d="M15.4,273.9"/>
  <path class="st1" d="M78.4,444.3V117.7"/>
  <path class="st1" d="M78.4,444.3h438.4"/>
  <path id="DejaVuSans-204" data-name="DejaVuSans-20" d="M0,110.3"/>
  <path id="DejaVuSans-205" data-name="DejaVuSans-20" d="M73.1,110.3"/>
  <path id="DejaVuSans-206" data-name="DejaVuSans-20" d="M121,110.3"/>
  <path id="DejaVuSans-207" data-name="DejaVuSans-20" d="M175.9,110.3"/>
  <path id="DejaVuSans-208" data-name="DejaVuSans-20" d="M217,110.3"/>
  <path id="DejaVuSans-2c" d="M282.7,108.5h1.5v1.2l-1.2,2.3h-.9l.6-2.3v-1.2Z"/>
  <path id="DejaVuSans-209" data-name="DejaVuSans-20" d="M285.6,110.3"/>
  <path id="DejaVuSans-2010" data-name="DejaVuSans-20" d="M327.1,110.3"/>
  <path id="DejaVuSans-2011" data-name="DejaVuSans-20" d="M401.8,110.3"/>
  <path id="DejaVuSans-2012" data-name="DejaVuSans-20" d="M419.9,110.3"/>
  <path id="DejaVuSans-2013" data-name="DejaVuSans-20" d="M454.5,110.3"/>
  <path id="DejaVuSans-2014" data-name="DejaVuSans-20" d="M504.5,110.3"/>
  <path id="DejaVuSans-2015" data-name="DejaVuSans-20" d="M529.4,110.3"/>
  <path id="DejaVuSans-2016" data-name="DejaVuSans-20" d="M578.4,192.1"/>
  <path id="DejaVuSans-2017" data-name="DejaVuSans-20" d="M604.8,192.1"/>
  <path id="DejaVuSans-2018" data-name="DejaVuSans-20" d="M638.1,192.1"/>
  <path id="DejaVuSans-2019" data-name="DejaVuSans-20" d="M182.2,172.7"/>
  <path id="DejaVuSans-2020" data-name="DejaVuSans-20" d="M213.3,172.7"/>
  <path id="DejaVuSans-2021" data-name="DejaVuSans-20" d="M243.8,172.7"/>
  <path id="DejaVuSans-2022" data-name="DejaVuSans-20" d="M259.2,172.7"/>
  <path id="DejaVuSans-2023" data-name="DejaVuSans-20" d="M296.3,172.7"/>
  <path id="DejaVuSans-2024" data-name="DejaVuSans-20" d="M319.5,172.7"/>
  <path id="DejaVuSans-2025" data-name="DejaVuSans-20" d="M355.4,172.7"/>
  <path id="DejaVuSans-2026" data-name="DejaVuSans-20" d="M370.2,172.7"/>
  <path id="DejaVuSans-2027" data-name="DejaVuSans-20" d="M407.3,172.7"/>
  <path id="DejaVuSans-2028" data-name="DejaVuSans-20" d="M427.6,172.7"/>
  <path id="DejaVuSans-2029" data-name="DejaVuSans-20" d="M458.2,172.7"/>
  <path id="DejaVuSans-2030" data-name="DejaVuSans-20" d="M484.9,172.7"/>
  <g>
    <path d="M6.8,23.1l2.2-.3h.5l1.9.3v1h-4.6v-1ZM7,11.7h2.7v1.3s-.3,0-.3,0l-2.4-.3v-1ZM8.6,11.7h1.1v6.6c.1,0,.1,5.9.1,5.9h-1.2v-12.5ZM8.7,11.7h3.2l3.4,9.2h-.6l3.2-9.2h1.3l-4.4,12.5h-1.5l-4.6-12.5ZM16.8,23.1l2.4-.3h.9l2.8.3v1h-6.1v-1ZM18.2,18.7v-7h3.2c0,1.9,0,3.9,0,5.9v.7c0,2,0,4,0,5.9h-3.3c0-1.9,0-3.9,0-5.5ZM19.8,11.7h3v1l-2.7.3h-.3v-1.3Z"/>
    <path d="M23.5,19.5c0-2.9,2.1-4.8,4.8-4.8s4.8,1.9,4.8,4.8-1.9,4.9-4.8,4.9-4.8-2-4.8-4.9ZM29.9,19.6c0-2.7-.5-3.9-1.6-3.9s-1.6,1.2-1.6,3.9.5,3.9,1.6,3.9,1.6-1.2,1.6-3.9Z"/>
    <path d="M35.3,20.2v-1.1c0-1,0-1.4,0-2.2l-1.2-.2v-.7l3.7-1.3.3.2.2,2.3v2.9c0,1.2,0,3.1,0,4h-3.1c0-.9,0-2.8,0-4ZM34.2,23.3l1.8-.4h2l1.8.4v.9h-5.6v-.9ZM36.9,17.6h1.4l-.3.5c.3-2.3,1.7-3.5,2.8-3.5s1.5.5,1.7,1.4c0,1-.6,1.6-1.3,1.6s-1-.3-1.5-.9l-.6-.7.8.3c-.7.5-1.4,1.5-1.6,2.6h-1.4v-1.3Z"/>
    <path d="M51.6,18.7c0,.4,0,.7-.1,1h-7.4v-1h3.6c.9,0,1.1-.3,1.1-1.2,0-1.2-.6-1.9-1.3-1.9s-1.5.9-1.5,3.6,1.1,3.4,2.6,3.4,1.7-.4,2.3-1l.7.6c-.8,1.5-2.1,2.2-4,2.2-2.8,0-4.7-1.8-4.7-4.9s2.4-4.9,4.9-4.9,3.9,1.7,3.9,4Z"/>
    <path d="M61.6,22.9c.3,0,.7-.1,1-.4l.5.5c-.5,1-1.4,1.5-2.8,1.5s-2.7-.8-2.7-2.6,0-1.2,0-1.9v-3.6h-1.2v-1.1l2.2-.3-1.1.8,1.2-3.3h1.9v3.4s0,5.9,0,5.9c0,.9.4,1.3,1,1.3ZM62.6,15v1.3h-3.5v-1.3h3.5Z"/>
    <path d="M64.6,12.2l-1.2-.2v-.8l3.9-.9.3.2v2.7c0,0,0,3.8,0,3.8v.2c0,0,0,3,0,3,0,1.2,0,3.1,0,4h-3.1c0-.9,0-2.8,0-4v-8ZM68.5,23.3v.9h-5v-.9l1.8-.4h1.4l1.8.4ZM73.3,17.9v2.2c0,1.2,0,3.1,0,4h-3.1c0-.9,0-2.8,0-4v-2c0-1.2-.3-1.7-1-1.7s-1.5.6-2.3,1.5h-.7v-1.4h1.2l-.7.5c1.3-1.9,2.4-2.5,3.7-2.5s2.8,1.1,2.8,3.3ZM72.4,22.9l1.9.4v.9h-5v-.9l1.7-.4h1.4Z"/>
    <path d="M78.8,18.9c.8-.2,2.1-.6,3-.8v.8c-.9.2-1.9.5-2.5.8-.9.4-1.4,1-1.4,1.9s.5,1.4,1.1,1.4.7-.2,1.3-.6l.8-.6.2.3-.8.9c-.9,1-1.5,1.6-2.9,1.6s-2.5-.9-2.5-2.4.7-2.3,3.7-3.2ZM80.3,22.6v-4.8c0-1.7-.3-2.2-1.5-2.2s-1,0-1.8.3l1.3-.7v1.3c-.2,1.3-.8,1.8-1.5,1.8s-1.1-.3-1.3-1c.1-1.6,1.6-2.7,4.4-2.7s3.4,1,3.4,3.6v4.3c0,.4.2.6.4.6s.4-.1.6-.4l.5.3c-.5,1-1.1,1.4-2.3,1.4s-2-.7-2.2-1.8Z"/>
    <path d="M86.2,24.1c0-.9,0-2.8,0-4v-1.1c0-1,0-1.4,0-2.2l-1.2-.2v-.7l3.7-1.3.3.2.2,2.1v3.2c0,1.2,0,3.1,0,4h-3.1ZM90.2,23.3v.9h-5v-.9l1.8-.4h1.4l1.8.4ZM95,17.9v2.2c0,1.2,0,3.1,0,4h-3.1c0-.9,0-2.8,0-4v-2c0-1.2-.3-1.7-1.1-1.7s-1.6.5-2.3,1.4h-.6v-1.2h1.3l-.7.5c1.3-1.9,2.4-2.5,3.8-2.5s2.7,1.1,2.7,3.3ZM94.1,22.9l1.9.4v.9h-5v-.9l1.7-.4h1.4Z"/>
    <path d="M105.8,18.3c.7,0,1.1-.2,1.6-.7l.4.3c-.6,1-1.6,1.6-3.1,1.6-2.2,0-3.8-1.3-3.8-3.6s2.1-4,4.5-4,4.7,1.9,4.7,5.1-3.1,6.8-7.8,7.5l-.2-1c3.6-1.2,4.9-3,4.9-6.8s-.6-3.9-1.6-3.9-1.6.8-1.6,2.8.7,2.7,1.9,2.7Z"/>
    <path d="M120.3,18.2c0,4.4-2.1,6.3-4.5,6.3s-4.5-1.9-4.5-6.3,2.1-6.3,4.5-6.3,4.5,1.9,4.5,6.3ZM115.9,23.4c.9,0,1.6-1,1.6-5.3s-.7-5.3-1.6-5.3-1.6,1-1.6,5.3.7,5.3,1.6,5.3Z"/>
    <path d="M127.8,15.8c0,2.7-1.4,3.9-2.9,3.9s-2.9-1.2-2.9-3.9,1.4-3.9,2.9-3.9,2.9,1.2,2.9,3.9ZM124.9,19c.6,0,1-.6,1-3.2s-.4-3.3-1-3.3-1,.6-1,3.3.4,3.2,1,3.2ZM124.7,24.1l8.5-12.5.9.6-8.5,12.5-.9-.6ZM136.6,20.5c0,2.7-1.4,3.9-2.9,3.9s-2.9-1.2-2.9-3.9,1.4-3.9,2.9-3.9,2.9,1.2,2.9,3.9ZM133.7,23.7c.6,0,1-.6,1-3.2s-.4-3.3-1-3.3-1,.6-1,3.3.4,3.2,1,3.2Z"/>
    <path d="M142.2,19.5c0-2.9,2.1-4.8,4.8-4.8s4.8,1.9,4.8,4.8-1.9,4.9-4.8,4.9-4.8-2-4.8-4.9ZM148.7,19.6c0-2.7-.5-3.9-1.6-3.9s-1.6,1.2-1.6,3.9.5,3.9,1.6,3.9,1.6-1.2,1.6-3.9Z"/>
    <path d="M154.1,16.3h-1.2v-1.1l2.3-.3-1,.5c.2-2.2.8-3.2,1.6-4,1-.9,2.1-1.3,3.2-1.3s2,.3,2.3,1.4c0,.7-.5,1.3-1.4,1.3s-1.2-.4-1.7-1.4l-.5-.6,1.9-.4.2.6c-.2-.1-.4-.3-.6-.3-.7,0-1.2.5-1.4,1-.5.9-.6,2.2-.5,4.3v4.2c0,1.3,0,2.7,0,4h-3.1c0-1.3,0-2.7,0-4v-3.9ZM158.6,23.3v.9h-5.6v-.9l1.9-.4h1.9l1.8.4ZM159.1,15v1.3h-3.5v-1.3h3.5Z"/>
    <path d="M164.9,24.1c0-.9,0-2.8,0-4v-1.1c0-1,0-1.4,0-2.2l-1.2-.2v-.7l3.7-1.3.3.2.2,2.1v3.2c0,1.2,0,3.1,0,4h-3.1ZM168.9,23.3v.9h-5v-.9l1.8-.4h1.4l1.8.4ZM173.7,17.9v2.2c0,1.2,0,3.1,0,4h-3.1c0-.9,0-2.8,0-4v-2c0-1.2-.3-1.7-1.1-1.7s-1.6.5-2.3,1.4h-.6v-1.2h1.3l-.7.5c1.3-1.9,2.4-2.5,3.8-2.5s2.7,1.1,2.7,3.3ZM172.8,22.9l1.9.4v.9h-5v-.9l1.7-.4h1.4Z"/>
    <path d="M175.6,19.5c0-2.9,2.1-4.8,4.8-4.8s4.8,1.9,4.8,4.8-1.9,4.9-4.8,4.9-4.8-2-4.8-4.9ZM182,19.6c0-2.7-.5-3.9-1.6-3.9s-1.6,1.2-1.6,3.9.5,3.9,1.6,3.9,1.6-1.2,1.6-3.9Z"/>
    <path d="M191.2,22.9c.3,0,.7-.1,1-.4l.5.5c-.5,1-1.4,1.5-2.8,1.5s-2.7-.8-2.7-2.6,0-1.2,0-1.9v-3.6h-1.2v-1.1l2.2-.3-1.1.8,1.2-3.3h1.9v3.4s0,5.9,0,5.9c0,.9.4,1.3,1,1.3ZM192.2,15v1.3h-3.5v-1.3h3.5Z"/>
    <path d="M201.8,18.7c0,.4,0,.7-.1,1h-7.4v-1h3.6c.9,0,1.1-.3,1.1-1.2,0-1.2-.6-1.9-1.3-1.9s-1.5.9-1.5,3.6,1.1,3.4,2.6,3.4,1.7-.4,2.3-1l.7.6c-.8,1.5-2.1,2.2-4,2.2-2.8,0-4.7-1.8-4.7-4.9s2.4-4.9,4.9-4.9,3.9,1.7,3.9,4Z"/>
    <path d="M202.9,23.6v-2.3h1.6l.4,2.5-1.1-.4v-.8c.8.5,1.5.8,2.4.8s1.7-.4,1.7-1.1-.4-1-1.6-1.4l-1-.3c-1.5-.4-2.3-1.4-2.3-2.8s1.4-3.1,4-3.1,2,.3,3,.8v2.1h-1.7l-.5-2.3,1.1.5v.7c-.7-.4-1.1-.6-1.9-.6s-1.4.4-1.4,1.1.3.9,1.6,1.3l.9.3c1.8.5,2.5,1.5,2.5,2.9,0,2-1.6,3.2-4.3,3.2s-2.3-.3-3.3-.9Z"/>
    <path d="M219.5,21c0,1.2.4,1.6,1,1.6s1.7-.8,2.2-1.6h.7v1.3h-1.2l.6-.5c-.9,1.7-2.2,2.7-3.7,2.7s-2.7-.9-2.7-3.4v-5.1c0,0,.7.6.7.6l-1.7-.4v-.8l3.9-.5.3.2v2.7c0,0,0,3.4,0,3.4ZM222.3,24.4l-.2-2.2v-6.2c0,0,.7.6.7.6l-1.6-.4v-.7l3.8-.6.3.2v2.7c0,0,0,6.3,0,6.3l-1.3-1.2,2.3.5v.9l-3.9.2Z"/>
    <path d="M228.1,24.1c0-.9,0-2.8,0-4v-1.1c0-1,0-1.4,0-2.2l-1.2-.2v-.7l3.7-1.3.3.2.2,2.1v3.2c0,1.2,0,3.1,0,4h-3.1ZM232.1,23.3v.9h-5v-.9l1.8-.4h1.4l1.8.4ZM236.9,17.9v2.2c0,1.2,0,3.1,0,4h-3.1c0-.9,0-2.8,0-4v-2c0-1.2-.3-1.7-1.1-1.7s-1.6.5-2.3,1.4h-.6v-1.2h1.3l-.7.5c1.3-1.9,2.4-2.5,3.8-2.5s2.7,1.1,2.7,3.3ZM236.1,22.9l1.9.4v.9h-5v-.9l1.7-.4h1.4Z"/>
    <path d="M244.1,22.8c.9,0,1.6-.7,2.2-1.6l.2.3c-.9,2-2.1,2.9-3.8,2.9s-3.8-1.7-3.8-4.8,2-5,4.2-5,2.4.9,3.3,2.6l-.2.4c-.7-.9-1.3-1.4-2.1-1.4-1.2,0-2,1.1-2,3.3s.8,3.2,2,3.2ZM249.2,23.3v.9l-3.7.2-.2-1.7v-6.5c.1,0,.1-4,.1-4l-1.3-.2v-.8l4-.9.3.2v2.7c0,0,0,10.9,0,10.9l-1.3-1.4,2.2.5Z"/>
    <path d="M259,18.7c0,.4,0,.7-.1,1h-7.4v-1h3.6c.9,0,1.1-.3,1.1-1.2,0-1.2-.6-1.9-1.3-1.9s-1.5.9-1.5,3.6,1.1,3.4,2.6,3.4,1.7-.4,2.3-1l.7.6c-.8,1.5-2.1,2.2-4,2.2-2.8,0-4.7-1.8-4.7-4.9s2.4-4.9,4.9-4.9,3.9,1.7,3.9,4Z"/>
    <path d="M261.1,20.2v-1.1c0-1,0-1.4,0-2.2l-1.2-.2v-.7l3.7-1.3.3.2.2,2.3v2.9c0,1.2,0,3.1,0,4h-3.1c0-.9,0-2.8,0-4ZM260,23.3l1.8-.4h2l1.8.4v.9h-5.6v-.9ZM262.7,17.6h1.4l-.3.5c.3-2.3,1.7-3.5,2.8-3.5s1.5.5,1.7,1.4c0,1-.6,1.6-1.3,1.6s-1-.3-1.5-.9l-.6-.7.8.3c-.7.5-1.4,1.5-1.6,2.6h-1.4v-1.3Z"/>
    <path d="M275.8,10.2l.3.7c-.9.5-1.9,1.6-2.2,2.9v-1.4c0,0,1.3.9,1.3.9.6.4.7.9.7,1.4,0,.8-.7,1.4-1.5,1.4s-1-.3-1.3-.5c-.3-.5-.4-1-.4-1.6,0-1.7,1.2-3.1,2.9-3.8ZM279.8,10.2l.3.7c-.9.5-1.9,1.6-2.2,2.9v-1.4c0,0,1.3.9,1.3.9.6.4.7.9.7,1.4,0,.8-.7,1.4-1.5,1.4s-1-.3-1.3-.5c-.3-.5-.4-1-.4-1.6,0-1.7,1.2-3.1,2.9-3.8Z"/>
    <path d="M281.1,23.1l2-.3h.5l2.4.3v1h-5v-1ZM282.1,12.3l1.1.5-2.1-.2v-1h4.3l6.8,9.4v3.2h-1.6l-8.5-11.8ZM282.7,11.7l1.2,1v11.4h-1.2v-12.5ZM288.8,11.7h5v1l-1.9.3h-.5l-2.6-.3v-1ZM291,11.7h1.2v12.5l-1.2-1.2v-11.3Z"/>
    <path d="M303,18.7c0,.4,0,.7-.1,1h-7.4v-1h3.6c.9,0,1.1-.3,1.1-1.2,0-1.2-.6-1.9-1.3-1.9s-1.5.9-1.5,3.6,1.1,3.4,2.6,3.4,1.7-.4,2.3-1l.7.6c-.8,1.5-2.1,2.2-4,2.2-2.8,0-4.7-1.8-4.7-4.9s2.4-4.9,4.9-4.9,3.9,1.7,3.9,4Z"/>
    <path d="M312.9,18.7c0,.4,0,.7-.1,1h-7.4v-1h3.6c.9,0,1.1-.3,1.1-1.2,0-1.2-.6-1.9-1.3-1.9s-1.5.9-1.5,3.6,1.1,3.4,2.6,3.4,1.7-.4,2.3-1l.7.6c-.8,1.5-2.1,2.2-4,2.2-2.8,0-4.7-1.8-4.7-4.9s2.4-4.9,4.9-4.9,3.9,1.7,3.9,4Z"/>
    <path d="M319.2,22.8c.9,0,1.6-.7,2.2-1.6l.2.3c-.9,2-2.1,2.9-3.8,2.9s-3.8-1.7-3.8-4.8,2-5,4.2-5,2.4.9,3.3,2.6l-.2.4c-.7-.9-1.3-1.4-2.1-1.4-1.2,0-2,1.1-2,3.3s.8,3.2,2,3.2ZM324.3,23.3v.9l-3.7.2-.2-1.7v-6.5c.1,0,.1-4,.1-4l-1.3-.2v-.8l4-.9.3.2v2.7c0,0,0,10.9,0,10.9l-1.3-1.4,2.2.5Z"/>
    <path d="M325.3,23.6v-2.3h1.6l.4,2.5-1.1-.4v-.8c.8.5,1.5.8,2.4.8s1.7-.4,1.7-1.1-.4-1-1.6-1.4l-1-.3c-1.5-.4-2.3-1.4-2.3-2.8s1.4-3.1,4-3.1,2,.3,3,.8v2.1h-1.7l-.5-2.3,1.1.5v.7c-.7-.4-1.1-.6-1.9-.6s-1.4.4-1.4,1.1.3.9,1.6,1.3l.9.3c1.8.5,2.5,1.5,2.5,2.9,0,2-1.6,3.2-4.3,3.2s-2.3-.3-3.3-.9Z"/>
    <path d="M337.8,23.1l2.2-.3h.5l1.9.3v1h-4.6v-1ZM338,11.7h2.7v1.3s-.3,0-.3,0l-2.4-.3v-1ZM339.6,11.7h1.1v6.6c.1,0,.1,5.9.1,5.9h-1.2v-12.5ZM339.7,11.7h3.2l3.4,9.2h-.6l3.2-9.2h1.3l-4.4,12.5h-1.5l-4.6-12.5ZM347.8,23.1l2.4-.3h.9l2.8.3v1h-6.1v-1ZM349.2,18.7v-7h3.2c0,1.9,0,3.9,0,5.9v.7c0,2,0,4,0,5.9h-3.3c0-1.9,0-3.9,0-5.5ZM350.8,11.7h3v1l-2.7.3h-.3v-1.3Z"/>
    <path d="M354.5,19.5c0-2.9,2.1-4.8,4.8-4.8s4.8,1.9,4.8,4.8-1.9,4.9-4.8,4.9-4.8-2-4.8-4.9ZM360.9,19.6c0-2.7-.5-3.9-1.6-3.9s-1.6,1.2-1.6,3.9.5,3.9,1.6,3.9,1.6-1.2,1.6-3.9Z"/>
    <path d="M366.3,20.2v-1.1c0-1,0-1.4,0-2.2l-1.2-.2v-.7l3.7-1.3.3.2.2,2.3v2.9c0,1.2,0,3.1,0,4h-3.1c0-.9,0-2.8,0-4ZM365.2,23.3l1.8-.4h2l1.8.4v.9h-5.6v-.9ZM367.9,17.6h1.4l-.3.5c.3-2.3,1.7-3.5,2.8-3.5s1.5.5,1.7,1.4c0,1-.6,1.6-1.3,1.6s-1-.3-1.5-.9l-.6-.7.8.3c-.7.5-1.4,1.5-1.6,2.6h-1.4v-1.3Z"/>
    <path d="M382.6,18.7c0,.4,0,.7-.1,1h-7.4v-1h3.6c.9,0,1.1-.3,1.1-1.2,0-1.2-.6-1.9-1.3-1.9s-1.5.9-1.5,3.6,1.1,3.4,2.6,3.4,1.7-.4,2.3-1l.7.6c-.8,1.5-2.1,2.2-4,2.2-2.8,0-4.7-1.8-4.7-4.9s2.4-4.9,4.9-4.9,3.9,1.7,3.9,4Z"/>
    <path d="M387.8,12.7v-1h3.1v1.3h-.3l-2.8-.3ZM391.1,22.8l2.8.3v1h-6.1v-1l2.8-.3h.6ZM389.3,17.6c0-2,0-3.9,0-5.9h3.2c0,1.9,0,3.9,0,5.9v.6c0,2,0,4,0,6h-3.2c0-1.9,0-3.9,0-5.9v-.7ZM390.9,17.3h2.2c1.9,0,2.5-1.1,2.5-2.3s-.8-2.3-2.4-2.3h-2.4v-1.1h3.1c3,0,4.6,1.2,4.6,3.2s-1.1,2.9-4.4,3.1v-.2c3,0,3.8,1.1,4.1,3.1l.5,2.9-1.6-1,2.8.3v1c-.9.2-1.2.3-2.1.3-1.6,0-2.6-.5-2.8-1.9l-.4-2.2c-.2-1.3-.7-1.9-1.8-1.9h-2.2v-1.1Z"/>
    <path d="M404.3,18.9c.8-.2,2.1-.6,3-.8v.8c-.9.2-1.9.5-2.5.8-.9.4-1.4,1-1.4,1.9s.5,1.4,1.1,1.4.7-.2,1.3-.6l.8-.6.2.3-.8.9c-.9,1-1.5,1.6-2.9,1.6s-2.5-.9-2.5-2.4.7-2.3,3.7-3.2ZM405.7,22.6v-4.8c0-1.7-.3-2.2-1.5-2.2s-1,0-1.8.3l1.3-.7v1.3c-.2,1.3-.8,1.8-1.5,1.8s-1.1-.3-1.3-1c.1-1.6,1.6-2.7,4.4-2.7s3.4,1,3.4,3.6v4.3c0,.4.2.6.4.6s.4-.1.6-.4l.5.3c-.5,1-1.1,1.4-2.3,1.4s-2-.7-2.2-1.8Z"/>
    <path d="M415.5,22.9c.3,0,.7-.1,1-.4l.5.5c-.5,1-1.4,1.5-2.8,1.5s-2.7-.8-2.7-2.6,0-1.2,0-1.9v-3.6h-1.2v-1.1l2.2-.3-1.1.8,1.2-3.3h1.9v3.4s0,5.9,0,5.9c0,.9.4,1.3,1,1.3ZM416.6,15v1.3h-3.5v-1.3h3.5Z"/>
    <path d="M418.5,24.1c0-.9,0-2.8,0-4v-.9c0-1,0-1.6,0-2.4l-1.2-.2v-.7l4-1.3.3.2v2.8c0,0,0,2.5,0,2.5,0,1.2,0,3.1,0,4h-3.1ZM422.5,23.3v.9h-5v-.9l1.8-.4h1.4l1.8.4ZM418.4,11.8c0-.9.7-1.5,1.6-1.5s1.6.6,1.6,1.5-.7,1.5-1.6,1.5-1.6-.6-1.6-1.5Z"/>
    <path d="M424.4,24.1c0-.9,0-2.8,0-4v-1.1c0-1,0-1.4,0-2.2l-1.2-.2v-.7l3.7-1.3.3.2.2,2.1v3.2c0,1.2,0,3.1,0,4h-3.1ZM428.4,23.3v.9h-5v-.9l1.8-.4h1.4l1.8.4ZM433.2,17.9v2.2c0,1.2,0,3.1,0,4h-3.1c0-.9,0-2.8,0-4v-2c0-1.2-.3-1.7-1.1-1.7s-1.6.5-2.3,1.4h-.6v-1.2h1.3l-.7.5c1.3-1.9,2.4-2.5,3.8-2.5s2.7,1.1,2.7,3.3ZM432.4,22.9l1.9.4v.9h-5v-.9l1.7-.4h1.4Z"/>
    <path d="M442.2,25.9c0-.6-.4-1.1-1.4-1.1h-2c-.8,0-1.5,0-2-.3h0c-1-.4-1.4-1-1.4-1.7s.7-1.9,1.9-2.8l.5.3c-.3.4-.4.7-.4,1.2s.3.7,1.1.7h2.2c2.9,0,3.9,1.1,3.9,2.8s-1.9,3.5-5.6,3.5-4.1-1.1-4.1-2.2.7-1.7,2.1-2.2l.3.2c-.4.6-.6.9-.6,1.5,0,1.1.8,1.6,2.5,1.6s2.9-.6,2.9-1.4ZM439.3,14.7c2.7,0,4,1.3,4,3.1s-1.3,3-4,3-4-1.3-4-3,1.3-3.1,4-3.1ZM438,17.7c0,1.3.4,2.2,1.3,2.2s1.3-.8,1.3-2.2-.5-2.1-1.3-2.1-1.3.8-1.3,2.2ZM444.4,14.6l.3.2v1.5h-2.7v-.6l2.4-1Z"/>
    <path d="M445.5,23.6v-2.3h1.6l.4,2.5-1.1-.4v-.8c.8.5,1.5.8,2.4.8s1.7-.4,1.7-1.1-.4-1-1.6-1.4l-1-.3c-1.5-.4-2.3-1.4-2.3-2.8s1.4-3.1,4-3.1,2,.3,3,.8v2.1h-1.7l-.5-2.3,1.1.5v.7c-.7-.4-1.1-.6-1.9-.6s-1.4.4-1.4,1.1.3.9,1.6,1.3l.9.3c1.8.5,2.5,1.5,2.5,2.9,0,2-1.6,3.2-4.3,3.2s-2.3-.3-3.3-.9Z"/>
    <path d="M454,16.1l-.3-.7c.9-.5,1.9-1.6,2.2-2.9v1.4c0,0-1.3-.9-1.3-.9-.6-.4-.7-.9-.7-1.4,0-.8.7-1.4,1.5-1.4s1,.3,1.3.5c.3.5.4,1,.4,1.6,0,1.7-1.2,3.1-2.9,3.8ZM458.1,16.1l-.3-.7c.9-.5,1.9-1.6,2.2-2.9v1.4c0,0-1.3-.9-1.3-.9-.6-.4-.7-.9-.7-1.4,0-.8.7-1.4,1.5-1.4s1,.3,1.3.5c.3.5.4,1,.4,1.6,0,1.7-1.2,3.1-2.9,3.8Z"/>
    <path d="M469.8,18.9c.8-.2,2.1-.6,3-.8v.8c-.9.2-1.9.5-2.5.8-.9.4-1.4,1-1.4,1.9s.5,1.4,1.1,1.4.7-.2,1.3-.6l.8-.6.2.3-.8.9c-.9,1-1.5,1.6-2.9,1.6s-2.5-.9-2.5-2.4.7-2.3,3.7-3.2ZM471.3,22.6v-4.8c0-1.7-.3-2.2-1.5-2.2s-1,0-1.8.3l1.3-.7v1.3c-.2,1.3-.8,1.8-1.5,1.8s-1.1-.3-1.3-1c.1-1.6,1.6-2.7,4.4-2.7s3.4,1,3.4,3.6v4.3c0,.4.2.6.4.6s.4-.1.6-.4l.5.3c-.5,1-1.1,1.4-2.3,1.4s-2-.7-2.2-1.8Z"/>
    <path d="M477.2,20.2v-1.1c0-1,0-1.4,0-2.2l-1.2-.2v-.7l3.7-1.3.3.2.2,2.3v2.9c0,1.2,0,3.1,0,4h-3.1c0-.9,0-2.8,0-4ZM476.1,23.3l1.8-.4h2l1.8.4v.9h-5.6v-.9ZM478.8,17.6h1.4l-.3.5c.3-2.3,1.7-3.5,2.8-3.5s1.5.5,1.7,1.4c0,1-.6,1.6-1.3,1.6s-1-.3-1.5-.9l-.6-.7.8.3c-.7.5-1.4,1.5-1.6,2.6h-1.4v-1.3Z"/>
    <path d="M493.5,18.7c0,.4,0,.7-.1,1h-7.4v-1h3.6c.9,0,1.1-.3,1.1-1.2,0-1.2-.6-1.9-1.3-1.9s-1.5.9-1.5,3.6,1.1,3.4,2.6,3.4,1.7-.4,2.3-1l.7.6c-.8,1.5-2.1,2.2-4,2.2-2.8,0-4.7-1.8-4.7-4.9s2.4-4.9,4.9-4.9,3.9,1.7,3.9,4Z"/>
    <path d="M498.7,23.6v-2.3h1.6l.4,2.5-1.1-.4v-.8c.8.5,1.5.8,2.4.8s1.7-.4,1.7-1.1-.4-1-1.6-1.4l-1-.3c-1.5-.4-2.3-1.4-2.3-2.8s1.4-3.1,4-3.1,2,.3,3,.8v2.1h-1.7l-.5-2.3,1.1.5v.7c-.7-.4-1.1-.6-1.9-.6s-1.4.4-1.4,1.1.3.9,1.6,1.3l.9.3c1.8.5,2.5,1.5,2.5,2.9,0,2-1.6,3.2-4.3,3.2s-2.3-.3-3.3-.9Z"/>
    <path d="M512.2,22.9c.3,0,.7-.1,1-.4l.5.5c-.5,1-1.4,1.5-2.8,1.5s-2.7-.8-2.7-2.6,0-1.2,0-1.9v-3.6h-1.2v-1.1l2.2-.3-1.1.8,1.2-3.3h1.9v3.4s0,5.9,0,5.9c0,.9.4,1.3,1,1.3ZM513.2,15v1.3h-3.5v-1.3h3.5Z"/>
    <path d="M517.8,21c0,1.2.4,1.6,1,1.6s1.7-.8,2.2-1.6h.7v1.3h-1.2l.6-.5c-.9,1.7-2.2,2.7-3.7,2.7s-2.7-.9-2.7-3.4v-5.1c0,0,.7.6.7.6l-1.7-.4v-.8l3.9-.5.3.2v2.7c0,0,0,3.4,0,3.4ZM520.7,24.4l-.2-2.2v-6.2c0,0,.7.6.7.6l-1.6-.4v-.7l3.8-.6.3.2v2.7c0,0,0,6.3,0,6.3l-1.3-1.2,2.3.5v.9l-3.9.2Z"/>
    <path d="M528.6,19.2c0,2.2,1.1,3.4,2.6,3.4s1.6-.4,2.1-1.1l.7.6c-.7,1.5-2.1,2.3-3.9,2.3-2.6,0-4.7-1.7-4.7-4.9s2.3-4.9,5.1-4.9,3.4,1.3,3.5,2.8c-.2.7-.6,1-1.3,1s-1.4-.5-1.5-1.8l-.2-1.4,1.4.8c-.6-.3-1.1-.4-1.7-.4-1.1,0-2.3,1-2.3,3.6Z"/>
    <path d="M538.6,10.3l.3.2v2.7c0,0,0,6.8,0,6.8,0,1.3,0,3.3,0,4.1h-3.1c0-.8,0-2.9,0-4v-8l-1.2-.2v-.8l4-.9ZM539.8,23.3v.9h-5.2v-.9l1.8-.4h1.4l1.9.4ZM544.5,15l-7.2,6.8v-1.2l5.7-5.6h1.5ZM542.9,22.6l2.6.6v.9h-3.9l-2.3-5,2.1-1.9,3.3,6.6-1.8-1.2ZM542.5,16.1l-1.9-.3v-.8h4.4v.8l-2.1.3h-.4Z"/>
    <path d="M8,46.9c0-.9,0-2.8,0-4v-.9c0-1,0-1.6,0-2.4l-1.2-.2v-.7l4-1.3.3.2v2.8c0,0,0,2.5,0,2.5,0,1.2,0,3.1,0,4h-3.1ZM12.1,46.1v.9h-5v-.9l1.8-.4h1.4l1.8.4ZM7.9,34.6c0-.9.7-1.5,1.6-1.5s1.6.6,1.6,1.5-.7,1.5-1.6,1.5-1.6-.6-1.6-1.5Z"/>
    <path d="M14,46.9c0-.9,0-2.8,0-4v-1.1c0-1,0-1.4,0-2.2l-1.2-.2v-.7l3.7-1.3.3.2.2,2.1v3.2c0,1.2,0,3.1,0,4h-3.1ZM18,46.1v.9h-5v-.9l1.8-.4h1.4l1.8.4ZM22.8,40.7v2.2c0,1.2,0,3.1,0,4h-3.1c0-.9,0-2.8,0-4v-2c0-1.2-.3-1.7-1.1-1.7s-1.6.5-2.3,1.4h-.6v-1.2h1.3l-.7.5c1.3-1.9,2.4-2.5,3.8-2.5s2.7,1.1,2.7,3.3ZM21.9,45.7l1.9.4v.9h-5v-.9l1.7-.4h1.4Z"/>
    <path d="M33.7,45.7c.3,0,.7-.1,1-.4l.5.5c-.5,1-1.4,1.5-2.8,1.5s-2.7-.8-2.7-2.6,0-1.2,0-1.9v-3.6h-1.2v-1.1l2.2-.3-1.1.8,1.2-3.3h1.9v3.4s0,5.9,0,5.9c0,.9.4,1.3,1,1.3ZM34.7,37.8v1.3h-3.5v-1.3h3.5Z"/>
    <path d="M36.6,35l-1.2-.2v-.8l3.9-.9.3.2v2.7c0,0,0,3.8,0,3.8v.2c0,0,0,3,0,3,0,1.2,0,3.1,0,4h-3.1c0-.9,0-2.8,0-4v-8ZM40.6,46.1v.9h-5v-.9l1.8-.4h1.4l1.8.4ZM45.4,40.7v2.2c0,1.2,0,3.1,0,4h-3.1c0-.9,0-2.8,0-4v-2c0-1.2-.3-1.7-1-1.7s-1.5.6-2.3,1.5h-.7v-1.4h1.2l-.7.5c1.3-1.9,2.4-2.5,3.7-2.5s2.8,1.1,2.8,3.3ZM44.5,45.7l1.9.4v.9h-5v-.9l1.7-.4h1.4Z"/>
    <path d="M50.9,41.7c.8-.2,2.1-.6,3-.8v.8c-.9.2-1.9.5-2.5.8-.9.4-1.4,1-1.4,1.9s.5,1.4,1.1,1.4.7-.2,1.3-.6l.8-.6.2.3-.8.9c-.9,1-1.5,1.6-2.9,1.6s-2.5-.9-2.5-2.4.7-2.3,3.7-3.2ZM52.3,45.4v-4.8c0-1.7-.3-2.2-1.5-2.2s-1,0-1.8.3l1.3-.7v1.3c-.2,1.3-.8,1.8-1.5,1.8s-1.1-.3-1.3-1c.1-1.6,1.6-2.7,4.4-2.7s3.4,1,3.4,3.6v4.3c0,.4.2.6.4.6s.4-.1.6-.4l.5.3c-.5,1-1.1,1.4-2.3,1.4s-2-.7-2.2-1.8Z"/>
    <path d="M62.1,45.7c.3,0,.7-.1,1-.4l.5.5c-.5,1-1.4,1.5-2.8,1.5s-2.7-.8-2.7-2.6,0-1.2,0-1.9v-3.6h-1.2v-1.1l2.2-.3-1.1.8,1.2-3.3h1.9v3.4s0,5.9,0,5.9c0,.9.4,1.3,1,1.3ZM63.2,37.8v1.3h-3.5v-1.3h3.5Z"/>
    <path d="M68.2,46.4v-2.3h1.6l.4,2.5-1.1-.4v-.8c.8.5,1.5.8,2.4.8s1.7-.4,1.7-1.1-.4-1-1.6-1.4l-1-.3c-1.5-.4-2.3-1.4-2.3-2.8s1.4-3.1,4-3.1,2,.3,3,.8v2.1h-1.7l-.5-2.3,1.1.5v.7c-.7-.4-1.1-.6-1.9-.6s-1.4.4-1.4,1.1.3.9,1.6,1.3l.9.3c1.8.5,2.5,1.5,2.5,2.9,0,2-1.6,3.2-4.3,3.2s-2.3-.3-3.3-.9Z"/>
    <path d="M81.7,45.7c.3,0,.7-.1,1-.4l.5.5c-.5,1-1.4,1.5-2.8,1.5s-2.7-.8-2.7-2.6,0-1.2,0-1.9v-3.6h-1.2v-1.1l2.2-.3-1.1.8,1.2-3.3h1.9v3.4s0,5.9,0,5.9c0,.9.4,1.3,1,1.3ZM82.7,37.8v1.3h-3.5v-1.3h3.5Z"/>
    <path d="M87.3,41.7c.8-.2,2.1-.6,3-.8v.8c-.9.2-1.9.5-2.5.8-.9.4-1.4,1-1.4,1.9s.5,1.4,1.1,1.4.7-.2,1.3-.6l.8-.6.2.3-.8.9c-.9,1-1.5,1.6-2.9,1.6s-2.5-.9-2.5-2.4.7-2.3,3.7-3.2ZM88.7,45.4v-4.8c0-1.7-.3-2.2-1.5-2.2s-1,0-1.8.3l1.3-.7v1.3c-.2,1.3-.8,1.8-1.5,1.8s-1.1-.3-1.3-1c.1-1.6,1.6-2.7,4.4-2.7s3.4,1,3.4,3.6v4.3c0,.4.2.6.4.6s.4-.1.6-.4l.5.3c-.5,1-1.1,1.4-2.3,1.4s-2-.7-2.2-1.8Z"/>
    <path d="M98.5,45.7c.3,0,.7-.1,1-.4l.5.5c-.5,1-1.4,1.5-2.8,1.5s-2.7-.8-2.7-2.6,0-1.2,0-1.9v-3.6h-1.2v-1.1l2.2-.3-1.1.8,1.2-3.3h1.9v3.4s0,5.9,0,5.9c0,.9.4,1.3,1,1.3ZM99.6,37.8v1.3h-3.5v-1.3h3.5Z"/>
    <path d="M104.2,43.8c0,1.2.4,1.6,1,1.6s1.7-.8,2.2-1.6h.7v1.3h-1.2l.6-.5c-.9,1.7-2.2,2.7-3.7,2.7s-2.7-.9-2.7-3.4v-5.1c0,0,.7.6.7.6l-1.7-.4v-.8l3.9-.5.3.2v2.7c0,0,0,3.4,0,3.4ZM107,47.2l-.2-2.2v-6.2c0,0,.7.6.7.6l-1.6-.4v-.7l3.8-.6.3.2v2.7c0,0,0,6.3,0,6.3l-1.3-1.2,2.3.5v.9l-3.9.2Z"/>
    <path d="M112,46.4v-2.3h1.6l.4,2.5-1.1-.4v-.8c.8.5,1.5.8,2.4.8s1.7-.4,1.7-1.1-.4-1-1.6-1.4l-1-.3c-1.5-.4-2.3-1.4-2.3-2.8s1.4-3.1,4-3.1,2,.3,3,.8v2.1h-1.7l-.5-2.3,1.1.5v.7c-.7-.4-1.1-.6-1.9-.6s-1.4.4-1.4,1.1.3.9,1.6,1.3l.9.3c1.8.5,2.5,1.5,2.5,2.9,0,2-1.6,3.2-4.3,3.2s-2.3-.3-3.3-.9Z"/>
    <path d="M125.8,39.1h-1.2v-1.1l2.3-.3-1,.5c.2-2.2.8-3.2,1.6-4,1-.9,2.1-1.3,3.2-1.3s2,.3,2.3,1.4c0,.7-.5,1.3-1.4,1.3s-1.2-.4-1.7-1.4l-.5-.6,1.9-.4.2.6c-.2-.1-.4-.3-.6-.3-.7,0-1.2.5-1.4,1-.5.9-.6,2.2-.5,4.3v4.2c0,1.3,0,2.7,0,4h-3.1c0-1.3,0-2.7,0-4v-3.9ZM130.3,46.1v.9h-5.6v-.9l1.9-.4h1.9l1.8.4ZM130.8,37.8v1.3h-3.5v-1.3h3.5Z"/>
    <path d="M131.4,42.3c0-2.9,2.1-4.8,4.8-4.8s4.8,1.9,4.8,4.8-1.9,4.9-4.8,4.9-4.8-2-4.8-4.9ZM137.8,42.4c0-2.7-.5-3.9-1.6-3.9s-1.6,1.2-1.6,3.9.5,3.9,1.6,3.9,1.6-1.2,1.6-3.9Z"/>
    <path d="M143.1,43v-1.1c0-1,0-1.4,0-2.2l-1.2-.2v-.7l3.7-1.3.3.2.2,2.3v2.9c0,1.2,0,3.1,0,4h-3.1c0-.9,0-2.8,0-4ZM142.1,46.1l1.8-.4h2l1.8.4v.9h-5.6v-.9ZM144.8,40.4h1.4l-.3.5c.3-2.3,1.7-3.5,2.8-3.5s1.5.5,1.7,1.4c0,1-.6,1.6-1.3,1.6s-1-.3-1.5-.9l-.6-.7.8.3c-.7.5-1.4,1.5-1.6,2.6h-1.4v-1.3Z"/>
    <path d="M155,42.3c0-2.9,2.1-4.8,4.8-4.8s4.8,1.9,4.8,4.8-1.9,4.9-4.8,4.9-4.8-2-4.8-4.9ZM161.4,42.4c0-2.7-.5-3.9-1.6-3.9s-1.6,1.2-1.6,3.9.5,3.9,1.6,3.9,1.6-1.2,1.6-3.9Z"/>
    <path d="M166.6,38.9l-1.7-.3v-.8h5.4v.8l-1.7.3h-1.9ZM168.7,37.8l2.5,6.8-1.3,2.1,3-8.8h1.3l-3.5,9.2h-1.5l-3.8-9.2h3.3ZM173,38.9l-1.6-.3v-.8h3.6v.8l-1.6.3h-.4Z"/>
    <path d="M183.9,41.5c0,.4,0,.7-.1,1h-7.4v-1h3.6c.9,0,1.1-.3,1.1-1.2,0-1.2-.6-1.9-1.3-1.9s-1.5.9-1.5,3.6,1.1,3.4,2.6,3.4,1.7-.4,2.3-1l.7.6c-.8,1.5-2.1,2.2-4,2.2-2.8,0-4.7-1.8-4.7-4.9s2.4-4.9,4.9-4.9,3.9,1.7,3.9,4Z"/>
    <path d="M186,43v-1.1c0-1,0-1.4,0-2.2l-1.2-.2v-.7l3.7-1.3.3.2.2,2.3v2.9c0,1.2,0,3.1,0,4h-3.1c0-.9,0-2.8,0-4ZM185,46.1l1.8-.4h2l1.8.4v.9h-5.6v-.9ZM187.7,40.4h1.4l-.3.5c.3-2.3,1.7-3.5,2.8-3.5s1.5.5,1.7,1.4c0,1-.6,1.6-1.3,1.6s-1-.3-1.5-.9l-.6-.7.8.3c-.7.5-1.4,1.5-1.6,2.6h-1.4v-1.3Z"/>
    <path d="M206.4,46.1v.9h-7.6v-.9l2.4-.6h2.9l2.3.6ZM204,34.8l.3.2v2.7c0,0,0,5.3,0,5.3,0,1.3,0,2.6,0,4h-3.2c0-1.3,0-2.7,0-4v-6.2l-1.8.2v-1.1l4.7-1Z"/>
    <path d="M217.3,41c0,4.4-2.1,6.3-4.5,6.3s-4.5-1.9-4.5-6.3,2.1-6.3,4.5-6.3,4.5,1.9,4.5,6.3ZM212.8,46.2c.9,0,1.6-1,1.6-5.3s-.7-5.3-1.6-5.3-1.6,1-1.6,5.3.7,5.3,1.6,5.3Z"/>
    <path d="M227.6,41c0,4.4-2.1,6.3-4.5,6.3s-4.5-1.9-4.5-6.3,2.1-6.3,4.5-6.3,4.5,1.9,4.5,6.3ZM223.1,46.2c.9,0,1.6-1,1.6-5.3s-.7-5.3-1.6-5.3-1.6,1-1.6,5.3.7,5.3,1.6,5.3Z"/>
    <path d="M238.1,45.6c.9,0,1.6-.7,2.2-1.6l.2.3c-.9,2-2.1,2.9-3.8,2.9s-3.8-1.7-3.8-4.8,2-5,4.2-5,2.4.9,3.3,2.6l-.2.4c-.7-.9-1.3-1.4-2.1-1.4-1.2,0-2,1.1-2,3.3s.8,3.2,2,3.2ZM243.2,46.1v.9l-3.7.2-.2-1.7v-6.5c.1,0,.1-4,.1-4l-1.3-.2v-.8l4-.9.3.2v2.7c0,0,0,10.9,0,10.9l-1.3-1.4,2.2.5Z"/>
    <path d="M247.7,41.7c.8-.2,2.1-.6,3-.8v.8c-.9.2-1.9.5-2.5.8-.9.4-1.4,1-1.4,1.9s.5,1.4,1.1,1.4.7-.2,1.3-.6l.8-.6.2.3-.8.9c-.9,1-1.5,1.6-2.9,1.6s-2.5-.9-2.5-2.4.7-2.3,3.7-3.2ZM249.1,45.4v-4.8c0-1.7-.3-2.2-1.5-2.2s-1,0-1.8.3l1.3-.7v1.3c-.2,1.3-.8,1.8-1.5,1.8s-1.1-.3-1.3-1c.1-1.6,1.6-2.7,4.4-2.7s3.4,1,3.4,3.6v4.3c0,.4.2.6.4.6s.4-.1.6-.4l.5.3c-.5,1-1.1,1.4-2.3,1.4s-2-.7-2.2-1.8Z"/>
    <path d="M254.9,38.9l-1.7-.3v-.8h5.4v.8l-1.7.3h-2ZM253.2,50c.2-.8.8-1.2,1.6-1.2s1.1.1,1.6.9l.6.9-.7.3-.6-.3c.9-.5,1.7-1.6,2.1-2.9l1-2.9,2.5-7h1.2l-3.8,10c-.9,2.4-1.8,3.7-3.6,3.7s-1.9-.6-2-1.4ZM258,48.1l-4.4-10.4h3.3l2.5,7.1-1.4,3.3ZM261.3,38.9l-1.6-.3v-.8h3.6v.8l-1.6.3h-.4Z"/>
    <path d="M263.6,46.4v-2.3h1.6l.4,2.5-1.1-.4v-.8c.8.5,1.5.8,2.4.8s1.7-.4,1.7-1.1-.4-1-1.6-1.4l-1-.3c-1.5-.4-2.3-1.4-2.3-2.8s1.4-3.1,4-3.1,2,.3,3,.8v2.1h-1.7l-.5-2.3,1.1.5v.7c-.7-.4-1.1-.6-1.9-.6s-1.4.4-1.4,1.1.3.9,1.6,1.3l.9.3c1.8.5,2.5,1.5,2.5,2.9,0,2-1.6,3.2-4.3,3.2s-2.3-.3-3.3-.9Z"/>
  </g>
  <g>
    <path d="M7.4,66.5c0-3.2,1.7-5.1,4.2-5.1s4.2,1.9,4.2,5.1-1.7,5.1-4.2,5.1-4.2-2-4.2-5.1ZM14.5,66.5c0-2.5-1.2-4-2.9-4s-2.9,1.5-2.9,4,1.2,4,2.9,4,2.9-1.6,2.9-4Z"/>
    <path d="M17.7,68.7v-4.6h1.2v4.5c0,1.4.4,1.9,1.4,1.9s1.3-.4,2-1.2v-5.2h1.2v7.3h-1v-1.1h-.1c-.7.8-1.4,1.3-2.4,1.3-1.5,0-2.2-1-2.2-2.9Z"/>
    <path d="M26.2,69.2v-4h-1.1v-.9h1.1c0,0,.1-2.1.1-2.1h1v2h2v1h-2v4.1c0,.9.3,1.4,1.1,1.4s.6,0,.8-.2l.2.9c-.4.1-.9.3-1.4.3-1.6,0-2.1-1-2.1-2.4Z"/>
    <path d="M33.5,67.8c0-2.4,1.6-3.8,3.4-3.8s3.4,1.4,3.4,3.8-1.6,3.8-3.4,3.8-3.4-1.4-3.4-3.8ZM39,67.8c0-1.7-.8-2.8-2.1-2.8s-2.1,1.1-2.1,2.8.8,2.8,2.1,2.8,2.1-1.1,2.1-2.8Z"/>
    <path d="M41.4,64.2h1c0,0,2.7,0,2.7,0v1h-3.8v-.9ZM42.3,63c0-1.5.7-2.4,2.1-2.4s.9.1,1.2.3l-.3.9c-.3-.1-.6-.2-.8-.2-.7,0-1,.5-1,1.4v8.4h-1.2v-8.4Z"/>
    <path d="M49.1,69.5c0-1.6,1.4-2.4,4.5-2.7,0-.9-.3-1.8-1.5-1.8s-1.6.4-2.2.8l-.5-.8c.7-.4,1.7-1,2.9-1,1.8,0,2.5,1.2,2.5,3v4.5h-1v-.9h-.1c-.7.6-1.5,1.1-2.4,1.1s-2.1-.8-2.1-2.1ZM53.5,69.6v-2c-2.4.3-3.3.9-3.3,1.8s.6,1.2,1.3,1.2,1.3-.3,2-1Z"/>
    <path d="M57.1,70v-9.2h1.2v9.3c0,.4.2.5.3.5s.1,0,.3,0l.2.9c-.2,0-.4.1-.7.1-.9,0-1.3-.6-1.3-1.6Z"/>
    <path d="M60.9,70v-9.2h1.2v9.3c0,.4.2.5.3.5s.1,0,.3,0l.2.9c-.2,0-.4.1-.7.1-.9,0-1.3-.6-1.3-1.6Z"/>
    <path d="M67.7,64.1h1v1.1h.1c.7-.7,1.4-1.2,2.4-1.2,1.5,0,2.2,1,2.2,2.9v4.6h-1.2v-4.5c0-1.4-.4-1.9-1.4-1.9s-1.3.4-2,1.1v5.3h-1.2v-7.3Z"/>
    <path d="M75.4,67.8c0-2.4,1.6-3.8,3.4-3.8s3.4,1.4,3.4,3.8-1.6,3.8-3.4,3.8-3.4-1.4-3.4-3.8ZM80.9,67.8c0-1.7-.8-2.8-2.1-2.8s-2.1,1.1-2.1,2.8.8,2.8,2.1,2.8,2.1-1.1,2.1-2.8Z"/>
    <path d="M84,69.2v-4h-1.1v-.9h1.1c0,0,.1-2.1.1-2.1h1v2h2v1h-2v4.1c0,.9.3,1.4,1.1,1.4s.6,0,.8-.2l.2.9c-.4.1-.9.3-1.4.3-1.6,0-2.1-1-2.1-2.4Z"/>
    <path d="M88.1,67.8c0-2.4,1.6-3.8,3.3-3.8s2.9,1.3,2.9,3.4,0,.5,0,.7h-4.9c0,1.5,1,2.5,2.4,2.5s1.3-.2,1.8-.6l.4.8c-.6.4-1.4.8-2.4.8-1.9,0-3.5-1.4-3.5-3.8ZM93.2,67.2c0-1.5-.7-2.3-1.8-2.3s-1.9.8-2.1,2.3h3.9Z"/>
    <path d="M95.3,70.6l.6-.8c.6.5,1.3.9,2.2.9s1.4-.5,1.4-1.1-.9-1.1-1.7-1.4c-1-.4-2.2-.9-2.2-2.1s.9-2.1,2.5-2.1,1.7.4,2.3.8l-.6.8c-.5-.4-1-.6-1.7-.6-.9,0-1.3.5-1.3,1s.8,1,1.6,1.3c1.1.4,2.2.8,2.2,2.2s-.9,2.2-2.7,2.2-2-.4-2.7-1Z"/>
    <path d="M104.9,67.8c0-2.4,1.6-3.8,3.5-3.8s1.6.4,2.1.9l-.6.8c-.4-.4-.9-.6-1.4-.6-1.3,0-2.3,1.1-2.3,2.8s.9,2.8,2.3,2.8,1.3-.3,1.7-.7l.5.8c-.7.6-1.5.9-2.4.9-1.9,0-3.4-1.4-3.4-3.8Z"/>
    <path d="M112.2,70v-9.2h1.2v9.3c0,.4.2.5.3.5s.1,0,.3,0l.2.9c-.2,0-.4.1-.7.1-.9,0-1.3-.6-1.3-1.6Z"/>
    <path d="M115.6,69.5c0-1.6,1.4-2.4,4.5-2.7,0-.9-.3-1.8-1.5-1.8s-1.6.4-2.2.8l-.5-.8c.7-.4,1.7-1,2.9-1,1.8,0,2.5,1.2,2.5,3v4.5h-1v-.9h-.1c-.7.6-1.5,1.1-2.4,1.1s-2.1-.8-2.1-2.1ZM120.1,69.6v-2c-2.4.3-3.3.9-3.3,1.8s.6,1.2,1.3,1.2,1.3-.3,2-1Z"/>
    <path d="M122.8,70.6l.6-.8c.6.5,1.3.9,2.2.9s1.4-.5,1.4-1.1-.9-1.1-1.7-1.4c-1-.4-2.2-.9-2.2-2.1s.9-2.1,2.5-2.1,1.7.4,2.3.8l-.6.8c-.5-.4-1-.6-1.7-.6-.9,0-1.3.5-1.3,1s.8,1,1.6,1.3c1.1.4,2.2.8,2.2,2.2s-.9,2.2-2.7,2.2-2-.4-2.7-1Z"/>
    <path d="M129.1,70.6l.6-.8c.6.5,1.3.9,2.2.9s1.4-.5,1.4-1.1-.9-1.1-1.7-1.4c-1-.4-2.2-.9-2.2-2.1s.9-2.1,2.5-2.1,1.7.4,2.3.8l-.6.8c-.5-.4-1-.6-1.7-.6-.9,0-1.3.5-1.3,1s.8,1,1.6,1.3c1.1.4,2.2.8,2.2,2.2s-.9,2.2-2.7,2.2-2-.4-2.7-1Z"/>
    <path d="M136,61.8c0-.5.4-.8.9-.8s.9.3.9.8-.4.8-.9.8-.9-.3-.9-.8ZM136.2,64.1h1.2v7.3h-1.2v-7.3Z"/>
    <path d="M139.1,64.2h1c0,0,2.7,0,2.7,0v1h-3.8v-.9ZM140.1,63c0-1.5.7-2.4,2.1-2.4s.9.1,1.2.3l-.3.9c-.3-.1-.6-.2-.8-.2-.7,0-1,.5-1,1.4v8.4h-1.2v-8.4Z"/>
    <path d="M144,61.8c0-.5.4-.8.9-.8s.9.3.9.8-.4.8-.9.8-.9-.3-.9-.8ZM144.3,64.1h1.2v7.3h-1.2v-7.3Z"/>
    <path d="M147.4,67.8c0-2.4,1.6-3.8,3.3-3.8s2.9,1.3,2.9,3.4,0,.5,0,.7h-4.9c0,1.5,1,2.5,2.4,2.5s1.3-.2,1.8-.6l.4.8c-.6.4-1.4.8-2.4.8-1.9,0-3.5-1.4-3.5-3.8ZM152.5,67.2c0-1.5-.7-2.3-1.8-2.3s-1.9.8-2.1,2.3h3.9Z"/>
    <path d="M154.9,67.8c0-2.4,1.5-3.8,3.2-3.8s1.4.3,2,.8v-1.3c0,0,0-2.8,0-2.8h1.2v10.7h-1v-.9h-.1c-.6.6-1.3,1-2.2,1-1.8,0-3-1.4-3-3.8ZM160,69.6v-3.8c-.6-.6-1.2-.8-1.8-.8-1.2,0-2.1,1.1-2.1,2.8s.7,2.8,2,2.8,1.3-.3,1.9-1Z"/>
    <path d="M166.6,68.7v-4.6h1.2v4.5c0,1.4.4,1.9,1.4,1.9s1.3-.4,2-1.2v-5.2h1.2v7.3h-1v-1.1h-.1c-.7.8-1.4,1.3-2.4,1.3-1.5,0-2.2-1-2.2-2.9Z"/>
    <path d="M174.9,64.1h1v1.1h.1c.7-.7,1.4-1.2,2.4-1.2,1.5,0,2.2,1,2.2,2.9v4.6h-1.2v-4.5c0-1.4-.4-1.9-1.4-1.9s-1.3.4-2,1.1v5.3h-1.2v-7.3Z"/>
    <path d="M182.6,67.8c0-2.4,1.5-3.8,3.2-3.8s1.4.3,2,.8v-1.3c0,0,0-2.8,0-2.8h1.2v10.7h-1v-.9h-.1c-.6.6-1.3,1-2.2,1-1.8,0-3-1.4-3-3.8ZM187.7,69.6v-3.8c-.6-.6-1.2-.8-1.8-.8-1.2,0-2.1,1.1-2.1,2.8s.7,2.8,2,2.8,1.3-.3,1.9-1Z"/>
    <path d="M190.9,67.8c0-2.4,1.6-3.8,3.3-3.8s2.9,1.3,2.9,3.4,0,.5,0,.7h-4.9c0,1.5,1,2.5,2.4,2.5s1.3-.2,1.8-.6l.4.8c-.6.4-1.4.8-2.4.8-1.9,0-3.5-1.4-3.5-3.8ZM196,67.2c0-1.5-.7-2.3-1.8-2.3s-1.9.8-2.1,2.3h3.9Z"/>
    <path d="M198.8,64.1h1v1.3h.1c.5-.9,1.3-1.5,2.1-1.5s.5,0,.8.1l-.2,1.1c-.3,0-.4-.1-.7-.1-.6,0-1.4.4-1.8,1.7v4.7h-1.2v-7.3Z"/>
    <path d="M207.3,69.2v-4h-1.1v-.9h1.1c0,0,.1-2.1.1-2.1h1v2h2v1h-2v4.1c0,.9.3,1.4,1.1,1.4s.6,0,.8-.2l.2.9c-.4.1-.9.3-1.4.3-1.6,0-2.1-1-2.1-2.4Z"/>
    <path d="M212.1,60.7h1.2v4.4c.6-.7,1.4-1.2,2.4-1.2,1.5,0,2.2,1,2.2,2.9v4.6h-1.2v-4.5c0-1.4-.4-1.9-1.4-1.9s-1.3.4-2,1.1v5.3h-1.2v-10.7Z"/>
    <path d="M220.1,61.8c0-.5.4-.8.9-.8s.9.3.9.8-.4.8-.9.8-.9-.3-.9-.8ZM220.3,64.1h1.2v7.3h-1.2v-7.3Z"/>
    <path d="M223.2,70.6l.6-.8c.6.5,1.3.9,2.2.9s1.4-.5,1.4-1.1-.9-1.1-1.7-1.4c-1-.4-2.2-.9-2.2-2.1s.9-2.1,2.5-2.1,1.7.4,2.3.8l-.6.8c-.5-.4-1-.6-1.7-.6-.9,0-1.3.5-1.3,1s.8,1,1.6,1.3c1.1.4,2.2.8,2.2,2.2s-.9,2.2-2.7,2.2-2-.4-2.7-1Z"/>
    <path d="M232.4,70.6l.6-.8c.6.5,1.3.9,2.2.9s1.4-.5,1.4-1.1-.9-1.1-1.7-1.4c-1-.4-2.2-.9-2.2-2.1s.9-2.1,2.5-2.1,1.7.4,2.3.8l-.6.8c-.5-.4-1-.6-1.7-.6-.9,0-1.3.5-1.3,1s.8,1,1.6,1.3c1.1.4,2.2.8,2.2,2.2s-.9,2.2-2.7,2.2-2-.4-2.7-1Z"/>
    <path d="M239.5,69.2v-4h-1.1v-.9h1.1c0,0,.1-2.1.1-2.1h1v2h2v1h-2v4.1c0,.9.3,1.4,1.1,1.4s.6,0,.8-.2l.2.9c-.4.1-.9.3-1.4.3-1.6,0-2.1-1-2.1-2.4Z"/>
    <path d="M243.5,69.5c0-1.6,1.4-2.4,4.5-2.7,0-.9-.3-1.8-1.5-1.8s-1.6.4-2.2.8l-.5-.8c.7-.4,1.7-1,2.9-1,1.8,0,2.5,1.2,2.5,3v4.5h-1v-.9h-.1c-.7.6-1.5,1.1-2.4,1.1s-2.1-.8-2.1-2.1ZM248,69.6v-2c-2.4.3-3.3.9-3.3,1.8s.6,1.2,1.3,1.2,1.3-.3,2-1Z"/>
    <path d="M251.6,69.2v-4h-1.1v-.9h1.1c0,0,.1-2.1.1-2.1h1v2h2v1h-2v4.1c0,.9.3,1.4,1.1,1.4s.6,0,.8-.2l.2.9c-.4.1-.9.3-1.4.3-1.6,0-2.1-1-2.1-2.4Z"/>
    <path d="M256.3,68.7v-4.6h1.2v4.5c0,1.4.4,1.9,1.4,1.9s1.3-.4,2-1.2v-5.2h1.2v7.3h-1v-1.1h-.1c-.7.8-1.4,1.3-2.4,1.3-1.5,0-2.2-1-2.2-2.9Z"/>
    <path d="M263.8,70.6l.6-.8c.6.5,1.3.9,2.2.9s1.4-.5,1.4-1.1-.9-1.1-1.7-1.4c-1-.4-2.2-.9-2.2-2.1s.9-2.1,2.5-2.1,1.7.4,2.3.8l-.6.8c-.5-.4-1-.6-1.7-.6-.9,0-1.3.5-1.3,1s.8,1,1.6,1.3c1.1.4,2.2.8,2.2,2.2s-.9,2.2-2.7,2.2-2-.4-2.7-1Z"/>
    <path d="M270.3,73.2c.8-.4,1.4-1,1.4-1.9v-1.1c-.1,0,.5.9.5.9-.2.2-.4.3-.6.3-.5,0-.9-.3-.9-.9s.4-.9.9-.9,1,.5,1,1.4c0,1.3-.8,2.3-2,2.8l-.3-.7Z"/>
    <path d="M277.6,64.1h1v1.1h.1c.6-.7,1.4-1.2,2.3-1.2s1.7.5,2,1.4c.8-.8,1.5-1.4,2.4-1.4,1.5,0,2.2,1,2.2,2.9v4.6h-1.2v-4.5c0-1.4-.4-1.9-1.4-1.9s-1.2.4-1.8,1.1v5.3h-1.2v-4.5c0-1.4-.4-1.9-1.4-1.9s-1.2.4-1.8,1.1v5.3h-1.2v-7.3Z"/>
    <path d="M289.5,67.8c0-2.4,1.6-3.8,3.4-3.8s3.4,1.4,3.4,3.8-1.6,3.8-3.4,3.8-3.4-1.4-3.4-3.8ZM295,67.8c0-1.7-.8-2.8-2.1-2.8s-2.1,1.1-2.1,2.8.8,2.8,2.1,2.8,2.1-1.1,2.1-2.8Z"/>
    <path d="M297.3,70.6l.6-.8c.6.5,1.3.9,2.2.9s1.4-.5,1.4-1.1-.9-1.1-1.7-1.4c-1-.4-2.2-.9-2.2-2.1s.9-2.1,2.5-2.1,1.7.4,2.3.8l-.6.8c-.5-.4-1-.6-1.7-.6-.9,0-1.3.5-1.3,1s.8,1,1.6,1.3c1.1.4,2.2.8,2.2,2.2s-.9,2.2-2.7,2.2-2-.4-2.7-1Z"/>
    <path d="M304.3,69.2v-4h-1.1v-.9h1.1c0,0,.1-2.1.1-2.1h1v2h2v1h-2v4.1c0,.9.3,1.4,1.1,1.4s.6,0,.8-.2l.2.9c-.4.1-.9.3-1.4.3-1.6,0-2.1-1-2.1-2.4Z"/>
    <path d="M312.2,64.1h1v1.3h.1c.5-.9,1.3-1.5,2.1-1.5s.5,0,.8.1l-.2,1.1c-.3,0-.4-.1-.7-.1-.6,0-1.4.4-1.8,1.7v4.7h-1.2v-7.3Z"/>
    <path d="M316.7,67.8c0-2.4,1.6-3.8,3.3-3.8s2.9,1.3,2.9,3.4,0,.5,0,.7h-4.9c0,1.5,1,2.5,2.4,2.5s1.3-.2,1.8-.6l.4.8c-.6.4-1.4.8-2.4.8-1.9,0-3.5-1.4-3.5-3.8ZM321.8,67.2c0-1.5-.7-2.3-1.8-2.3s-1.9.8-2.1,2.3h3.9Z"/>
    <path d="M324.7,64.1h1v1.1h.1c.6-.7,1.4-1.2,2.3-1.2s1.7.5,2,1.4c.8-.8,1.5-1.4,2.4-1.4,1.5,0,2.2,1,2.2,2.9v4.6h-1.2v-4.5c0-1.4-.4-1.9-1.4-1.9s-1.2.4-1.8,1.1v5.3h-1.2v-4.5c0-1.4-.4-1.9-1.4-1.9s-1.2.4-1.8,1.1v5.3h-1.2v-7.3Z"/>
    <path d="M336.9,61.8c0-.5.4-.8.9-.8s.9.3.9.8-.4.8-.9.8-.9-.3-.9-.8ZM337.1,64.1h1.2v7.3h-1.2v-7.3Z"/>
    <path d="M340.3,69.5c0-1.6,1.4-2.4,4.5-2.7,0-.9-.3-1.8-1.5-1.8s-1.6.4-2.2.8l-.5-.8c.7-.4,1.7-1,2.9-1,1.8,0,2.5,1.2,2.5,3v4.5h-1v-.9h-.1c-.7.6-1.5,1.1-2.4,1.1s-2.1-.8-2.1-2.1ZM344.8,69.6v-2c-2.4.3-3.3.9-3.3,1.8s.6,1.2,1.3,1.2,1.3-.3,2-1Z"/>
    <path d="M348.1,61.8c0-.5.4-.8.9-.8s.9.3.9.8-.4.8-.9.8-.9-.3-.9-.8ZM348.4,64.1h1.2v7.3h-1.2v-7.3Z"/>
    <path d="M352.1,64.1h1v1.1h.1c.7-.7,1.4-1.2,2.4-1.2,1.5,0,2.2,1,2.2,2.9v4.6h-1.2v-4.5c0-1.4-.4-1.9-1.4-1.9s-1.3.4-2,1.1v5.3h-1.2v-7.3Z"/>
    <path d="M359.7,67.8c0-2.4,1.6-3.8,3.3-3.8s2.9,1.3,2.9,3.4,0,.5,0,.7h-4.9c0,1.5,1,2.5,2.4,2.5s1.3-.2,1.8-.6l.4.8c-.6.4-1.4.8-2.4.8-1.9,0-3.5-1.4-3.5-3.8ZM364.8,67.2c0-1.5-.7-2.3-1.8-2.3s-1.9.8-2.1,2.3h3.9Z"/>
    <path d="M367.2,67.8c0-2.4,1.5-3.8,3.2-3.8s1.4.3,2,.8v-1.3c0,0,0-2.8,0-2.8h1.2v10.7h-1v-.9h-.1c-.6.6-1.3,1-2.2,1-1.8,0-3-1.4-3-3.8ZM372.3,69.6v-3.8c-.6-.6-1.2-.8-1.8-.8-1.2,0-2.1,1.1-2.1,2.8s.7,2.8,2,2.8,1.3-.3,1.9-1Z"/>
    <path d="M379.2,69.2v-4h-1.1v-.9h1.1c0,0,.1-2.1.1-2.1h1v2h2v1h-2v4.1c0,.9.3,1.4,1.1,1.4s.6,0,.8-.2l.2.9c-.4.1-.9.3-1.4.3-1.6,0-2.1-1-2.1-2.4Z"/>
    <path d="M384.1,60.7h1.2v4.4c.6-.7,1.4-1.2,2.4-1.2,1.5,0,2.2,1,2.2,2.9v4.6h-1.2v-4.5c0-1.4-.4-1.9-1.4-1.9s-1.3.4-2,1.1v5.3h-1.2v-10.7Z"/>
    <path d="M391.8,69.5c0-1.6,1.4-2.4,4.5-2.7,0-.9-.3-1.8-1.5-1.8s-1.6.4-2.2.8l-.5-.8c.7-.4,1.7-1,2.9-1,1.8,0,2.5,1.2,2.5,3v4.5h-1v-.9h-.1c-.7.6-1.5,1.1-2.4,1.1s-2.1-.8-2.1-2.1ZM396.3,69.6v-2c-2.4.3-3.3.9-3.3,1.8s.6,1.2,1.3,1.2,1.3-.3,2-1Z"/>
    <path d="M399.8,69.2v-4h-1.1v-.9h1.1c0,0,.1-2.1.1-2.1h1v2h2v1h-2v4.1c0,.9.3,1.4,1.1,1.4s.6,0,.8-.2l.2.9c-.4.1-.9.3-1.4.3-1.6,0-2.1-1-2.1-2.4Z"/>
    <path d="M406.8,64.1h1.3l1.1,4.2c.2.7.3,1.3.4,2h0c.2-.7.3-1.4.5-2l1.1-4.2h1.2l1.1,4.2c.2.7.3,1.3.5,2h0c.2-.7.3-1.3.5-2l1.1-4.2h1.2l-2,7.3h-1.5l-1.1-3.9c-.2-.7-.3-1.4-.5-2.1h0c-.2.7-.3,1.4-.5,2.1l-1,3.9h-1.4l-2-7.3Z"/>
    <path d="M417.8,69.5c0-1.6,1.4-2.4,4.5-2.7,0-.9-.3-1.8-1.5-1.8s-1.6.4-2.2.8l-.5-.8c.7-.4,1.7-1,2.9-1,1.8,0,2.5,1.2,2.5,3v4.5h-1v-.9h-.1c-.7.6-1.5,1.1-2.4,1.1s-2.1-.8-2.1-2.1ZM422.3,69.6v-2c-2.4.3-3.3.9-3.3,1.8s.6,1.2,1.3,1.2,1.3-.3,2-1Z"/>
    <path d="M425.1,74.4l.2-1c.1,0,.4.1.6.1.8,0,1.3-.7,1.6-1.6l.2-.5-2.9-7.3h1.3l1.5,4c.2.6.5,1.4.7,2.1h0c.2-.7.4-1.4.6-2.1l1.3-4h1.2l-2.7,7.9c-.5,1.4-1.3,2.5-2.7,2.5s-.6,0-.9-.1Z"/>
    <path d="M435.1,64.2h1c0,0,2.7,0,2.7,0v1h-3.8v-.9ZM436.1,63c0-1.5.7-2.4,2.1-2.4s.9.1,1.2.3l-.3.9c-.3-.1-.6-.2-.8-.2-.7,0-1,.5-1,1.4v8.4h-1.2v-8.4Z"/>
    <path d="M439.5,67.8c0-2.4,1.6-3.8,3.4-3.8s3.4,1.4,3.4,3.8-1.6,3.8-3.4,3.8-3.4-1.4-3.4-3.8ZM445,67.8c0-1.7-.8-2.8-2.1-2.8s-2.1,1.1-2.1,2.8.9,2.8,2.1,2.8,2.1-1.1,2.1-2.8Z"/>
    <path d="M448.2,64.1h1v1.3h.1c.5-.9,1.3-1.5,2.1-1.5s.5,0,.8.1l-.2,1.1c-.3,0-.4-.1-.7-.1-.6,0-1.4.4-1.8,1.7v4.7h-1.2v-7.3Z"/>
    <path d="M456.4,64.1h1v1.1h.1c.6-.7,1.4-1.2,2.3-1.2s1.7.5,2,1.4c.8-.8,1.5-1.4,2.4-1.4,1.5,0,2.2,1,2.2,2.9v4.6h-1.2v-4.5c0-1.4-.4-1.9-1.4-1.9s-1.2.4-1.8,1.1v5.3h-1.2v-4.5c0-1.4-.4-1.9-1.4-1.9s-1.2.4-1.8,1.1v5.3h-1.2v-7.3Z"/>
    <path d="M468.3,67.8c0-2.4,1.6-3.8,3.4-3.8s3.4,1.4,3.4,3.8-1.6,3.8-3.4,3.8-3.4-1.4-3.4-3.8ZM473.8,67.8c0-1.7-.8-2.8-2.1-2.8s-2.1,1.1-2.1,2.8.9,2.8,2.1,2.8,2.1-1.1,2.1-2.8Z"/>
    <path d="M477,64.1h1v1.1h.1c.7-.7,1.4-1.2,2.4-1.2,1.5,0,2.2,1,2.2,2.9v4.6h-1.2v-4.5c0-1.4-.4-1.9-1.4-1.9s-1.3.4-2,1.1v5.3h-1.2v-7.3Z"/>
    <path d="M485.4,69.2v-4h-1.1v-.9h1.1c0,0,.1-2.1.1-2.1h1v2h2v1h-2v4.1c0,.9.3,1.4,1.1,1.4s.6,0,.8-.2l.2.9c-.4.1-.9.3-1.4.3-1.6,0-2.1-1-2.1-2.4Z"/>
    <path d="M490.3,60.7h1.2v4.4c.6-.7,1.4-1.2,2.4-1.2,1.5,0,2.2,1,2.2,2.9v4.6h-1.2v-4.5c0-1.4-.4-1.9-1.4-1.9s-1.3.4-2,1.1v5.3h-1.2v-10.7Z"/>
    <path d="M497.6,70.6l.6-.8c.6.5,1.3.9,2.2.9s1.4-.5,1.4-1.1-.9-1.1-1.7-1.4c-1-.4-2.2-.9-2.2-2.1s.9-2.1,2.5-2.1,1.7.4,2.3.8l-.6.8c-.5-.4-1-.6-1.7-.6-.9,0-1.3.5-1.3,1s.8,1,1.6,1.3c1.1.4,2.2.8,2.2,2.2s-.9,2.2-2.7,2.2-2-.4-2.7-1Z"/>
    <path d="M507.3,69.5c0-1.6,1.4-2.4,4.5-2.7,0-.9-.3-1.8-1.5-1.8s-1.6.4-2.2.8l-.5-.8c.7-.4,1.7-1,2.9-1,1.8,0,2.5,1.2,2.5,3v4.5h-1v-.9h-.1c-.7.6-1.5,1.1-2.4,1.1s-2.1-.8-2.1-2.1ZM511.7,69.6v-2c-2.4.3-3.3.9-3.3,1.8s.6,1.2,1.3,1.2,1.3-.3,2-1Z"/>
    <path d="M515.3,64.1h1v1.1h.1c.7-.7,1.4-1.2,2.4-1.2,1.5,0,2.2,1,2.2,2.9v4.6h-1.2v-4.5c0-1.4-.4-1.9-1.4-1.9s-1.3.4-2,1.1v5.3h-1.2v-7.3Z"/>
    <path d="M522.9,67.8c0-2.4,1.5-3.8,3.2-3.8s1.4.3,2,.8v-1.3c0,0,0-2.8,0-2.8h1.2v10.7h-1v-.9h-.1c-.6.6-1.3,1-2.2,1-1.8,0-3-1.4-3-3.8ZM528.1,69.6v-3.8c-.6-.6-1.2-.8-1.8-.8-1.2,0-2.1,1.1-2.1,2.8s.7,2.8,2,2.8,1.3-.3,1.9-1Z"/>
    <path d="M7.3,85.8c0-2.4,1.6-3.8,3.3-3.8s2.9,1.3,2.9,3.4,0,.5,0,.7h-4.9c0,1.5,1,2.5,2.4,2.5s1.3-.2,1.8-.6l.4.8c-.6.4-1.4.8-2.4.8-1.9,0-3.5-1.4-3.5-3.8ZM12.4,85.2c0-1.5-.7-2.3-1.8-2.3s-1.9.8-2.1,2.3h3.9Z"/>
    <path d="M14.3,82.1h1.3l1.4,4.1c.2.7.5,1.5.7,2.1h0c.2-.7.5-1.4.7-2.1l1.4-4.1h1.2l-2.6,7.3h-1.4l-2.6-7.3Z"/>
    <path d="M21.8,85.8c0-2.4,1.6-3.8,3.3-3.8s2.9,1.3,2.9,3.4,0,.5,0,.7h-4.9c0,1.5,1,2.5,2.4,2.5s1.3-.2,1.8-.6l.4.8c-.6.4-1.4.8-2.4.8-1.9,0-3.5-1.4-3.5-3.8ZM26.9,85.2c0-1.5-.7-2.3-1.8-2.3s-1.9.8-2.1,2.3h3.9Z"/>
    <path d="M29.8,82.1h1v1.1h.1c.7-.7,1.4-1.2,2.4-1.2,1.5,0,2.2,1,2.2,2.9v4.6h-1.2v-4.5c0-1.4-.4-1.9-1.4-1.9s-1.3.4-2,1.1v5.3h-1.2v-7.3Z"/>
    <path d="M40.2,92.4l.2-1c.1,0,.4.1.6.1.8,0,1.3-.7,1.6-1.6l.2-.5-2.9-7.3h1.3l1.5,4c.2.6.5,1.4.7,2.1h0c.2-.7.4-1.4.6-2.1l1.3-4h1.2l-2.7,7.9c-.5,1.4-1.3,2.5-2.7,2.5s-.6,0-.9-.1Z"/>
    <path d="M47.4,85.8c0-2.4,1.6-3.8,3.3-3.8s2.9,1.3,2.9,3.4,0,.5,0,.7h-4.9c0,1.5,1,2.5,2.4,2.5s1.3-.2,1.8-.6l.4.8c-.6.4-1.4.8-2.4.8-1.9,0-3.5-1.4-3.5-3.8ZM52.5,85.2c0-1.5-.7-2.3-1.8-2.3s-1.9.8-2.1,2.3h3.9Z"/>
    <path d="M54.7,87.5c0-1.6,1.4-2.4,4.5-2.7,0-.9-.3-1.8-1.5-1.8s-1.6.4-2.2.8l-.5-.8c.7-.4,1.7-1,2.9-1,1.8,0,2.5,1.2,2.5,3v4.5h-1v-.9h-.1c-.7.6-1.5,1.1-2.4,1.1s-2.1-.8-2.1-2.1ZM59.2,87.6v-2c-2.4.3-3.3.9-3.3,1.8s.6,1.2,1.3,1.2,1.3-.3,2-1Z"/>
    <path d="M62.7,82.1h1v1.3h.1c.5-.9,1.3-1.5,2.1-1.5s.5,0,.8.1l-.2,1.1c-.3,0-.4-.1-.7-.1-.6,0-1.4.4-1.8,1.7v4.7h-1.2v-7.3Z"/>
    <path d="M67,88.6l.6-.8c.6.5,1.3.9,2.2.9s1.4-.5,1.4-1.1-.9-1.1-1.7-1.4c-1-.4-2.2-.9-2.2-2.1s.9-2.1,2.5-2.1,1.7.4,2.3.8l-.6.8c-.5-.4-1-.6-1.7-.6-.9,0-1.3.5-1.3,1s.8,1,1.6,1.3c1.1.4,2.2.8,2.2,2.2s-.9,2.2-2.7,2.2-2-.4-2.7-1Z"/>
  </g>
  <g>
    <path d="M48.6,401.8c2.9-2.9,4.5-4.6,4.5-6.1s-.6-1.9-1.8-1.9-1.5.5-2,1.1l-.7-.7c.8-.9,1.7-1.5,2.9-1.5,1.8,0,2.9,1.1,2.9,2.8s-1.6,3.6-3.9,6c.5,0,1.1,0,1.6,0h2.8v1.1h-6.2v-.7Z"/>
    <path d="M55.8,401.4l.6-.8c.6.6,1.3,1.1,2.4,1.1s2.1-.8,2.1-2.2-.8-2.1-2-2.1-1.1.2-1.6.6l-.7-.4.3-4.6h4.8v1.1h-3.7l-.3,2.8c.4-.2.9-.4,1.5-.4,1.6,0,3,.9,3,3s-1.6,3.2-3.2,3.2-2.5-.6-3.1-1.3Z"/>
    <path d="M64.1,391.9h1.2v7.2h0l3.1-3.8h1.4l-2.4,2.9,2.8,4.4h-1.3l-2.1-3.5-1.4,1.6v1.9h-1.2v-10.7Z"/>
  </g>
  <g>
    <path d="M48.3,356.4l.6-.8c.5.5,1.2,1,2.3,1s2-.8,2-2-.8-2-1.9-2-1,.2-1.5.5l-.6-.4.3-4.3h4.5v1h-3.5l-.2,2.7c.4-.2.8-.4,1.4-.4,1.5,0,2.8.9,2.8,2.8s-1.5,3-3,3-2.3-.6-2.9-1.2Z"/>
    <path d="M55.6,353c0-3,1.1-4.6,2.9-4.6s2.9,1.6,2.9,4.6-1.1,4.7-2.9,4.7-2.9-1.7-2.9-4.7ZM60.2,353c0-2.6-.7-3.7-1.7-3.7s-1.7,1.1-1.7,3.7.7,3.7,1.7,3.7,1.7-1.1,1.7-3.7Z"/>
    <path d="M63,347.5h1.1v6.8h0l2.9-3.6h1.3l-2.3,2.7,2.6,4.1h-1.3l-2-3.3-1.3,1.5v1.8h-1.1v-10Z"/>
  </g>
  <g>
    <path d="M53,305.1h-4.4v-1h5.8v.7c-2.1,2.7-2.6,4.7-2.7,8.2h-1.2c.2-3.4.8-5.5,2.6-7.9Z"/>
    <path d="M55.3,312l.6-.8c.5.5,1.2,1,2.3,1s2-.8,2-2-.8-2-1.9-2-1,.2-1.5.5l-.6-.4.3-4.3h4.5v1h-3.5l-.2,2.7c.4-.2.8-.4,1.4-.4,1.5,0,2.8.9,2.8,2.8s-1.5,3-3,3-2.3-.6-2.9-1.2Z"/>
    <path d="M63,303.1h1.1v6.8h0l2.9-3.6h1.3l-2.3,2.7,2.6,4.1h-1.3l-2-3.3-1.3,1.5v1.8h-1.1v-10Z"/>
  </g>
  <g>
    <path d="M40.9,267.7h2v-6.6h-1.6v-.7c.8-.1,1.4-.4,1.9-.7h.9v8h1.8v1h-5v-1Z"/>
    <path d="M47.4,264.2c0-3,1.1-4.6,2.9-4.6s2.9,1.6,2.9,4.6-1.1,4.7-2.9,4.7-2.9-1.7-2.9-4.7ZM52,264.2c0-2.6-.7-3.7-1.7-3.7s-1.7,1.1-1.7,3.7.7,3.7,1.7,3.7,1.7-1.1,1.7-3.7Z"/>
    <path d="M54.3,264.2c0-3,1.1-4.6,2.9-4.6s2.9,1.6,2.9,4.6-1.1,4.7-2.9,4.7-2.9-1.7-2.9-4.7ZM58.9,264.2c0-2.6-.7-3.7-1.7-3.7s-1.7,1.1-1.7,3.7.7,3.7,1.7,3.7,1.7-1.1,1.7-3.7Z"/>
    <path d="M61.8,258.7h1.1v6.8h0l2.9-3.6h1.3l-2.3,2.7,2.6,4.1h-1.3l-2-3.3-1.3,1.5v1.8h-1.1v-10Z"/>
  </g>
  <g>
    <path d="M40.9,223.4h2v-6.6h-1.6v-.7c.8-.1,1.4-.4,1.9-.7h.9v8h1.8v1h-5v-1Z"/>
    <path d="M47.3,223.7c2.7-2.7,4.2-4.3,4.2-5.7s-.6-1.7-1.7-1.7-1.4.5-1.9,1.1l-.7-.7c.7-.8,1.6-1.4,2.7-1.4,1.7,0,2.7,1,2.7,2.6s-1.5,3.3-3.6,5.6c.5,0,1,0,1.5,0h2.6v1h-5.8v-.7Z"/>
    <path d="M54.1,223.3l.6-.8c.5.5,1.2,1,2.3,1s2-.8,2-2-.8-2-1.9-2-1,.2-1.5.5l-.6-.4.3-4.3h4.5v1h-3.5l-.2,2.7c.4-.2.8-.4,1.4-.4,1.5,0,2.8.9,2.8,2.8s-1.5,3-3,3-2.3-.6-2.9-1.2Z"/>
    <path d="M61.8,214.4h1.1v6.8h0l2.9-3.6h1.3l-2.3,2.7,2.6,4.1h-1.3l-2-3.3-1.3,1.5v1.8h-1.1v-10Z"/>
  </g>
  <g>
    <path d="M40.9,179h2v-6.6h-1.6v-.7c.8-.1,1.4-.4,1.9-.7h.9v8h1.8v1h-5v-1Z"/>
    <path d="M47.1,178.9l.6-.8c.5.5,1.2,1,2.3,1s2-.8,2-2-.8-2-1.9-2-1,.2-1.5.5l-.6-.4.3-4.3h4.5v1h-3.5l-.2,2.7c.4-.2.8-.4,1.4-.4,1.5,0,2.8.9,2.8,2.8s-1.5,3-3,3-2.3-.6-2.9-1.2Z"/>
    <path d="M54.3,175.5c0-3,1.1-4.6,2.9-4.6s2.9,1.6,2.9,4.6-1.1,4.7-2.9,4.7-2.9-1.7-2.9-4.7ZM58.9,175.5c0-2.6-.7-3.7-1.7-3.7s-1.7,1.1-1.7,3.7.7,3.7,1.7,3.7,1.7-1.1,1.7-3.7Z"/>
    <path d="M61.8,170h1.1v6.8h0l2.9-3.6h1.3l-2.3,2.7,2.6,4.1h-1.3l-2-3.3-1.3,1.5v1.8h-1.1v-10Z"/>
  </g>
  <g>
    <path d="M5.2,133.8h1.9v-5.1h-1.7v-1.3c1-.2,1.6-.4,2.2-.8h1.5v7.2h1.7v1.7h-5.7v-1.7Z"/>
    <path d="M16.2,128.3h-4v-1.7h6.2v1.3c-2.1,2.5-2.3,4.2-2.5,7.6h-2.1c.2-3,.7-4.8,2.4-7.2Z"/>
    <path d="M19.3,134.3l.9-1.3c.5.5,1.2.9,1.9.9s1.5-.5,1.5-1.4-.6-1.4-1.4-1.4-.8.1-1.3.5l-.9-.6.2-4.5h5v1.7h-3.3v1.7c.2-.1.5-.2.8-.2,1.5,0,2.8.9,2.8,2.8s-1.5,3.1-3.3,3.1-2.4-.6-3.1-1.3Z"/>
    <path d="M27.3,125.6h2v5.6h0l2.2-2.8h2.2l-2.4,2.9,2.6,4.1h-2.2l-1.6-2.7-.9,1v1.7h-2v-9.8Z"/>
    <path d="M37.7,128.5h1.7v.9h.2c.6-.6,1.3-1,2.2-1,1.5,0,2.2,1.1,2.2,2.8v4.3h-2.1v-4.1c0-1-.3-1.3-.9-1.3s-.8.2-1.3.7v4.7h-2.1v-6.9Z"/>
    <path d="M45.4,131.9c0-2.3,1.6-3.6,3.4-3.6s3.4,1.3,3.4,3.6-1.6,3.6-3.4,3.6-3.4-1.3-3.4-3.6ZM50,131.9c0-1.2-.4-2-1.3-2s-1.3.8-1.3,2,.4,2,1.3,2,1.3-.8,1.3-2Z"/>
    <path d="M53.4,132.9v-2.8h-.9v-1.5h1.1c0,0,.2-1.9.2-1.9h1.7v1.8h1.7v1.6h-1.7v2.8c0,.8.4,1.1.9,1.1s.5,0,.7-.1l.3,1.5c-.4.1-.9.3-1.5.3-1.7,0-2.4-1.1-2.4-2.7Z"/>
    <path d="M57.9,131.9c0-2.3,1.6-3.6,3.3-3.6s3,1.4,3,3.3,0,.7,0,.9h-4.2c.2,1,.9,1.5,1.8,1.5s1-.2,1.5-.5l.7,1.2c-.7.5-1.6.8-2.5.8-2,0-3.5-1.3-3.5-3.6ZM62.3,131.2c0-.8-.3-1.3-1.2-1.3s-1.2.4-1.4,1.3h2.5Z"/>
    <path d="M64.9,134.6l.9-1.3c.6.5,1.2.7,1.8.7s.9-.2.9-.6-.7-.7-1.4-.9c-.9-.3-1.8-.9-1.8-2s1.1-2.2,2.7-2.2,1.9.4,2.4.9l-.9,1.2c-.5-.4-1-.6-1.5-.6s-.8.2-.8.6.7.6,1.4.9c.9.3,1.9.8,1.9,2.1s-1,2.2-2.9,2.2-2-.4-2.7-1Z"/>
  </g>
  <g>
    <path d="M256.9,474.5h2.1l2.4,4.5.9,2h0c0-1-.3-2.2-.3-3.3v-3.2h2v9.1h-2.1l-2.4-4.6-.9-2h0c0,1,.3,2.2.3,3.3v3.2h-2v-9.1Z"/>
    <path d="M265.9,481v-4.3h2.1v4c0,1,.3,1.3.9,1.3s.8-.2,1.2-.8v-4.6h2.1v6.9h-1.7v-1h-.2c-.6.7-1.2,1.1-2.2,1.1-1.5,0-2.2-1.1-2.2-2.8Z"/>
    <path d="M273.9,476.7h1.7v.9h.2c.6-.6,1.2-1.1,2.1-1.1s1.6.4,1.9,1.2c.6-.6,1.3-1.2,2.2-1.2,1.5,0,2.2,1.1,2.2,2.8v4.3h-2.1v-4.1c0-1-.3-1.3-.9-1.3s-.7.2-1.2.7v4.7h-2.1v-4.1c0-1-.3-1.3-.9-1.3s-.7.2-1.2.7v4.7h-2.1v-6.9Z"/>
    <path d="M287.8,482.9h0l-.2.7h-1.6v-9.8h2.1v3.5c.5-.5,1.1-.8,1.8-.8,1.7,0,2.7,1.4,2.7,3.5s-1.4,3.8-2.9,3.8-1.3-.3-1.8-.9ZM290.4,480.1c0-1.2-.4-1.9-1.2-1.9s-.8.2-1.2.6v2.9c.4.3.8.4,1.1.4.7,0,1.3-.6,1.3-2Z"/>
    <path d="M293.6,480.1c0-2.3,1.6-3.6,3.3-3.6s3,1.4,3,3.3,0,.7,0,.9h-4.2c.2,1,.9,1.5,1.8,1.5s1-.2,1.5-.5l.7,1.2c-.7.5-1.6.8-2.5.8-2,0-3.5-1.3-3.5-3.6ZM298,479.4c0-.8-.3-1.3-1.2-1.3s-1.2.4-1.4,1.3h2.5Z"/>
    <path d="M301.2,476.7h1.7v1.2h.2c.5-.9,1.3-1.4,2-1.4s.6,0,.8.1l-.3,1.8c-.2,0-.5-.1-.8-.1-.5,0-1.2.3-1.5,1.3v4h-2.1v-6.9Z"/>
    <path d="M309.2,480.1c0-2.3,1.6-3.6,3.4-3.6s3.4,1.3,3.4,3.6-1.6,3.6-3.4,3.6-3.4-1.3-3.4-3.6ZM313.8,480.1c0-1.2-.4-2-1.3-2s-1.3.8-1.3,2,.4,2,1.3,2,1.3-.8,1.3-2Z"/>
    <path d="M316.7,476.7h1c0,0,3.2,0,3.2,0v1.6h-4.2v-1.5ZM317.6,476.3c0-1.5.7-2.7,2.6-2.7s1.1.1,1.4.2l-.4,1.5c-.2,0-.5-.2-.7-.2-.5,0-.8.3-.8,1v7.4h-2.1v-7.3Z"/>
    <path d="M324.5,480.1c0-2.3,1.4-3.6,2.9-3.6s1.2.3,1.7.7v-1.1c0,0,0-2.4,0-2.4h2.1v9.8h-1.7v-.7h-.2c-.5.5-1.2.9-1.8.9-1.7,0-2.8-1.4-2.8-3.6ZM329,481.5v-2.9c-.4-.3-.8-.4-1.1-.4-.7,0-1.3.6-1.3,1.9s.5,2,1.3,2,.8-.2,1.1-.6Z"/>
    <path d="M332.6,481.7c0-1.5,1.2-2.3,3.9-2.5,0-.6-.3-1-1.1-1s-1.2.2-1.8.6l-.7-1.4c.9-.5,1.9-.9,3-.9,1.8,0,2.8,1,2.8,3.1v4h-1.7v-.7h-.2c-.6.5-1.2.9-2,.9-1.3,0-2.1-.9-2.1-2.1ZM336.5,481.6v-1.2c-1.5.2-1.9.6-1.9,1.1s.3.7.8.7.8-.2,1.1-.6Z"/>
    <path d="M340.1,486.2l.4-1.6c.1,0,.3,0,.5,0,.7,0,1-.4,1.2-.9v-.4c.1,0-2.6-6.8-2.6-6.8h2.1l1,3c.2.6.4,1.3.5,2h0c.2-.7.3-1.3.5-2l.8-3h2l-2.4,7c-.7,1.7-1.4,2.6-3,2.6s-.7,0-1-.1Z"/>
    <path d="M346.9,482.8l.9-1.3c.6.5,1.2.7,1.8.7s.9-.2.9-.6-.7-.7-1.4-.9c-.9-.3-1.8-.9-1.8-2s1.1-2.2,2.7-2.2,1.9.4,2.4.9l-.9,1.2c-.5-.4-1-.6-1.5-.6s-.8.2-.8.6.7.6,1.4.9c.9.3,1.9.8,1.9,2.1s-1,2.2-2.9,2.2-2-.4-2.7-1Z"/>
  </g>
  <path d="M94.8,459.3c0-3,1.1-4.6,2.9-4.6s2.9,1.6,2.9,4.6-1.1,4.7-2.9,4.7-2.9-1.7-2.9-4.7ZM99.4,459.3c0-2.6-.7-3.7-1.7-3.7s-1.7,1.1-1.7,3.7.7,3.7,1.7,3.7,1.7-1.1,1.7-3.7Z"/>
  <g>
    <path d="M139.1,463.2c2.7-2.7,4.2-4.3,4.2-5.7s-.6-1.7-1.7-1.7-1.4.5-1.9,1.1l-.7-.7c.7-.8,1.6-1.4,2.7-1.4,1.7,0,2.7,1,2.7,2.6s-1.5,3.3-3.6,5.6c.5,0,1,0,1.5,0h2.6v1h-5.8v-.7Z"/>
    <path d="M146.1,459.3c0-3,1.1-4.6,2.9-4.6s2.9,1.6,2.9,4.6-1.1,4.7-2.9,4.7-2.9-1.7-2.9-4.7ZM150.7,459.3c0-2.6-.7-3.7-1.7-3.7s-1.7,1.1-1.7,3.7.7,3.7,1.7,3.7,1.7-1.1,1.7-3.7Z"/>
    <path d="M153,459.3c0-3,1.1-4.6,2.9-4.6s2.9,1.6,2.9,4.6-1.1,4.7-2.9,4.7-2.9-1.7-2.9-4.7ZM157.6,459.3c0-2.6-.7-3.7-1.7-3.7s-1.7,1.1-1.7,3.7.7,3.7,1.7,3.7,1.7-1.1,1.7-3.7Z"/>
  </g>
  <g>
    <path d="M190.9,457.9c0-.5,0-1.2,0-1.7h0c-.2.4-.5.8-.7,1.3l-2.1,3.1h5.1v.9h-6.3v-.8l3.8-5.7h1.3v8.9h-1.1v-6Z"/>
    <path d="M194.2,459.3c0-3,1.1-4.6,2.9-4.6s2.9,1.6,2.9,4.6-1.1,4.7-2.9,4.7-2.9-1.7-2.9-4.7ZM198.8,459.3c0-2.6-.7-3.7-1.7-3.7s-1.7,1.1-1.7,3.7.7,3.7,1.7,3.7,1.7-1.1,1.7-3.7Z"/>
    <path d="M201.2,459.3c0-3,1.1-4.6,2.9-4.6s2.9,1.6,2.9,4.6-1.1,4.7-2.9,4.7-2.9-1.7-2.9-4.7ZM205.8,459.3c0-2.6-.7-3.7-1.7-3.7s-1.7,1.1-1.7,3.7.7,3.7,1.7,3.7,1.7-1.1,1.7-3.7Z"/>
  </g>
  <g>
    <path d="M237.2,459.7c0-3.6,1.6-5,3.4-5s1.7.4,2.2.9l-.6.7c-.4-.4-.9-.7-1.5-.7-1.3,0-2.4,1-2.4,4s.7,3.4,2,3.4,1.6-.8,1.6-2-.5-1.9-1.7-1.9-1.3.3-1.9,1.3v-.9c.5-.8,1.4-1.2,2.1-1.2,1.5,0,2.5.9,2.5,2.8s-1.2,2.9-2.6,2.9-3.1-1.4-3.1-4.3Z"/>
    <path d="M244.2,459.3c0-3,1.1-4.6,2.9-4.6s2.9,1.6,2.9,4.6-1.1,4.7-2.9,4.7-2.9-1.7-2.9-4.7ZM248.8,459.3c0-2.6-.7-3.7-1.7-3.7s-1.7,1.1-1.7,3.7.7,3.7,1.7,3.7,1.7-1.1,1.7-3.7Z"/>
    <path d="M251.1,459.3c0-3,1.1-4.6,2.9-4.6s2.9,1.6,2.9,4.6-1.1,4.7-2.9,4.7-2.9-1.7-2.9-4.7ZM255.7,459.3c0-2.6-.7-3.7-1.7-3.7s-1.7,1.1-1.7,3.7.7,3.7,1.7,3.7,1.7-1.1,1.7-3.7Z"/>
  </g>
  <g>
    <path d="M288.7,461.6c0-1.2.8-2,1.7-2.4h0c-.7-.5-1.2-1.2-1.2-2.1,0-1.4,1.1-2.3,2.5-2.3s2.5,1,2.5,2.4-.7,1.7-1.2,2.2h0c.8.5,1.6,1.2,1.6,2.4s-1.2,2.4-2.9,2.4-2.9-1-2.9-2.5ZM293.4,461.6c0-1.2-1.1-1.6-2.4-2.1-.7.5-1.2,1.1-1.2,1.9s.8,1.7,1.9,1.7,1.8-.6,1.8-1.6ZM293.2,457.2c0-.9-.6-1.6-1.6-1.6s-1.5.6-1.5,1.4,1,1.5,2.1,1.9c.6-.5.9-1.1.9-1.8Z"/>
    <path d="M295.7,459.3c0-3,1.1-4.6,2.9-4.6s2.9,1.6,2.9,4.6-1.1,4.7-2.9,4.7-2.9-1.7-2.9-4.7ZM300.3,459.3c0-2.6-.7-3.7-1.7-3.7s-1.7,1.1-1.7,3.7.7,3.7,1.7,3.7,1.7-1.1,1.7-3.7Z"/>
    <path d="M302.7,459.3c0-3,1.1-4.6,2.9-4.6s2.9,1.6,2.9,4.6-1.1,4.7-2.9,4.7-2.9-1.7-2.9-4.7ZM307.3,459.3c0-2.6-.7-3.7-1.7-3.7s-1.7,1.1-1.7,3.7.7,3.7,1.7,3.7,1.7-1.1,1.7-3.7Z"/>
  </g>
  <g>
    <path d="M333.3,462.9h2v-6.6h-1.6v-.7c.8-.1,1.4-.4,1.9-.7h.9v8h1.8v1h-5v-1Z"/>
    <path d="M339.8,459.3c0-3,1.1-4.6,2.9-4.6s2.9,1.6,2.9,4.6-1.1,4.7-2.9,4.7-2.9-1.7-2.9-4.7ZM344.4,459.3c0-2.6-.7-3.7-1.7-3.7s-1.7,1.1-1.7,3.7.7,3.7,1.7,3.7,1.7-1.1,1.7-3.7Z"/>
    <path d="M346.7,459.3c0-3,1.1-4.6,2.9-4.6s2.9,1.6,2.9,4.6-1.1,4.7-2.9,4.7-2.9-1.7-2.9-4.7ZM351.3,459.3c0-2.6-.7-3.7-1.7-3.7s-1.7,1.1-1.7,3.7.7,3.7,1.7,3.7,1.7-1.1,1.7-3.7Z"/>
    <path d="M353.7,459.3c0-3,1.1-4.6,2.9-4.6s2.9,1.6,2.9,4.6-1.1,4.7-2.9,4.7-2.9-1.7-2.9-4.7ZM358.3,459.3c0-2.6-.7-3.7-1.7-3.7s-1.7,1.1-1.7,3.7.7,3.7,1.7,3.7,1.7-1.1,1.7-3.7Z"/>
  </g>
  <g>
    <path d="M384.7,462.9h2v-6.6h-1.6v-.7c.8-.1,1.4-.4,1.9-.7h.9v8h1.8v1h-5v-1Z"/>
    <path d="M391.1,463.2c2.7-2.7,4.2-4.3,4.2-5.7s-.6-1.7-1.7-1.7-1.4.5-1.9,1.1l-.7-.7c.7-.8,1.6-1.4,2.7-1.4,1.7,0,2.7,1,2.7,2.6s-1.5,3.3-3.6,5.6c.5,0,1,0,1.5,0h2.6v1h-5.8v-.7Z"/>
    <path d="M398.1,459.3c0-3,1.1-4.6,2.9-4.6s2.9,1.6,2.9,4.6-1.1,4.7-2.9,4.7-2.9-1.7-2.9-4.7ZM402.7,459.3c0-2.6-.7-3.7-1.7-3.7s-1.7,1.1-1.7,3.7.7,3.7,1.7,3.7,1.7-1.1,1.7-3.7Z"/>
    <path d="M405.1,459.3c0-3,1.1-4.6,2.9-4.6s2.9,1.6,2.9,4.6-1.1,4.7-2.9,4.7-2.9-1.7-2.9-4.7ZM409.7,459.3c0-2.6-.7-3.7-1.7-3.7s-1.7,1.1-1.7,3.7.7,3.7,1.7,3.7,1.7-1.1,1.7-3.7Z"/>
  </g>
  <g>
    <path d="M436.1,462.9h2v-6.6h-1.6v-.7c.8-.1,1.4-.4,1.9-.7h.9v8h1.8v1h-5v-1Z"/>
    <path d="M446.2,457.9c0-.5,0-1.2,0-1.7h0c-.2.4-.5.8-.7,1.3l-2.1,3.1h5.1v.9h-6.3v-.8l3.8-5.7h1.3v8.9h-1.1v-6Z"/>
    <path d="M449.6,459.3c0-3,1.1-4.6,2.9-4.6s2.9,1.6,2.9,4.6-1.1,4.7-2.9,4.7-2.9-1.7-2.9-4.7ZM454.2,459.3c0-2.6-.7-3.7-1.7-3.7s-1.7,1.1-1.7,3.7.7,3.7,1.7,3.7,1.7-1.1,1.7-3.7Z"/>
    <path d="M456.5,459.3c0-3,1.1-4.6,2.9-4.6s2.9,1.6,2.9,4.6-1.1,4.7-2.9,4.7-2.9-1.7-2.9-4.7ZM461.1,459.3c0-2.6-.7-3.7-1.7-3.7s-1.7,1.1-1.7,3.7.7,3.7,1.7,3.7,1.7-1.1,1.7-3.7Z"/>
  </g>
  <g>
    <path d="M487.1,462.9h2v-6.6h-1.6v-.7c.8-.1,1.4-.4,1.9-.7h.9v8h1.8v1h-5v-1Z"/>
    <path d="M493.6,459.7c0-3.6,1.6-5,3.4-5s1.7.4,2.2.9l-.6.7c-.4-.4-.9-.7-1.5-.7-1.3,0-2.4,1-2.4,4s.7,3.4,2,3.4,1.6-.8,1.6-2-.5-1.9-1.7-1.9-1.3.3-1.9,1.3v-.9c.5-.8,1.4-1.2,2.1-1.2,1.5,0,2.5.9,2.5,2.8s-1.2,2.9-2.6,2.9-3.1-1.4-3.1-4.3Z"/>
    <path d="M500.5,459.3c0-3,1.1-4.6,2.9-4.6s2.9,1.6,2.9,4.6-1.1,4.7-2.9,4.7-2.9-1.7-2.9-4.7ZM505.1,459.3c0-2.6-.7-3.7-1.7-3.7s-1.7,1.1-1.7,3.7.7,3.7,1.7,3.7,1.7-1.1,1.7-3.7Z"/>
    <path d="M507.5,459.3c0-3,1.1-4.6,2.9-4.6s2.9,1.6,2.9,4.6-1.1,4.7-2.9,4.7-2.9-1.7-2.9-4.7ZM512.1,459.3c0-2.6-.7-3.7-1.7-3.7s-1.7,1.1-1.7,3.7.7,3.7,1.7,3.7,1.7-1.1,1.7-3.7Z"/>
  </g>
</svg>