<?xml version="1.0" encoding="UTF-8"?>
<svg id="Layer_1" xmlns="http://www.w3.org/2000/svg" xmlns:xlink="http://www.w3.org/1999/xlink" version="1.1" viewBox="0 0 592.2 666.9">
  <!-- Generator: Adobe Illustrator 29.3.1, SVG Export Plug-In . SVG Version: 2.1.0 Build 151)  -->
  <defs>
    <style>
      .st0 {
        fill: none;
      }

      .st1 {
        fill: #32cd32;
      }

      .st1, .st2, .st3, .st4 {
        stroke: #fff;
      }

      .st5 {
        clip-path: url(#clippath-17);
      }

      .st6 {
        clip-path: url(#clippath-19);
      }

      .st7 {
        clip-path: url(#clippath-11);
      }

      .st8 {
        clip-path: url(#clippath-16);
      }

      .st9 {
        clip-path: url(#clippath-18);
      }

      .st10 {
        clip-path: url(#clippath-10);
      }

      .st11 {
        clip-path: url(#clippath-15);
      }

      .st12 {
        clip-path: url(#clippath-13);
      }

      .st13 {
        clip-path: url(#clippath-14);
      }

      .st14 {
        clip-path: url(#clippath-12);
      }

      .st15 {
        clip-path: url(#clippath-61);
      }

      .st16 {
        clip-path: url(#clippath-67);
      }

      .st17 {
        clip-path: url(#clippath-68);
      }

      .st18 {
        clip-path: url(#clippath-60);
      }

      .st19 {
        clip-path: url(#clippath-65);
      }

      .st20 {
        clip-path: url(#clippath-62);
      }

      .st21 {
        clip-path: url(#clippath-64);
      }

      .st22 {
        clip-path: url(#clippath-66);
      }

      .st23 {
        clip-path: url(#clippath-63);
      }

      .st24 {
        clip-path: url(#clippath-76);
      }

      .st25 {
        clip-path: url(#clippath-78);
      }

      .st26 {
        clip-path: url(#clippath-75);
      }

      .st27 {
        clip-path: url(#clippath-79);
      }

      .st28 {
        clip-path: url(#clippath-50);
      }

      .st29 {
        clip-path: url(#clippath-55);
      }

      .st30 {
        clip-path: url(#clippath-52);
      }

      .st31 {
        clip-path: url(#clippath-57);
      }

      .st32 {
        clip-path: url(#clippath-54);
      }

      .st33 {
        clip-path: url(#clippath-56);
      }

      .st34 {
        clip-path: url(#clippath-53);
      }

      .st35 {
        clip-path: url(#clippath-70);
      }

      .st36 {
        clip-path: url(#clippath-77);
      }

      .st37 {
        clip-path: url(#clippath-74);
      }

      .st38 {
        clip-path: url(#clippath-71);
      }

      .st39 {
        clip-path: url(#clippath-73);
      }

      .st40 {
        clip-path: url(#clippath-72);
      }

      .st41 {
        clip-path: url(#clippath-51);
      }

      .st42 {
        clip-path: url(#clippath-58);
      }

      .st43 {
        clip-path: url(#clippath-59);
      }

      .st44 {
        clip-path: url(#clippath-31);
      }

      .st45 {
        clip-path: url(#clippath-32);
      }

      .st46 {
        clip-path: url(#clippath-33);
      }

      .st47 {
        clip-path: url(#clippath-34);
      }

      .st48 {
        clip-path: url(#clippath-35);
      }

      .st49 {
        clip-path: url(#clippath-39);
      }

      .st50 {
        clip-path: url(#clippath-30);
      }

      .st51 {
        clip-path: url(#clippath-36);
      }

      .st52 {
        clip-path: url(#clippath-37);
      }

      .st53 {
        clip-path: url(#clippath-38);
      }

      .st54 {
        clip-path: url(#clippath-27);
      }

      .st55 {
        clip-path: url(#clippath-29);
      }

      .st56 {
        clip-path: url(#clippath-26);
      }

      .st57 {
        clip-path: url(#clippath-28);
      }

      .st58 {
        clip-path: url(#clippath-20);
      }

      .st59 {
        clip-path: url(#clippath-21);
      }

      .st60 {
        clip-path: url(#clippath-22);
      }

      .st61 {
        clip-path: url(#clippath-23);
      }

      .st62 {
        clip-path: url(#clippath-24);
      }

      .st63 {
        clip-path: url(#clippath-25);
      }

      .st64 {
        clip-path: url(#clippath-69);
      }

      .st65 {
        clip-path: url(#clippath-41);
      }

      .st66 {
        clip-path: url(#clippath-42);
      }

      .st67 {
        clip-path: url(#clippath-43);
      }

      .st68 {
        clip-path: url(#clippath-44);
      }

      .st69 {
        clip-path: url(#clippath-45);
      }

      .st70 {
        clip-path: url(#clippath-49);
      }

      .st71 {
        clip-path: url(#clippath-40);
      }

      .st72 {
        clip-path: url(#clippath-46);
      }

      .st73 {
        clip-path: url(#clippath-47);
      }

      .st74 {
        clip-path: url(#clippath-48);
      }

      .st75 {
        clip-path: url(#clippath-90);
      }

      .st76 {
        clip-path: url(#clippath-95);
      }

      .st77 {
        clip-path: url(#clippath-93);
      }

      .st78 {
        clip-path: url(#clippath-99);
      }

      .st79 {
        clip-path: url(#clippath-94);
      }

      .st80 {
        clip-path: url(#clippath-96);
      }

      .st81 {
        clip-path: url(#clippath-85);
      }

      .st82 {
        clip-path: url(#clippath-86);
      }

      .st83 {
        clip-path: url(#clippath-87);
      }

      .st84 {
        clip-path: url(#clippath-80);
      }

      .st85 {
        clip-path: url(#clippath-89);
      }

      .st86 {
        clip-path: url(#clippath-81);
      }

      .st87 {
        clip-path: url(#clippath-82);
      }

      .st88 {
        clip-path: url(#clippath-83);
      }

      .st89 {
        clip-path: url(#clippath-84);
      }

      .st90 {
        clip-path: url(#clippath-88);
      }

      .st91 {
        clip-path: url(#clippath-92);
      }

      .st92 {
        clip-path: url(#clippath-97);
      }

      .st93 {
        clip-path: url(#clippath-91);
      }

      .st94 {
        clip-path: url(#clippath-98);
      }

      .st95 {
        clip-path: url(#clippath-1);
      }

      .st96 {
        clip-path: url(#clippath-3);
      }

      .st97 {
        clip-path: url(#clippath-4);
      }

      .st98 {
        clip-path: url(#clippath-2);
      }

      .st99 {
        clip-path: url(#clippath-7);
      }

      .st100 {
        clip-path: url(#clippath-6);
      }

      .st101 {
        clip-path: url(#clippath-9);
      }

      .st102 {
        clip-path: url(#clippath-8);
      }

      .st103 {
        clip-path: url(#clippath-5);
      }

      .st2, .st104 {
        fill: #fff;
      }

      .st3 {
        fill: gold;
      }

      .st105 {
        clip-path: url(#clippath-212);
      }

      .st106 {
        clip-path: url(#clippath-217);
      }

      .st107 {
        clip-path: url(#clippath-214);
      }

      .st108 {
        clip-path: url(#clippath-211);
      }

      .st109 {
        clip-path: url(#clippath-213);
      }

      .st110 {
        clip-path: url(#clippath-210);
      }

      .st111 {
        clip-path: url(#clippath-215);
      }

      .st112 {
        clip-path: url(#clippath-219);
      }

      .st113 {
        clip-path: url(#clippath-216);
      }

      .st114 {
        clip-path: url(#clippath-218);
      }

      .st115 {
        clip-path: url(#clippath-207);
      }

      .st116 {
        clip-path: url(#clippath-201);
      }

      .st117 {
        clip-path: url(#clippath-200);
      }

      .st118 {
        clip-path: url(#clippath-202);
      }

      .st119 {
        clip-path: url(#clippath-203);
      }

      .st120 {
        clip-path: url(#clippath-204);
      }

      .st121 {
        clip-path: url(#clippath-205);
      }

      .st122 {
        clip-path: url(#clippath-209);
      }

      .st123 {
        clip-path: url(#clippath-206);
      }

      .st124 {
        clip-path: url(#clippath-208);
      }

      .st125 {
        clip-path: url(#clippath-220);
      }

      .st126 {
        clip-path: url(#clippath-221);
      }

      .st127 {
        clip-path: url(#clippath-222);
      }

      .st128 {
        clip-path: url(#clippath-224);
      }

      .st129 {
        clip-path: url(#clippath-223);
      }

      .st130 {
        clip-path: url(#clippath-163);
      }

      .st131 {
        clip-path: url(#clippath-165);
      }

      .st132 {
        clip-path: url(#clippath-160);
      }

      .st133 {
        clip-path: url(#clippath-161);
      }

      .st134 {
        clip-path: url(#clippath-168);
      }

      .st135 {
        clip-path: url(#clippath-167);
      }

      .st136 {
        clip-path: url(#clippath-162);
      }

      .st137 {
        clip-path: url(#clippath-169);
      }

      .st138 {
        clip-path: url(#clippath-164);
      }

      .st139 {
        clip-path: url(#clippath-166);
      }

      .st140 {
        clip-path: url(#clippath-178);
      }

      .st141 {
        clip-path: url(#clippath-174);
      }

      .st142 {
        clip-path: url(#clippath-172);
      }

      .st143 {
        clip-path: url(#clippath-171);
      }

      .st144 {
        clip-path: url(#clippath-179);
      }

      .st145 {
        clip-path: url(#clippath-173);
      }

      .st146 {
        clip-path: url(#clippath-176);
      }

      .st147 {
        clip-path: url(#clippath-175);
      }

      .st148 {
        clip-path: url(#clippath-190);
      }

      .st149 {
        clip-path: url(#clippath-198);
      }

      .st150 {
        clip-path: url(#clippath-191);
      }

      .st151 {
        clip-path: url(#clippath-182);
      }

      .st152 {
        clip-path: url(#clippath-185);
      }

      .st153 {
        clip-path: url(#clippath-181);
      }

      .st154 {
        clip-path: url(#clippath-188);
      }

      .st155 {
        clip-path: url(#clippath-184);
      }

      .st156 {
        clip-path: url(#clippath-186);
      }

      .st157 {
        clip-path: url(#clippath-187);
      }

      .st158 {
        clip-path: url(#clippath-189);
      }

      .st159 {
        clip-path: url(#clippath-183);
      }

      .st160 {
        clip-path: url(#clippath-180);
      }

      .st161 {
        clip-path: url(#clippath-192);
      }

      .st162 {
        clip-path: url(#clippath-193);
      }

      .st163 {
        clip-path: url(#clippath-199);
      }

      .st164 {
        clip-path: url(#clippath-195);
      }

      .st165 {
        clip-path: url(#clippath-194);
      }

      .st166 {
        clip-path: url(#clippath-197);
      }

      .st167 {
        clip-path: url(#clippath-196);
      }

      .st168 {
        clip-path: url(#clippath-102);
      }

      .st169 {
        clip-path: url(#clippath-101);
      }

      .st170 {
        clip-path: url(#clippath-104);
      }

      .st171 {
        clip-path: url(#clippath-109);
      }

      .st172 {
        clip-path: url(#clippath-106);
      }

      .st173 {
        clip-path: url(#clippath-103);
      }

      .st174 {
        clip-path: url(#clippath-105);
      }

      .st175 {
        clip-path: url(#clippath-100);
      }

      .st176 {
        clip-path: url(#clippath-108);
      }

      .st177 {
        clip-path: url(#clippath-107);
      }

      .st178 {
        clip-path: url(#clippath-118);
      }

      .st179 {
        clip-path: url(#clippath-114);
      }

      .st180 {
        clip-path: url(#clippath-119);
      }

      .st181 {
        clip-path: url(#clippath-111);
      }

      .st182 {
        clip-path: url(#clippath-110);
      }

      .st183 {
        clip-path: url(#clippath-113);
      }

      .st184 {
        clip-path: url(#clippath-112);
      }

      .st185 {
        clip-path: url(#clippath-117);
      }

      .st186 {
        clip-path: url(#clippath-115);
      }

      .st187 {
        clip-path: url(#clippath-116);
      }

      .st188 {
        clip-path: url(#clippath-170);
      }

      .st189 {
        clip-path: url(#clippath-177);
      }

      .st190 {
        clip-path: url(#clippath-151);
      }

      .st191 {
        clip-path: url(#clippath-156);
      }

      .st192 {
        clip-path: url(#clippath-159);
      }

      .st193 {
        clip-path: url(#clippath-150);
      }

      .st194 {
        clip-path: url(#clippath-143);
      }

      .st195 {
        clip-path: url(#clippath-144);
      }

      .st196 {
        clip-path: url(#clippath-141);
      }

      .st197 {
        clip-path: url(#clippath-148);
      }

      .st198 {
        clip-path: url(#clippath-142);
      }

      .st199 {
        clip-path: url(#clippath-149);
      }

      .st200 {
        clip-path: url(#clippath-140);
      }

      .st201 {
        clip-path: url(#clippath-145);
      }

      .st202 {
        clip-path: url(#clippath-146);
      }

      .st203 {
        clip-path: url(#clippath-147);
      }

      .st204 {
        clip-path: url(#clippath-153);
      }

      .st205 {
        clip-path: url(#clippath-152);
      }

      .st206 {
        clip-path: url(#clippath-157);
      }

      .st207 {
        clip-path: url(#clippath-154);
      }

      .st208 {
        clip-path: url(#clippath-158);
      }

      .st209 {
        clip-path: url(#clippath-155);
      }

      .st210 {
        clip-path: url(#clippath-120);
      }

      .st211 {
        clip-path: url(#clippath-125);
      }

      .st212 {
        clip-path: url(#clippath-122);
      }

      .st213 {
        clip-path: url(#clippath-121);
      }

      .st214 {
        clip-path: url(#clippath-123);
      }

      .st215 {
        clip-path: url(#clippath-124);
      }

      .st216 {
        clip-path: url(#clippath-129);
      }

      .st217 {
        clip-path: url(#clippath-126);
      }

      .st218 {
        clip-path: url(#clippath-128);
      }

      .st219 {
        clip-path: url(#clippath-127);
      }

      .st220 {
        clip-path: url(#clippath-130);
      }

      .st221 {
        clip-path: url(#clippath-132);
      }

      .st222 {
        clip-path: url(#clippath-131);
      }

      .st223 {
        clip-path: url(#clippath-134);
      }

      .st224 {
        clip-path: url(#clippath-133);
      }

      .st225 {
        clip-path: url(#clippath-136);
      }

      .st226 {
        clip-path: url(#clippath-139);
      }

      .st227 {
        clip-path: url(#clippath-137);
      }

      .st228 {
        clip-path: url(#clippath-138);
      }

      .st229 {
        clip-path: url(#clippath-135);
      }

      .st104 {
        stroke: #000;
        stroke-width: 2px;
      }

      .st4 {
        fill: #ff4500;
      }

      .st230 {
        clip-path: url(#clippath);
      }
    </style>
    <clipPath id="clippath">
      <rect class="st0" x="16.1" y="191" width="475.8" height="475.8"/>
    </clipPath>
    <clipPath id="clippath-1">
      <rect class="st0" x="16.1" y="191" width="475.8" height="475.8"/>
    </clipPath>
    <clipPath id="clippath-2">
      <rect class="st0" x="16.1" y="191" width="475.8" height="475.8"/>
    </clipPath>
    <clipPath id="clippath-3">
      <rect class="st0" x="16.1" y="191" width="475.8" height="475.8"/>
    </clipPath>
    <clipPath id="clippath-4">
      <rect class="st0" x="16.1" y="191" width="475.8" height="475.8"/>
    </clipPath>
    <clipPath id="clippath-5">
      <rect class="st0" x="16.1" y="191" width="475.8" height="475.8"/>
    </clipPath>
    <clipPath id="clippath-6">
      <rect class="st0" x="16.1" y="191" width="475.8" height="475.8"/>
    </clipPath>
    <clipPath id="clippath-7">
      <rect class="st0" x="16.1" y="191" width="475.8" height="475.8"/>
    </clipPath>
    <clipPath id="clippath-8">
      <rect class="st0" x="16.1" y="191" width="475.8" height="475.8"/>
    </clipPath>
    <clipPath id="clippath-9">
      <rect class="st0" x="16.1" y="191" width="475.8" height="475.8"/>
    </clipPath>
    <clipPath id="clippath-10">
      <rect class="st0" x="16.1" y="191" width="475.8" height="475.8"/>
    </clipPath>
    <clipPath id="clippath-11">
      <rect class="st0" x="16.1" y="191" width="475.8" height="475.8"/>
    </clipPath>
    <clipPath id="clippath-12">
      <rect class="st0" x="16.1" y="191" width="475.8" height="475.8"/>
    </clipPath>
    <clipPath id="clippath-13">
      <rect class="st0" x="16.1" y="191" width="475.8" height="475.8"/>
    </clipPath>
    <clipPath id="clippath-14">
      <rect class="st0" x="16.1" y="191" width="475.8" height="475.8"/>
    </clipPath>
    <clipPath id="clippath-15">
      <rect class="st0" x="16.1" y="191" width="475.8" height="475.8"/>
    </clipPath>
    <clipPath id="clippath-16">
      <rect class="st0" x="16.1" y="191" width="475.8" height="475.8"/>
    </clipPath>
    <clipPath id="clippath-17">
      <rect class="st0" x="16.1" y="191" width="475.8" height="475.8"/>
    </clipPath>
    <clipPath id="clippath-18">
      <rect class="st0" x="16.1" y="191" width="475.8" height="475.8"/>
    </clipPath>
    <clipPath id="clippath-19">
      <rect class="st0" x="16.1" y="191" width="475.8" height="475.8"/>
    </clipPath>
    <clipPath id="clippath-20">
      <rect class="st0" x="16.1" y="191" width="475.8" height="475.8"/>
    </clipPath>
    <clipPath id="clippath-21">
      <rect class="st0" x="16.1" y="191" width="475.8" height="475.8"/>
    </clipPath>
    <clipPath id="clippath-22">
      <rect class="st0" x="16.1" y="191" width="475.8" height="475.8"/>
    </clipPath>
    <clipPath id="clippath-23">
      <rect class="st0" x="16.1" y="191" width="475.8" height="475.8"/>
    </clipPath>
    <clipPath id="clippath-24">
      <rect class="st0" x="16.1" y="191" width="475.8" height="475.8"/>
    </clipPath>
    <clipPath id="clippath-25">
      <rect class="st0" x="16.1" y="191" width="475.8" height="475.8"/>
    </clipPath>
    <clipPath id="clippath-26">
      <rect class="st0" x="16.1" y="191" width="475.8" height="475.8"/>
    </clipPath>
    <clipPath id="clippath-27">
      <rect class="st0" x="16.1" y="191" width="475.8" height="475.8"/>
    </clipPath>
    <clipPath id="clippath-28">
      <rect class="st0" x="16.1" y="191" width="475.8" height="475.8"/>
    </clipPath>
    <clipPath id="clippath-29">
      <rect class="st0" x="16.1" y="191" width="475.8" height="475.8"/>
    </clipPath>
    <clipPath id="clippath-30">
      <rect class="st0" x="16.1" y="191" width="475.8" height="475.8"/>
    </clipPath>
    <clipPath id="clippath-31">
      <rect class="st0" x="16.1" y="191" width="475.8" height="475.8"/>
    </clipPath>
    <clipPath id="clippath-32">
      <rect class="st0" x="16.1" y="191" width="475.8" height="475.8"/>
    </clipPath>
    <clipPath id="clippath-33">
      <rect class="st0" x="16.1" y="191" width="475.8" height="475.8"/>
    </clipPath>
    <clipPath id="clippath-34">
      <rect class="st0" x="16.1" y="191" width="475.8" height="475.8"/>
    </clipPath>
    <clipPath id="clippath-35">
      <rect class="st0" x="16.1" y="191" width="475.8" height="475.8"/>
    </clipPath>
    <clipPath id="clippath-36">
      <rect class="st0" x="16.1" y="191" width="475.8" height="475.8"/>
    </clipPath>
    <clipPath id="clippath-37">
      <rect class="st0" x="16.1" y="191" width="475.8" height="475.8"/>
    </clipPath>
    <clipPath id="clippath-38">
      <rect class="st0" x="16.1" y="191" width="475.8" height="475.8"/>
    </clipPath>
    <clipPath id="clippath-39">
      <rect class="st0" x="16.1" y="191" width="475.8" height="475.8"/>
    </clipPath>
    <clipPath id="clippath-40">
      <rect class="st0" x="16.1" y="191" width="475.8" height="475.8"/>
    </clipPath>
    <clipPath id="clippath-41">
      <rect class="st0" x="16.1" y="191" width="475.8" height="475.8"/>
    </clipPath>
    <clipPath id="clippath-42">
      <rect class="st0" x="16.1" y="191" width="475.8" height="475.8"/>
    </clipPath>
    <clipPath id="clippath-43">
      <rect class="st0" x="16.1" y="191" width="475.8" height="475.8"/>
    </clipPath>
    <clipPath id="clippath-44">
      <rect class="st0" x="16.1" y="191" width="475.8" height="475.8"/>
    </clipPath>
    <clipPath id="clippath-45">
      <rect class="st0" x="16.1" y="191" width="475.8" height="475.8"/>
    </clipPath>
    <clipPath id="clippath-46">
      <rect class="st0" x="16.1" y="191" width="475.8" height="475.8"/>
    </clipPath>
    <clipPath id="clippath-47">
      <rect class="st0" x="16.1" y="191" width="475.8" height="475.8"/>
    </clipPath>
    <clipPath id="clippath-48">
      <rect class="st0" x="16.1" y="191" width="475.8" height="475.8"/>
    </clipPath>
    <clipPath id="clippath-49">
      <rect class="st0" x="16.1" y="191" width="475.8" height="475.8"/>
    </clipPath>
    <clipPath id="clippath-50">
      <rect class="st0" x="16.1" y="191" width="475.8" height="475.8"/>
    </clipPath>
    <clipPath id="clippath-51">
      <rect class="st0" x="16.1" y="191" width="475.8" height="475.8"/>
    </clipPath>
    <clipPath id="clippath-52">
      <rect class="st0" x="16.1" y="191" width="475.8" height="475.8"/>
    </clipPath>
    <clipPath id="clippath-53">
      <rect class="st0" x="16.1" y="191" width="475.8" height="475.8"/>
    </clipPath>
    <clipPath id="clippath-54">
      <rect class="st0" x="16.1" y="191" width="475.8" height="475.8"/>
    </clipPath>
    <clipPath id="clippath-55">
      <rect class="st0" x="16.1" y="191" width="475.8" height="475.8"/>
    </clipPath>
    <clipPath id="clippath-56">
      <rect class="st0" x="16.1" y="191" width="475.8" height="475.8"/>
    </clipPath>
    <clipPath id="clippath-57">
      <rect class="st0" x="16.1" y="191" width="475.8" height="475.8"/>
    </clipPath>
    <clipPath id="clippath-58">
      <rect class="st0" x="16.1" y="191" width="475.8" height="475.8"/>
    </clipPath>
    <clipPath id="clippath-59">
      <rect class="st0" x="16.1" y="191" width="475.8" height="475.8"/>
    </clipPath>
    <clipPath id="clippath-60">
      <rect class="st0" x="16.1" y="191" width="475.8" height="475.8"/>
    </clipPath>
    <clipPath id="clippath-61">
      <rect class="st0" x="16.1" y="191" width="475.8" height="475.8"/>
    </clipPath>
    <clipPath id="clippath-62">
      <rect class="st0" x="16.1" y="191" width="475.8" height="475.8"/>
    </clipPath>
    <clipPath id="clippath-63">
      <rect class="st0" x="16.1" y="191" width="475.8" height="475.8"/>
    </clipPath>
    <clipPath id="clippath-64">
      <rect class="st0" x="16.1" y="191" width="475.8" height="475.8"/>
    </clipPath>
    <clipPath id="clippath-65">
      <rect class="st0" x="16.1" y="191" width="475.8" height="475.8"/>
    </clipPath>
    <clipPath id="clippath-66">
      <rect class="st0" x="16.1" y="191" width="475.8" height="475.8"/>
    </clipPath>
    <clipPath id="clippath-67">
      <rect class="st0" x="16.1" y="191" width="475.8" height="475.8"/>
    </clipPath>
    <clipPath id="clippath-68">
      <rect class="st0" x="16.1" y="191" width="475.8" height="475.8"/>
    </clipPath>
    <clipPath id="clippath-69">
      <rect class="st0" x="16.1" y="191" width="475.8" height="475.8"/>
    </clipPath>
    <clipPath id="clippath-70">
      <rect class="st0" x="16.1" y="191" width="475.8" height="475.8"/>
    </clipPath>
    <clipPath id="clippath-71">
      <rect class="st0" x="16.1" y="191" width="475.8" height="475.8"/>
    </clipPath>
    <clipPath id="clippath-72">
      <rect class="st0" x="16.1" y="191" width="475.8" height="475.8"/>
    </clipPath>
    <clipPath id="clippath-73">
      <rect class="st0" x="16.1" y="191" width="475.8" height="475.8"/>
    </clipPath>
    <clipPath id="clippath-74">
      <rect class="st0" x="16.1" y="191" width="475.8" height="475.8"/>
    </clipPath>
    <clipPath id="clippath-75">
      <rect class="st0" x="16.1" y="191" width="475.8" height="475.8"/>
    </clipPath>
    <clipPath id="clippath-76">
      <rect class="st0" x="16.1" y="191" width="475.8" height="475.8"/>
    </clipPath>
    <clipPath id="clippath-77">
      <rect class="st0" x="16.1" y="191" width="475.8" height="475.8"/>
    </clipPath>
    <clipPath id="clippath-78">
      <rect class="st0" x="16.1" y="191" width="475.8" height="475.8"/>
    </clipPath>
    <clipPath id="clippath-79">
      <rect class="st0" x="16.1" y="191" width="475.8" height="475.8"/>
    </clipPath>
    <clipPath id="clippath-80">
      <rect class="st0" x="16.1" y="191" width="475.8" height="475.8"/>
    </clipPath>
    <clipPath id="clippath-81">
      <rect class="st0" x="16.1" y="191" width="475.8" height="475.8"/>
    </clipPath>
    <clipPath id="clippath-82">
      <rect class="st0" x="16.1" y="191" width="475.8" height="475.8"/>
    </clipPath>
    <clipPath id="clippath-83">
      <rect class="st0" x="16.1" y="191" width="475.8" height="475.8"/>
    </clipPath>
    <clipPath id="clippath-84">
      <rect class="st0" x="16.1" y="191" width="475.8" height="475.8"/>
    </clipPath>
    <clipPath id="clippath-85">
      <rect class="st0" x="16.1" y="191" width="475.8" height="475.8"/>
    </clipPath>
    <clipPath id="clippath-86">
      <rect class="st0" x="16.1" y="191" width="475.8" height="475.8"/>
    </clipPath>
    <clipPath id="clippath-87">
      <rect class="st0" x="16.1" y="191" width="475.8" height="475.8"/>
    </clipPath>
    <clipPath id="clippath-88">
      <rect class="st0" x="16.1" y="191" width="475.8" height="475.8"/>
    </clipPath>
    <clipPath id="clippath-89">
      <rect class="st0" x="16.1" y="191" width="475.8" height="475.8"/>
    </clipPath>
    <clipPath id="clippath-90">
      <rect class="st0" x="16.1" y="191" width="475.8" height="475.8"/>
    </clipPath>
    <clipPath id="clippath-91">
      <rect class="st0" x="16.1" y="191" width="475.8" height="475.8"/>
    </clipPath>
    <clipPath id="clippath-92">
      <rect class="st0" x="16.1" y="191" width="475.8" height="475.8"/>
    </clipPath>
    <clipPath id="clippath-93">
      <rect class="st0" x="16.1" y="191" width="475.8" height="475.8"/>
    </clipPath>
    <clipPath id="clippath-94">
      <rect class="st0" x="16.1" y="191" width="475.8" height="475.8"/>
    </clipPath>
    <clipPath id="clippath-95">
      <rect class="st0" x="16.1" y="191" width="475.8" height="475.8"/>
    </clipPath>
    <clipPath id="clippath-96">
      <rect class="st0" x="16.1" y="191" width="475.8" height="475.8"/>
    </clipPath>
    <clipPath id="clippath-97">
      <rect class="st0" x="16.1" y="191" width="475.8" height="475.8"/>
    </clipPath>
    <clipPath id="clippath-98">
      <rect class="st0" x="16.1" y="191" width="475.8" height="475.8"/>
    </clipPath>
    <clipPath id="clippath-99">
      <rect class="st0" x="16.1" y="191" width="475.8" height="475.8"/>
    </clipPath>
    <clipPath id="clippath-100">
      <rect class="st0" x="16.1" y="191" width="475.8" height="475.8"/>
    </clipPath>
    <clipPath id="clippath-101">
      <rect class="st0" x="16.1" y="191" width="475.8" height="475.8"/>
    </clipPath>
    <clipPath id="clippath-102">
      <rect class="st0" x="16.1" y="191" width="475.8" height="475.8"/>
    </clipPath>
    <clipPath id="clippath-103">
      <rect class="st0" x="16.1" y="191" width="475.8" height="475.8"/>
    </clipPath>
    <clipPath id="clippath-104">
      <rect class="st0" x="16.1" y="191" width="475.8" height="475.8"/>
    </clipPath>
    <clipPath id="clippath-105">
      <rect class="st0" x="16.1" y="191" width="475.8" height="475.8"/>
    </clipPath>
    <clipPath id="clippath-106">
      <rect class="st0" x="16.1" y="191" width="475.8" height="475.8"/>
    </clipPath>
    <clipPath id="clippath-107">
      <rect class="st0" x="16.1" y="191" width="475.8" height="475.8"/>
    </clipPath>
    <clipPath id="clippath-108">
      <rect class="st0" x="16.1" y="191" width="475.8" height="475.8"/>
    </clipPath>
    <clipPath id="clippath-109">
      <rect class="st0" x="16.1" y="191" width="475.8" height="475.8"/>
    </clipPath>
    <clipPath id="clippath-110">
      <rect class="st0" x="16.1" y="191" width="475.8" height="475.8"/>
    </clipPath>
    <clipPath id="clippath-111">
      <rect class="st0" x="16.1" y="191" width="475.8" height="475.8"/>
    </clipPath>
    <clipPath id="clippath-112">
      <rect class="st0" x="16.1" y="191" width="475.8" height="475.8"/>
    </clipPath>
    <clipPath id="clippath-113">
      <rect class="st0" x="16.1" y="191" width="475.8" height="475.8"/>
    </clipPath>
    <clipPath id="clippath-114">
      <rect class="st0" x="16.1" y="191" width="475.8" height="475.8"/>
    </clipPath>
    <clipPath id="clippath-115">
      <rect class="st0" x="16.1" y="191" width="475.8" height="475.8"/>
    </clipPath>
    <clipPath id="clippath-116">
      <rect class="st0" x="16.1" y="191" width="475.8" height="475.8"/>
    </clipPath>
    <clipPath id="clippath-117">
      <rect class="st0" x="16.1" y="191" width="475.8" height="475.8"/>
    </clipPath>
    <clipPath id="clippath-118">
      <rect class="st0" x="16.1" y="191" width="475.8" height="475.8"/>
    </clipPath>
    <clipPath id="clippath-119">
      <rect class="st0" x="16.1" y="191" width="475.8" height="475.8"/>
    </clipPath>
    <clipPath id="clippath-120">
      <rect class="st0" x="16.1" y="191" width="475.8" height="475.8"/>
    </clipPath>
    <clipPath id="clippath-121">
      <rect class="st0" x="16.1" y="191" width="475.8" height="475.8"/>
    </clipPath>
    <clipPath id="clippath-122">
      <rect class="st0" x="16.1" y="191" width="475.8" height="475.8"/>
    </clipPath>
    <clipPath id="clippath-123">
      <rect class="st0" x="16.1" y="191" width="475.8" height="475.8"/>
    </clipPath>
    <clipPath id="clippath-124">
      <rect class="st0" x="16.1" y="191" width="475.8" height="475.8"/>
    </clipPath>
    <clipPath id="clippath-125">
      <rect class="st0" x="16.1" y="191" width="475.8" height="475.8"/>
    </clipPath>
    <clipPath id="clippath-126">
      <rect class="st0" x="16.1" y="191" width="475.8" height="475.8"/>
    </clipPath>
    <clipPath id="clippath-127">
      <rect class="st0" x="16.1" y="191" width="475.8" height="475.8"/>
    </clipPath>
    <clipPath id="clippath-128">
      <rect class="st0" x="16.1" y="191" width="475.8" height="475.8"/>
    </clipPath>
    <clipPath id="clippath-129">
      <rect class="st0" x="16.1" y="191" width="475.8" height="475.8"/>
    </clipPath>
    <clipPath id="clippath-130">
      <rect class="st0" x="16.1" y="191" width="475.8" height="475.8"/>
    </clipPath>
    <clipPath id="clippath-131">
      <rect class="st0" x="16.1" y="191" width="475.8" height="475.8"/>
    </clipPath>
    <clipPath id="clippath-132">
      <rect class="st0" x="16.1" y="191" width="475.8" height="475.8"/>
    </clipPath>
    <clipPath id="clippath-133">
      <rect class="st0" x="16.1" y="191" width="475.8" height="475.8"/>
    </clipPath>
    <clipPath id="clippath-134">
      <rect class="st0" x="16.1" y="191" width="475.8" height="475.8"/>
    </clipPath>
    <clipPath id="clippath-135">
      <rect class="st0" x="16.1" y="191" width="475.8" height="475.8"/>
    </clipPath>
    <clipPath id="clippath-136">
      <rect class="st0" x="16.1" y="191" width="475.8" height="475.8"/>
    </clipPath>
    <clipPath id="clippath-137">
      <rect class="st0" x="16.1" y="191" width="475.8" height="475.8"/>
    </clipPath>
    <clipPath id="clippath-138">
      <rect class="st0" x="16.1" y="191" width="475.8" height="475.8"/>
    </clipPath>
    <clipPath id="clippath-139">
      <rect class="st0" x="16.1" y="191" width="475.8" height="475.8"/>
    </clipPath>
    <clipPath id="clippath-140">
      <rect class="st0" x="16.1" y="191" width="475.8" height="475.8"/>
    </clipPath>
    <clipPath id="clippath-141">
      <rect class="st0" x="16.1" y="191" width="475.8" height="475.8"/>
    </clipPath>
    <clipPath id="clippath-142">
      <rect class="st0" x="16.1" y="191" width="475.8" height="475.8"/>
    </clipPath>
    <clipPath id="clippath-143">
      <rect class="st0" x="16.1" y="191" width="475.8" height="475.8"/>
    </clipPath>
    <clipPath id="clippath-144">
      <rect class="st0" x="16.1" y="191" width="475.8" height="475.8"/>
    </clipPath>
    <clipPath id="clippath-145">
      <rect class="st0" x="16.1" y="191" width="475.8" height="475.8"/>
    </clipPath>
    <clipPath id="clippath-146">
      <rect class="st0" x="16.1" y="191" width="475.8" height="475.8"/>
    </clipPath>
    <clipPath id="clippath-147">
      <rect class="st0" x="16.1" y="191" width="475.8" height="475.8"/>
    </clipPath>
    <clipPath id="clippath-148">
      <rect class="st0" x="16.1" y="191" width="475.8" height="475.8"/>
    </clipPath>
    <clipPath id="clippath-149">
      <rect class="st0" x="16.1" y="191" width="475.8" height="475.8"/>
    </clipPath>
    <clipPath id="clippath-150">
      <rect class="st0" x="16.1" y="191" width="475.8" height="475.8"/>
    </clipPath>
    <clipPath id="clippath-151">
      <rect class="st0" x="16.1" y="191" width="475.8" height="475.8"/>
    </clipPath>
    <clipPath id="clippath-152">
      <rect class="st0" x="16.1" y="191" width="475.8" height="475.8"/>
    </clipPath>
    <clipPath id="clippath-153">
      <rect class="st0" x="16.1" y="191" width="475.8" height="475.8"/>
    </clipPath>
    <clipPath id="clippath-154">
      <rect class="st0" x="16.1" y="191" width="475.8" height="475.8"/>
    </clipPath>
    <clipPath id="clippath-155">
      <rect class="st0" x="16.1" y="191" width="475.8" height="475.8"/>
    </clipPath>
    <clipPath id="clippath-156">
      <rect class="st0" x="16.1" y="191" width="475.8" height="475.8"/>
    </clipPath>
    <clipPath id="clippath-157">
      <rect class="st0" x="16.1" y="191" width="475.8" height="475.8"/>
    </clipPath>
    <clipPath id="clippath-158">
      <rect class="st0" x="16.1" y="191" width="475.8" height="475.8"/>
    </clipPath>
    <clipPath id="clippath-159">
      <rect class="st0" x="16.1" y="191" width="475.8" height="475.8"/>
    </clipPath>
    <clipPath id="clippath-160">
      <rect class="st0" x="16.1" y="191" width="475.8" height="475.8"/>
    </clipPath>
    <clipPath id="clippath-161">
      <rect class="st0" x="16.1" y="191" width="475.8" height="475.8"/>
    </clipPath>
    <clipPath id="clippath-162">
      <rect class="st0" x="16.1" y="191" width="475.8" height="475.8"/>
    </clipPath>
    <clipPath id="clippath-163">
      <rect class="st0" x="16.1" y="191" width="475.8" height="475.8"/>
    </clipPath>
    <clipPath id="clippath-164">
      <rect class="st0" x="16.1" y="191" width="475.8" height="475.8"/>
    </clipPath>
    <clipPath id="clippath-165">
      <rect class="st0" x="16.1" y="191" width="475.8" height="475.8"/>
    </clipPath>
    <clipPath id="clippath-166">
      <rect class="st0" x="16.1" y="191" width="475.8" height="475.8"/>
    </clipPath>
    <clipPath id="clippath-167">
      <rect class="st0" x="16.1" y="191" width="475.8" height="475.8"/>
    </clipPath>
    <clipPath id="clippath-168">
      <rect class="st0" x="16.1" y="191" width="475.8" height="475.8"/>
    </clipPath>
    <clipPath id="clippath-169">
      <rect class="st0" x="16.1" y="191" width="475.8" height="475.8"/>
    </clipPath>
    <clipPath id="clippath-170">
      <rect class="st0" x="16.1" y="191" width="475.8" height="475.8"/>
    </clipPath>
    <clipPath id="clippath-171">
      <rect class="st0" x="16.1" y="191" width="475.8" height="475.8"/>
    </clipPath>
    <clipPath id="clippath-172">
      <rect class="st0" x="16.1" y="191" width="475.8" height="475.8"/>
    </clipPath>
    <clipPath id="clippath-173">
      <rect class="st0" x="16.1" y="191" width="475.8" height="475.8"/>
    </clipPath>
    <clipPath id="clippath-174">
      <rect class="st0" x="16.1" y="191" width="475.8" height="475.8"/>
    </clipPath>
    <clipPath id="clippath-175">
      <rect class="st0" x="16.1" y="191" width="475.8" height="475.8"/>
    </clipPath>
    <clipPath id="clippath-176">
      <rect class="st0" x="16.1" y="191" width="475.8" height="475.8"/>
    </clipPath>
    <clipPath id="clippath-177">
      <rect class="st0" x="16.1" y="191" width="475.8" height="475.8"/>
    </clipPath>
    <clipPath id="clippath-178">
      <rect class="st0" x="16.1" y="191" width="475.8" height="475.8"/>
    </clipPath>
    <clipPath id="clippath-179">
      <rect class="st0" x="16.1" y="191" width="475.8" height="475.8"/>
    </clipPath>
    <clipPath id="clippath-180">
      <rect class="st0" x="16.1" y="191" width="475.8" height="475.8"/>
    </clipPath>
    <clipPath id="clippath-181">
      <rect class="st0" x="16.1" y="191" width="475.8" height="475.8"/>
    </clipPath>
    <clipPath id="clippath-182">
      <rect class="st0" x="16.1" y="191" width="475.8" height="475.8"/>
    </clipPath>
    <clipPath id="clippath-183">
      <rect class="st0" x="16.1" y="191" width="475.8" height="475.8"/>
    </clipPath>
    <clipPath id="clippath-184">
      <rect class="st0" x="16.1" y="191" width="475.8" height="475.8"/>
    </clipPath>
    <clipPath id="clippath-185">
      <rect class="st0" x="16.1" y="191" width="475.8" height="475.8"/>
    </clipPath>
    <clipPath id="clippath-186">
      <rect class="st0" x="16.1" y="191" width="475.8" height="475.8"/>
    </clipPath>
    <clipPath id="clippath-187">
      <rect class="st0" x="16.1" y="191" width="475.8" height="475.8"/>
    </clipPath>
    <clipPath id="clippath-188">
      <rect class="st0" x="16.1" y="191" width="475.8" height="475.8"/>
    </clipPath>
    <clipPath id="clippath-189">
      <rect class="st0" x="16.1" y="191" width="475.8" height="475.8"/>
    </clipPath>
    <clipPath id="clippath-190">
      <rect class="st0" x="16.1" y="191" width="475.8" height="475.8"/>
    </clipPath>
    <clipPath id="clippath-191">
      <rect class="st0" x="16.1" y="191" width="475.8" height="475.8"/>
    </clipPath>
    <clipPath id="clippath-192">
      <rect class="st0" x="16.1" y="191" width="475.8" height="475.8"/>
    </clipPath>
    <clipPath id="clippath-193">
      <rect class="st0" x="16.1" y="191" width="475.8" height="475.8"/>
    </clipPath>
    <clipPath id="clippath-194">
      <rect class="st0" x="16.1" y="191" width="475.8" height="475.8"/>
    </clipPath>
    <clipPath id="clippath-195">
      <rect class="st0" x="16.1" y="191" width="475.8" height="475.8"/>
    </clipPath>
    <clipPath id="clippath-196">
      <rect class="st0" x="16.1" y="191" width="475.8" height="475.8"/>
    </clipPath>
    <clipPath id="clippath-197">
      <rect class="st0" x="16.1" y="191" width="475.8" height="475.8"/>
    </clipPath>
    <clipPath id="clippath-198">
      <rect class="st0" x="16.1" y="191" width="475.8" height="475.8"/>
    </clipPath>
    <clipPath id="clippath-199">
      <rect class="st0" x="16.1" y="191" width="475.8" height="475.8"/>
    </clipPath>
    <clipPath id="clippath-200">
      <rect class="st0" x="16.1" y="191" width="475.8" height="475.8"/>
    </clipPath>
    <clipPath id="clippath-201">
      <rect class="st0" x="16.1" y="191" width="475.8" height="475.8"/>
    </clipPath>
    <clipPath id="clippath-202">
      <rect class="st0" x="16.1" y="191" width="475.8" height="475.8"/>
    </clipPath>
    <clipPath id="clippath-203">
      <rect class="st0" x="16.1" y="191" width="475.8" height="475.8"/>
    </clipPath>
    <clipPath id="clippath-204">
      <rect class="st0" x="16.1" y="191" width="475.8" height="475.8"/>
    </clipPath>
    <clipPath id="clippath-205">
      <rect class="st0" x="16.1" y="191" width="475.8" height="475.8"/>
    </clipPath>
    <clipPath id="clippath-206">
      <rect class="st0" x="16.1" y="191" width="475.8" height="475.8"/>
    </clipPath>
    <clipPath id="clippath-207">
      <rect class="st0" x="16.1" y="191" width="475.8" height="475.8"/>
    </clipPath>
    <clipPath id="clippath-208">
      <rect class="st0" x="16.1" y="191" width="475.8" height="475.8"/>
    </clipPath>
    <clipPath id="clippath-209">
      <rect class="st0" x="16.1" y="191" width="475.8" height="475.8"/>
    </clipPath>
    <clipPath id="clippath-210">
      <rect class="st0" x="16.1" y="191" width="475.8" height="475.8"/>
    </clipPath>
    <clipPath id="clippath-211">
      <rect class="st0" x="16.1" y="191" width="475.8" height="475.8"/>
    </clipPath>
    <clipPath id="clippath-212">
      <rect class="st0" x="16.1" y="191" width="475.8" height="475.8"/>
    </clipPath>
    <clipPath id="clippath-213">
      <rect class="st0" x="16.1" y="191" width="475.8" height="475.8"/>
    </clipPath>
    <clipPath id="clippath-214">
      <rect class="st0" x="16.1" y="191" width="475.8" height="475.8"/>
    </clipPath>
    <clipPath id="clippath-215">
      <rect class="st0" x="16.1" y="191" width="475.8" height="475.8"/>
    </clipPath>
    <clipPath id="clippath-216">
      <rect class="st0" x="16.1" y="191" width="475.8" height="475.8"/>
    </clipPath>
    <clipPath id="clippath-217">
      <rect class="st0" x="16.1" y="191" width="475.8" height="475.8"/>
    </clipPath>
    <clipPath id="clippath-218">
      <rect class="st0" x="16.1" y="191" width="475.8" height="475.8"/>
    </clipPath>
    <clipPath id="clippath-219">
      <rect class="st0" x="16.1" y="191" width="475.8" height="475.8"/>
    </clipPath>
    <clipPath id="clippath-220">
      <rect class="st0" x="16.1" y="191" width="475.8" height="475.8"/>
    </clipPath>
    <clipPath id="clippath-221">
      <rect class="st0" x="16.1" y="191" width="475.8" height="475.8"/>
    </clipPath>
    <clipPath id="clippath-222">
      <rect class="st0" x="16.1" y="191" width="475.8" height="475.8"/>
    </clipPath>
    <clipPath id="clippath-223">
      <rect class="st0" x="16.1" y="191" width="475.8" height="475.8"/>
    </clipPath>
    <clipPath id="clippath-224">
      <rect class="st0" x="16.1" y="191" width="475.8" height="475.8"/>
    </clipPath>
  </defs>
  <g class="st230">
    <path class="st3" d="M16.1,222.8h31.7v-31.7h-31.7v31.7Z"/>
  </g>
  <g class="st95">
    <path class="st3" d="M47.9,222.8h31.7v-31.7h-31.7v31.7Z"/>
  </g>
  <g class="st98">
    <path class="st3" d="M79.6,222.8h31.7v-31.7h-31.7v31.7Z"/>
  </g>
  <g class="st96">
    <path class="st3" d="M111.3,222.8h31.7v-31.7h-31.7v31.7Z"/>
  </g>
  <g class="st97">
    <path class="st3" d="M143,222.8h31.7v-31.7h-31.7v31.7Z"/>
  </g>
  <g class="st103">
    <path class="st3" d="M174.7,222.8h31.7v-31.7h-31.7v31.7Z"/>
  </g>
  <g class="st100">
    <path class="st3" d="M206.5,222.8h31.7v-31.7h-31.7v31.7Z"/>
  </g>
  <g class="st99">
    <path class="st3" d="M238.2,222.8h31.7v-31.7h-31.7v31.7Z"/>
  </g>
  <g class="st102">
    <path class="st3" d="M269.9,222.8h31.7v-31.7h-31.7v31.7Z"/>
  </g>
  <g class="st101">
    <path class="st3" d="M301.6,222.8h31.7v-31.7h-31.7v31.7Z"/>
  </g>
  <g class="st10">
    <path class="st3" d="M333.4,222.8h31.7v-31.7h-31.7v31.7Z"/>
  </g>
  <g class="st7">
    <path class="st3" d="M365.1,222.8h31.7v-31.7h-31.7v31.7Z"/>
  </g>
  <g class="st14">
    <path class="st3" d="M396.8,222.8h31.7v-31.7h-31.7v31.7Z"/>
  </g>
  <g class="st12">
    <path class="st3" d="M428.5,222.8h31.7v-31.7h-31.7v31.7Z"/>
  </g>
  <g class="st13">
    <path class="st3" d="M460.3,222.8h31.7v-31.7h-31.7v31.7Z"/>
  </g>
  <g class="st11">
    <path class="st3" d="M16.1,254.5h31.7v-31.7h-31.7v31.7Z"/>
  </g>
  <g class="st8">
    <path class="st3" d="M47.9,254.5h31.7v-31.7h-31.7v31.7Z"/>
  </g>
  <g class="st5">
    <path class="st3" d="M79.6,254.5h31.7v-31.7h-31.7v31.7Z"/>
  </g>
  <g class="st9">
    <path class="st3" d="M111.3,254.5h31.7v-31.7h-31.7v31.7Z"/>
  </g>
  <g class="st6">
    <path class="st3" d="M143,254.5h31.7v-31.7h-31.7v31.7Z"/>
  </g>
  <g class="st58">
    <path class="st3" d="M174.7,254.5h31.7v-31.7h-31.7v31.7Z"/>
  </g>
  <g class="st59">
    <path class="st3" d="M206.5,254.5h31.7v-31.7h-31.7v31.7Z"/>
  </g>
  <g class="st60">
    <path class="st3" d="M238.2,254.5h31.7v-31.7h-31.7v31.7Z"/>
  </g>
  <g class="st61">
    <path class="st3" d="M269.9,254.5h31.7v-31.7h-31.7v31.7Z"/>
  </g>
  <g class="st62">
    <path class="st3" d="M301.6,254.5h31.7v-31.7h-31.7v31.7Z"/>
  </g>
  <g class="st63">
    <path class="st3" d="M333.4,254.5h31.7v-31.7h-31.7v31.7Z"/>
  </g>
  <g class="st56">
    <path class="st3" d="M365.1,254.5h31.7v-31.7h-31.7v31.7Z"/>
  </g>
  <g class="st54">
    <path class="st3" d="M396.8,254.5h31.7v-31.7h-31.7v31.7Z"/>
  </g>
  <g class="st57">
    <path class="st3" d="M428.5,254.5h31.7v-31.7h-31.7v31.7Z"/>
  </g>
  <g class="st55">
    <path class="st3" d="M460.3,254.5h31.7v-31.7h-31.7v31.7Z"/>
  </g>
  <g class="st50">
    <path class="st3" d="M16.1,286.2h31.7v-31.7h-31.7v31.7Z"/>
  </g>
  <g class="st44">
    <path class="st3" d="M47.9,286.2h31.7v-31.7h-31.7v31.7Z"/>
  </g>
  <g class="st45">
    <path class="st3" d="M79.6,286.2h31.7v-31.7h-31.7v31.7Z"/>
  </g>
  <g class="st46">
    <path class="st3" d="M111.3,286.2h31.7v-31.7h-31.7v31.7Z"/>
  </g>
  <g class="st47">
    <path class="st3" d="M143,286.2h31.7v-31.7h-31.7v31.7Z"/>
  </g>
  <g class="st48">
    <path class="st3" d="M174.7,286.2h31.7v-31.7h-31.7v31.7Z"/>
  </g>
  <g class="st51">
    <path class="st3" d="M206.5,286.2h31.7v-31.7h-31.7v31.7Z"/>
  </g>
  <g class="st52">
    <path class="st3" d="M238.2,286.2h31.7v-31.7h-31.7v31.7Z"/>
  </g>
  <g class="st53">
    <path class="st3" d="M269.9,286.2h31.7v-31.7h-31.7v31.7Z"/>
  </g>
  <g class="st49">
    <path class="st3" d="M301.6,286.2h31.7v-31.7h-31.7v31.7Z"/>
  </g>
  <g class="st71">
    <path class="st3" d="M333.4,286.2h31.7v-31.7h-31.7v31.7Z"/>
  </g>
  <g class="st65">
    <path class="st3" d="M365.1,286.2h31.7v-31.7h-31.7v31.7Z"/>
  </g>
  <g class="st66">
    <path class="st3" d="M396.8,286.2h31.7v-31.7h-31.7v31.7Z"/>
  </g>
  <g class="st67">
    <path class="st3" d="M428.5,286.2h31.7v-31.7h-31.7v31.7Z"/>
  </g>
  <g class="st68">
    <path class="st3" d="M460.3,286.2h31.7v-31.7h-31.7v31.7Z"/>
  </g>
  <g class="st69">
    <path class="st3" d="M16.1,317.9h31.7v-31.7h-31.7v31.7Z"/>
  </g>
  <g class="st72">
    <path class="st3" d="M47.9,317.9h31.7v-31.7h-31.7v31.7Z"/>
  </g>
  <g class="st73">
    <path class="st3" d="M79.6,317.9h31.7v-31.7h-31.7v31.7Z"/>
  </g>
  <g class="st74">
    <path class="st3" d="M111.3,317.9h31.7v-31.7h-31.7v31.7Z"/>
  </g>
  <g class="st70">
    <path class="st3" d="M143,317.9h31.7v-31.7h-31.7v31.7Z"/>
  </g>
  <g class="st28">
    <path class="st3" d="M174.7,317.9h31.7v-31.7h-31.7v31.7Z"/>
  </g>
  <g class="st41">
    <path class="st3" d="M206.5,317.9h31.7v-31.7h-31.7v31.7Z"/>
  </g>
  <g class="st30">
    <path class="st3" d="M238.2,317.9h31.7v-31.7h-31.7v31.7Z"/>
  </g>
  <g class="st34">
    <path class="st3" d="M269.9,317.9h31.7v-31.7h-31.7v31.7Z"/>
  </g>
  <g class="st32">
    <path class="st3" d="M301.6,317.9h31.7v-31.7h-31.7v31.7Z"/>
  </g>
  <g class="st29">
    <path class="st3" d="M333.4,317.9h31.7v-31.7h-31.7v31.7Z"/>
  </g>
  <g class="st33">
    <path class="st3" d="M365.1,317.9h31.7v-31.7h-31.7v31.7Z"/>
  </g>
  <g class="st31">
    <path class="st3" d="M396.8,317.9h31.7v-31.7h-31.7v31.7Z"/>
  </g>
  <g class="st42">
    <path class="st3" d="M428.5,317.9h31.7v-31.7h-31.7v31.7Z"/>
  </g>
  <g class="st43">
    <path class="st3" d="M460.3,317.9h31.7v-31.7h-31.7v31.7Z"/>
  </g>
  <g class="st18">
    <path class="st3" d="M16.1,349.7h31.7v-31.7h-31.7v31.7Z"/>
  </g>
  <g class="st15">
    <path class="st3" d="M47.9,349.7h31.7v-31.7h-31.7v31.7Z"/>
  </g>
  <g class="st20">
    <path class="st3" d="M79.6,349.7h31.7v-31.7h-31.7v31.7Z"/>
  </g>
  <g class="st23">
    <path class="st3" d="M111.3,349.7h31.7v-31.7h-31.7v31.7Z"/>
  </g>
  <g class="st21">
    <path class="st3" d="M143,349.7h31.7v-31.7h-31.7v31.7Z"/>
  </g>
  <g class="st19">
    <path class="st3" d="M174.7,349.7h31.7v-31.7h-31.7v31.7Z"/>
  </g>
  <g class="st22">
    <path class="st3" d="M206.5,349.7h31.7v-31.7h-31.7v31.7Z"/>
  </g>
  <g class="st16">
    <path class="st3" d="M238.2,349.7h31.7v-31.7h-31.7v31.7Z"/>
  </g>
  <g class="st17">
    <path class="st3" d="M269.9,349.7h31.7v-31.7h-31.7v31.7Z"/>
  </g>
  <g class="st64">
    <path class="st3" d="M301.6,349.7h31.7v-31.7h-31.7v31.7Z"/>
  </g>
  <g class="st35">
    <path class="st3" d="M333.4,349.7h31.7v-31.7h-31.7v31.7Z"/>
  </g>
  <g class="st38">
    <path class="st3" d="M365.1,349.7h31.7v-31.7h-31.7v31.7Z"/>
  </g>
  <g class="st40">
    <path class="st3" d="M396.8,349.7h31.7v-31.7h-31.7v31.7Z"/>
  </g>
  <g class="st39">
    <path class="st3" d="M428.5,349.7h31.7v-31.7h-31.7v31.7Z"/>
  </g>
  <g class="st37">
    <path class="st3" d="M460.3,349.7h31.7v-31.7h-31.7v31.7Z"/>
  </g>
  <g class="st26">
    <path class="st3" d="M16.1,381.4h31.7v-31.7h-31.7v31.7Z"/>
  </g>
  <g class="st24">
    <path class="st3" d="M47.9,381.4h31.7v-31.7h-31.7v31.7Z"/>
  </g>
  <g class="st36">
    <path class="st3" d="M79.6,381.4h31.7v-31.7h-31.7v31.7Z"/>
  </g>
  <g class="st25">
    <path class="st3" d="M111.3,381.4h31.7v-31.7h-31.7v31.7Z"/>
  </g>
  <g class="st27">
    <path class="st3" d="M143,381.4h31.7v-31.7h-31.7v31.7Z"/>
  </g>
  <g class="st84">
    <path class="st3" d="M174.7,381.4h31.7v-31.7h-31.7v31.7Z"/>
  </g>
  <g class="st86">
    <path class="st3" d="M206.5,381.4h31.7v-31.7h-31.7v31.7Z"/>
  </g>
  <g class="st87">
    <path class="st3" d="M238.2,381.4h31.7v-31.7h-31.7v31.7Z"/>
  </g>
  <g class="st88">
    <path class="st3" d="M269.9,381.4h31.7v-31.7h-31.7v31.7Z"/>
  </g>
  <g class="st89">
    <path class="st3" d="M301.6,381.4h31.7v-31.7h-31.7v31.7Z"/>
  </g>
  <g class="st81">
    <path class="st3" d="M333.4,381.4h31.7v-31.7h-31.7v31.7Z"/>
  </g>
  <g class="st82">
    <path class="st3" d="M365.1,381.4h31.7v-31.7h-31.7v31.7Z"/>
  </g>
  <g class="st83">
    <path class="st3" d="M396.8,381.4h31.7v-31.7h-31.7v31.7Z"/>
  </g>
  <g class="st90">
    <path class="st3" d="M428.5,381.4h31.7v-31.7h-31.7v31.7Z"/>
  </g>
  <g class="st85">
    <path class="st3" d="M460.3,381.4h31.7v-31.7h-31.7v31.7Z"/>
  </g>
  <g class="st75">
    <path class="st3" d="M16.1,413.1h31.7v-31.7h-31.7v31.7Z"/>
  </g>
  <g class="st93">
    <path class="st3" d="M47.9,413.1h31.7v-31.7h-31.7v31.7Z"/>
  </g>
  <g class="st91">
    <path class="st3" d="M79.6,413.1h31.7v-31.7h-31.7v31.7Z"/>
  </g>
  <g class="st77">
    <path class="st3" d="M111.3,413.1h31.7v-31.7h-31.7v31.7Z"/>
  </g>
  <g class="st79">
    <path class="st3" d="M143,413.1h31.7v-31.7h-31.7v31.7Z"/>
  </g>
  <g class="st76">
    <path class="st3" d="M174.7,413.1h31.7v-31.7h-31.7v31.7Z"/>
  </g>
  <g class="st80">
    <path class="st3" d="M206.5,413.1h31.7v-31.7h-31.7v31.7Z"/>
  </g>
  <g class="st92">
    <path class="st3" d="M238.2,413.1h31.7v-31.7h-31.7v31.7Z"/>
  </g>
  <g class="st94">
    <path class="st3" d="M269.9,413.1h31.7v-31.7h-31.7v31.7Z"/>
  </g>
  <g class="st78">
    <path class="st3" d="M301.6,413.1h31.7v-31.7h-31.7v31.7Z"/>
  </g>
  <g class="st175">
    <path class="st3" d="M333.4,413.1h31.7v-31.7h-31.7v31.7Z"/>
  </g>
  <g class="st169">
    <path class="st3" d="M365.1,413.1h31.7v-31.7h-31.7v31.7Z"/>
  </g>
  <g class="st168">
    <path class="st3" d="M396.8,413.1h31.7v-31.7h-31.7v31.7Z"/>
  </g>
  <g class="st173">
    <path class="st3" d="M428.5,413.1h31.7v-31.7h-31.7v31.7Z"/>
  </g>
  <g class="st170">
    <path class="st3" d="M460.3,413.1h31.7v-31.7h-31.7v31.7Z"/>
  </g>
  <g class="st174">
    <path class="st3" d="M16.1,444.8h31.7v-31.7h-31.7v31.7Z"/>
  </g>
  <g class="st172">
    <path class="st3" d="M47.9,444.8h31.7v-31.7h-31.7v31.7Z"/>
  </g>
  <g class="st177">
    <path class="st3" d="M79.6,444.8h31.7v-31.7h-31.7v31.7Z"/>
  </g>
  <g class="st176">
    <path class="st3" d="M111.3,444.8h31.7v-31.7h-31.7v31.7Z"/>
  </g>
  <g class="st171">
    <path class="st3" d="M143,444.8h31.7v-31.7h-31.7v31.7Z"/>
  </g>
  <g class="st182">
    <path class="st3" d="M174.7,444.8h31.7v-31.7h-31.7v31.7Z"/>
  </g>
  <g class="st181">
    <path class="st3" d="M206.5,444.8h31.7v-31.7h-31.7v31.7Z"/>
  </g>
  <g class="st184">
    <path class="st3" d="M238.2,444.8h31.7v-31.7h-31.7v31.7Z"/>
  </g>
  <g class="st183">
    <path class="st3" d="M269.9,444.8h31.7v-31.7h-31.7v31.7Z"/>
  </g>
  <g class="st179">
    <path class="st3" d="M301.6,444.8h31.7v-31.7h-31.7v31.7Z"/>
  </g>
  <g class="st186">
    <path class="st3" d="M333.4,444.8h31.7v-31.7h-31.7v31.7Z"/>
  </g>
  <g class="st187">
    <path class="st3" d="M365.1,444.8h31.7v-31.7h-31.7v31.7Z"/>
  </g>
  <g class="st185">
    <path class="st3" d="M396.8,444.8h31.7v-31.7h-31.7v31.7Z"/>
  </g>
  <g class="st178">
    <path class="st3" d="M428.5,444.8h31.7v-31.7h-31.7v31.7Z"/>
  </g>
  <g class="st180">
    <path class="st3" d="M460.3,444.8h31.7v-31.7h-31.7v31.7Z"/>
  </g>
  <g class="st210">
    <path class="st3" d="M16.1,476.6h31.7v-31.7h-31.7v31.7Z"/>
  </g>
  <g class="st213">
    <path class="st3" d="M47.9,476.6h31.7v-31.7h-31.7v31.7Z"/>
  </g>
  <g class="st212">
    <path class="st3" d="M79.6,476.6h31.7v-31.7h-31.7v31.7Z"/>
  </g>
  <g class="st214">
    <path class="st3" d="M111.3,476.6h31.7v-31.7h-31.7v31.7Z"/>
  </g>
  <g class="st215">
    <path class="st3" d="M143,476.6h31.7v-31.7h-31.7v31.7Z"/>
  </g>
  <g class="st211">
    <path class="st3" d="M174.7,476.6h31.7v-31.7h-31.7v31.7Z"/>
  </g>
  <g class="st217">
    <path class="st3" d="M206.5,476.6h31.7v-31.7h-31.7v31.7Z"/>
  </g>
  <g class="st219">
    <path class="st3" d="M238.2,476.6h31.7v-31.7h-31.7v31.7Z"/>
  </g>
  <g class="st218">
    <path class="st3" d="M269.9,476.6h31.7v-31.7h-31.7v31.7Z"/>
  </g>
  <g class="st216">
    <path class="st3" d="M301.6,476.6h31.7v-31.7h-31.7v31.7Z"/>
  </g>
  <g class="st220">
    <path class="st3" d="M333.4,476.6h31.7v-31.7h-31.7v31.7Z"/>
  </g>
  <g class="st222">
    <path class="st3" d="M365.1,476.6h31.7v-31.7h-31.7v31.7Z"/>
  </g>
  <g class="st221">
    <path class="st3" d="M396.8,476.6h31.7v-31.7h-31.7v31.7Z"/>
  </g>
  <g class="st224">
    <path class="st3" d="M428.5,476.6h31.7v-31.7h-31.7v31.7Z"/>
  </g>
  <g class="st223">
    <path class="st3" d="M460.3,476.6h31.7v-31.7h-31.7v31.7Z"/>
  </g>
  <g class="st229">
    <path class="st3" d="M16.1,508.3h31.7v-31.7h-31.7v31.7Z"/>
  </g>
  <g class="st225">
    <path class="st3" d="M47.9,508.3h31.7v-31.7h-31.7v31.7Z"/>
  </g>
  <g class="st227">
    <path class="st3" d="M79.6,508.3h31.7v-31.7h-31.7v31.7Z"/>
  </g>
  <g class="st228">
    <path class="st3" d="M111.3,508.3h31.7v-31.7h-31.7v31.7Z"/>
  </g>
  <g class="st226">
    <path class="st3" d="M143,508.3h31.7v-31.7h-31.7v31.7Z"/>
  </g>
  <g class="st200">
    <path class="st3" d="M174.7,508.3h31.7v-31.7h-31.7v31.7Z"/>
  </g>
  <g class="st196">
    <path class="st3" d="M206.5,508.3h31.7v-31.7h-31.7v31.7Z"/>
  </g>
  <g class="st198">
    <path class="st3" d="M238.2,508.3h31.7v-31.7h-31.7v31.7Z"/>
  </g>
  <g class="st194">
    <path class="st3" d="M269.9,508.3h31.7v-31.7h-31.7v31.7Z"/>
  </g>
  <g class="st195">
    <path class="st3" d="M301.6,508.3h31.7v-31.7h-31.7v31.7Z"/>
  </g>
  <g class="st201">
    <path class="st3" d="M333.4,508.3h31.7v-31.7h-31.7v31.7Z"/>
  </g>
  <g class="st202">
    <path class="st3" d="M365.1,508.3h31.7v-31.7h-31.7v31.7Z"/>
  </g>
  <g class="st203">
    <path class="st3" d="M396.8,508.3h31.7v-31.7h-31.7v31.7Z"/>
  </g>
  <g class="st197">
    <path class="st3" d="M428.5,508.3h31.7v-31.7h-31.7v31.7Z"/>
  </g>
  <g class="st199">
    <path class="st3" d="M460.3,508.3h31.7v-31.7h-31.7v31.7Z"/>
  </g>
  <g class="st193">
    <path class="st3" d="M16.1,540h31.7v-31.7h-31.7v31.7Z"/>
  </g>
  <g class="st190">
    <path class="st3" d="M47.9,540h31.7v-31.7h-31.7v31.7Z"/>
  </g>
  <g class="st205">
    <path class="st3" d="M79.6,540h31.7v-31.7h-31.7v31.7Z"/>
  </g>
  <g class="st204">
    <path class="st3" d="M111.3,540h31.7v-31.7h-31.7v31.7Z"/>
  </g>
  <g class="st207">
    <path class="st3" d="M143,540h31.7v-31.7h-31.7v31.7Z"/>
  </g>
  <g class="st209">
    <path class="st3" d="M174.7,540h31.7v-31.7h-31.7v31.7Z"/>
  </g>
  <g class="st191">
    <path class="st3" d="M206.5,540h31.7v-31.7h-31.7v31.7Z"/>
  </g>
  <g class="st206">
    <path class="st3" d="M238.2,540h31.7v-31.7h-31.7v31.7Z"/>
  </g>
  <g class="st208">
    <path class="st3" d="M269.9,540h31.7v-31.7h-31.7v31.7Z"/>
  </g>
  <g class="st192">
    <path class="st3" d="M301.6,540h31.7v-31.7h-31.7v31.7Z"/>
  </g>
  <g class="st132">
    <path class="st3" d="M333.4,540h31.7v-31.7h-31.7v31.7Z"/>
  </g>
  <g class="st133">
    <path class="st3" d="M365.1,540h31.7v-31.7h-31.7v31.7Z"/>
  </g>
  <g class="st136">
    <path class="st3" d="M396.8,540h31.7v-31.7h-31.7v31.7Z"/>
  </g>
  <g class="st130">
    <path class="st3" d="M428.5,540h31.7v-31.7h-31.7v31.7Z"/>
  </g>
  <g class="st138">
    <path class="st3" d="M460.3,540h31.7v-31.7h-31.7v31.7Z"/>
  </g>
  <g class="st131">
    <path class="st3" d="M16.1,571.7h31.7v-31.7h-31.7v31.7Z"/>
  </g>
  <g class="st139">
    <path class="st3" d="M47.9,571.7h31.7v-31.7h-31.7v31.7Z"/>
  </g>
  <g class="st135">
    <path class="st3" d="M79.6,571.7h31.7v-31.7h-31.7v31.7Z"/>
  </g>
  <g class="st134">
    <path class="st3" d="M111.3,571.7h31.7v-31.7h-31.7v31.7Z"/>
  </g>
  <g class="st137">
    <path class="st3" d="M143,571.7h31.7v-31.7h-31.7v31.7Z"/>
  </g>
  <g class="st188">
    <path class="st3" d="M174.7,571.7h31.7v-31.7h-31.7v31.7Z"/>
  </g>
  <g class="st143">
    <path class="st3" d="M206.5,571.7h31.7v-31.7h-31.7v31.7Z"/>
  </g>
  <g class="st142">
    <path class="st3" d="M238.2,571.7h31.7v-31.7h-31.7v31.7Z"/>
  </g>
  <g class="st145">
    <path class="st3" d="M269.9,571.7h31.7v-31.7h-31.7v31.7Z"/>
  </g>
  <g class="st141">
    <path class="st3" d="M301.6,571.7h31.7v-31.7h-31.7v31.7Z"/>
  </g>
  <g class="st147">
    <path class="st3" d="M333.4,571.7h31.7v-31.7h-31.7v31.7Z"/>
  </g>
  <g class="st146">
    <path class="st3" d="M365.1,571.7h31.7v-31.7h-31.7v31.7Z"/>
  </g>
  <g class="st189">
    <path class="st3" d="M396.8,571.7h31.7v-31.7h-31.7v31.7Z"/>
  </g>
  <g class="st140">
    <path class="st3" d="M428.5,571.7h31.7v-31.7h-31.7v31.7Z"/>
  </g>
  <g class="st144">
    <path class="st3" d="M460.3,571.7h31.7v-31.7h-31.7v31.7Z"/>
  </g>
  <g class="st160">
    <path class="st3" d="M16.1,603.4h31.7v-31.7h-31.7v31.7Z"/>
  </g>
  <g class="st153">
    <path class="st3" d="M47.9,603.4h31.7v-31.7h-31.7v31.7Z"/>
  </g>
  <g class="st151">
    <path class="st1" d="M79.6,603.4h31.7v-31.7h-31.7v31.7Z"/>
  </g>
  <g class="st159">
    <path class="st1" d="M111.3,603.4h31.7v-31.7h-31.7v31.7Z"/>
  </g>
  <g class="st155">
    <path class="st1" d="M143,603.4h31.7v-31.7h-31.7v31.7Z"/>
  </g>
  <g class="st152">
    <path class="st1" d="M174.7,603.4h31.7v-31.7h-31.7v31.7Z"/>
  </g>
  <g class="st156">
    <path class="st1" d="M206.5,603.4h31.7v-31.7h-31.7v31.7Z"/>
  </g>
  <g class="st157">
    <path class="st1" d="M238.2,603.4h31.7v-31.7h-31.7v31.7Z"/>
  </g>
  <g class="st154">
    <path class="st1" d="M269.9,603.4h31.7v-31.7h-31.7v31.7Z"/>
  </g>
  <g class="st158">
    <path class="st1" d="M301.6,603.4h31.7v-31.7h-31.7v31.7Z"/>
  </g>
  <g class="st148">
    <path class="st1" d="M333.4,603.4h31.7v-31.7h-31.7v31.7Z"/>
  </g>
  <g class="st150">
    <path class="st1" d="M365.1,603.4h31.7v-31.7h-31.7v31.7Z"/>
  </g>
  <g class="st161">
    <path class="st1" d="M396.8,603.4h31.7v-31.7h-31.7v31.7Z"/>
  </g>
  <g class="st162">
    <path class="st1" d="M428.5,603.4h31.7v-31.7h-31.7v31.7Z"/>
  </g>
  <g class="st165">
    <path class="st1" d="M460.3,603.4h31.7v-31.7h-31.7v31.7Z"/>
  </g>
  <g class="st164">
    <path class="st1" d="M16.1,635.2h31.7v-31.7h-31.7v31.7Z"/>
  </g>
  <g class="st167">
    <path class="st1" d="M47.9,635.2h31.7v-31.7h-31.7v31.7Z"/>
  </g>
  <g class="st166">
    <path class="st1" d="M79.6,635.2h31.7v-31.7h-31.7v31.7Z"/>
  </g>
  <g class="st149">
    <path class="st1" d="M111.3,635.2h31.7v-31.7h-31.7v31.7Z"/>
  </g>
  <g class="st163">
    <path class="st4" d="M143,635.2h31.7v-31.7h-31.7v31.7Z"/>
  </g>
  <g class="st117">
    <path class="st4" d="M174.7,635.2h31.7v-31.7h-31.7v31.7Z"/>
  </g>
  <g class="st116">
    <path class="st4" d="M206.5,635.2h31.7v-31.7h-31.7v31.7Z"/>
  </g>
  <g class="st118">
    <path class="st4" d="M238.2,635.2h31.7v-31.7h-31.7v31.7Z"/>
  </g>
  <g class="st119">
    <path class="st4" d="M269.9,635.2h31.7v-31.7h-31.7v31.7Z"/>
  </g>
  <g class="st120">
    <path class="st4" d="M301.6,635.2h31.7v-31.7h-31.7v31.7Z"/>
  </g>
  <g class="st121">
    <path class="st4" d="M333.4,635.2h31.7v-31.7h-31.7v31.7Z"/>
  </g>
  <g class="st123">
    <path class="st4" d="M365.1,635.2h31.7v-31.7h-31.7v31.7Z"/>
  </g>
  <g class="st115">
    <path class="st4" d="M396.8,635.2h31.7v-31.7h-31.7v31.7Z"/>
  </g>
  <g class="st124">
    <path class="st2" d="M428.5,635.2h31.7v-31.7h-31.7v31.7Z"/>
  </g>
  <g class="st122">
    <path class="st2" d="M460.3,635.2h31.7v-31.7h-31.7v31.7Z"/>
  </g>
  <g class="st110">
    <path class="st2" d="M16.1,666.9h31.7v-31.7h-31.7v31.7Z"/>
  </g>
  <g class="st108">
    <path class="st2" d="M47.9,666.9h31.7v-31.7h-31.7v31.7Z"/>
  </g>
  <g class="st105">
    <path class="st2" d="M79.6,666.9h31.7v-31.7h-31.7v31.7Z"/>
  </g>
  <g class="st109">
    <path class="st2" d="M111.3,666.9h31.7v-31.7h-31.7v31.7Z"/>
  </g>
  <g class="st107">
    <path class="st2" d="M143,666.9h31.7v-31.7h-31.7v31.7Z"/>
  </g>
  <g class="st111">
    <path class="st2" d="M174.7,666.9h31.7v-31.7h-31.7v31.7Z"/>
  </g>
  <g class="st113">
    <path class="st2" d="M206.5,666.9h31.7v-31.7h-31.7v31.7Z"/>
  </g>
  <g class="st106">
    <path class="st2" d="M238.2,666.9h31.7v-31.7h-31.7v31.7Z"/>
  </g>
  <g class="st114">
    <path class="st2" d="M269.9,666.9h31.7v-31.7h-31.7v31.7Z"/>
  </g>
  <g class="st112">
    <path class="st2" d="M301.6,666.9h31.7v-31.7h-31.7v31.7Z"/>
  </g>
  <g class="st125">
    <path class="st2" d="M333.4,666.9h31.7v-31.7h-31.7v31.7Z"/>
  </g>
  <g class="st126">
    <path class="st2" d="M365.1,666.9h31.7v-31.7h-31.7v31.7Z"/>
  </g>
  <g class="st127">
    <path class="st2" d="M396.8,666.9h31.7v-31.7h-31.7v31.7Z"/>
  </g>
  <g class="st129">
    <path class="st2" d="M428.5,666.9h31.7v-31.7h-31.7v31.7Z"/>
  </g>
  <g class="st128">
    <path class="st2" d="M460.3,666.9h31.7v-31.7h-31.7v31.7Z"/>
  </g>
  <path id="DejaVuSans-Bold-20" d="M380,215.6"/>
  <path id="DejaVuSans-Bold-201" data-name="DejaVuSans-Bold-20" d="M409.3,215.6"/>
  <path id="DejaVuSans-Bold-202" data-name="DejaVuSans-Bold-20" d="M425.2,215.6"/>
  <path id="DejaVuSans-Bold-2c" d="M449.8,213.1h2.4v2l-1.6,2.4h-1.4l.7-2.4v-2Z"/>
  <path id="DejaVuSans-Bold-203" data-name="DejaVuSans-Bold-20" d="M481.4,215.6"/>
  <g>
    <path d="M16.4,33.7l3.3-.4h.8l2.8.4v1.5h-6.8v-1.5ZM16.6,16.9h4v1.9s-.4,0-.4,0l-3.6-.4v-1.5ZM19.1,16.9h1.6l.2,9.7v8.7h-1.8v-18.4ZM19.3,16.9h4.8l5,13.6h-.9l4.8-13.6h1.8l-6.5,18.4h-2.2l-6.9-18.4ZM31.1,33.7l3.6-.4h1.3l4.1.4v1.5h-8.9v-1.5ZM33.2,27.2v-10.3h4.8c0,2.9,0,5.8,0,8.7v1c0,2.9,0,5.8,0,8.7h-4.9c0-2.9,0-5.8,0-8.1ZM35.5,16.9h4.4v1.5l-4,.4h-.4v-1.9Z"/>
    <path d="M41,28.4c0-4.3,3.1-7.1,7.1-7.1s7.1,2.8,7.1,7.1-2.8,7.2-7.1,7.2-7.1-2.9-7.1-7.2ZM50.5,28.5c0-4-.8-5.7-2.4-5.7s-2.4,1.8-2.4,5.7.8,5.7,2.4,5.7,2.4-1.7,2.4-5.7Z"/>
    <path d="M56.9,34.4v-3.4h2.3l.6,3.7-1.6-.5v-1.2c1.2.7,2.2,1.1,3.5,1.1s2.5-.5,2.5-1.7-.5-1.5-2.4-2l-1.5-.4c-2.2-.6-3.4-2.1-3.4-4.2s2.1-4.6,5.8-4.6,3,.4,4.4,1.1l-.2,3.1h-2.2l-.8-3.5,1.6.7v1c-1-.6-1.6-.9-2.9-.9s-2.1.6-2.1,1.6.4,1.3,2.3,1.9l1.4.4c2.7.8,3.7,2.3,3.7,4.3,0,3-2.4,4.7-6.3,4.7s-3.4-.4-4.9-1.3Z"/>
    <path d="M76.8,33.4c.5,0,1-.2,1.5-.6l.7.7c-.7,1.4-2,2.2-4.1,2.2s-4-1.1-4-3.9,0-1.7,0-2.8v-5.3h-1.8v-1.7l3.3-.4-1.6,1.1,1.8-4.9h2.9v5c0,0,0,8.6,0,8.6,0,1.3.6,1.9,1.4,1.9ZM78.3,21.7v1.9h-5.1v-1.9h5.1Z"/>
    <path d="M100.2,32.6v1.4l-1.9.4.9-4.4h2.1v4.3c-1.6.8-3.6,1.4-6,1.4-5.4,0-9.7-3.2-9.7-9.7s4.7-9.7,9.9-9.7,3.8.5,5.5,1.4v4.3c.1,0-2,0-2,0l-1-4.4,1.9.4v1.5c-1.3-1.2-2.5-1.7-3.7-1.7-3,0-5.6,2.4-5.6,8.2s2.5,8.1,5.5,8.1,2.8-.6,4.1-1.6Z"/>
    <path d="M103,28.4c0-4.3,3.1-7.1,7.1-7.1s7.1,2.8,7.1,7.1-2.8,7.2-7.1,7.2-7.1-2.9-7.1-7.2ZM112.5,28.5c0-4-.8-5.7-2.4-5.7s-2.4,1.8-2.4,5.7.8,5.7,2.4,5.7,2.4-1.7,2.4-5.7Z"/>
    <path d="M120.3,35.2c0-1.3,0-4.1,0-5.9v-1.6c0-1.5,0-2.1,0-3.2l-1.7-.3v-1.1l5.5-1.9.5.3.3,3.1v4.7c0,1.7,0,4.6,0,5.9h-4.6ZM126.2,33.9v1.3h-7.4v-1.3l2.6-.6h2.1l2.6.6ZM133.1,26.1v3.3c0,1.8,0,4.6,0,5.9h-4.5c0-1.3,0-4.1,0-5.9v-2.7c0-2-.4-2.7-1.6-2.7s-2.5,1-3.3,2.1h-1v-1.8h1.8l-.8.8c1.7-2.5,3.3-3.7,5.4-3.7s4,1.6,4,4.8ZM131.9,33.4l2.6.6v1.3h-7.2v-1.3l2.5-.6h2.2ZM141.4,26.2v3.1c0,1.8,0,4.6,0,5.9h-4.5c0-1.3,0-4.1,0-5.9v-2.7c0-2.1-.4-2.7-1.6-2.7s-2.3.8-3.4,2.1h-1v-1.9h2l-1.1.9c2-2.9,3.5-3.7,5.5-3.7,2.8,0,4.1,1.6,4.1,5ZM140.2,33.4l2.6.6v1.3h-7.2v-1.3l2.3-.6h2.2Z"/>
    <path d="M145.7,35.2c0-1.3,0-4.1,0-5.9v-1.6c0-1.5,0-2.1,0-3.2l-1.7-.3v-1.1l5.5-1.9.5.3.3,3.1v4.7c0,1.7,0,4.6,0,5.9h-4.6ZM151.6,33.9v1.3h-7.4v-1.3l2.6-.6h2.1l2.6.6ZM158.5,26.1v3.3c0,1.8,0,4.6,0,5.9h-4.5c0-1.3,0-4.1,0-5.9v-2.7c0-2-.4-2.7-1.6-2.7s-2.5,1-3.3,2.1h-1v-1.8h1.8l-.8.8c1.7-2.5,3.3-3.7,5.4-3.7s4,1.6,4,4.8ZM157.3,33.4l2.6.6v1.3h-7.2v-1.3l2.5-.6h2.2ZM166.8,26.2v3.1c0,1.8,0,4.6,0,5.9h-4.5c0-1.3,0-4.1,0-5.9v-2.7c0-2.1-.4-2.7-1.6-2.7s-2.3.8-3.4,2.1h-1v-1.9h2l-1.1.9c2-2.9,3.5-3.7,5.5-3.7,2.8,0,4.1,1.6,4.1,5ZM165.6,33.4l2.6.6v1.3h-7.2v-1.3l2.3-.6h2.2Z"/>
    <path d="M175.2,30.7c0,1.7.6,2.3,1.5,2.3s2.5-1.1,3.3-2.3h1.1v1.9h-1.8l.9-.8c-1.3,2.5-3.2,4-5.5,4s-4-1.3-4-5v-7.5c.1,0,1,.9,1,.9l-2.5-.6v-1.2l5.7-.8.4.3v4c-.1,0-.1,5-.1,5ZM179.4,35.6l-.2-3.3v-9.2c.1,0,1,.9,1,.9l-2.4-.6v-1.1l5.6-.9.4.3v4c0,0,0,9.3,0,9.3l-1.9-1.7,3.3.7v1.3l-5.7.3Z"/>
    <path d="M187.9,35.2c0-1.3,0-4.1,0-5.9v-1.6c0-1.5,0-2.1,0-3.2l-1.7-.3v-1.1l5.5-1.9.5.3.3,3.1v4.7c0,1.7,0,4.6,0,5.9h-4.6ZM193.8,33.9v1.3h-7.4v-1.3l2.6-.6h2.1l2.6.6ZM200.9,26.1v3.3c0,1.8,0,4.6,0,5.9h-4.6c0-1.3,0-4.1,0-5.9v-2.9c0-1.8-.5-2.4-1.6-2.4s-2.3.7-3.5,2.1h-1v-1.8h1.9l-1.1.8c2-2.8,3.6-3.7,5.6-3.7s4,1.6,4,4.8ZM199.6,33.4l2.7.6v1.3h-7.4v-1.3l2.5-.6h2.1Z"/>
    <path d="M205.2,35.2c0-1.3,0-4.1,0-5.9v-1.3c0-1.5,0-2.4,0-3.5l-1.7-.3v-1.1l5.9-1.9.5.3v4.1c0,0,0,3.7,0,3.7,0,1.7,0,4.6,0,5.9h-4.6ZM211.2,33.9v1.3h-7.4v-1.3l2.6-.6h2.1l2.7.6ZM205.1,17c0-1.3,1.1-2.2,2.4-2.2s2.4.9,2.4,2.2-1.1,2.2-2.4,2.2-2.4-.9-2.4-2.2Z"/>
    <path d="M219.8,33.4c.5,0,1-.2,1.5-.6l.7.7c-.7,1.4-2,2.2-4.1,2.2s-4-1.1-4-3.9,0-1.7,0-2.8v-5.3h-1.8v-1.7l3.3-.4-1.6,1.1,1.8-4.9h2.9v5c0,0,0,8.6,0,8.6,0,1.3.6,1.9,1.4,1.9ZM221.3,21.7v1.9h-5.1v-1.9h5.1Z"/>
    <path d="M224.4,23.4l-2.5-.4v-1.2h8v1.2l-2.5.5h-2.9ZM221.9,39.8c.2-1.2,1.2-1.8,2.3-1.8s1.7.2,2.4,1.3l.9,1.3-1.1.5-.9-.5c1.3-.8,2.5-2.3,3.1-4.2l1.5-4.2,3.7-10.4h1.8l-5.7,14.7c-1.4,3.6-2.6,5.5-5.2,5.5s-2.8-.9-2.9-2.1ZM229,37l-6.5-15.3h4.8l3.7,10.4-2.1,4.9ZM233.8,23.4l-2.3-.4v-1.2h5.3v1.2l-2.4.4h-.5Z"/>
    <path d="M243.6,33.7l3-.4h.8l3.6.4v1.5h-7.4v-1.5ZM245.1,17.8l1.6.8-3-.3v-1.5h6.3l10,13.8v4.7h-2.4l-12.6-17.5ZM246,16.9l1.8,1.5v16.9h-1.8v-18.4ZM255,16.9h7.4v1.5l-2.8.4h-.8l-3.8-.4v-1.5ZM258.2,16.9h1.8v18.5l-1.8-1.8v-16.6Z"/>
    <path d="M262.9,28.4c0-4.3,3.1-7.1,7.1-7.1s7.1,2.8,7.1,7.1-2.8,7.2-7.1,7.2-7.1-2.9-7.1-7.2ZM272.4,28.5c0-4-.8-5.7-2.4-5.7s-2.4,1.8-2.4,5.7.8,5.7,2.4,5.7,2.4-1.7,2.4-5.7Z"/>
    <path d="M285.9,33.4c.5,0,1-.2,1.5-.6l.7.7c-.7,1.4-2,2.2-4.1,2.2s-4-1.1-4-3.9,0-1.7,0-2.8v-5.3h-1.8v-1.7l3.3-.4-1.6,1.1,1.8-4.9h2.9v5c0,0,0,8.6,0,8.6,0,1.3.6,1.9,1.4,1.9ZM287.4,21.7v1.9h-5.1v-1.9h5.1Z"/>
    <path d="M301.6,27.2c0,.6,0,1-.2,1.5h-11v-1.5h5.2c1.3,0,1.7-.5,1.7-1.8,0-1.8-.9-2.7-1.9-2.7s-2.2,1.3-2.2,5.3,1.7,5,3.8,5,2.5-.6,3.4-1.5l1,.9c-1.1,2.2-3.2,3.3-5.9,3.3-4.1,0-7-2.7-7-7.2s3.6-7.2,7.2-7.2,5.8,2.5,5.8,5.9Z"/>
    <path d="M303.2,34.4v-3.4h2.3l.6,3.7-1.6-.5v-1.2c1.2.7,2.2,1.1,3.5,1.1s2.5-.5,2.5-1.7-.5-1.5-2.4-2l-1.5-.4c-2.2-.6-3.4-2.1-3.4-4.2s2.1-4.6,5.8-4.6,3,.4,4.4,1.1l-.2,3.1h-2.2l-.8-3.5,1.6.7v1c-1-.6-1.6-.9-2.9-.9s-2.1.6-2.1,1.6.4,1.3,2.3,1.9l1.4.4c2.7.8,3.7,2.3,3.7,4.3,0,3-2.4,4.7-6.3,4.7s-3.4-.4-4.9-1.3Z"/>
    <path d="M321.9,33.7l3-.4h.8l3.6.4v1.5h-7.4v-1.5ZM323.4,17.8l1.6.8-3-.3v-1.5h6.3l10,13.8v4.7h-2.4l-12.6-17.5ZM324.3,16.9l1.8,1.5v16.9h-1.8v-18.4ZM333.3,16.9h7.4v1.5l-2.8.4h-.8l-3.8-.4v-1.5ZM336.5,16.9h1.8v18.5l-1.8-1.8v-16.6Z"/>
    <path d="M354.2,27.2c0,.6,0,1-.2,1.5h-11v-1.5h5.2c1.3,0,1.7-.5,1.7-1.8,0-1.8-.9-2.7-1.9-2.7s-2.2,1.3-2.2,5.3,1.7,5,3.8,5,2.5-.6,3.4-1.5l1,.9c-1.1,2.2-3.2,3.3-5.9,3.3-4.1,0-7-2.7-7-7.2s3.6-7.2,7.2-7.2,5.8,2.5,5.8,5.9Z"/>
    <path d="M368.8,27.2c0,.6,0,1-.2,1.5h-11v-1.5h5.2c1.3,0,1.7-.5,1.7-1.8,0-1.8-.9-2.7-1.9-2.7s-2.2,1.3-2.2,5.3,1.7,5,3.8,5,2.5-.6,3.4-1.5l1,.9c-1.1,2.2-3.2,3.3-5.9,3.3-4.1,0-7-2.7-7-7.2s3.6-7.2,7.2-7.2,5.8,2.5,5.8,5.9Z"/>
    <path d="M378,33.2c1.3,0,2.3-1,3.2-2.4l.3.5c-1.4,3-3.1,4.3-5.6,4.3s-5.6-2.5-5.6-7.1,3-7.3,6.2-7.3,3.6,1.3,4.9,3.8l-.3.5c-1.1-1.3-1.9-2-3-2-1.7,0-3,1.6-3,4.9s1.2,4.7,2.9,4.7ZM385.6,33.9v1.3l-5.5.3-.4-2.5v-9.3l.2-.3v-5.8l-2-.3v-1.2l5.9-1.3.5.3v3.9c-.1,0-.1,16.1-.1,16.1l-1.9-2,3.3.7Z"/>
    <path d="M392.7,33.7l3.3-.4h.8l2.8.4v1.5h-6.8v-1.5ZM392.9,16.9h4v1.9s-.4,0-.4,0l-3.6-.4v-1.5ZM395.4,16.9h1.6l.2,9.7v8.7h-1.8v-18.4ZM395.6,16.9h4.8l5,13.6h-.9l4.8-13.6h1.8l-6.5,18.4h-2.2l-6.9-18.4ZM407.4,33.7l3.6-.4h1.3l4.1.4v1.5h-8.9v-1.5ZM409.5,27.2v-10.3h4.8c0,2.9,0,5.8,0,8.7v1c0,2.9,0,5.8,0,8.7h-4.9c0-2.9,0-5.8,0-8.1ZM411.9,16.9h4.4v1.5l-4,.4h-.4v-1.9Z"/>
    <path d="M417.3,28.4c0-4.3,3.1-7.1,7.1-7.1s7.1,2.8,7.1,7.1-2.8,7.2-7.1,7.2-7.1-2.9-7.1-7.2ZM426.8,28.5c0-4-.8-5.7-2.4-5.7s-2.4,1.8-2.4,5.7.8,5.7,2.4,5.7,2.4-1.7,2.4-5.7Z"/>
    <path d="M434.7,29.4v-1.6c0-1.5,0-2.1,0-3.2l-1.7-.3v-1.1l5.5-1.9.5.3.3,3.4v4.3c0,1.7,0,4.6,0,5.9h-4.6c0-1.3,0-4.1,0-5.9ZM433.1,33.9l2.7-.6h2.9l2.7.6v1.3h-8.3v-1.3ZM437.1,25.7h2.1l-.4.8c.5-3.4,2.4-5.1,4.1-5.1s2.2.7,2.4,2.1c0,1.5-.9,2.3-2,2.3s-1.5-.4-2.2-1.3l-.8-1.1,1.1.4c-1,.7-2,2.2-2.4,3.9l-2.1-.2v-1.7Z"/>
    <path d="M458.7,27.2c0,.6,0,1-.2,1.5h-11v-1.5h5.2c1.3,0,1.7-.5,1.7-1.8,0-1.8-.9-2.7-1.9-2.7s-2.2,1.3-2.2,5.3,1.7,5,3.8,5,2.5-.6,3.4-1.5l1,.9c-1.1,2.2-3.2,3.3-5.9,3.3-4.1,0-7-2.7-7-7.2s3.6-7.2,7.2-7.2,5.8,2.5,5.8,5.9Z"/>
    <path d="M466.4,18.4v-1.5h4.5v1.9h-.4l-4.1-.4ZM471.3,33.3l4.1.4v1.5h-9v-1.5l4.1-.4h.9ZM468.5,25.5c0-2.9,0-5.8,0-8.7h4.8c0,2.9,0,5.7,0,8.8v.9c0,3,0,5.9,0,8.8h-4.8c0-2.8,0-5.7,0-8.7v-1ZM470.9,25.2h3.3c2.8,0,3.6-1.6,3.6-3.4s-1.2-3.3-3.5-3.3h-3.5v-1.6h4.6c4.4,0,6.8,1.7,6.8,4.6s-1.6,4.3-6.6,4.6v-.3c4.4.1,5.6,1.6,6,4.6l.7,4.3-2.3-1.4,4.2.5v1.5c-1.3.3-1.8.4-3.1.4-2.4,0-3.8-.7-4.1-2.9l-.5-3.3c-.3-1.9-1-2.7-2.6-2.7h-3.2v-1.6Z"/>
    <path d="M490.7,27.4c1.2-.3,3.1-.9,4.5-1.2v1.2c-1.3.3-2.8.7-3.7,1.1-1.3.5-2.1,1.5-2.1,2.8s.7,2.1,1.7,2.1,1-.2,1.9-.9l1.1-.8.3.4-1.2,1.3c-1.4,1.4-2.2,2.3-4.3,2.3s-3.7-1.3-3.7-3.6,1.1-3.4,5.4-4.6ZM492.8,33v-7c0-2.5-.5-3.2-2.3-3.2s-1.4,0-2.6.4l1.9-1.1-.2,1.9c0,1.9-1,2.6-2.1,2.6s-1.7-.5-1.9-1.4c.1-2.3,2.4-3.9,6.4-3.9s5,1.5,5,5.3v6.3c0,.6.2.8.6.8s.5-.2.8-.6l.7.5c-.7,1.5-1.7,2.1-3.4,2.1s-3-1-3.2-2.7Z"/>
    <path d="M507.3,33.4c.5,0,1-.2,1.5-.6l.7.7c-.7,1.4-2.1,2.2-4.1,2.2s-4-1.1-4-3.9,0-1.7,0-2.8v-5.3h-1.8v-1.7l3.3-.4-1.6,1.1,1.8-4.9h2.9v5c0,0,0,8.6,0,8.6,0,1.3.6,1.9,1.4,1.9ZM508.8,21.7v1.9h-5.1v-1.9h5.1Z"/>
    <path d="M511.6,35.2c0-1.3,0-4.1,0-5.9v-1.3c0-1.5,0-2.4,0-3.5l-1.7-.3v-1.1l5.9-1.9.5.3v4.1c0,0,0,3.7,0,3.7,0,1.7,0,4.6,0,5.9h-4.6ZM517.6,33.9v1.3h-7.4v-1.3l2.6-.6h2.1l2.7.6ZM511.5,17c0-1.3,1.1-2.2,2.4-2.2s2.4.9,2.4,2.2-1.1,2.2-2.4,2.2-2.4-.9-2.4-2.2Z"/>
    <path d="M520.4,35.2c0-1.3,0-4.1,0-5.9v-1.6c0-1.5,0-2.1,0-3.2l-1.7-.3v-1.1l5.5-1.9.5.3.3,3.1v4.7c0,1.7,0,4.6,0,5.9h-4.6ZM526.3,33.9v1.3h-7.4v-1.3l2.6-.6h2.1l2.6.6ZM533.4,26.1v3.3c0,1.8,0,4.6,0,5.9h-4.6c0-1.3,0-4.1,0-5.9v-2.9c0-1.8-.5-2.4-1.6-2.4s-2.3.7-3.5,2.1h-1v-1.8h1.9l-1.1.8c2-2.8,3.6-3.7,5.6-3.7s4,1.6,4,4.8ZM532.1,33.4l2.7.6v1.3h-7.4v-1.3l2.5-.6h2.1Z"/>
    <path d="M546.5,37.8c0-.8-.5-1.6-2.1-1.6h-2.9c-1.2,0-2.3-.1-3-.4v-.2c-1.4-.4-2-1.3-2-2.4s1-2.8,2.8-4.1l.7.5c-.4.6-.6,1-.6,1.7s.4,1.1,1.6,1.1h3.3c4.3,0,5.8,1.7,5.8,4.1s-2.8,5.2-8.2,5.2-6-1.6-6-3.3,1-2.5,3.1-3.2l.4.2c-.6.8-.8,1.3-.8,2.2,0,1.7,1.2,2.4,3.7,2.4s4.2-.9,4.2-2.1ZM542.3,21.3c4,0,5.9,1.9,5.9,4.5s-1.9,4.5-5.9,4.5-5.9-1.9-5.9-4.5,1.9-4.5,5.9-4.5ZM540.4,25.8c0,2,.6,3.2,1.9,3.2s1.9-1.2,1.9-3.2-.7-3.1-1.9-3.1-1.9,1.2-1.9,3.2ZM549.9,21.2l.4.3v2.2h-4v-.9l3.6-1.5Z"/>
    <path d="M551.4,34.4v-3.4h2.3l.6,3.7-1.6-.5v-1.2c1.2.7,2.2,1.1,3.5,1.1s2.5-.5,2.5-1.7-.5-1.5-2.4-2l-1.5-.4c-2.2-.6-3.4-2.1-3.4-4.2s2.1-4.6,5.8-4.6,3,.4,4.4,1.1l-.2,3.1h-2.2l-.8-3.5,1.6.7v1c-1-.6-1.6-.9-2.9-.9s-2.1.6-2.1,1.6.4,1.3,2.3,1.9l1.4.4c2.7.8,3.7,2.3,3.7,4.3,0,3-2.4,4.7-6.3,4.7s-3.4-.4-4.9-1.3Z"/>
    <path d="M563.9,40.9l-.4-1.2c2.1-1.1,3.3-2.6,3.9-4.3l.7,1-1.9-1c-1.2-.6-1.6-1.5-1.6-2.3,0-1.4,1-2.4,2.5-2.4s1.4.2,2.1.8c.3.8.4,1.4.4,2.3,0,3.8-3.1,6.4-5.8,7.2Z"/>
    <path d="M20.2,52.4l-4.1-.4v-1.5h9v1.4l-4,.5h-1ZM17.1,50.5h5.1l4.7,14.2-.8.6,5-14.8h1.8l-6.4,18.5h-2.7l-6.6-18.5ZM31.2,52.4l-3-.5v-1.4h6.1v1.5l-2.7.4h-.4Z"/>
    <path d="M45.8,60.8c0,.6,0,1-.2,1.5h-11v-1.5h5.2c1.3,0,1.7-.5,1.7-1.8,0-1.8-.9-2.7-1.9-2.7s-2.2,1.3-2.2,5.3,1.7,5,3.8,5,2.5-.6,3.4-1.5l1,.9c-1.1,2.2-3.2,3.3-5.9,3.3-4.1,0-7-2.7-7-7.2s3.6-7.2,7.2-7.2,5.8,2.5,5.8,5.9Z"/>
    <path d="M49,63v-1.6c0-1.5,0-2.1,0-3.2l-1.7-.3v-1.1l5.5-1.9.5.3.3,3.4v4.3c0,1.7,0,4.6,0,5.9h-4.6c0-1.3,0-4.1,0-5.9ZM47.4,67.5l2.7-.6h2.9l2.7.6v1.3h-8.3v-1.3ZM51.3,59.3h2.1l-.4.8c.5-3.4,2.4-5.1,4.1-5.1s2.2.7,2.4,2.1c0,1.5-.9,2.3-2,2.3s-1.5-.4-2.2-1.3l-.8-1.1,1.1.4c-1,.7-2,2.2-2.4,3.9l-2.1-.2v-1.7Z"/>
    <path d="M62.6,57l-2.5-.4v-1.2h8v1.2l-2.5.5h-2.9ZM60.1,73.4c.2-1.2,1.2-1.8,2.3-1.8s1.7.2,2.4,1.3l.9,1.3-1.1.5-.9-.5c1.3-.8,2.5-2.3,3.1-4.2l1.5-4.2,3.7-10.4h1.8l-5.7,14.7c-1.4,3.6-2.6,5.5-5.2,5.5s-2.8-.9-2.9-2.1ZM67.2,70.6l-6.5-15.3h4.8l3.7,10.4-2.1,4.9ZM72,57l-2.3-.4v-1.2h5.3v1.2l-2.4.4h-.5Z"/>
    <path d="M82,52v-1.5h4.5v1.9h-.4l-4.1-.4ZM87.3,66.9l4.1.4v1.5h-9.4v-1.5l4.1-.4h1.3ZM84.1,59.1c0-2.9,0-5.8,0-8.7h4.9c0,2.8,0,5.7,0,8.7v.9c0,3,0,5.9,0,8.8h-4.9c0-2.8,0-5.7,0-8.7v-1ZM93.5,50.5l2,1.6h-9v-1.6h10l.2,4.8h-2.3l-.8-4.8ZM92.7,60.2h-6.2v-1.7h6.2v1.7ZM91.9,59l.4-2.7h1.6v6.3h-1.6l-.4-2.8v-.8Z"/>
    <path d="M109.6,60.8c0,.6,0,1-.2,1.5h-11v-1.5h5.2c1.3,0,1.7-.5,1.7-1.8,0-1.8-.9-2.7-1.9-2.7s-2.2,1.3-2.2,5.3,1.7,5,3.8,5,2.5-.6,3.4-1.5l1,.9c-1.1,2.2-3.2,3.3-5.9,3.3-4.1,0-7-2.7-7-7.2s3.6-7.2,7.2-7.2,5.8,2.5,5.8,5.9Z"/>
    <path d="M112.8,57l-2.7-.4v-1.2h7.4v1.2l-3.2.4h-1.5ZM123.7,55.3l3.2,9.8-.8-.3,3.1-9.5h2l-4.8,13.6h-2.1c-2.4-6.2-3.3-8.8-3.7-10.9l1.2-.2-3.9,11.1h-2.1l-5-13.6h4.6l3,9.8-.6-.3,3.2-9.5h2.7ZM118.8,56.6v-1.2h6.8v1.2l-2.7.4h-1.2l-3-.4ZM129.4,56.9l-2.3-.4v-1.2h5.1v1.2l-2.3.4h-.5Z"/>
    <path d="M144.7,61c1.2-.3,3.1-.9,4.5-1.2v1.2c-1.3.3-2.8.7-3.7,1.1-1.3.5-2.1,1.5-2.1,2.8s.7,2.1,1.7,2.1,1-.2,1.9-.9l1.1-.8.3.4-1.2,1.3c-1.4,1.4-2.2,2.3-4.3,2.3s-3.7-1.3-3.7-3.6,1.1-3.4,5.4-4.6ZM146.8,66.6v-7c0-2.5-.5-3.2-2.3-3.2s-1.4,0-2.6.4l1.9-1.1-.2,1.9c0,1.9-1,2.6-2.1,2.6s-1.7-.5-1.9-1.4c.1-2.3,2.4-3.9,6.4-3.9s5,1.5,5,5.3v6.3c0,.6.2.8.6.8s.5-.2.8-.6l.7.5c-.7,1.5-1.7,2.1-3.4,2.1s-3-1-3.2-2.7Z"/>
    <path d="M155.6,63v-1.6c0-1.5,0-2.1,0-3.2l-1.7-.3v-1.1l5.5-1.9.5.3.3,3.4v4.3c0,1.7,0,4.6,0,5.9h-4.6c0-1.3,0-4.1,0-5.9ZM154,67.5l2.7-.6h2.9l2.7.6v1.3h-8.3v-1.3ZM157.9,59.3h2.1l-.4.8c.5-3.4,2.4-5.1,4.1-5.1s2.2.7,2.4,2.1c0,1.5-.9,2.3-2,2.3s-1.5-.4-2.2-1.3l-.8-1.1,1.1.4c-1,.7-2,2.2-2.4,3.9l-2.1-.2v-1.7Z"/>
    <path d="M179.6,60.8c0,.6,0,1-.2,1.5h-11v-1.5h5.2c1.3,0,1.7-.5,1.7-1.8,0-1.8-.9-2.7-1.9-2.7s-2.2,1.3-2.2,5.3,1.7,5,3.8,5,2.5-.6,3.4-1.5l1,.9c-1.1,2.2-3.2,3.3-5.9,3.3-4.1,0-7-2.7-7-7.2s3.6-7.2,7.2-7.2,5.8,2.5,5.8,5.9Z"/>
    <path d="M187.3,52v-1.5h8.8v1.5l-4.1.4h-.8l-3.9-.4ZM192,66.9l4.1.4v1.5h-8.8v-1.5l3.9-.4h.8ZM189.4,59.1c0-2.9,0-5.8,0-8.7h4.9c0,2.8,0,5.7,0,8.7v.9c0,3.1,0,6,0,8.9h-4.9c0-2.8,0-5.7,0-8.7v-1ZM191.7,60.2v-1.6h10.7v1.6h-10.7ZM198,52v-1.5h8.8v1.5l-4,.4h-.8l-4-.4ZM202.8,66.9l4,.4v1.5h-8.8v-1.5l4-.4h.8ZM200,59.1c0-2.9,0-5.8,0-8.7h4.9c0,2.8,0,5.7,0,8.7v1c0,2.9,0,5.8,0,8.7h-4.9c0-2.8,0-5.7,0-8.9v-.9Z"/>
    <path d="M220.8,60.8c0,.6,0,1-.2,1.5h-11v-1.5h5.2c1.3,0,1.7-.5,1.7-1.8,0-1.8-.9-2.7-1.9-2.7s-2.2,1.3-2.2,5.3,1.7,5,3.8,5,2.5-.6,3.4-1.5l1,.9c-1.1,2.2-3.2,3.3-5.9,3.3-4.1,0-7-2.7-7-7.2s3.6-7.2,7.2-7.2,5.8,2.5,5.8,5.9Z"/>
    <path d="M227.6,48.5l.5.3v3.9c-.1,0-.1,10.3-.1,10.3,0,2,0,3.9,0,5.9h-4.6c0-2,0-3.9,0-5.9v-11.7l-1.7-.3v-1.2l5.9-1.3ZM229.5,67.5v1.3h-7.7v-1.3l2.7-.6h2.1l2.9.6Z"/>
    <path d="M232.2,61.4c0-1.5,0-2.1,0-3.2l-1.7-.3v-1.1l5.5-1.9.5.3.2,2.2v.4c.1,0,.1,8.8.1,8.8v.3c0,0,0,2,0,2,0,1.8,0,3.8,0,6.3h-4.5c0-2.5,0-4.5,0-6.3v-7.6ZM238.4,73.9v1.3h-7.8v-1.3l2.7-.6h2.7l2.4.6ZM238.6,57.3c-1.5,0-2.7,1.6-3.7,2.5l-.3-.5c1.6-3,3.5-4.5,5.9-4.5s5.5,2.5,5.5,7.1-2.8,7.3-6,7.3-4-1.4-5.2-4.3l.3-.5c1.2,1.5,2,2.5,3.4,2.5s2.9-1.5,2.9-4.8-1.1-4.8-2.8-4.8Z"/>
    <path d="M249.3,57.2h-1.8v-1.7l3.3-.4-1.5.8c.3-3.2,1.2-4.8,2.4-5.9,1.5-1.4,3.1-1.8,4.7-1.8s3,.5,3.3,2c0,1.1-.8,1.9-2,1.9s-1.7-.6-2.5-2l-.7-1,2.7-.6.3.8c-.2-.2-.6-.4-1-.4-1,0-1.7.8-2.1,1.4-.8,1.3-.9,3.3-.7,6.4v6.2c0,2,0,3.9,0,5.9h-4.6c0-2,0-3.9,0-5.9v-5.7ZM256,67.5v1.3h-8.3v-1.3l2.8-.6h2.9l2.6.6ZM256.7,55.3v1.9h-5.1v-1.9h5.1Z"/>
    <path d="M263.4,64.3c0,1.7.6,2.3,1.5,2.3s2.5-1.1,3.3-2.3h1.1v1.9h-1.8l.9-.8c-1.3,2.5-3.2,4-5.5,4s-4-1.3-4-5v-7.5c.1,0,1,.9,1,.9l-2.5-.6v-1.2l5.7-.8.4.3v4c-.1,0-.1,5-.1,5ZM267.6,69.2l-.2-3.3v-9.2c.1,0,1,.9,1,.9l-2.4-.6v-1.1l5.6-.9.4.3v4c0,0,0,9.3,0,9.3l-1.9-1.7,3.3.7v1.3l-5.7.3Z"/>
    <path d="M280.3,48.5l.5.3v3.9c-.1,0-.1,10.3-.1,10.3,0,2,0,3.9,0,5.9h-4.6c0-2,0-3.9,0-5.9v-11.7l-1.7-.3v-1.2l5.9-1.3ZM282.3,67.5v1.3h-7.7v-1.3l2.7-.6h2.1l2.9.6Z"/>
    <path d="M289.7,62c0-4.3,3.1-7.1,7.1-7.1s7.1,2.8,7.1,7.1-2.8,7.2-7.1,7.2-7.1-2.9-7.1-7.2ZM299.2,62.1c0-4-.8-5.7-2.4-5.7s-2.4,1.8-2.4,5.7.8,5.7,2.4,5.7,2.4-1.7,2.4-5.7Z"/>
    <path d="M307.1,63v-1.6c0-1.5,0-2.1,0-3.2l-1.7-.3v-1.1l5.5-1.9.5.3.3,3.4v4.3c0,1.7,0,4.6,0,5.9h-4.6c0-1.3,0-4.1,0-5.9ZM305.5,67.5l2.7-.6h2.9l2.7.6v1.3h-8.3v-1.3ZM309.5,59.3h2.1l-.4.8c.5-3.4,2.4-5.1,4.1-5.1s2.2.7,2.4,2.1c0,1.5-.9,2.3-2,2.3s-1.5-.4-2.2-1.3l-.8-1.1,1.1.4c-1,.7-2,2.2-2.4,3.9l-2.1-.2v-1.7Z"/>
    <path d="M324.6,52v-1.5h9.1v1.5l-4.2.4h-.8l-4.2-.4ZM335.3,66.8c2.5,0,4-1.7,4-5.9v-10.5h1.8v10.5c0,5.9-2.8,8.4-7.4,8.4s-7.1-2-7.1-7.5v-3c0-2.8,0-5.6,0-8.4h4.9c0,2.7,0,5.6,0,8.4v2.2c0,4.3,1.3,5.8,4,5.8ZM339.8,52.2l-3-.3v-1.5h6.7v1.5l-2.9.3h-.8Z"/>
    <path d="M345.6,68.8c0-1.3,0-4.1,0-5.9v-1.6c0-1.5,0-2.1,0-3.2l-1.7-.3v-1.1l5.5-1.9.5.3.3,3.1v4.7c0,1.7,0,4.6,0,5.9h-4.6ZM351.5,67.5v1.3h-7.4v-1.3l2.6-.6h2.1l2.6.6ZM358.6,59.7v3.3c0,1.8,0,4.6,0,5.9h-4.6c0-1.3,0-4.1,0-5.9v-2.9c0-1.8-.5-2.4-1.6-2.4s-2.3.7-3.5,2.1h-1v-1.8h1.9l-1.1.8c2-2.8,3.6-3.7,5.6-3.7s4,1.6,4,4.8ZM357.3,67l2.7.6v1.3h-7.4v-1.3l2.5-.6h2.1Z"/>
    <path d="M362.9,51.2l-1.7-.3v-1.2l5.8-1.3.5.3v3.9c-.1,0-.1,5.5-.1,5.5v.4c0,0,0,4.4,0,4.4,0,1.7,0,4.6,0,5.9h-4.6c0-1.3,0-4.1,0-5.9v-11.7ZM368.8,67.5v1.3h-7.4v-1.3l2.6-.6h2.1l2.6.6ZM375.9,59.7v3.3c0,1.8,0,4.6,0,5.9h-4.6c0-1.3,0-4.1,0-5.9v-2.9c0-1.8-.4-2.4-1.5-2.4s-2.2.9-3.4,2.3h-1v-2h1.8l-1.1.8c2-2.8,3.5-3.7,5.5-3.7s4.1,1.6,4.1,4.8ZM374.6,67l2.7.6v1.3h-7.4v-1.3l2.5-.6h2.1Z"/>
    <path d="M391.7,60.8c0,.6,0,1-.2,1.5h-11v-1.5h5.2c1.3,0,1.7-.5,1.7-1.8,0-1.8-.9-2.7-1.9-2.7s-2.2,1.3-2.2,5.3,1.7,5,3.8,5,2.5-.6,3.4-1.5l1,.9c-1.1,2.2-3.2,3.3-5.9,3.3-4.1,0-7-2.7-7-7.2s3.6-7.2,7.2-7.2,5.8,2.5,5.8,5.9Z"/>
    <path d="M398.5,48.5l.5.3v3.9c-.1,0-.1,10.3-.1,10.3,0,2,0,3.9,0,5.9h-4.6c0-2,0-3.9,0-5.9v-11.7l-1.7-.3v-1.2l5.9-1.3ZM400.4,67.5v1.3h-7.7v-1.3l2.7-.6h2.1l2.9.6Z"/>
    <path d="M403.1,61.4c0-1.5,0-2.1,0-3.2l-1.7-.3v-1.1l5.5-1.9.5.3.2,2.2v.4c.1,0,.1,8.8.1,8.8v.3c0,0,0,2,0,2,0,1.8,0,3.8,0,6.3h-4.5c0-2.5,0-4.5,0-6.3v-7.6ZM409.3,73.9v1.3h-7.8v-1.3l2.7-.6h2.7l2.4.6ZM409.5,57.3c-1.5,0-2.7,1.6-3.7,2.5l-.3-.5c1.6-3,3.5-4.5,5.9-4.5s5.5,2.5,5.5,7.1-2.8,7.3-6,7.3-4-1.4-5.2-4.3l.3-.5c1.2,1.5,2,2.5,3.4,2.5s2.9-1.5,2.9-4.8-1.1-4.8-2.8-4.8Z"/>
    <path d="M420.2,57.2h-1.8v-1.7l3.3-.4-1.5.8c.3-3.2,1.2-4.8,2.4-5.9,1.5-1.4,3.1-1.8,4.7-1.8s3,.5,3.3,2c0,1.1-.8,1.9-2,1.9s-1.7-.6-2.5-2l-.7-1,2.7-.6.3.8c-.2-.2-.6-.4-1-.4-1,0-1.7.8-2.1,1.4-.8,1.3-.9,3.3-.7,6.4v6.2c0,2,0,3.9,0,5.9h-4.6c0-2,0-3.9,0-5.9v-5.7ZM426.9,67.5v1.3h-8.3v-1.3l2.8-.6h2.9l2.6.6ZM427.6,55.3v1.9h-5.1v-1.9h5.1Z"/>
    <path d="M434.3,64.3c0,1.7.6,2.3,1.5,2.3s2.5-1.1,3.3-2.3h1.1v1.9h-1.8l.9-.8c-1.3,2.5-3.2,4-5.5,4s-4-1.3-4-5v-7.5c.1,0,1,.9,1,.9l-2.5-.6v-1.2l5.7-.8.4.3v4c-.1,0-.1,5-.1,5ZM438.5,69.2l-.2-3.3v-9.2c.1,0,1,.9,1,.9l-2.4-.6v-1.1l5.6-.9.4.3v4c0,0,0,9.3,0,9.3l-1.9-1.7,3.3.7v1.3l-5.7.3Z"/>
    <path d="M451.2,48.5l.5.3v3.9c-.1,0-.1,10.3-.1,10.3,0,2,0,3.9,0,5.9h-4.6c0-2,0-3.9,0-5.9v-11.7l-1.7-.3v-1.2l5.9-1.3ZM453.1,67.5v1.3h-7.7v-1.3l2.7-.6h2.1l2.9.6Z"/>
  </g>
  <g>
    <path d="M20.1,91.8h1.8l4.2,12.5h-1.7l-2.2-7c-.4-1.4-.8-2.8-1.2-4.2h0c-.4,1.4-.8,2.8-1.2,4.2l-2.2,7h-1.6l4.2-12.5ZM18.1,99.2h5.7v1.3h-5.7v-1.3Z"/>
    <path d="M27.8,95h1.3v1.3h.2c.9-.9,1.8-1.6,3.1-1.6,1.9,0,2.8,1.3,2.8,3.6v5.9h-1.6v-5.6c0-1.7-.5-2.5-1.7-2.5s-1.6.5-2.5,1.4v6.7h-1.6v-9.2Z"/>
    <path d="M41.4,101.9c0-2,1.7-3,5.7-3.4,0-1.2-.4-2.3-1.9-2.3s-2,.5-2.8,1l-.6-1.1c.8-.6,2.1-1.2,3.6-1.2,2.3,0,3.2,1.5,3.2,3.8v5.7h-1.3v-1.1h-.2c-.9.7-1.9,1.3-3.1,1.3s-2.7-1-2.7-2.6ZM47.1,102v-2.6c-3.1.4-4.1,1.1-4.1,2.3s.7,1.5,1.6,1.5,1.6-.4,2.5-1.2Z"/>
    <path d="M51.5,95h1.3v1.3h.2c.9-.9,1.8-1.6,3.1-1.6,1.9,0,2.8,1.3,2.8,3.6v5.9h-1.6v-5.6c0-1.7-.5-2.5-1.7-2.5s-1.6.5-2.5,1.4v6.7h-1.6v-9.2Z"/>
    <path d="M61.4,101.9c0-2,1.7-3,5.7-3.4,0-1.2-.4-2.3-1.9-2.3s-2,.5-2.8,1l-.6-1.1c.8-.6,2.1-1.2,3.6-1.2,2.3,0,3.2,1.5,3.2,3.8v5.7h-1.3v-1.1h-.2c-.9.7-1.9,1.3-3.1,1.3s-2.7-1-2.7-2.6ZM67,102v-2.6c-3.1.4-4.1,1.1-4.1,2.3s.7,1.5,1.6,1.5,1.6-.4,2.5-1.2Z"/>
    <path d="M71.5,102.4v-11.7h1.6v11.8c0,.5.2.7.4.7s.2,0,.3,0l.2,1.2c-.2,0-.5.1-.9.1-1.2,0-1.7-.7-1.7-2.1Z"/>
    <path d="M75.4,108.1l.3-1.2c.2,0,.5.1.7.1,1,0,1.7-.8,2.1-2l.2-.7-3.7-9.3h1.6l1.9,5.1c.3.8.6,1.7.9,2.6h0c.3-.8.5-1.8.8-2.6l1.6-5.1h1.5l-3.5,10c-.7,1.8-1.6,3.2-3.5,3.2s-.8,0-1.1-.2Z"/>
    <path d="M84.2,103.2l.8-1c.8.6,1.6,1.1,2.7,1.1s1.8-.6,1.8-1.4-1.1-1.4-2.1-1.8c-1.3-.5-2.8-1.1-2.8-2.7s1.2-2.6,3.2-2.6,2.2.5,2.9,1l-.7,1c-.6-.5-1.3-.8-2.1-.8-1.2,0-1.7.6-1.7,1.3s1,1.2,2,1.6c1.3.5,2.8,1,2.8,2.8s-1.2,2.7-3.4,2.7-2.6-.6-3.4-1.3Z"/>
    <path d="M92.9,92.1c0-.6.5-1,1.1-1s1.1.4,1.1,1-.5,1-1.1,1-1.1-.4-1.1-1ZM93.2,95h1.6v9.2h-1.6v-9.2Z"/>
    <path d="M96.8,103.2l.8-1c.8.6,1.6,1.1,2.7,1.1s1.8-.6,1.8-1.4-1.1-1.4-2.1-1.8c-1.3-.5-2.8-1.1-2.8-2.7s1.2-2.6,3.2-2.6,2.2.5,2.9,1l-.7,1c-.6-.5-1.3-.8-2.1-.8-1.2,0-1.7.6-1.7,1.3s1,1.2,2,1.6c1.3.5,2.8,1,2.8,2.8s-1.2,2.7-3.4,2.7-2.6-.6-3.4-1.3Z"/>
    <path d="M108.9,99.7c0-3.1,2-4.9,4.3-4.9s4.3,1.8,4.3,4.9-2,4.8-4.3,4.8-4.3-1.8-4.3-4.8ZM115.9,99.7c0-2.1-1.1-3.6-2.7-3.6s-2.7,1.4-2.7,3.6,1.1,3.5,2.7,3.5,2.7-1.4,2.7-3.5Z"/>
    <path d="M118.9,95.1h1.3c0,0,3.4,0,3.4,0v1.3h-4.8v-1.2ZM120.1,93.6c0-1.9.9-3.1,2.7-3.1s1.1.1,1.5.3l-.3,1.2c-.4-.2-.7-.2-1-.2-.9,0-1.3.6-1.3,1.8v10.7h-1.6v-10.7Z"/>
    <path d="M128.7,101.9c0-2,1.7-3,5.7-3.4,0-1.2-.4-2.3-1.9-2.3s-2,.5-2.8,1l-.6-1.1c.8-.6,2.1-1.2,3.6-1.2,2.3,0,3.2,1.5,3.2,3.8v5.7h-1.3v-1.1h-.2c-.9.7-1.9,1.3-3.1,1.3s-2.7-1-2.7-2.6ZM134.3,102v-2.6c-3.1.4-4.1,1.1-4.1,2.3s.7,1.5,1.6,1.5,1.6-.4,2.5-1.2Z"/>
    <path d="M138.8,102.4v-11.7h1.6v11.8c0,.5.2.7.4.7s.2,0,.3,0l.2,1.2c-.2,0-.5.1-.9.1-1.2,0-1.7-.7-1.7-2.1Z"/>
    <path d="M143.7,95h1.3v1.3h.2c.8-.9,1.8-1.6,2.9-1.6s2.2.7,2.5,1.8c1-1,1.9-1.8,3-1.8,1.9,0,2.8,1.3,2.8,3.6v5.9h-1.6v-5.6c0-1.7-.5-2.5-1.7-2.5s-1.5.5-2.3,1.4v6.7h-1.6v-5.6c0-1.7-.5-2.5-1.7-2.5s-1.5.5-2.3,1.4v6.7h-1.6v-9.2Z"/>
    <path d="M158.7,99.7c0-3.1,2-4.9,4.3-4.9s4.3,1.8,4.3,4.9-2,4.8-4.3,4.8-4.3-1.8-4.3-4.8ZM165.7,99.7c0-2.1-1.1-3.6-2.7-3.6s-2.7,1.4-2.7,3.6,1.1,3.5,2.7,3.5,2.7-1.4,2.7-3.5Z"/>
    <path d="M168.6,103.2l.8-1c.8.6,1.6,1.1,2.7,1.1s1.8-.6,1.8-1.4-1.1-1.4-2.1-1.8c-1.3-.5-2.8-1.1-2.8-2.7s1.2-2.6,3.2-2.6,2.2.5,2.9,1l-.7,1c-.6-.5-1.3-.8-2.1-.8-1.2,0-1.7.6-1.7,1.3s1,1.2,2,1.6c1.3.5,2.8,1,2.8,2.8s-1.2,2.7-3.4,2.7-2.6-.6-3.4-1.3Z"/>
    <path d="M177.5,101.4v-5.1h-1.4v-1.2h1.4c0,0,.2-2.7.2-2.7h1.3v2.6h2.5v1.3h-2.5v5.1c0,1.1.4,1.8,1.4,1.8s.8-.1,1.1-.2l.3,1.2c-.5.2-1.1.3-1.7.3-2,0-2.6-1.2-2.6-3.1Z"/>
    <path d="M186.7,103.4c3.6-3.6,5.7-5.8,5.7-7.8s-.8-2.4-2.3-2.4-1.9.6-2.6,1.5l-.9-.9c1-1.1,2.1-1.8,3.7-1.8,2.2,0,3.6,1.4,3.6,3.6s-2.1,4.5-4.9,7.5c.7,0,1.4-.1,2-.1h3.5v1.3h-7.8v-.9Z"/>
    <path d="M200.7,95h1.3v1.3h.2c.8-.9,1.8-1.6,2.9-1.6s2.2.7,2.5,1.8c1-1,1.9-1.8,3-1.8,1.9,0,2.8,1.3,2.8,3.6v5.9h-1.6v-5.6c0-1.7-.5-2.5-1.7-2.5s-1.5.5-2.3,1.4v6.7h-1.6v-5.6c0-1.7-.5-2.5-1.7-2.5s-1.5.5-2.3,1.4v6.7h-1.6v-9.2Z"/>
    <path d="M216.2,92.1c0-.6.5-1,1.1-1s1.1.4,1.1,1-.5,1-1.1,1-1.1-.4-1.1-1ZM216.5,95h1.6v9.2h-1.6v-9.2Z"/>
    <path d="M221.1,102.4v-11.7h1.6v11.8c0,.5.2.7.4.7s.2,0,.3,0l.2,1.2c-.2,0-.5.1-.9.1-1.2,0-1.7-.7-1.7-2.1Z"/>
    <path d="M226,102.4v-11.7h1.6v11.8c0,.5.2.7.4.7s.2,0,.3,0l.2,1.2c-.2,0-.5.1-.9.1-1.2,0-1.7-.7-1.7-2.1Z"/>
    <path d="M230.5,92.1c0-.6.5-1,1.1-1s1.1.4,1.1,1-.5,1-1.1,1-1.1-.4-1.1-1ZM230.8,95h1.6v9.2h-1.6v-9.2Z"/>
    <path d="M234.8,99.7c0-3.1,2-4.9,4.3-4.9s4.3,1.8,4.3,4.9-2,4.8-4.3,4.8-4.3-1.8-4.3-4.8ZM241.8,99.7c0-2.1-1.1-3.6-2.7-3.6s-2.7,1.4-2.7,3.6,1.1,3.5,2.7,3.5,2.7-1.4,2.7-3.5Z"/>
    <path d="M245.8,95h1.3v1.3h.2c.9-.9,1.8-1.6,3.1-1.6,1.9,0,2.8,1.3,2.8,3.6v5.9h-1.6v-5.6c0-1.7-.5-2.5-1.7-2.5s-1.6.5-2.5,1.4v6.7h-1.6v-9.2Z"/>
    <path d="M259.4,98.1c0-4,2.4-6.5,5.5-6.5s2.7.7,3.4,1.5l-.9,1c-.7-.7-1.5-1.2-2.5-1.2-2.4,0-3.9,1.9-3.9,5s1.5,5.1,3.9,5.1,2.1-.5,2.9-1.4l.9,1c-1,1.1-2.2,1.8-3.8,1.8-3.1,0-5.4-2.4-5.4-6.5Z"/>
    <path d="M270.1,99.7c0-3.1,2-4.9,4.3-4.9s4.3,1.8,4.3,4.9-2,4.8-4.3,4.8-4.3-1.8-4.3-4.8ZM277.1,99.7c0-2.1-1.1-3.6-2.7-3.6s-2.7,1.4-2.7,3.6,1.1,3.5,2.7,3.5,2.7-1.4,2.7-3.5Z"/>
    <path d="M281.1,95h1.3v1.3h.2c.8-.9,1.8-1.6,2.9-1.6s2.2.7,2.5,1.8c1-1,1.9-1.8,3-1.8,1.9,0,2.8,1.3,2.8,3.6v5.9h-1.6v-5.6c0-1.7-.5-2.5-1.7-2.5s-1.5.5-2.3,1.4v6.7h-1.6v-5.6c0-1.7-.5-2.5-1.7-2.5s-1.5.5-2.3,1.4v6.7h-1.6v-9.2Z"/>
    <path d="M296.9,95h1.3v1.3h.2c.8-.9,1.8-1.6,2.9-1.6s2.2.7,2.5,1.8c1-1,1.9-1.8,3-1.8,1.9,0,2.8,1.3,2.8,3.6v5.9h-1.6v-5.6c0-1.7-.5-2.5-1.7-2.5s-1.5.5-2.3,1.4v6.7h-1.6v-5.6c0-1.7-.5-2.5-1.7-2.5s-1.5.5-2.3,1.4v6.7h-1.6v-9.2Z"/>
    <path d="M312.5,100.9v-5.9h1.6v5.6c0,1.7.5,2.5,1.7,2.5s1.6-.5,2.5-1.6v-6.5h1.6v9.2h-1.3v-1.4h-.2c-.9,1-1.8,1.7-3,1.7-1.9,0-2.8-1.3-2.8-3.6Z"/>
    <path d="M323,95h1.3v1.3h.2c.9-.9,1.8-1.6,3.1-1.6,1.9,0,2.8,1.3,2.8,3.6v5.9h-1.6v-5.6c0-1.7-.5-2.5-1.7-2.5s-1.6.5-2.5,1.4v6.7h-1.6v-9.2Z"/>
    <path d="M333.1,92.1c0-.6.5-1,1.1-1s1.1.4,1.1,1-.5,1-1.1,1-1.1-.4-1.1-1ZM333.4,95h1.6v9.2h-1.6v-9.2Z"/>
    <path d="M338.3,101.4v-5.1h-1.4v-1.2h1.4c0,0,.2-2.7.2-2.7h1.3v2.6h2.5v1.3h-2.5v5.1c0,1.1.4,1.8,1.4,1.8s.8-.1,1.1-.2l.3,1.2c-.5.2-1.1.3-1.7.3-2,0-2.6-1.2-2.6-3.1Z"/>
    <path d="M343.5,108.1l.3-1.2c.2,0,.5.1.7.1,1,0,1.7-.8,2.1-2l.2-.7-3.7-9.3h1.6l1.9,5.1c.3.8.6,1.7.9,2.6h0c.3-.8.5-1.8.8-2.6l1.6-5.1h1.5l-3.5,10c-.7,1.8-1.6,3.2-3.5,3.2s-.8,0-1.1-.2Z"/>
    <path d="M357.3,91.8h1.6l4.5,7.8,1.3,2.6h0c0-1.3-.2-2.7-.2-4v-6.5h1.5v12.5h-1.6l-4.5-7.8-1.3-2.6h0c0,1.3.2,2.6.2,3.9v6.5h-1.5v-12.5Z"/>
    <path d="M368.7,99.7c0-3.1,2-4.9,4.3-4.9s4.3,1.8,4.3,4.9-2,4.8-4.3,4.8-4.3-1.8-4.3-4.8ZM375.7,99.7c0-2.1-1.1-3.6-2.7-3.6s-2.7,1.4-2.7,3.6,1.1,3.5,2.7,3.5,2.7-1.4,2.7-3.5Z"/>
    <path d="M379.7,101.4v-5.1h-1.4v-1.2h1.4c0,0,.2-2.7.2-2.7h1.3v2.6h2.5v1.3h-2.5v5.1c0,1.1.4,1.8,1.4,1.8s.8-.1,1.1-.2l.3,1.2c-.5.2-1.1.3-1.7.3-2,0-2.6-1.2-2.6-3.1Z"/>
    <path d="M384.9,99.7c0-3,2-4.9,4.2-4.9s3.7,1.7,3.7,4.3,0,.7,0,.9h-6.2c.1,2,1.3,3.2,3.1,3.2s1.6-.3,2.3-.7l.6,1c-.8.5-1.8,1-3,1-2.5,0-4.4-1.8-4.4-4.8ZM391.3,98.9c0-1.9-.8-2.9-2.3-2.9s-2.5,1-2.6,2.9h4.9Z"/>
    <path d="M394,103.2l.8-1c.8.6,1.6,1.1,2.7,1.1s1.8-.6,1.8-1.4-1.1-1.4-2.1-1.8c-1.3-.5-2.8-1.1-2.8-2.7s1.2-2.6,3.2-2.6,2.2.5,2.9,1l-.7,1c-.6-.5-1.3-.8-2.1-.8-1.2,0-1.7.6-1.7,1.3s1,1.2,2,1.6c1.3.5,2.8,1,2.8,2.8s-1.2,2.7-3.4,2.7-2.6-.6-3.4-1.3Z"/>
    <path d="M406.2,101.9c0-2,1.7-3,5.7-3.4,0-1.2-.4-2.3-1.9-2.3s-2,.5-2.8,1l-.6-1.1c.8-.6,2.1-1.2,3.6-1.2,2.3,0,3.2,1.5,3.2,3.8v5.7h-1.3v-1.1h-.2c-.9.7-1.9,1.3-3.1,1.3s-2.7-1-2.7-2.6ZM411.8,102v-2.6c-3.1.4-4.1,1.1-4.1,2.3s.7,1.5,1.6,1.5,1.6-.4,2.5-1.2Z"/>
    <path d="M416.3,95h1.3v1.3h.2c.9-.9,1.8-1.6,3.1-1.6,1.9,0,2.8,1.3,2.8,3.6v5.9h-1.6v-5.6c0-1.7-.5-2.5-1.7-2.5s-1.6.5-2.5,1.4v6.7h-1.6v-9.2Z"/>
    <path d="M426.1,99.7c0-3,1.9-4.9,4-4.9s1.8.4,2.6,1.1v-1.6c0,0,0-3.6,0-3.6h1.6v13.5h-1.3v-1.1h-.2c-.7.7-1.7,1.3-2.8,1.3-2.3,0-3.8-1.8-3.8-4.8ZM432.6,101.9v-4.8c-.8-.7-1.5-1-2.3-1-1.5,0-2.7,1.4-2.7,3.5s.9,3.5,2.5,3.5,1.6-.4,2.4-1.3Z"/>
    <path d="M441.3,101.4v-5.1h-1.4v-1.2h1.4c0,0,.2-2.7.2-2.7h1.3v2.6h2.5v1.3h-2.5v5.1c0,1.1.4,1.8,1.4,1.8s.8-.1,1.1-.2l.3,1.2c-.5.2-1.1.3-1.7.3-2,0-2.6-1.2-2.6-3.1Z"/>
    <path d="M447.5,90.7h1.6v5.6c.8-.8,1.7-1.5,3-1.5,1.9,0,2.8,1.3,2.8,3.6v5.9h-1.6v-5.6c0-1.7-.5-2.5-1.7-2.5s-1.6.5-2.5,1.4v6.7h-1.6v-13.5Z"/>
    <path d="M457.1,99.7c0-3,2-4.9,4.2-4.9s3.7,1.7,3.7,4.3,0,.7,0,.9h-6.2c.1,2,1.3,3.2,3.1,3.2s1.6-.3,2.3-.7l.6,1c-.8.5-1.8,1-3,1-2.5,0-4.4-1.8-4.4-4.8ZM463.6,98.9c0-1.9-.8-2.9-2.3-2.9s-2.5,1-2.6,2.9h4.9Z"/>
    <path d="M16.4,126l.8-1c.8.6,1.6,1.1,2.7,1.1s1.8-.6,1.8-1.4-1.1-1.4-2.1-1.8c-1.3-.5-2.8-1.1-2.8-2.7s1.2-2.6,3.2-2.6,2.2.5,2.9,1l-.7,1c-.6-.5-1.3-.8-2.1-.8-1.2,0-1.7.6-1.7,1.3s1,1.2,2,1.6c1.3.5,2.8,1,2.8,2.8s-1.2,2.7-3.4,2.7-2.6-.6-3.4-1.3Z"/>
    <path d="M25.3,124.2v-5.1h-1.4v-1.2h1.4c0,0,.2-2.7.2-2.7h1.3v2.6h2.5v1.3h-2.5v5.1c0,1.1.4,1.8,1.4,1.8s.8-.1,1.1-.2l.3,1.2c-.5.2-1.1.3-1.7.3-2,0-2.6-1.2-2.6-3.1Z"/>
    <path d="M30.5,124.7c0-2,1.7-3,5.7-3.4,0-1.2-.4-2.3-1.9-2.3s-2,.5-2.8,1l-.6-1.1c.8-.6,2.1-1.2,3.6-1.2,2.3,0,3.2,1.5,3.2,3.8v5.7h-1.3v-1.1h-.2c-.9.7-1.9,1.3-3.1,1.3s-2.7-1-2.7-2.6ZM36.1,124.8v-2.6c-3.1.4-4.1,1.1-4.1,2.3s.7,1.5,1.6,1.5,1.6-.4,2.5-1.2Z"/>
    <path d="M40.6,124.2v-5.1h-1.4v-1.2h1.4c0,0,.2-2.7.2-2.7h1.3v2.6h2.5v1.3h-2.5v5.1c0,1.1.4,1.8,1.4,1.8s.8-.1,1.1-.2l.3,1.2c-.5.2-1.1.3-1.7.3-2,0-2.6-1.2-2.6-3.1Z"/>
    <path d="M46.6,123.7v-5.9h1.6v5.6c0,1.7.5,2.5,1.7,2.5s1.6-.5,2.5-1.6v-6.5h1.6v9.2h-1.3v-1.4h-.2c-.9,1-1.8,1.7-3,1.7-1.9,0-2.8-1.3-2.8-3.6Z"/>
    <path d="M56.1,126l.8-1c.8.6,1.6,1.1,2.7,1.1s1.8-.6,1.8-1.4-1.1-1.4-2.1-1.8c-1.3-.5-2.8-1.1-2.8-2.7s1.2-2.6,3.2-2.6,2.2.5,2.9,1l-.7,1c-.6-.5-1.3-.8-2.1-.8-1.2,0-1.7.6-1.7,1.3s1,1.2,2,1.6c1.3.5,2.8,1,2.8,2.8s-1.2,2.7-3.4,2.7-2.6-.6-3.4-1.3Z"/>
    <path d="M68.2,122.5c0-3.1,2-4.9,4.3-4.9s4.3,1.8,4.3,4.9-2,4.8-4.3,4.8-4.3-1.8-4.3-4.8ZM75.1,122.5c0-2.1-1.1-3.6-2.7-3.6s-2.7,1.4-2.7,3.6,1.1,3.5,2.7,3.5,2.7-1.4,2.7-3.5Z"/>
    <path d="M78.1,117.9h1.3c0,0,3.4,0,3.4,0v1.3h-4.8v-1.2ZM79.4,116.4c0-1.9.9-3.1,2.7-3.1s1.1.1,1.5.3l-.3,1.2c-.4-.2-.7-.2-1-.2-.9,0-1.3.6-1.3,1.8v10.7h-1.6v-10.7Z"/>
    <path d="M88.5,113.5h1.6v5.6c.8-.8,1.7-1.5,3-1.5,1.9,0,2.8,1.3,2.8,3.6v5.9h-1.6v-5.6c0-1.7-.5-2.5-1.7-2.5s-1.6.5-2.5,1.4v6.7h-1.6v-13.5Z"/>
    <path d="M98.1,122.5c0-3,2-4.9,4.2-4.9s3.7,1.7,3.7,4.3,0,.7,0,.9h-6.2c.1,2,1.3,3.2,3.1,3.2s1.6-.3,2.3-.7l.6,1c-.8.5-1.8,1-3,1-2.5,0-4.4-1.8-4.4-4.8ZM104.6,121.7c0-1.9-.8-2.9-2.3-2.9s-2.5,1-2.6,2.9h4.9Z"/>
    <path d="M108.2,125.2v-11.7h1.6v11.8c0,.5.2.7.4.7s.2,0,.3,0l.2,1.2c-.2,0-.5.1-.9.1-1.2,0-1.7-.7-1.7-2.1Z"/>
    <path d="M113.1,117.8h1.3v1.1h.2c.8-.7,1.9-1.3,2.9-1.3,2.4,0,3.7,1.9,3.7,4.7s-1.9,5-4,5-1.7-.4-2.6-1.1v1.6s0,3.1,0,3.1h-1.6v-13.1ZM119.5,122.3c0-2-.7-3.4-2.4-3.4s-1.6.4-2.5,1.3v4.8c.8.7,1.6,1,2.2,1,1.5,0,2.7-1.4,2.7-3.7Z"/>
    <path d="M122.6,117.9h1.3c0,0,3.4,0,3.4,0v1.3h-4.8v-1.2ZM123.8,116.4c0-1.9.9-3.1,2.7-3.1s1.1.1,1.5.3l-.3,1.2c-.4-.2-.7-.2-1-.2-.9,0-1.3.6-1.3,1.8v10.7h-1.6v-10.7Z"/>
    <path d="M129,123.7v-5.9h1.6v5.6c0,1.7.5,2.5,1.7,2.5s1.6-.5,2.5-1.6v-6.5h1.6v9.2h-1.3v-1.4h-.2c-.9,1-1.8,1.7-3,1.7-1.9,0-2.8-1.3-2.8-3.6Z"/>
    <path d="M139.5,125.2v-11.7h1.6v11.8c0,.5.2.7.4.7s.2,0,.3,0l.2,1.2c-.2,0-.5.1-.9.1-1.2,0-1.7-.7-1.7-2.1Z"/>
    <path d="M144.3,117.8h1.3v1.3h.2c.9-.9,1.8-1.6,3.1-1.6,1.9,0,2.8,1.3,2.8,3.6v5.9h-1.6v-5.6c0-1.7-.5-2.5-1.7-2.5s-1.6.5-2.5,1.4v6.7h-1.6v-9.2Z"/>
    <path d="M154,122.5c0-3,2-4.9,4.2-4.9s3.7,1.7,3.7,4.3,0,.7,0,.9h-6.2c.1,2,1.3,3.2,3.1,3.2s1.6-.3,2.3-.7l.6,1c-.8.5-1.8,1-3,1-2.5,0-4.4-1.8-4.4-4.8ZM160.5,121.7c0-1.9-.8-2.9-2.3-2.9s-2.5,1-2.6,2.9h4.9Z"/>
    <path d="M163.1,126l.8-1c.8.6,1.6,1.1,2.7,1.1s1.8-.6,1.8-1.4-1.1-1.4-2.1-1.8c-1.3-.5-2.8-1.1-2.8-2.7s1.2-2.6,3.2-2.6,2.2.5,2.9,1l-.7,1c-.6-.5-1.3-.8-2.1-.8-1.2,0-1.7.6-1.7,1.3s1,1.2,2,1.6c1.3.5,2.8,1,2.8,2.8s-1.2,2.7-3.4,2.7-2.6-.6-3.4-1.3Z"/>
    <path d="M171.1,126l.8-1c.8.6,1.6,1.1,2.7,1.1s1.8-.6,1.8-1.4-1.1-1.4-2.1-1.8c-1.3-.5-2.8-1.1-2.8-2.7s1.2-2.6,3.2-2.6,2.2.5,2.9,1l-.7,1c-.6-.5-1.3-.8-2.1-.8-1.2,0-1.7.6-1.7,1.3s1,1.2,2,1.6c1.3.5,2.8,1,2.8,2.8s-1.2,2.7-3.4,2.7-2.6-.6-3.4-1.3Z"/>
  </g>
  <path class="st104" d="M17.5,168.9h21.3v-21.3h-21.3v21.3Z"/>
  <g>
    <path d="M52.7,160.2h2.8v-8.9h-2.2v-1c1.1-.2,1.9-.5,2.6-.9h1.2v10.8h2.5v1.3h-6.8v-1.3Z"/>
    <path d="M65,160.4l.8-1c.8.6,1.6,1.1,2.7,1.1s1.8-.6,1.8-1.4-1.1-1.4-2.1-1.8c-1.3-.5-2.8-1.1-2.8-2.7s1.2-2.6,3.2-2.6,2.2.5,2.9,1l-.7,1c-.6-.5-1.3-.8-2.1-.8-1.2,0-1.7.6-1.7,1.3s1,1.2,2,1.6c1.3.5,2.8,1,2.8,2.8s-1.2,2.7-3.4,2.7-2.6-.6-3.4-1.3Z"/>
    <path d="M79.8,162.1v-1.7c-.7.7-1.6,1.3-2.7,1.3-2.3,0-3.8-1.8-3.8-4.8s1.9-4.9,4-4.9,1.8.4,2.6,1.1h0v-.9h1.4v13.1h-1.6v-3.3ZM79.8,159.1v-4.8c-.8-.7-1.5-1-2.3-1-1.5,0-2.7,1.4-2.7,3.5s.9,3.5,2.5,3.5,1.6-.4,2.4-1.3Z"/>
    <path d="M84.4,158.1v-5.9h1.6v5.6c0,1.7.5,2.5,1.7,2.5s1.6-.5,2.5-1.6v-6.5h1.6v9.2h-1.3v-1.4h-.2c-.9,1-1.8,1.7-3,1.7-1.9,0-2.8-1.3-2.8-3.6Z"/>
    <path d="M94.3,159.1c0-2,1.7-3,5.7-3.4,0-1.2-.4-2.3-1.9-2.3s-2,.5-2.8,1l-.6-1.1c.8-.6,2.1-1.2,3.6-1.2,2.3,0,3.2,1.5,3.2,3.8v5.7h-1.3v-1.1h-.2c-.9.7-1.9,1.3-3.1,1.3s-2.7-1-2.7-2.6ZM100,159.2v-2.6c-3.1.4-4.1,1.1-4.1,2.3s.7,1.5,1.6,1.5,1.6-.4,2.5-1.2Z"/>
    <path d="M104.4,152.3h1.3v1.7h.2c.6-1.2,1.6-1.9,2.6-1.9s.7,0,1,.2l-.3,1.4c-.3,0-.5-.2-.9-.2-.8,0-1.7.6-2.3,2.1v5.9h-1.6v-9.2Z"/>
    <path d="M110.2,156.9c0-3,2-4.9,4.2-4.9s3.7,1.7,3.7,4.3,0,.7,0,.9h-6.2c.1,2,1.3,3.2,3.1,3.2s1.6-.3,2.3-.7l.6,1c-.8.5-1.8,1-3,1-2.5,0-4.4-1.8-4.4-4.8ZM116.6,156.1c0-1.9-.8-2.9-2.3-2.9s-2.5,1-2.6,2.9h4.9Z"/>
    <path d="M123.1,152.6h8.2v1.2h-8.2v-1.2ZM123.1,156.7h8.2v1.2h-8.2v-1.2Z"/>
    <path d="M137.2,160.2h2.8v-8.9h-2.2v-1c1.1-.2,1.9-.5,2.6-.9h1.2v10.8h2.5v1.3h-6.8v-1.3Z"/>
    <path d="M146,155.4c0-4.1,1.5-6.2,3.9-6.2s3.9,2.2,3.9,6.2-1.5,6.3-3.9,6.3-3.9-2.3-3.9-6.3ZM152.3,155.4c0-3.6-1-5-2.4-5s-2.4,1.4-2.4,5,1,5.1,2.4,5.1,2.4-1.5,2.4-5.1Z"/>
    <path d="M155.5,163.8c1.1-.5,1.7-1.3,1.7-2.4l-.2-1.4.8,1.1c-.2.3-.5.3-.8.3-.6,0-1.1-.4-1.1-1.1s.5-1.1,1.2-1.1,1.3.7,1.3,1.8c0,1.6-1,2.9-2.5,3.6l-.4-.9Z"/>
    <path d="M160.2,155.4c0-4.1,1.5-6.2,3.9-6.2s3.9,2.2,3.9,6.2-1.5,6.3-3.9,6.3-3.9-2.3-3.9-6.3ZM166.5,155.4c0-3.6-1-5-2.4-5s-2.4,1.4-2.4,5,1,5.1,2.4,5.1,2.4-1.5,2.4-5.1Z"/>
    <path d="M169.6,155.4c0-4.1,1.5-6.2,3.9-6.2s3.9,2.2,3.9,6.2-1.5,6.3-3.9,6.3-3.9-2.3-3.9-6.3ZM175.9,155.4c0-3.6-1-5-2.4-5s-2.4,1.4-2.4,5,1,5.1,2.4,5.1,2.4-1.5,2.4-5.1Z"/>
    <path d="M179.1,155.4c0-4.1,1.5-6.2,3.9-6.2s3.9,2.2,3.9,6.2-1.5,6.3-3.9,6.3-3.9-2.3-3.9-6.3ZM185.3,155.4c0-3.6-1-5-2.4-5s-2.4,1.4-2.4,5,1,5.1,2.4,5.1,2.4-1.5,2.4-5.1Z"/>
    <path d="M193,152.3h1.3v1.3h.2c.9-.9,1.8-1.6,3.1-1.6,1.9,0,2.8,1.3,2.8,3.6v5.9h-1.6v-5.6c0-1.7-.5-2.5-1.7-2.5s-1.6.5-2.5,1.4v6.7h-1.6v-9.2Z"/>
    <path d="M202.8,156.9c0-3.1,2-4.9,4.3-4.9s4.3,1.8,4.3,4.9-2,4.8-4.3,4.8-4.3-1.8-4.3-4.8ZM209.7,156.9c0-2.1-1.1-3.6-2.7-3.6s-2.7,1.4-2.7,3.6,1.1,3.5,2.7,3.5,2.7-1.4,2.7-3.5Z"/>
    <path d="M213.7,158.6v-5.1h-1.4v-1.2h1.4c0,0,.2-2.7.2-2.7h1.3v2.6h2.5v1.3h-2.5v5.1c0,1.1.4,1.8,1.4,1.8s.8-.1,1.1-.2l.3,1.2c-.5.2-1.1.3-1.7.3-2,0-2.6-1.2-2.6-3.1Z"/>
    <path d="M218.9,156.9c0-3,2-4.9,4.2-4.9s3.7,1.7,3.7,4.3,0,.7,0,.9h-6.2c.1,2,1.3,3.2,3.1,3.2s1.6-.3,2.3-.7l.6,1c-.8.5-1.8,1-3,1-2.5,0-4.4-1.8-4.4-4.8ZM225.3,156.1c0-1.9-.8-2.9-2.3-2.9s-2.5,1-2.6,2.9h4.9Z"/>
    <path d="M228,160.4l.8-1c.8.6,1.6,1.1,2.7,1.1s1.8-.6,1.8-1.4-1.1-1.4-2.1-1.8c-1.3-.5-2.8-1.1-2.8-2.7s1.2-2.6,3.2-2.6,2.2.5,2.9,1l-.7,1c-.6-.5-1.3-.8-2.1-.8-1.2,0-1.7.6-1.7,1.3s1,1.2,2,1.6c1.3.5,2.8,1,2.8,2.8s-1.2,2.7-3.4,2.7-2.6-.6-3.4-1.3Z"/>
  </g>
</svg>